<svg xmlns="http://www.w3.org/2000/svg" viewBox="0 0 822 975.9"><defs><style>.cls-1{fill:red;}</style></defs><title>Apple Red</title><g id="Layer_2" data-name="Layer 2"><g id="Layer_1-2" data-name="Layer 1"><g id="Layer_2-2" data-name="Layer 2"><g id="Layer_1-2-2" data-name="Layer 1-2"><path class="cls-1" d="M795.54,329a22.13,22.13,0,0,0-1.06-2q-1.75-2.43-3.56-4.83c-30-39.65-69.4-65.64-117-79.29-30.25-8.68-61.07-13.76-92.73-11.1-22.68,1.91-44.68,7.22-66.21,14.36-25.57,8.49-51,17.3-76.49,26.14-12.78,4.44-25.55,5.8-38.62,1.42-3.94-1.32-8-2.2-12-3.55-23-7.88-45.83-16.07-68.87-23.73-31.3-10.4-63.1-15.77-96.32-10.88q-97,14.26-158.42,90.16C24.46,375,5.72,432.63,1.17,495.25-2.52,546,2.68,596.07,14.62,645.44c20.8,86,57.31,164.41,111.91,234.26,19.64,25.13,39.85,49.64,65.26,69.31,28.78,22.29,60.72,32.85,96.8,23.46,21-5.47,41.68-12.65,62-20.27,50.06-18.72,100.14-21.38,150.83-2.8,19,7,38.1,14,57.54,19.72,29,8.49,57.89,7.59,85.79-5.45A157.4,157.4,0,0,0,693,928.49c47.53-50.55,86-107.21,113-171.27,5.8-13.72,10.81-27.79,16-41.18-78-38.77-128.2-97-134.5-186C681.17,440.85,720,375,795.54,329ZM615.5,0c-2.14.14-3.61.22-5.08.35-21.28,1.83-41.55,7.58-61,16.19C473.2,50.25,427,107.78,412.56,190.14a118.88,118.88,0,0,0-.17,40.36,142.17,142.17,0,0,0,43.4-3.18c31-7.24,57.35-23,80.63-44.1,40.72-36.94,69.67-80.79,78.09-136.29C616.84,31.56,616.83,16.11,615.5,0Z"/></g></g></g></g></svg>