<svg xmlns="http://www.w3.org/2000/svg" viewBox="0 0 200.04 200.04"><defs><style>.cls-1{fill:#fff;}</style></defs><title>facebook</title><g id="Layer_2" data-name="Layer 2"><g id="Layer_1-2" data-name="Layer 1"><path class="cls-1" d="M174.32,28.74V58.9c-6,0-11.69-.06-17.33,0-4.25.06-7.94,1.74-8.3,6.27-.51,6.51-.13,13.09-.13,20H175l-3.28,29.61H148.3V200c8,0,15.6,0,23.24,0,16.87-.08,28.46-11.7,28.47-28.66q.06-71.73,0-143.47C200,12,188,0,172.27,0q-72,0-144,0C11.72,0,0,11.76,0,28.37Q0,100.1,0,171.84C0,188.24,12,200,28.47,200h84.26v-85.5H96.22V84.79H113c0-7.66-.14-14.82,0-22,.4-17.39,9.17-29.79,24.76-32.22C149.7,28.75,161.95,29.28,174.32,28.74Z"/></g></g></svg>