<?xml version="1.0" encoding="utf-8"?>
<!-- Generator: Adobe Illustrator 21.1.0, SVG Export Plug-In . SVG Version: 6.00 Build 0)  -->
<svg version="1.1" id="Layer_1" xmlns="http://www.w3.org/2000/svg" xmlns:xlink="http://www.w3.org/1999/xlink" x="0px" y="0px"
	 viewBox="0 0 945.7 920.5" style="enable-background:new 0 0 945.7 920.5;" xml:space="preserve">
<style type="text/css">
	.st0{fill:#14CC61;}
</style>
<title>Instagram Mobile</title>
<g id="Layer_2">
	<g id="Layer_1-2">
		<path class="st0" d="M468.6,262.6c7.4,44.6-29.2,92.5-76,89.6c-50.7-3.2-96.8-40.9-119-85.2c-16.7-33.2-22.8-84.9,17.2-104.2
			c13.8-6.7,25.5-17,43.8-2.1c14,11.4,17,25.3,6.8,33.3c-15.8,12.4-46.6,31.7-35.5,52.2s33,43.2,56,50.2
			c16.8,5.2,42.4-5.3,52.4-19.4c7.4-10.4,4.2-27.7-8.6-32.6c-13.6-5.1-21.6,9.6-30.5,17.7c-6.5,5.9-13.9,11.6-22.6,9
			c-3.7-1.2-7.1-3.5-9.6-6.5c-8.3-9.5-8.7-23.4-3.5-34.7c28.2-61.7,79-46,115.1,0C461.2,238.2,467,252.6,468.6,262.6z"/>
		<path class="st0" d="M117.1,452.6c5.1-6.4,9.8-13,13.3-21.5c3.2-7.7,4.5-16.7,7.9-24.1c5.5-12.2,19.8-15.5,31.5-8.4
			c18.2,11,24.8,22.9,22.3,40.1c-0.3,1.8-0.6,3.6-0.8,5.5c-3.1,21.3-0.6,26.5,19.2,36.8c18.7,9.7,37.2,19,52.6,37
			c17.5,20.6,22.8,43.2,13.2,59.7c-5.1,8.7-13,11.8-23.2,9.3c-16.6-4.1-32.3-11-45.7-27c-8.9-10.6-19.1-19.8-28-30.3
			c-9.5-11.3-18.3-12.5-28.1-8.3c-18.1,7.6-30.9,2.4-41-15.9c-5.3-9.6-7.2-20.8-5.3-31.6c0.8-4.8,2.8-9.4,5.8-13.2
			C112.9,457.9,115,455.2,117.1,452.6z"/>
		<path class="st0" d="M165.8,865.6c12.5,7.4,22.1,19.9,21.8,34.2c-0.4,11.8-10.3,21-22.1,20.6c-0.4,0-0.8,0-1.2-0.1
			c-7-0.6-14.7-1.8-21.7-5c-33.9-15.4-67.4-20.1-101.1-27.7c-7.9-1.9-15.5-4.5-22.9-7.9C7.3,874.7,1,865.1,0.1,853.1
			c-0.9-11.3,5.6-20.5,17.1-19.8c12.9,0.9,26.5,4.3,39.8,6.8c21.3,4.1,42.6,8.2,63.9,12.6c10.2,2.1,20.4,4.5,30.6,7
			C156.5,861,161.4,863,165.8,865.6z"/>
		<path class="st0" d="M935.5,75.6c-5.7-25.4-13.6-48.8-33.5-63.5c-14.3-10.6-26-9.8-35,4.2c-4.8,7.4-7.9,16.8-11.9,25.5
			c-2.3-4.2-4.4-9.5-7.5-13.5c-6.4-8.2-12.7-18.2-20.3-22.9c-7.5-4.5-18.2-7.4-24.5-3.9c-15.4,8.5-25,24.8-24.9,48.9
			c0,28.3,0.3,56.6-0.4,84.7c-0.6,21.5,3.6,41.8,13.5,60.8c2.8,5.4,8.3,11.1,12.9,12.5c15.5,4.7,24.5,0.6,30.1-23.9
			c0.7-2.9-1.6-58.4-0.9-60.7c3.9,7,17.7,68.9,22,75.1c7.9,11.4,17.3,11.7,23.2,1c2.5-4.6,4-10.4,5.6-15.9c1.7-5.8,6.6-52.6,8-58.6
			c2.6,4.9,3.2,48.8,4,53.1c0.9,4.7,2,9.4,3.3,14.1c7.2,23.3,36.5,19.9,43.1,3.4c5.3-13.2,2.8-36.9,2.3-52.6
			C944,120.7,940.5,97.9,935.5,75.6z"/>
		<path class="st0" d="M586.4,183.8c-5.2-3-10.4-6-13.3-7.7c-0.7-13.9,0.5-25.1-2.1-35.7c-6.5-26.4-19.5-48.2-40-63.3
			c-14-10.3-27.8-15.1-41.6-8.2c-8.9,4.4-17.7,9.1-25.8,15c-10.1,7.4-15.7,22.7-12.5,38.3c1.5,7.6,2.6,15.6,5.3,22.8
			c17.8,47.5,35.8,95,54,142.3c4.2,10.9,13.8,17,22.9,16.6c9.4-0.4,18.7-9.9,19-21.8c0.3-10.5-1.3-21.6-2.8-32.4
			c-1.2-8.7-3.5-17.4-5.8-28.2c6.7,7.2,11.9,12.9,17.3,18.4c8.5,8.7,17.5,16.4,28.3,17.9c13.3,1.9,22-6.6,23-22.5
			C613.8,215,602.8,193.1,586.4,183.8z M524.9,170c-4.7,1.9-15-8.1-19.3-13.5c-17.6-21.8,1.8-28.1,16-9.9
			C529.9,157.2,531.2,167.5,524.9,170z"/>
		<path class="st0" d="M309.4,353.4c-26.7-16.1-54-30.1-81-45.3c-14.2-8-25.5-5.1-36,1.6c-28.8,18.3-30.5,39-4.9,75.6
			c23.2,33.2,46.9,66,71.1,98.4c8.3,11,17.8,21.1,28.3,30c12.6,10.8,29.4,10.4,38.3,1.4c9.4-9.6,9.8-22.7,0.6-40
			c-4.8-9-10.6-17.5-15.8-26.3c-3.2-5.5-6.1-11.1-10.3-18.8c5,2.4,7.7,4,10.4,5c9.1,3.6,18.3,8.2,27.4,10.2
			c14.2,3.1,23.3-4.6,29-16.1c5.5-10.9,43.8-22.8,36.6-34.2c-2-3.2-4-7-6.6-9.1C382.4,374.6,324.4,362.4,309.4,353.4z M268.7,395.2
			c-1.6,3-4.4,10.5-8.7,9.5c-2.1-0.5-3.9-2.6-5.4-4.6c-6.2-8.1-14.8-17.1-19.3-26c2.9-0.8,5.6,0.6,8.7,2.4
			C253,381.6,261.3,387.8,268.7,395.2L268.7,395.2z"/>
		<path class="st0" d="M738.2,121c-15.9-27.8-33.4-54.4-50.1-81.7C679.3,25,667.6,20,654.7,18.2c-35.4-5-47.5,8.4-43.1,49.8
			c4,37.5,8.7,75.1,14,112.7c2,13.2,5.5,26,10.3,38.4c5.9,15.3,21.3,25.5,33.9,24.6c13.4-0.9,20.5-9.8,20.9-27.6
			c0.2-9.2-0.6-18.8-0.8-28.1c-0.1-5.8,0.2-11.5,0.3-19.5c3.3,4.8,4.9,7.5,6.9,10c6.4,8.1,12.4,17,19.6,24
			c11.2,10.9,23.4,11.1,34.5,6.7c10.5-4.2,11.5-16.1,10.8-28.4c-0.2-3.5,0-7.3-1.4-10.5C753.4,153.7,747,136.6,738.2,121z
			 M679.9,123.6l-14.3,5.5l-2.8-32C673.9,103.2,675.1,113.9,679.9,123.6L679.9,123.6z"/>
		<path class="st0" d="M34.8,669.3c-21.8,2-20.3,35.2,2.8,44.5c12,4.8,24.5,7,36.6,10.3c7.7,2.1,21.6,3.5,28.4,10.5
			c-20,5-95.6-2-79.5,39.2c6.1,15.6,17.4,24.3,29.5,29.8c26.4,11.9,53.4,22.3,80.9,31.3c14.7,4.8,52,28,57.8,6.7
			c2.3-8.6,2.3-28.9-4.1-35.3c-8.6-8.5-47.7-16.2-57.9-25c11.8-6.3,59.4-8,61.6-23.6c2.4-16.9-3.4-28.5-19-36.1
			c-22.3-10.9-45.9-22.2-68.8-33C80.7,677.9,57,667.3,34.8,669.3z"/>
		<path class="st0" d="M174.5,573.5c-7.4,0.6-14.2,3.2-20.6,6.5c-8.4,4.3-13.6,17.9-26.2,10.2c-0.9-0.5-1.6-1.2-2.1-2.1
			c-0.2-0.6-0.3-1.2-0.2-1.8c0.6-8.5,7.7-12.2,9.9-19.5c2.2-7.2-2.3-16.9-7.5-23.4c-6.6-8.3-14-10.7-21.7-8.1
			C79.2,544,58.9,574,72.2,610.9c9,25,31.3,45.6,53.4,54c18.3,6.9,32-10.4,43.9-19.3c3.2-2.4,7.2-4.7,11.4-2.2
			c2.7,1.9,4.5,4.9,4.8,8.2c0.3,2.9-0.5,5.8-2.1,8.1c-2.9,4.2-7.6,6.4-11.7,9.2s-7.9,6.9-8,12.8c0,10,9.9,19.9,18,24
			c9.7,4.8,18.9,2,26.5-2c24.6-13,37.5-57,16.2-95.9c-7.9-14.4-18.6-23.2-30.4-30.5C188.1,574.3,181.3,572.9,174.5,573.5z"/>
	</g>
</g>
</svg>
