<svg xmlns="http://www.w3.org/2000/svg" viewBox="0 0 1797.1 432.69"><defs><style>.cls-1{fill:#fff;}</style></defs><title>instagrammer</title><g id="Layer_2" data-name="Layer 2"><g id="Layer_1-2" data-name="Layer 1"><g id="Layer_2-2" data-name="Layer 2"><g id="Layer_1-2-2" data-name="Layer 1-2"><g id="_2dVz9k" data-name=" 2dVz9k"><path class="cls-1" d="M1205.64,432.62c-2.57-2.56-6.21-2.24-9.32-3.33-24.93-8.76-35.18-32.21-24.14-56.12a96.43,96.43,0,0,1,22.92-30.7c13.32-12.21,26.54-24.52,40-36.61,5.18-4.67,2.2-9.8,2.54-16.62-6.72,5.91-11.29,11.43-17.32,15.38-22.24,14.54-46.37,9.8-60.2-12.77-3.67-6-4.68-3.65-7.12.4-10.27,17.06-24.06,23.36-40.07,18.37-11.14-3.47-18.16-11.3-22.51-21.86-.84-2-.82-4.52-3.53-6.35-11.49,18.67-26.87,31.38-50.3,29.67-24.83-1.81-33.61-20.53-41.23-41.56-2.64,5.33-4.63,9.45-6.72,13.51a69.73,69.73,0,0,1-14.79,19.22C958.63,317.32,937.74,315,925.73,298c-7.94-11.23-10.86-24.16-12.93-37.4-.21-1.31-.4-2.64-.72-3.92-.09-.37-.62-.63-1.46-1.43-5,9.92-10.09,19.58-16.77,28.33-23.74,31.08-61,35.39-91.4,24.62-6.2-2.2-13.29-5-13.63-12.53-.37-8,4.43-14.5,11-19.16,3.78-2.68,7.78-1.8,11.45.5,3.82,2.39,7.37,5.24,11.27,7.47,13.64,7.78,26.75.65,28.08-15,.72-8.61-2.4-15.93-7.11-22.77-7.14-10.36-16.91-18.12-26.11-26.46-3.54-3.22-4,.25-5.16,2.09C801.49,240.11,790.9,258,780,275.68c-7.36,12-16.22,22.76-27.79,31a33.35,33.35,0,0,1-11.56,5.47c-11.69,2.85-20.41-1.47-25.2-12.57-4.57-10.6-5.41-21.91-5.73-33.18-.79-27.8,1.32-55.53,3-83.26.12-2,1.32-4.57-.79-5.63-2.35-1.18-3.86,1.21-5.27,2.85-13.77,16-23,34.52-30,54.17-8.32,23.18-15.55,46.68-18.18,71.33-.33,3.1-1.52,5.32-4.94,6.4-16.21,5.13-27.68-1.79-29-18.58-1.78-21.87-.65-43.82-.58-65.74.07-23.5.64-47,1-70.48.12-8.3.63-8.84,9-8.51a36.93,36.93,0,0,1,7.36.95c14.68,3.63,15.41,4.51,15.23,19.63-.22,18.75-.59,37.5-.93,56.24,0,1.63-.09,3.18,1.7,4.34,4.26-11.39,8.11-22.9,12.86-34,6-14.13,12.73-28,24.46-38.61,17.91-16.23,36.7-7.92,49.93,6,3.75,4,3,9.71,2.78,14.94-1.23,25.49-2.9,51-2.4,76.52a155,155,0,0,0,1.47,17.54c.41,3.06,1.13,6.74,4.72,7.59,3.08.73,5.53-1.58,7.56-3.73,7.82-8.28,13.45-18.1,19.07-27.89,7.41-12.93,14.56-26,22-38.89,1.76-3,1.43-5-.64-7.8-8.85-11.8-8.79-26.42-.21-39.16,8.79-13.06,24.37-19.73,38-16.21,6.13,1.58,9.54,5.21,9.75,12,.38,12.42-5.74,22.18-12.84,31.26-4,5.17-4.68,7.81,1.47,11.78a303.44,303.44,0,0,1,26.56,19.83c14.67,11.93,25.13,26.11,22,46.47.77.15,1.4.45,1.58.27,14.78-14.52,25.46-31.2,25.81-52.65.37-22.37-.1-44.75.25-67.12.09-5.93-2.11-7.33-7.48-7.24-8.8.15-17.62-.39-26.43-.51-5-.06-7.66-2.16-7.07-7.43a51.4,51.4,0,0,1,.91-7.36c2.66-10.11,3.5-10.7,13.79-10.56q9.82.15,19.65.43c8.59.23,8.89,0,9-8.35.2-11.52.07-23,1.33-34.52.75-6.88,3.24-9.23,10.14-8.62,7.93.7,15.39,3.34,22.83,6,4.17,1.51,5,4.52,4.8,8.57-.59,10.82-.46,21.71-1.57,32.47-.59,5.75,1.68,6.41,6.27,6.58,12,.42,23.91,1.2,35.86,1.81,4.53.23,8.64.59,8.44,6.93-.27,8.62-3.78,14.53-9.45,14.69q-18.29.53-36.58.84c-3.3.05-5.51.38-5.65,4.65-1.23,37-3.73,74-2.22,111.08a64.3,64.3,0,0,0,3.48,17.88c4.7,14,13.49,15.82,23,4.37,11.54-13.94,18.32-29.86,18.63-48.31.36-21,3.73-41.31,14.21-60,11.51-20.48,32-30.57,51.86-25.46,8.75,2.25,15.08,7.8,20.64,14.41,2.23-.54,2.1-2.25,2.21-3.74.29-4.26,3.33-5.83,6.81-6.29a31.52,31.52,0,0,1,8.76.32c16.75,2.55,18.81,5,18.54,21.6-.45,27.55-2.48,55.08-1.27,82.65.4,9,.83,18,3.95,26.69,3.93,10.91,13.6,13.28,21.46,4.74a32.91,32.91,0,0,0,9-26c-2.46-27.75-1.32-55.12,9.7-81.24,5.27-12.5,12.4-23.67,25-30.13,16.82-8.64,34.66-5.24,47.38,8.82.74.82,1.25,1.89,2.56,1.94,5.27-10.41,9.46-11.82,23.57-7.93,11.06,3,12.3,4.57,12.14,15.73q-.64,46.09-1.35,92.18c0,2.18-1,5.36,1.31,6.19s3.43-2.32,4.62-4a229.91,229.91,0,0,0,31.2-65.81c1.49-5.11,1-9-2.6-13.48-12.18-14.85-4.4-37.47,13.81-41.32,14.28-3,22.79,4.24,21.15,18.73-.66,5.77.91,6.7,6.1,5.61,9-1.91,18.17-3.46,27.29-4.94,17.62-2.86,26.22,6.44,22.29,24-4.09,18.29-8.54,36.5-9.65,55.31a117.28,117.28,0,0,0,2.71,33,35.18,35.18,0,0,0,5.51,12.29c5.33,7.68,13.68,8.65,20.21,2,7-7.07,10.31-15.22,8.6-25.73-5.17-31.77-2.11-62.45,13.53-91.29,10.47-19.31,30.3-29,50.31-24.2,8.3,2,14.14,7.65,20.11,13.54,3.18-3.31,3.41-9.3,9.66-9.38,8.55-.1,16.62,1.25,24,5.88,3.2,2,3.28,5.18,3.19,8.36q-.93,32.17-1.93,64.34a261.61,261.61,0,0,0,2.33,46,8.44,8.44,0,0,0,.2,1.34c2,6.21,3.1,13.4,10.93,14.92,8.19,1.59,12.46-4.4,15.81-10.35,6.7-11.9,11.4-24.42,11.3-38.51-.19-26.44.1-52.89.22-79.33,0-2.93.36-5.86.39-8.8.06-5.62,3.34-7,8.11-6.11,5.77,1.05,11.47,2.45,17.24,3.48,5.44,1,7.45,4.13,7.38,9.51-.18,14.92-.09,29.83-.09,44.75,0,1.1.21,2.19.36,3.67,3.46-1.13,3.47-4.14,4.29-6.49,5.43-15.55,9.9-31.45,17.65-46.12,4.68-8.85,7.68-10.31,17.43-8.44a43.5,43.5,0,0,1,13.37,4.51c7.21,4,10.7,9.87,10.68,18.19,0,20.79.79,41.55,2.75,62.26.1,1.05.36,2.09.55,3.14,2.32-.51,2.27-2.19,2.55-3.75,4.52-25,12.25-49,21.71-72.49,4.69-11.66,9.23-14.1,21.44-11.24a61.69,61.69,0,0,1,16.25,6.6c6.21,3.51,8.9,8.66,8.84,16.13-.22,28.21-3.42,56.42-.51,84.65,1,9.66,1.85,19.44,7.6,27.76,6.14,8.89,14.38,8.51,19.62-.94,4.2-7.58,5.92-16,8-24.36,1.78-7.3,3.38-8.28,10.89-6.74v24.41c-4.21,5-4.4,11.59-7.26,17.16-10,19.48-34,24.1-50.36,9.49-8.41-7.52-13.1-17.2-15.65-27.93-5.64-23.75-5.32-47.92-4.63-72.11.13-4.7,1.52-9.59-1.06-14.33-.68.57-1.13.79-1.32,1.15-.85,1.59-1.7,3.19-2.41,4.84-13,29.91-20.87,61-21.42,93.73-.1,6.16-2.28,8.94-8.06,10.29-11,2.57-21.52-2.7-26.28-13.73-2.34-5.44-3.2-11.25-4.11-17-3.73-23.46-4.67-47.16-5.64-70.84-.1-2.44.08-5.85-2.53-6.5-2.83-.71-3.66,2.73-4.69,4.79a204.39,204.39,0,0,0-19.6,64.46c-1.76,13-1.43,26.15-1.83,39.24-.3,9.74-3,12.18-12.71,12.72a55,55,0,0,1-19.35-2.73c-4.46-1.37-6.74-4-6.8-8.83,0-2.79,1-5.94-2.6-9.27-7.21,15-18.62,23.3-35.69,20.47-16.54-2.74-25-14.23-30.09-30.64-10.28,16.74-22.58,28.46-41.42,30.89-19.7,2.54-33.61-6.59-43.73-23.43-1.18,2.23-1.68,3.24-2.23,4.22-12.92,22.9-38.94,26.49-57.45,7.81-12.33-12.45-16.4-28.21-17.31-45.09-1.11-20.46,1.5-40.56,6-60.46,1.84-8.08,1.7-8.26-6.9-8.12-4.29.07-8.6.52-12.87.24s-5.89,1.53-7.25,5.28a321.6,321.6,0,0,1-58.42,100.78,10.6,10.6,0,0,0-2.61,7.94c.65,26.85,2.51,53.75-3.32,80.35-3.43,15.65-9.9,29.33-22.73,39.69-7.4,6-16.34,8-24.77,11.47ZM1507.05,220.1c.17-11-.66-23.23-5.39-35-6.52-16.24-26.18-17.38-35.07-4.26a53.83,53.83,0,0,0-7,13.81c-6.57,20.6-6.91,41.69-4.79,62.92.92,9.23,3.17,18.23,8.59,26,6.11,8.77,14.06,9.88,22.62,3.54a35.54,35.54,0,0,0,10.23-12.39C1505,258,1507.12,240,1507.05,220.1Zm-425.84,2.59c.19-12.9-.29-25.67-5.51-37.82-6.83-15.9-26.12-17.53-35.56-3.3a61.79,61.79,0,0,0-7.85,17.86c-4.85,17.41-5.11,35.23-3.91,53,.72,10.76,2.47,21.58,9,30.78,6.65,9.43,15.44,10.5,24.2,2.94,5.77-5,9.41-11.46,12.18-18.45,5.69-14.44,7.64-29.55,7.45-45Zm154.52-2.41c-.17-12.7-.67-24.4-4.85-35.62-5.87-15.75-23.93-15.65-31.8-6.45a52.89,52.89,0,0,0-9.33,16.35c-7.2,19.45-8.17,39.68-6.84,60.06.68,10.43,3.57,20.44,9.76,29.14,6.59,9.25,15.86,10.1,24.33,2.43,5.52-5,8.8-11.38,11.32-18.21,5.79-15.7,7.06-32.09,7.41-47.7Zm3.7,131c0-6.22.09-10.74,0-15.24-.05-1.64,1-3.83-1.23-4.8s-3.82.48-5.22,2c-7.67,8.55-15.95,16.64-22.87,25.76-8.82,11.63-17.29,23.66-16.7,39.57.52,14.24,13.51,22.11,26.11,15.36,8.18-4.38,11.93-12.06,14.44-20.36a140.1,140.1,0,0,0,5.47-42.33Z"/><path class="cls-1" d="M302.43,0c9.4,3,19.11,4.74,28.29,8.59,48.1,20.19,78.61,65.56,78.7,117.78s.1,104.38,0,156.58c-.11,52.91-33.53,100.87-83.06,119a118.62,118.62,0,0,1-41,7.53c-54.45,0-108.93,1.08-163.35-.35-47.6-1.25-83.11-24.75-107.16-65.78-7.52-12.77-11-26.9-14.85-40.92V105.78c1.41-.84,1.08-2.33,1.35-3.6,8.48-39.55,30.32-69.1,65.88-88.59C79.39,6.93,92.68,3.81,105.78,0ZM203,372.82c26.89,0,53.78.08,80.68,0,48.77-.18,88.93-40,89.13-88.76q.32-79.66,0-159.32c-.19-48.1-39.53-88.4-87.72-89q-80.33-.93-160.67,0c-49.36.54-88.64,40.77-88.8,90.11q-.25,77.29.08,154.57c0,16.42,3,32.34,11.52,46.65,17.44,29.12,43.1,44.9,77.18,45.61C150.63,373.24,176.84,372.8,203,372.82Z"/><path class="cls-1" d="M592.29,178.41c0,31.41.33,62.82-.13,94.22C591.92,289,589,305,580.53,319.47c-6,10.12-13.46,18.79-25.2,22.35-7.37,2.23-10.12-.1-7.53-7.08,8.64-23.25,8.12-47.37,8.22-71.57.23-56.26.83-112.51,1.2-168.77,0-2.56,1.41-6.19-1.49-7.44-3.18-1.37-5.26,1.94-7.08,4.09-22.9,27.11-32.2,57.94-25,93.13,1.28,6.29,4.51,11.74,7.94,17.1,1.77,2.77,4.59,5.82,1.88,9.18-3.08,3.81-7.19,1.68-10.64.41-21.38-7.87-35.91-31.63-32.62-54.61,5.59-39,26.78-67.82,59.81-88.21,12.07-7.45,27.76-5.59,38.78,3.2,3.34,2.66,4.08,6.12,4.07,10.21-.09,32.31,0,64.63,0,96.94Z"/><path class="cls-1" d="M204.31,312.23c-59.15,0-107.72-48.48-107.77-107.63-.05-59.41,48.26-108,107.42-108s107.82,47.88,108.16,106.6C312.48,263.32,264.14,312.2,204.31,312.23ZM274.06,205a70,70,0,0,0-69-70.55c-38.46-.44-70.33,31.07-70.57,69.77C134.25,242,165.81,273.85,203.6,274,242.24,274.24,273.87,243.27,274.06,205Z"/><path class="cls-1" d="M284.8,90.82c0-12.57,9.64-22,22.43-21.9C319.12,69,329.4,79,329.41,90.64c0,11.86-10.48,22.54-22.34,22.74C295.41,113.58,284.79,102.81,284.8,90.82Z"/></g></g></g></g></g></svg>