<?xml version="1.0" encoding="utf-8"?>
<!-- Generator: Adobe Illustrator 21.1.0, SVG Export Plug-In . SVG Version: 6.00 Build 0)  -->
<svg version="1.1" id="Layer_1" xmlns="http://www.w3.org/2000/svg" xmlns:xlink="http://www.w3.org/1999/xlink" x="0px" y="0px"
	 viewBox="0 0 463.9 368.8" style="enable-background:new 0 0 463.9 368.8;" xml:space="preserve">
<style type="text/css">
	.st0{fill:#14CC61;}
</style>
<title>Instagram</title>
<g id="Layer_2">
	<g id="Desktop">
		<path class="st0" d="M60.5,346C32,358,3.7,338.2,0.4,305.9c-2.2-21.2,4.5-40.4,13.3-58.9c7.9-16.4,18.4-30.4,33.2-40.1
			c9.7-6.4,28.4-4,37.4,4.5s11.1,21.3,6.1,34.6c-3.8,10.2-12.8,13.4-21.5,7.6c-3.9-2.6-7.7-5.6-11.4-8.6c-5.1-4.1-9.6-3.9-14.3,1.1
			C32,258,27.2,281,32.9,296.7c2.3,6.3,9.2,10.9,14.6,9.5s7.2-5.5,6.4-10.8c-0.4-2.6-2.1-5.1-3.7-7.3c-1.3-1.8-3.5-2.9-5-4.6
			c-3.6-4-7.9-8-5.3-14.3c2.2-5.9,7.6-9.9,13.8-10.2c25.6-2.3,44,23.4,35.1,49C82.9,324.7,74.2,339,60.5,346z"/>
		<path class="st0" d="M302.2,68.2c6.3,1.3,12.8,1.7,19.2,1.3c6.1-0.5,12.1-2.6,18.2-2.9c9.9-0.3,18.5,6.8,20.1,16.5
			c2.1,14.6-1.8,22.4-13.2,26.3c-1.2,0.4-2.5,0.8-3.7,1.2c-14.2,4.9-16.1,8-12.7,23.4c3.2,14.5,6.5,28.7,3.1,43.8
			c-3.9,17.2-14.9,27.6-29.3,27c-7.7-0.4-13.3-4.2-16.7-11.2c-5.5-11.4-9-23.2-5.8-36.4c2.1-8.8,2.7-17.9,4.7-26.7
			c2.2-9.4-1.3-15.1-8.5-19.8c-13.2-8.6-15-17.5-10.2-30.1c3-7.8,2.9-10.6,16.3-13.3c3.5-0.7,7.1-1.3,10.7-0.7
			C297,67.2,299.6,67.7,302.2,68.2z"/>
		<path class="st0" d="M36.3,165.7c-4.6,7.9-12.7,12.6-22.2,9.5C6.3,172.7-0.4,163,0,153.8c0.2-5.1,0.9-10.6,2.9-15.2
			c9.5-22.3,11.9-46.3,16.2-69.9c1-5.3,2.6-10.5,4.7-15.5c3.1-7.5,9.3-10.3,17.3-8.6c7.5,1.6,13.7,8.2,13.4,16.7
			c-0.3,9.5-2.3,18.9-3.7,28.3c-2.2,15.1-4.5,30.2-7,45.2c-1.2,7.2-2.6,14.3-4,21.5C39.2,159.6,38,162.8,36.3,165.7z"/>
		<path class="st0" d="M39.7,33.2C31,27.6,28.5,16.1,34,7.4c4.8-7.8,15.3-9.8,23.2-4.4c8.4,5.8,10.4,17.2,4.6,26.8
			C56.8,38.1,48.6,39.3,39.7,33.2z"/>
		<path class="st0" d="M430.9,238.7c-6.6-14.7-14.6-27.5-30.4-31.9c-11.5-3.2-19.8,0.2-25.1,11.3c-2.8,5.9-4.2,12.6-6.2,19.1
			c-2.1-2.1-4.1-4.9-6.8-6.7c-5.5-3.6-11-8.4-17-9.5s-14-0.2-18.2,3.6c-10.4,9.2-15.8,21.8-13.4,37c2.7,17.9,5.7,35.7,7.8,53.6
			c1.6,13.7,6.6,25.5,15.7,35.1c2.6,2.7,7.1,5,10.6,4.7c11.7-0.9,17.9-5.7,19.6-22.5c0.2-2-6.8-36.6-6.5-38.2
			c3.5,3.5,19.5,39.2,23.2,42c6.9,5.2,13.7,3.2,17-5.1c1.4-3.5,1.9-7.6,2.5-11.4c0.7-4.1-0.2-34.9,0.2-39c2.3,2.5,7,30.1,8,32.6
			c1.1,2.8,2.3,5.5,3.8,8.1c7.5,13,28.5,3.6,31.7-8.4c2.6-9.7-1.5-24-3.4-33.9C441.2,265.2,436.8,251.6,430.9,238.7z"/>
		<path class="st0" d="M183.9,313.9c-2.5-3.6-4.9-7.2-6.3-9.2c4.6-7.9,9.6-13.6,11.7-20.4c5.2-16.9,4.3-33.7-4.2-49.7
			c-5.8-10.9-13.6-18.6-25.6-20c-7.8-1-15.6-1.5-23.4-1.3c-9.7,0.3-16.5,5.9-20.1,15.7c-1.8,4.8-3.9,9.5-4.7,14.5
			c-5.3,32.8-10.3,65.5-15.2,98.4c-1,7.4,3,14.5,9.7,17.6c6.6,3.2,13.9,2.2,18.5-4.2c4.1-5.7,7.1-12.3,10-18.8
			c2.4-5.2,4-10.9,6.4-17.6c2,6.5,3.5,11.5,5.1,16.6c2.7,8,6,15.5,12.9,20.4c8.5,6,17.6,4.6,24.1-3.8
			C191.3,340.9,191.7,325.6,183.9,313.9z M147.8,284.1c-3.8-1.3-5.3-10.8-5.4-15.3c-0.3-18.5,14.6-12.6,14.6,2.7
			C157,280.3,152.9,285.8,147.8,284.1z"/>
		<path class="st0" d="M462.5,133.2c-3.2-21.4-7.9-42.5-11.9-63.8c-2.1-11.2-9.2-17.2-18.2-21.5c-24.8-11.8-37.9-6.2-47.5,21
			c-8.7,24.7-16.9,49.5-24.6,74.6c-2.6,8.7-4.1,17.7-4.3,26.8c-0.4,11.1,7.9,21.3,17.6,23.8c10.2,2.7,18.2-1.2,24.1-12.3
			c3-5.8,5.4-12,8.1-18c1.7-3.7,3.7-7.2,6.3-12.3c0.9,3.8,1.3,5.9,2,8c2.2,6.7,3.9,13.8,7.1,20c5,9.6,13.9,12.7,23.5,12.6
			c9.1-0.1,13.5-7.4,16.9-15.4c0.9-2.2,2.3-4.6,2.2-6.9C463.7,157.6,464.3,145.2,462.5,133.2z M418,121.7c-2.5,0-8.4,0.7-9.9-2.3
			c-0.7-1.4-0.3-3.2,0.2-4.8c1.9-6.4,3.1-14.5,6.3-20c1.9,1.5,2.4,3.6,2.8,6.1C418.6,107.6,418.8,114.7,418,121.7z"/>
		<path class="st0" d="M303.5,301.5c-4.7-20.5-11-40.5-16.4-60.8c-2.9-10.7-10.2-15.8-19.3-19.2c-24.9-9.2-37.3-2.7-44.4,24.6
			c-6.5,24.7-12.5,49.5-18.1,74.5c-1.8,8.7-2.5,17.5-2.1,26.4c0.5,10.8,9.3,19.9,18.9,21.5c10.1,1.7,17.6-2.8,22.4-14.1
			c2.5-5.9,4.3-12.1,6.5-18.1c1.4-3.7,3-7.3,5.1-12.5c1.2,3.6,1.7,5.6,2.6,7.5c2.7,6.3,4.9,13,8.4,18.7c5.5,8.9,14.5,11.1,23.8,10.1
			c8.9-0.9,12.5-8.4,15.2-16.4c0.7-2.2,1.8-4.7,1.6-6.9C306.5,325.1,306.1,313,303.5,301.5z M259.7,293.3l-11.9,1.1l6-20.9
			C260.5,279.2,258.6,286.2,259.7,293.3L259.7,293.3z"/>
		<path class="st0" d="M160.1,75.7c-4.2-16.8-26.6-17.6-30-0.4c-1.7,9-1.6,18.4-2.3,27.5c-0.4,5.8,0.4,16.4-3.5,21.2
			c-6-15.6-11-73.3-37-63.3c-9.9,3.8-14.3,12-16.5,21c-4.7,19.9-8.3,40.1-10.8,60.4c-1.4,11-12.4,38.4,2.9,44
			c6.2,2.3,20,3.4,23.5-1.1c4.7-6.1,4.9-35.7,9.6-43c5.8,9.4,13.2,46.1,24.1,48.7c11.8,2.8,19-1,22.1-12.5
			c4.6-16.5,9.2-34,13.6-50.9C160.2,110.5,164.3,92.9,160.1,75.7z"/>
		<path class="st0" d="M251.6,145.7c-3.6-4.6-7.8-8.7-12.6-12c-6.2-4.5-16.8-4.5-17.3-14.8c-0.1-0.7,0.1-1.4,0.4-1.9
			c0.3-0.3,0.6-0.5,1-0.6c5.6-1.8,10.8,2.1,16.4,1.7s9.6-5.7,11.5-10.7c2.4-6.4,0.8-11.9-4-16.4c-16.8-15.6-44-21.5-61.5-3.6
			c-11.9,12.2-15.4,32-11.4,48.7c3.4,13.8,19.9,18.5,30.4,24.2c2.8,1.5,6,3.6,6.1,7c0,2.2-1.2,4.2-3.1,5.2c-1.9,0.9-4,1.1-6,0.6
			c-3.9-0.9-7.2-3.4-10.6-5.5s-7.6-3.5-11.3-2.1c-6.3,2.5-8.3,11.5-7.4,17.9c1,7.6,6.6,13,12.3,17c18.4,13,51.3,10.6,66.7-13.1
			c5.7-8.8,6.7-18.1,6.4-27.6C256.7,154.6,254.7,149.8,251.6,145.7z"/>
	</g>
</g>
</svg>
