<svg xmlns="http://www.w3.org/2000/svg" viewBox="0 0 947.68 484.11"><defs><style>.cls-1{fill:#fff;}</style></defs><title>Lil Gotit Newsletter</title><g id="Layer_2" data-name="Layer 2"><g id="Layer_1-2" data-name="Layer 1"><g id="Layer_2-2" data-name="Layer 2"><g id="Desktop"><g id="Newsletter"><path class="cls-1" d="M85.64,356.67c-8.35-14.19-30.49-8.68-29.36,7.87.65,8.68,3.16,17.27,4.87,25.71,1.05,5.35,4.62,14.84,2,20.27C53.29,397.95,33.66,346.7,10.79,363,2.12,369.24-.15,377.92,0,386.68a499.08,499.08,0,0,0,4.87,58.06C6.33,455.2,2.6,483.1,19,484.07c6.57.41,20.44-2.43,22.63-7.46,3-6.89-4.38-33.9-1.7-41.84,8.11,7,24.65,38.44,36,37.79,12.25-.73,18.25-6.16,18.41-17.52.24-16.3.24-33.49.24-50.12S94.16,371.19,85.64,356.67Z"/><path class="cls-1" d="M190.34,433.23c-5.27-1.78-10.87-.73-16.14,1s-10.46,4-15.89,4.7c-3.41.41-7.06.08-10.06-2.11a10.83,10.83,0,0,1-4-10.7,10.13,10.13,0,0,1,4.7-6.24,29,29,0,0,1,6.81-2.68c6-1.87,11.84-1.3,17.27-4.87,6.08-4,11.76-7.46,11.19-16.87-.24-3.41-.73-7.06-2.6-9.65-3-4.05-8.19-3.81-12.65-3.24l-16.87,2c-3,.32-6.24.65-8.92-1.14s-4.14-9.89-2.11-12.65a5.57,5.57,0,0,1,2.68-1.87c3.81-1.54,7.95-1.46,12-1.14,4.38.24,9.08.57,13.3-1.14,10.87-4.46,8.35-21.33,2-29.52-10.79-14-41.93-13.38-52.31.16-3.49,4.62-5.19,11.27-7.7,16.95l.16-.24c-.81,5.19-2.11,10.3-2.35,15.49-.32,7.62,0,15.25.24,22.87.41,11.35,1.05,22.71,2.35,34,.16,1.14.24,2.27.41,3.41,1.38,9.89,3.41,19.62,4.54,29.52,1.05,9.41,5.27,14.84,12.49,16.87,22.06,6.16,42.74,0,62.36-11.92C202.34,457.47,202.82,437.52,190.34,433.23Z"/><path class="cls-1" d="M614.7,353.92a82.38,82.38,0,0,0,19.54.57c6.16-.73,12.16-2.84,18.33-3.41,10.06-.81,19.22,6.08,20.92,14.92,2.68,13.7-1.05,21.25-12.49,25.38-1.22.49-2.43.89-3.65,1.3-14.19,5.11-16.06,8.19-12.08,22.63,3.73,13.54,7.62,26.92,4.7,41.36-3.32,16.46-9.57,26.68-24.17,26.6-7.79-.08-10.7-.65-14.43-7.14-5.27-9.33-5.11-19.62-5.68-29.92-.57-10.87-.16-21.65-.49-32.52-.24-9.49-6-13.95-14-18.49-13.7-7.7-17.11-16.46-11.35-28.06A26.46,26.46,0,0,1,595.89,354a25.56,25.56,0,0,1,10.79-1.05C609.35,353.19,612,353.59,614.7,353.92Z"/><path class="cls-1" d="M758.4,344.1c8.6,8.43,10.06,19.46,5.11,27.57-4.38,7.14-11.11,6.81-18,5.27-15-3.41-19.06.41-18.65,16,.49,17,.65,34.22-.16,51.25-.41,8.84-6.49,15.08-14.6,18.81-8.76,4-17,2.27-24-3.73-6.24-5.35-9.41-12.65-7.14-21,3.16-11.76,6.57-23.52,10.38-35,3.65-11.11,5.68-22.38,2.76-33.74-1-4-4.46-7.62-7.46-10.79-2.43-2.51-6.16-3.81-8.92-6.08C669.93,346,668,337.37,672,328.86c6.33-13.38,18.57-13.54,31.46-11.76,9.65,1.38,19.38,3.32,28.14,7.79C741.29,329.75,749.73,337.7,758.4,344.1Z"/><path class="cls-1" d="M312.46,340.86c-9.57-5.68-18.25-3.41-22.3,7.54-2.11,5.68,10.54,36.9,9.16,42.9-37.06-45.58-47.6-25.87-53.36,10.7-4.22-11.6-11.43-42.57-20.44-49.55s-19.71-7.95-26.76-2.19c-7.62,6.16-9.81,15.89-5.19,28.63,6.81,18.73,13.95,37.3,21.65,55.63,7.22,17.27,18.89,29,36.33,31.46,9.81,1.38,18.25-4.78,21.25-15.08,1.22-4.22,3.57-15.41,4.95-21.49,2,4,8.35,12.33,9.57,14.76,5.19,10.46,20.92,17.6,32.11,12.41,13.79-6.49,12.65-27.9,13.46-40.63a187.81,187.81,0,0,0-3.08-45.74C327.71,358.13,323.33,347.27,312.46,340.86Zm-47.85,22Z"/><path class="cls-1" d="M941.43,427.47c-2.59-3.41-5.11-6.81-6.49-8.76,4.05-8.11,8.51-14,10.22-20.84,4.22-17,2.51-33.65-6.49-49-6.08-10.46-13.95-17.68-25.54-18.33a148.36,148.36,0,0,0-22.46,0c-9.33.89-15.57,6.81-18.49,16.71-1.46,4.87-3.32,9.65-3.81,14.68-3.49,32.76-6.73,65.44-9.81,98.29a16.94,16.94,0,0,0,10.14,16.95c6.49,2.84,13.38,1.46,17.52-5.19,3.65-5.84,6.16-12.65,8.68-19.22,2-5.35,3.32-11,5.27-17.84,2.19,6.33,3.89,11.27,5.76,16.14,2.92,7.79,6.49,15,13.38,19.46,8.43,5.43,17,3.49,22.95-5.11C949.78,454.15,949.46,438.17,941.43,427.47ZM904,400.14c-1.7-.32-2.43-3.32-3.08-4.78-1.14-2.76-1.87-8.6.89-10.7,4.78-3.81,8.27,3.65,8.51,7.87C910.62,397.63,907.78,401,904,400.14Z"/><path class="cls-1" d="M836.74,444.58c-4.38-3.32-10.06-4.22-15.57-4.46s-11.11.08-16.46-1.14c-3.41-.73-6.73-2.19-8.84-5.11s-2.68-7.46-.57-10.62a9.66,9.66,0,0,1,6.33-4,30.75,30.75,0,0,1,7.22-.08c6.24.32,11.52,2.76,17.76,1.38,7-1.46,13.38-2.68,15.65-11.19.81-3.08,1.46-6.41.41-9.33-1.62-4.54-6.57-6-10.95-7l-16.54-3.73c-3-.65-6.08-1.46-8.11-3.89s-.89-10.06,1.87-11.76a6,6,0,0,1,3.08-.81c4.05-.16,7.95,1.38,11.68,2.92,4.05,1.7,8.43,3.49,13,3.32,11.68-.41,14.35-16,10.87-25.14-5.92-15.81-35.6-25.46-49.47-16.95-4.7,2.92-8.27,8.19-12.41,12.33l.24-.16c-2.35,4.3-5.11,8.35-6.89,12.89-2.6,6.57-4.62,13.38-6.73,20.11-3.08,10.06-5.92,20.27-8,30.57-.24,1.05-.41,2.11-.65,3.08-1.7,9.08-2.68,18.33-4.7,27.41-1.87,8.51.49,14.68,6.65,18.81,19,12.65,40.38,13.95,62.52,9.89C840.63,469.72,847.2,452.36,836.74,444.58Z"/><path class="cls-1" d="M569.13,424.31c-4.7-1.78-8.51-1.14-13.46-.08s-2.6,1.7-7.54,1.95c-3.16.16-6.49-.32-9.08-2.35s-4.22-5.68-3.08-8.92a8.38,8.38,0,0,1,4.62-4.78,34,34,0,0,1,6.41-1.78c5.6-1.22,6.57-.65,11.76-3.16,5.84-2.92,11.19-5.43,11.19-13.14,0-2.84-.24-5.84-1.87-8-2.51-3.49-7.3-3.57-11.35-3.41l-15.73.57c-2.76.08-1.46.49-3.81-1.14s-3.24-8.35-1.3-10.46a5.39,5.39,0,0,1,2.6-1.38c3.57-1.05,3.08-1,6.73-.49,4.05.49,8.27,1.05,12.33-.16,10.22-3,8.84-16.87,3.49-23.92-9.16-12.08-37.71-13.46-47.93-3-3.49,3.57-5.35,8.84-7.95,13.38l.16-.16c-1.05,4.14-2.43,8.27-2.92,12.49-.73,6.16-.81,12.41-1,18.65-.24,9.33-.24,18.57.32,27.9.08,1,.16,1.87.24,2.76.73,8.11,2.11,16.22,2.6,24.33.41,7.7,4.05,12.41,10.54,14.52,19.87,6.41,34.79,3.73,53.36-4.87C578.7,444.82,580.24,428.52,569.13,424.31Z"/><path class="cls-1" d="M428,408.17c-3.49-5.11-8.19-9.24-13.14-13-7.22-5.51-17.35-6.57-25-11.6-3.24-2.11-7.3-5.27-6.89-9.57,1-10,14.11-13.54,21.65-8.84,5.11,3.24,8.6,9.24,15.33,9.24,5.92,0,10.87-5.27,13.22-10.22,3-6.41,2.51-13.22-3.41-16.95-22.22-13.79-44.44-21.65-64.63-4.46-11.43,9.73-13.3,22.3-10.38,36.49,1.95,9.73,8.92,16.87,16.79,22.54,6.57,4.7,30.65,12.33,29.28,22.95-.24,2-1.95,3.65-3.81,4.54-2.84,1.38-6.08,1.46-9.16,1.3-9.24-.65-16.22-3.89-23.84-8.68-3.65-2.27-8.11-4.05-12.25-2.84-7,2.11-9.73,11.19-9.16,17.76.73,7.79,10.79,13,17.52,16.22,25.46,12.41,45.66,10.79,61.47-2.92,8.27-7.14,10.87-16.38,11.11-26.11C432.24,418.71,431,412.55,428,408.17Z"/><path class="cls-1" d="M448.05,330.4c3.57-3.32,9-4.78,13.7-4.87a18.72,18.72,0,0,1,13.38,5.11A25.68,25.68,0,0,1,482,342.72a88.09,88.09,0,0,1,2.6,20c.49,26.27.41,52.55.73,78.82.16,14.43-5.76,21.81-17.44,21.33-6.65-.24-12-3.41-13.79-9.57-2.27-7.62-4.22-15.65-4.22-23.52,0-16.14.24-32.36-.73-48.49-.41-7.7-1.14-15.41-2.27-23-.57-3.81-1.22-7.54-2-11.35-1.05-4.95-1.3-10.62,1.78-14.92C447.08,331.45,447.57,330.88,448.05,330.4Z"/></g></g></g><g id="Layer_2-3" data-name="Layer 2"><g id="Layer_1-2-2" data-name="Layer 1-2"><path class="cls-1" d="M441.69,189.88c.4,19.22-2.28,37.48-12.58,53.55-8.68,13.57-20.7,23.5-36.48,28.15-7.59,2.24-15.27,1.64-22.94.22-12.79-2.35-25.13-6.09-36.15-13.15-14.76-9.45-24.39-23.08-30.37-39.3-8.84-24-12.27-48.94-11.75-74.52.42-20.7,5-40.4,12.21-59.7,6.55-17.42,18.15-28.61,36.27-33.49,10.81-2.92,21.39-5.14,32.13-.56,16.21,6.94,25,19.48,27.29,36.79.69,5.28,1.58,10.54-.76,15.69-4.49,9.9-14.13,14.82-25.34,13.13-8.41-1.28-16.84-2.64-25.32-3.23-7.89-.55-12.49,3-15.06,10.55a69.69,69.69,0,0,0,2.43,52.37c4.44,10,10.13,19.25,18.19,26.77,6.64,6.2,19,7.14,26.5,2.35,8.76-5.55,7.84-20.13-1.82-26-2.29-1.39-5.09-2-7.7-2.86-6.34-2-13-3.34-19-6.09-6.8-3.11-8.64-9.27-6.82-16.66,3-12.27,11.52-18.5,23-22.11,16.92-5.33,33.26-3.78,49.09,3.66,9.72,4.58,15.22,13.19,19.44,22.64C440.69,168.29,441.41,179.27,441.69,189.88Z"/><path class="cls-1" d="M760.37,248.84c.13-2.92.86-14.53,9.93-33.57,4-8.38,11-21.47,18.87-37.42,4.55-9.2,3.29-17-3.64-24.49-3.53-3.8-6.94-7.72-10.5-11.49-7.41-7.86-5.51-16.66-2.27-25.32,4.71-12.64,15.14-18.41,27.43-21.46,6-1.49,12.1-2.62,18.44-1.65a28.65,28.65,0,0,1,16.77,8.27c8,8.23,17.94,11.35,29,12.16,10.33.76,20.72,1.3,30.63,4.68,12,4.11,21.09,16.76,20.73,28.75a19.92,19.92,0,0,1-1.12,6.07c-1.92,5.31-3.82,10.66-6.25,15.76-3.12,6.64-8.66,9.84-16,10.21-9.65.49-19.31,1-28.93,1.9-6.68.6-10.5,5.19-11.47,11.28A216.86,216.86,0,0,0,849,221.06c-.55,21.52-7.16,40.66-20.6,57.56-7.84,9.85-18.1,15.51-30.24,16.19-11.8.69-23.68-3.75-30.66-13.19-4-5.36-4.94-11.19-6.17-18A67.21,67.21,0,0,1,760.37,248.84Z"/><path class="cls-1" d="M667.7,97c-3.06-.47-6.17-.69-9.18-1.42C643.29,92,632.7,101.55,635.69,118c2.51,13.85,5.91,27.54,8.27,41.41,2.74,16.1,4.35,32.44,1,48.59-3.19,15.46-13,26.11-28.55,29.15-21.67,4.28-42.23-12.9-40.26-34.28,1.55-16.61,4.74-33.1,7.88-49.51,2.39-12.49,5.75-24.85,3.77-37.65A232.81,232.81,0,0,0,582,89.08c-.74-2.64-3.47-5.27-6-6.75a127.54,127.54,0,0,0-15.33-7.21c-21.28-9-25.44-32.13-11.38-49.61,6.94-8.59,16.07-12,27-10.66,6.63.81,13.25,1.73,19.91,2.24a45.81,45.81,0,0,0,10-.6c12.91-1.89,24.23,1.72,35,8.85,8.56,5.67,17.73,10.41,26.57,15.61,3.39,2,6.75,4,10,6.14a25.55,25.55,0,0,1,12.09,20,52.75,52.75,0,0,1-1.2,15.76c-2,9-8.2,13.49-17.5,13.74h-3.47Z"/><path class="cls-1" d="M552.57,183.18a68.71,68.71,0,0,1-7.86,33.1c-7.39,13.88-19,21.66-34.85,22.66-19.44,1.21-32.18-8.87-41.45-24.81a196.34,196.34,0,0,1-25-72.19q-3.42-24.5-6.66-49c-2.48-19.08,2-26.83,2.87-29.41,1.68-4.76,5.66-15.6,16.46-24.12a42.67,42.67,0,0,1,19.67-9,41.65,41.65,0,0,1,16.72.69c8.91,2.13,15.5,8,21.62,14.36,13.65,14.25,22,31.33,26,50.48,3.53,16.83,6.94,33.71,9.46,50.67C551.35,158.69,551.62,171,552.57,183.18Zm-43-1c-.32-5.23-.74-7.64-.74-7.64-1.94-11.22-7.07-31.89-8.63-39.57-2.12-10.5-3.87-21.09-5.55-31.67-1.26-7.73-1.39-15.63-4.69-23-1.06-2.36-2-2.83-4.38-2-4.42,1.61-8.11,7.36-7.52,13.56.89,9.29,1.72,18.65,3.69,27.77,3.43,15.9,7.73,31.62,11.61,47.43,2.23,9.06,4.16,18.2,6.68,27.18a6.5,6.5,0,0,0,.69,1.26c.69,1,2.28,3.43,3.91,3.24,1.31-.15,2.19-2,3.23-4.12a14.2,14.2,0,0,0,.64-1.51C510,189.07,509.72,183.87,509.62,182.17Z"/><path class="cls-1" d="M118.61,291.66c-15.55.32-29.45-3.73-40.33-15.49a48.39,48.39,0,0,1-12.33-23.69c-2.94-14.83-5.55-29.73-8.39-44.59C55.74,198.25,54,188.6,52,179a35.67,35.67,0,0,0-11.69-20.3c-11.85-10.31-10-26.63-1-37.41,10.73-13,33.43-15.55,48.53-4.5,10.34,7.57,16.92,17.85,22,29.27,5.23,11.65,6.94,24.09,8.43,36.62,1.44,12.27,3.3,24.48,5,36.71.35,2.55,1.25,3.24,3.6,1.59,12.55-8.82,26.75-12.24,41.85-12.1,21.41.2,31.63,20,29,35.62A29.32,29.32,0,0,1,184.26,265c-6,3.95-11.52,8.52-17.51,12.43A89,89,0,0,1,118.61,291.66Z"/><path class="cls-1" d="M262.57,190.75a237.51,237.51,0,0,1,.85,34.21c-.49,9.29-4.67,17.59-14.58,20.3-12.82,3.47-23.9,1.5-30.74-11.39-5.87-11.11-7.3-23.06-7.71-35.25-.46-13.52-.24-27.07-.92-40.58-.69-13.36-2.08-26.68-3.28-40-.85-9.19-1.61-18.42-3.09-27.52-1.33-8.18-3.78-16.19-5.36-24.34-2.69-13.88,6.58-26,20.73-27.52,16.14-1.71,28.46,5.61,34.62,20.53C257,68.59,258.55,78.5,259,88.55c.1,2,.14,4.16.18,6.46.19,10-.06,17.24-.1,18.87C257.68,161.59,262.57,190.75,262.57,190.75Z"/><path class="cls-1" d="M729.37,62.28c10.48-1.14,18,5.55,19.08,6.48,8,7.27,9.27,17.88,8.68,24.29-1.39,14.63-6.43,28-11.75,41.44a204.33,204.33,0,0,0-13.76,55.57c-1.63,16.58-6.14,32.46-15.76,46.38-8.53,12.36-25.29,16.92-36.94,9.47-12.58-8-19.69-20.32-15.87-36.36,2.86-12,7.83-23.09,13.83-33.83,9.47-16.94,13.69-35.67,18.27-54.31,3-12.31,6.51-24.54,10.68-36.5,1.53-4.39,4-11.68,10.81-17.09A24.54,24.54,0,0,1,729.37,62.28Z"/><path class="cls-1" d="M190.06,157.2c-.09,5.9-.28,13.45-3.54,22.33-1.61,4.38-2.94,7.83-6.43,10.95a21.1,21.1,0,0,1-12.54,5.26,19.53,19.53,0,0,1-13-3.8c-6.07-4.27-12.49-8.41-13.88-16.43A84.3,84.3,0,0,1,139.23,159c.24-9.37.56-18.69-1.92-27.85-2.08-7.82.34-14,7.52-17.75a105.86,105.86,0,0,1,13.31-5.69c6.65-2.37,12.49-.47,17.42,4.32a41.59,41.59,0,0,1,6.45,8c.79,1.28,3.76,6.46,6,16.66A90.15,90.15,0,0,1,190.06,157.2Z"/><path class="cls-1" d="M756.55,53.37c-10.61,1-18.39-6.77-20.69-9.07a30.07,30.07,0,0,1-5.64-7.77c-5.12-10.11-3.12-20.13,3.62-28.89C739.7,0,753.51-2.21,763.51,2.38c9.35,4.3,14.51,11.8,15.27,21.84A28.32,28.32,0,0,1,776,39.34a26.61,26.61,0,0,1-8.86,10.07A22.75,22.75,0,0,1,756.55,53.37Z"/><path class="cls-1" d="M126.28,77.43c.62-15.09,13-21,24.54-19.51,10.31,1.33,15,6.25,16.25,16.66.94,7.7-4.37,18.67-12.37,20.19a12.11,12.11,0,0,1-4.43.31c-4.4-.87-8.79-1.85-13.1-3.08C130.09,90,126.34,84.8,126.28,77.43Z"/></g></g></g></g></svg>