<svg xmlns="http://www.w3.org/2000/svg" viewBox="0 0 1273.21 424.81"><defs><style>.cls-1{fill:#fff;}</style></defs><title>Lil Gotit Logo White</title><g id="Layer_2" data-name="Layer 2"><g id="Layer_1-2" data-name="Layer 1"><g id="Layer_2-2" data-name="Layer 2"><g id="Layer_1-2-2" data-name="Layer 1-2"><path class="cls-1" d="M590.29,273.54c.58,27.69-3.29,54-18.13,77.14-12.51,19.55-29.82,33.86-52.56,40.56-10.93,3.22-22,2.36-33,.32-18.43-3.39-36.2-8.77-52.08-19C413.21,359,399.33,339.36,390.72,316,378,281.36,373,245.49,373.79,208.64c.6-29.82,7.14-58.2,17.59-86,9.43-25.09,26.15-41.21,52.25-48.25,15.57-4.2,30.82-7.4,46.29-.8,23.35,10,36,28.07,39.32,53,1,7.6,2.27,15.18-1.09,22.6-6.47,14.26-20.36,21.35-36.51,18.91-12.12-1.84-24.26-3.8-36.47-4.65-11.36-.79-18,4.28-21.69,15.2-8.7,25.57-7.44,50.84,3.5,75.45,6.39,14.36,14.59,27.73,26.2,38.57,9.57,8.93,27.34,10.28,38.18,3.39,12.62-8,11.29-29-2.62-37.47-3.3-2-7.33-2.92-11.09-4.12-9.14-2.91-18.72-4.81-27.37-8.77-9.8-4.48-12.44-13.36-9.83-24,4.36-17.68,16.6-26.65,33.07-31.85,24.37-7.68,47.91-5.45,70.72,5.27,14,6.6,21.92,19,28,32.62C588.85,242.45,589.88,258.26,590.29,273.54Z"/><path class="cls-1" d="M1049.39,358.48c.19-4.2,1.24-20.93,14.31-48.36,5.75-12.07,15.81-30.93,27.18-53.91,6.56-13.26,4.74-24.5-5.25-35.28-5.08-5.48-10-11.12-15.13-16.56-10.67-11.33-7.94-24-3.27-36.47,6.79-18.21,21.81-26.52,39.51-30.91,8.67-2.15,17.43-3.78,26.56-2.38,9.42,1.44,17.62,5.18,24.16,11.92,11.49,11.85,25.85,16.35,41.75,17.52,14.88,1.1,29.85,1.88,44.12,6.74,17.35,5.92,30.39,24.14,29.87,41.42a28.7,28.7,0,0,1-1.61,8.75c-2.77,7.65-5.51,15.36-9,22.71-4.49,9.56-12.47,14.17-23.06,14.71-13.9.71-27.82,1.49-41.68,2.73-9.63.86-15.12,7.47-16.52,16.25a312.42,312.42,0,0,0-4.24,41.1c-.79,31-10.31,58.57-29.67,82.92-11.29,14.19-26.07,22.34-43.57,23.33-17,1-34.12-5.4-44.17-19-5.71-7.72-7.11-16.12-8.89-25.87A96.82,96.82,0,0,1,1049.39,358.48Z"/><path class="cls-1" d="M915.89,139.77c-4.41-.67-8.89-1-13.22-2.05-22-5.13-37.2,8.57-32.9,32.3,3.61,19.95,8.51,39.67,11.91,59.65,4,23.19,6.27,46.74,1.48,70-4.59,22.27-18.74,37.61-41.13,42-31.22,6.16-60.84-18.58-58-49.39,2.24-23.93,6.83-47.68,11.35-71.33,3.44-18,8.28-35.8,5.43-54.24a335.39,335.39,0,0,0-8.34-38.38c-1.06-3.8-5-7.59-8.63-9.72-7-4.11-14.58-7.24-22.08-10.39-30.65-12.9-36.65-46.29-16.4-71.47,10-12.38,23.15-17.27,38.91-15.36,9.55,1.16,19.09,2.49,28.68,3.22a66,66,0,0,0,14.37-.86c18.6-2.73,34.9,2.48,50.38,12.75C890,44.67,903.24,51.49,916,59c4.88,2.85,9.72,5.78,14.47,8.84a36.81,36.81,0,0,1,17.42,28.88,76,76,0,0,1-1.73,22.7c-2.94,13-11.81,19.44-25.21,19.8h-5Z"/><path class="cls-1" d="M750,263.9c.07,16.88-3.45,32.88-11.33,47.68-10.64,20-27.4,31.21-50.2,32.64-28,1.75-46.36-12.78-59.71-35.74a282.86,282.86,0,0,1-36.06-104q-4.93-35.3-9.59-70.64c-3.57-27.49,2.82-38.65,4.13-42.37C589.69,84.61,595.43,69,611,56.72a61.47,61.47,0,0,1,28.34-13,60,60,0,0,1,24.09,1c12.83,3.07,22.33,11.48,31.14,20.69,19.66,20.53,31.72,45.14,37.5,72.73,5.08,24.24,10,48.56,13.63,73C748.27,228.62,748.66,246.33,750,263.9Zm-61.88-1.46c-.46-7.54-1.06-11-1.06-11-2.79-16.17-10.19-45.94-12.43-57-3.06-15.13-5.57-30.38-8-45.62-1.81-11.13-2-22.52-6.76-33.12-1.52-3.4-2.94-4.08-6.31-2.85-6.37,2.32-11.68,10.61-10.83,19.53,1.28,13.38,2.48,26.87,5.31,40,4.94,22.91,11.13,45.56,16.73,68.33,3.21,13.05,6,26.22,9.63,39.15a9.37,9.37,0,0,0,1,1.81c1,1.43,3.29,4.94,5.64,4.67,1.89-.22,3.15-2.82,4.66-5.93a20.46,20.46,0,0,0,.92-2.18C688.7,272.38,688.3,264.89,688.15,262.44Z"/><path class="cls-1" d="M124.85,420.17c-22.4.46-42.43-5.37-58.1-22.32A69.71,69.71,0,0,1,49,363.72c-4.23-21.37-8-42.83-12.08-64.24-2.62-13.88-5.19-27.78-8.08-41.61A51.39,51.39,0,0,0,12,228.62c-17.07-14.85-14.35-38.37-1.51-53.89,15.46-18.68,48.16-22.4,69.92-6.48,14.9,10.9,24.37,25.72,31.75,42.17,7.53,16.78,10,34.7,12.15,52.76,2.07,17.67,4.75,35.26,7.14,52.89.5,3.67,1.8,4.67,5.19,2.29,18.08-12.7,38.53-17.64,60.29-17.43,30.84.29,45.57,28.85,41.73,51.31-2.19,12.77-8.44,22.41-19.21,29.54-8.59,5.69-16.6,12.27-25.23,17.9C173.62,413.08,149.85,419.94,124.85,420.17Z"/><path class="cls-1" d="M332.25,274.8a342.17,342.17,0,0,1,1.22,49.28c-.7,13.38-6.73,25.34-21,29.25-18.47,5-34.43,2.16-44.28-16.41-8.46-16-10.51-33.22-11.11-50.78-.66-19.48-.34-39-1.33-58.46-1-19.24-3-38.44-4.73-57.63-1.22-13.24-2.32-26.54-4.45-39.65-1.91-11.79-5.44-23.32-7.72-35.06-3.87-20,9.48-37.49,29.86-39.65,23.25-2.46,41,8.08,49.88,29.57,5.59,13.55,7.86,27.83,8.55,42.3.14,2.87.2,6,.26,9.3.28,14.42-.08,24.84-.15,27.18C325.2,232.79,332.25,274.8,332.25,274.8Z"/><path class="cls-1" d="M1004.74,89.72c15.1-1.64,26,8,27.49,9.33,11.49,10.47,13.35,25.76,12.5,35-2,21.07-9.26,40.35-16.93,59.7A294.36,294.36,0,0,0,1008,273.8c-2.35,23.88-8.85,46.76-22.71,66.82C973,358.42,948.83,365,932,354.27c-18.12-11.54-28.36-29.28-22.87-52.38,4.12-17.3,11.28-33.27,19.93-48.74,13.64-24.4,19.72-51.39,26.32-78.24,4.36-17.73,9.38-35.36,15.39-52.59C973,116,976.55,105.5,986.39,97.7A35.36,35.36,0,0,1,1004.74,89.72Z"/><path class="cls-1" d="M227.78,226.47c-.13,8.5-.4,19.38-5.1,32.17-2.32,6.31-4.24,11.28-9.26,15.77A30.4,30.4,0,0,1,195.36,282a28.14,28.14,0,0,1-18.71-5.48c-8.75-6.15-18-12.12-20-23.67a121.44,121.44,0,0,1-2.09-23.71c.34-13.5.81-26.92-2.76-40.12-3-11.27.49-20.17,10.84-25.57a152.51,152.51,0,0,1,19.18-8.2c9.58-3.42,18-.68,25.1,6.23A59.91,59.91,0,0,1,216.21,173c1.14,1.84,5.41,9.31,8.6,24A129.87,129.87,0,0,1,227.78,226.47Z"/><path class="cls-1" d="M1043.89,76.89c-15.29,1.4-26.49-9.76-29.81-13.07a43.32,43.32,0,0,1-8.13-11.2c-7.38-14.56-4.49-29,5.21-41.62,8.46-11,28.35-14.19,42.75-7.57,13.47,6.19,20.91,17,22,31.47a40.8,40.8,0,0,1-4,21.78,38.34,38.34,0,0,1-12.76,14.51A32.78,32.78,0,0,1,1043.89,76.89Z"/><path class="cls-1" d="M135.9,111.55c.89-21.74,18.68-30.24,35.35-28.1,14.86,1.91,21.58,9,23.41,24,1.35,11.1-6.3,26.9-17.82,29.08a17.44,17.44,0,0,1-6.38.44c-6.34-1.25-12.66-2.66-18.87-4.43C141.39,129.67,136,122.16,135.9,111.55Z"/></g></g></g></g></svg>