<?xml version="1.0" encoding="utf-8"?>
<!-- Generator: Adobe Illustrator 21.1.0, SVG Export Plug-In . SVG Version: 6.00 Build 0)  -->
<svg version="1.1" id="Layer_1" xmlns="http://www.w3.org/2000/svg" xmlns:xlink="http://www.w3.org/1999/xlink" x="0px" y="0px"
	 viewBox="0 0 637.9 203.3" style="enable-background:new 0 0 637.9 203.3;" xml:space="preserve">
<style type="text/css">
	.st0{fill:#14CC61;}
</style>
<title>Merch1</title>
<g id="Layer_2">
	<g id="Desktop">
		<g id="Merch">
			<path class="st0" d="M138.3,74.1c-4.8-16-11.4-34.8-27.4-38.3c-12.1-2.3-32.1,1.2-36.2,14.6c-2.1,6.9,2.3,28.4,1.2,35.7
				C58,72.1,50,50.8,23,50.8c-42.8,1.6-14.6,40.4-5.3,57.1c8.2,15.9,10.2,22.4,17.5,39c4.8,11.6,8.6,28.7,23.6,39.2
				c9.3,6.9,18.5,7.9,21.6,1c3.9-8.8-4.1-25-8-36.4c-1.5-4.3-5.9-21.9,0.8-14.9c7,7.3,6.9,17.4,10,27.2c2.5,7.8,7.5,19.1,15.3,24
				c8,5.1,19.2,1.8,17.2-9c-6.6-35.2-6.6-41.3-1.6-46.9c3.7,4.6,3.6,16.4,4.3,21.7c1.6,12.5,4.3,34.2,17.5,40.8
				c9,4.7,19-1.8,20.6-13.2c2-13.3-3.4-34.8-6.1-49C146.8,113.3,143.6,92.9,138.3,74.1z"/>
			<path class="st0" d="M254.5,142.8c-6.2-2-11-0.6-17.1,1.4s-3.1,2.7-9.4,3.6c-4,0.6-8.3,0.3-11.8-2.2c-3.8-2.8-5.8-7.6-4.9-12.2
				c0.8-3.1,2.7-5.7,5.4-7.3c2.5-1.4,5.2-2.5,7.9-3.2c7-2.3,8.3-1.6,14.7-5.9c7.1-4.7,13.6-8.9,12.8-19.8c-0.3-4-1-8.2-3.3-11.1
				c-3.6-4.6-9.7-4.2-14.9-3.5L214,85.3c-3.5,0.5-1.8,0.8-5-1.2s-5.1-11.4-2.8-14.6c0.8-1,1.9-1.8,3.1-2.3c4.5-1.9,3.8-1.7,8.6-1.5
				c5.2,0.2,10.7,0.5,15.6-1.6c12.7-5.4,9.4-24.8,1.8-34.1c-13-15.9-49.6-14.5-61.5,1.4c-4,5.4-5.9,13.1-8.7,19.8l0.2-0.2
				c-0.8,6-2.2,11.9-2.4,18c-0.2,8.8,0.3,17.6,0.8,26.4c0.7,13.1,1.7,26.2,3.5,39.2c0.2,1.3,0.4,2.6,0.6,3.9c1.8,11.4,4.5,22.6,6,34
				c1.4,10.8,6.5,17,15,19.2c26,6.6,44.8,1.1,67.5-13.1C269.1,170.5,269.2,147.4,254.5,142.8z"/>
			<path class="st0" d="M372.1,101.8c-4.8-5-8.7-9-8.7-8.9c3-10,6.9-17.8,7.3-25.8c1.1-20-4.4-38.1-18.1-52.8
				c-9.4-10-20-16.1-33.6-13.9c-8.8,1.3-17.6,3.2-26.1,5.8c-10.6,3.3-16.6,11.6-17.9,23.3c-0.6,5.7-1.7,11.6-1.3,17.3
				c3.1,37.3,6.4,74.6,9.9,111.8c0.8,8.6,7.5,14.8,15.5,16.2c8.2,1.5,15.9-1.8,19.2-10.2c3-7.4,4.4-15.6,5.9-23.6
				c1.2-6.3,1.1-13.2,2.3-19.3c6.8,6.2,9.6,10.3,17.4,18.2c11.8,12.1,45.4,50.7,58.2,19.9C411.9,137.8,384.8,114.9,372.1,101.8z
				 M323.4,80.1c-2,0-3.6-3-4.6-4.5c-2-2.8-4-9.1-1.3-12.1c4.8-5.5,10.4,2,11.6,6.6C330.6,75.7,328,80.1,323.4,80.1z"/>
			<path class="st0" d="M636.1,58c-3.1-10.2-8.8-17.5-18.6-18c-9-0.5-22,6.1-25.2,16.2c-1.8,5.5-1.2,36.1-14.7,31.4
				c-11.8-4.2-1.1-44.2-2.3-50.9c-2.2-12.9-9.8-20.1-21.8-21.9s-22.2,2.8-26.5,14.6c-4.2,11.8-7.1,24.1-8.9,36.5
				c-2.6,17.1-4.7,34.2-6.9,51.3c-2.3,17.9-13.5,48.6,1.7,62.6c12.3,11.4,36.5,16.4,42.1-4.9c2.2-8.6,0.6-27.6,4.1-35.9
				c1.4-3.4,3.9-11.3,7.5-12.8c10.4-4.3,17.4,9.2,17.8,15.9c0.8,14.8-11.1,37.3-3.8,51.5c11.2,21.9,42.6,2.8,45.8-17.7
				c3.9-25.1-0.1-33.6,3.3-58.8C632.2,98.1,641.8,76.7,636.1,58z"/>
			<path class="st0" d="M432.8,6.2c-27.6,21.6-40.2,43.8-39.7,69.6c0.8,38.3,37.4,76.9,75.9,84.4c16.7,3.3,30.4-20.6,22.8-42.9
				c-7.1-21-31.8-21.7-42.8-34.6c-5.9-6.9-7.3-17.9-1.8-25.1c3.6-4.5,9.1-6.9,14.9-6.3c9.2,1,17,9.4,26.2,8.3
				c4.7-0.8,8.9-3.7,11.1-7.9c6.1-10.9,1.4-25.3-5.9-34.3C486.8,9,475,3.3,463.1,1.3C451.5-0.8,439.9,0.6,432.8,6.2z"/>
		</g>
	</g>
</g>
</svg>
