<?xml version="1.0" encoding="utf-8"?>
<!-- Generator: Adobe Illustrator 21.1.0, SVG Export Plug-In . SVG Version: 6.00 Build 0)  -->
<svg version="1.1" id="Layer_1" xmlns="http://www.w3.org/2000/svg" xmlns:xlink="http://www.w3.org/1999/xlink" x="0px" y="0px"
	 viewBox="0 0 471.4 538" style="enable-background:new 0 0 471.4 538;" xml:space="preserve">
<style type="text/css">
	.st0{fill:#14CC61;}
</style>
<title>Merch</title>
<g id="Layer_2">
	<g id="Desktop">
		<path class="st0" d="M162.4,107.3c6.5-13.5,14-30,6.9-43.8c-5.3-10.3-18.9-22.7-31.5-16.3c-6.6,3.3-20.8,21.6-27.3,26.1
			c-0.7-22.4,12.8-43.7-1.9-63.7c-23-31.1-51.6,22.7-63.7,43C34,71,28.5,77.7,17,95.8c-7.8,12.3-23.1,28.9-14.4,43.6
			c5.5,9.3,16.6,13.9,26.9,10c12.3-4.7,17.7-20.8,23.6-31.4c2.3-4,4.6-10.9,8.2-14c0.3,8.1-4.4,18.7-6.5,26.7
			c-2.4,8.8-9.1,19.8-3.8,27.4s17.3,9.9,25.3,2.6c11.3-10.2,20-21.1,30.9-32.2c0.1,5.3-8,13-10.9,16.9c-6.9,9.2-18.9,24.9-9.3,36.2
			c6.6,7.7,20.5,9.1,28.6,3c9.2-7,16.5-23.3,22.2-33.7C145.4,137.4,155,122.6,162.4,107.3z"/>
		<path class="st0" d="M195.1,231.3c-2.3-5.6-6-8.4-11-11.8s-3.6-0.8-7.9-5c-2.7-2.7-5-6-5.4-9.8s1.6-8.4,5.3-10.1
			c2.6-1.1,5.5-1,8,0.1c2.4,1.1,4.7,2.5,6.8,4.1c5.6,3.9,6,5.3,12.5,7.7c7.3,2.7,13.9,5.3,20.6-1c2.5-2.3,4.9-5,5.4-8.3
			c0.9-5.1-2.9-9.3-6.4-12.8l-13.4-13.1c-2.4-2.3-1.6-0.9-2.1-4.3s4.6-9.7,8.1-9.7c1.2,0.1,2.3,0.4,3.3,1.1c3.9,2.3,3.4,1.9,6,5.5
			c2.9,3.9,5.9,8.1,10.2,10.6c11.1,6.5,22-6.2,23.8-16.7c3-18-19.3-44.1-36.9-44.4c-5.9-0.1-12.2,2.6-18.2,4h0.3
			c-4.5,2.5-9.3,4.7-13.4,7.7c-6,4.5-11.6,9.5-17.1,14.5c-8.4,7.4-16.5,15.1-24.1,23.2c-0.8,0.8-1.5,1.6-2.3,2.5
			c-6.5,7.3-12.4,15.2-19.2,22.3c-6.4,6.7-7.6,13.7-4,21.1c10.8,22.6,25.4,33.5,48.2,42.7C185.1,256.6,200.6,244.6,195.1,231.3z"/>
		<path class="st0" d="M267,320.1c0.8-6.7,1.4-12,1.3-12c9.3-3.4,17.5-4.8,23.8-9c15.7-10.6,25.8-25.4,28.5-44.8
			c1.8-13.2-0.2-25.2-10.1-34.7c-6.3-6.2-13.1-12.1-20.2-17.4c-9-6.5-18.8-6.5-28.3-0.8c-4.7,2.8-9.8,5.3-13.7,8.9
			c-26.1,23.9-51.9,48-77.7,72.2c-5.9,5.6-6.5,14.4-2.7,21.6c3.9,7.3,11,11.5,19.4,9.4c7.4-1.9,14.4-5.5,21.3-8.9
			c5.5-2.7,10.6-6.7,15.8-9.3c-0.5,9-1.8,13.5-3,24.2c-1.8,16.3-10.3,65.2,20.5,57.6C264.3,372.4,264.9,337.7,267,320.1z M253.6,269
			c-1.3-1.6,0.1-4.6,0.6-6.2c0.9-3.1,4.4-8.4,8.3-8c7,0.6,4.9,9.4,2.2,13C261.3,272.1,256.4,272.6,253.6,269z"/>
		<path class="st0" d="M464.4,490c6.5-7.4,9.3-15.7,4.8-24.4c-4.2-8-16-16.1-25.6-14.2c-5.2,1-29.1,15.8-32.2,2
			c-2.7-12.1,34.3-21.6,39-25.7c9-7.9,10.9-17.8,6.2-29s-13.4-17.8-24.9-16c-11.4,1.9-22.6,5-33.3,9.3c-14.8,5.7-29.4,11.8-43.9,18
			c-15.2,6.4-45.1,11-48.5,30.7c-2.7,15.9,5.6,39.1,25.3,34c7.9-2,22.1-12.3,30.3-13.2c3.4-0.4,10.9-1.9,13.9,0.5
			c8.7,7,1.6,19.3-3.5,22.7c-11.3,7.5-35,7.9-42.5,20.8c-11.5,19.8,19.5,37.9,37.2,31.2c21.8-8.3,26.4-15.7,48-24.5
			C430.9,505.3,452.6,503.5,464.4,490z"/>
		<path class="st0" d="M379.8,293.9c-34.3-7.6-59.4-3.3-79,13.5c-29.1,24.9-33,47.1-14.4,81.7c8.1,15,40.5,28.2,53,8.2
			c11.7-18.8-11.4-25.5-8.5-42.2c1.6-8.9,9.2-17,18.2-17.3c5.7-0.1,11.1,2.7,14.3,7.5c5.1,7.7,3.5,19.1,10.2,25.5
			c3.6,3.2,8.5,4.5,13.2,3.6c12.3-2.2,20.5-15,22.8-26.3c2.1-10.6-1-23.3-6.9-33.9C397,304,388.6,295.8,379.8,293.9z"/>
	</g>
</g>
</svg>
