<?xml version="1.0" encoding="utf-8"?>
<!-- Generator: Adobe Illustrator 21.1.0, SVG Export Plug-In . SVG Version: 6.00 Build 0)  -->
<svg version="1.1" id="Layer_1" xmlns="http://www.w3.org/2000/svg" xmlns:xlink="http://www.w3.org/1999/xlink" x="0px" y="0px"
	 viewBox="0 0 868.8 302.5" style="enable-background:new 0 0 868.8 302.5;" xml:space="preserve">
<style type="text/css">
	.st0{fill:#14CC61;}
</style>
<title>Merch2</title>
<g id="Layer_2">
	<g id="Mobile">
		<g id="Merch">
			<path class="st0" d="M189.3,72.2c-6.6-24.2-15.6-52.6-37.5-57.9c-16.5-3.4-44,1.9-49.6,22.1c-2.8,10.4,3.1,43,1.7,53.9
				C79.3,69.1,68.5,36.9,31.5,36.9c-58.6,2.4-20,61-7.3,86.4c11.2,24.1,14,33.9,24,59c6.6,17.5,11.8,43.4,32.3,59.2
				c12.7,10.4,25.3,12,29.6,1.5c5.3-13.3-5.6-37.8-11-55c-2.1-6.5-8-33.1,1.2-22.5c9.6,11.1,9.4,26.3,13.7,41.2
				c3.4,11.8,10.3,28.8,21,36.4c11,7.7,26.3,2.7,23.5-13.6c-9.1-53.2-9.1-62.5-2.2-70.8c5,6.9,4.9,24.9,5.9,32.8
				c2.2,18.9,5.9,51.7,24,61.7c12.3,7,26-2.7,28.3-20c2.7-20.1-4.6-52.6-8.4-74C201,131.4,196.6,100.5,189.3,72.2z"/>
			<path class="st0" d="M350,181.9c-9-2.9-15.9-0.9-24.8,2.1s-4.4,4-13.6,5.2c-5.8,0.8-12,0.4-17.1-3.2s-8.6-10.9-7.1-17.7
				c1.1-4.4,3.9-8.3,7.8-10.6c3.6-2.3,7.6-3.4,11.5-4.7c10.1-3.4,12.1-2.4,21.2-8.5c10.3-6.9,19.7-12.9,18.5-28.6
				c-0.5-5.7-1.5-11.8-4.8-16c-5.3-6.6-14-6.1-21.6-5.1l-28.6,3.9c-5.1,0.7-2.6,1.2-7.2-1.7s-7.4-16.4-4-21.1
				c1.2-1.5,2.7-2.6,4.5-3.3c6.5-2.8,5.5-2.5,12.4-2.2c7.5,0.3,15.5,0.7,22.6-2.3c18.4-7.9,13.5-35.9,2.6-49.3
				c-18.8-23.1-71.7-21-88.9,2c-5.8,7.8-8.5,19-12.6,28.6l0.3-0.4c-1.2,8.7-3.2,17.3-3.4,26c-0.3,12.7,0.5,25.4,1.1,38.1
				c1,19,2.5,37.9,5.1,56.7c0.3,1.9,0.5,3.8,0.9,5.6c2.6,16.5,6.5,32.6,8.6,49.2c2,15.6,9.4,24.6,21.7,27.7
				c37.7,9.6,64.8,1.6,97.7-19C371.1,222,371.3,188.6,350,181.9z"/>
			<path class="st0" d="M507,169.5c-7-7.3-12.6-13-12.6-12.8c4.3-14.5,10-25.8,10.6-37.3c1.7-29-6.4-55.1-26.3-76.4
				c-13.6-14.5-29-23.3-48.7-20.1c-12.7,2.1-25.5,4.5-37.8,8.3c-15.4,4.8-24,16.7-25.8,33.7c-0.9,8.3-2.5,16.8-1.8,25
				c4.4,53.9,9.2,107.9,14.4,161.7c1.2,12.4,10.8,21.4,22.3,23.5c11.8,2.2,23-2.6,27.8-14.8c4.3-10.8,6.4-22.6,8.6-34.1
				c1.7-9.2,1.6-19.1,3.3-27.9c9.9,9,13.9,14.9,25.1,26.3c17.1,17.4,65.7,73.4,84.2,28.8C564.5,221.6,525.2,188.5,507,169.5z
				 M436.4,138.1c-3,0-5.2-4.4-6.7-6.5c-2.8-4-5.8-13.2-1.9-17.6c6.9-7.9,15,2.9,16.8,9.5C446.8,131.7,443,138.1,436.4,138.1z"/>
			<path class="st0" d="M868.6,126.1c-1.2-14-7-25-20.7-28.5c-12.6-3.2-33,1.6-40.6,13.7c-4.2,6.6-12.9,46.2-30.5,36.3
				c-15.4-8.7,12.1-57.3,12.5-66.3c0.9-17.2-7.7-28.7-24.1-34.4s-32.2-2.7-41.9,11.3s-17.4,29.1-23.9,44.6
				c-8.9,21.2-17.3,42.7-25.5,64.2c-8.6,22.4-34,58.8-16.8,81.2c13.8,18.1,46.5,31.4,61,5.5c5.8-10.4,9.4-35.4,16.8-45.1
				c3-4,9-13.5,14.5-14.4c16.1-2.7,21.8,16.7,20.2,25.5c-3.5,19.3-27.2,44.9-21.2,65.3c9.1,31.3,59.3,15.5,70.1-9.9
				c13.3-31.2,10.3-43.3,22.8-74.8C850.8,176.5,870.8,151.7,868.6,126.1z"/>
			<path class="st0" d="M607.9,2.4c-47.2,18.8-73.7,44.4-83.5,80.5C510,136.4,545,204.8,595.5,231c21.9,11.4,50.6-16.2,49.2-50.3
				c-1.3-32.1-35.3-43.1-45.3-65.4c-5.4-12-2.9-27.8,7.7-35.5c6.8-4.8,15.5-5.8,23.2-2.8c12.4,5.1,19.7,20,33,22.2
				c6.8,1.1,13.8-1.7,18.7-6.5c12.9-12.7,12.3-34.6,5.8-50c-6-14.4-20.2-27.1-35.8-34.8C636.7,0.4,620.1-2.5,607.9,2.4z"/>
		</g>
	</g>
</g>
</svg>
