<?xml version="1.0" encoding="utf-8"?>
<!-- Generator: Adobe Illustrator 21.1.0, SVG Export Plug-In . SVG Version: 6.00 Build 0)  -->
<svg version="1.1" id="Layer_1" xmlns="http://www.w3.org/2000/svg" xmlns:xlink="http://www.w3.org/1999/xlink" x="0px" y="0px"
	 viewBox="0 0 588.7 590.3" style="enable-background:new 0 0 588.7 590.3;" xml:space="preserve">
<style type="text/css">
	.st0{fill:#14CC61;}
</style>
<title>Merch Mobile</title>
<g id="Layer_2">
	<g id="Layer_1-2">
		<path class="st0" d="M204.8,135.9c8.4-20,18-44.4,9.2-62.3c-6.5-13.3-23.6-27.9-39.5-16.6c-8.4,5.9-26.5,34.1-34.7,41.6
			c-0.6-31,16.7-63.3-1.7-88.2C109.6-28.5,72.9,52,57.5,82.6c-14,27.8-21,38.3-35.7,65.7c-9.9,18.6-29.5,44.6-18.6,63.4
			C10,223.5,24,227.8,37,220.3c15.6-8.9,22.4-32.3,30-48.2c2.9-6.1,6-16.1,10.5-21.1c0.3,11.2-5.7,26.9-8.6,38.4
			c-3.1,12.6-11.7,29.3-5.2,38.8s21.7,10.3,31.9-1.2c14.4-16.4,25.4-33.3,39.3-50.8c0,7.3-10.2,19.7-14,25.7
			c-8.8,14.1-24,38.3-12,52.1c8.2,9.5,25.7,8.7,35.9-1.3c11.7-11.5,21-35.6,28.4-51.2C183,181,195.3,158.6,204.8,135.9z"/>
		<path class="st0" d="M243.3,272.9c-2.6-6.7-6.7-9.2-12.3-12s-4,0.2-8.9-4c-3.5-2.8-5.7-6.9-6.1-11.3c-0.5-5.1,1.7-11.8,5.8-15.4
			c2.4-2.2,5.7-3.2,8.9-2.7c2.8,0.4,5.2,1.9,7.6,3.1c6.3,3.3,6.7,5,14,5.9c8.2,1.1,15.5,2.2,23-8.7c2.7-4,5.4-8.5,6-13
			c1-7.2-3.2-11.5-7.2-14.9l-15-12.9c-2.7-2.3-1.8-0.6-2.4-5s5-14.7,8.9-15.9c1.2-0.3,2.6-0.2,3.7,0.3c4.3,1.7,3.8,1.4,6.7,5.3
			c3.2,4.2,6.7,8.8,11.5,10.7c12.4,4.8,24.5-16.1,26.4-30.8c3.2-25.2-21.8-52.4-41.3-46.7c-6.6,2-13.5,7.8-20.3,11.9l0.3-0.1
			c-5,5-10.3,9.5-14.8,15.1c-6.6,8.1-12.8,16.9-19,25.5c-9.2,12.9-18.2,26.1-26.6,39.8c-0.8,1.4-1.7,2.8-2.5,4.1
			c-7.2,12.2-13.7,24.8-21.2,36.8c-7,11.3-8.3,21.1-4.3,29.8c12.2,26.6,28.6,36,54,40.3C232.4,310.5,249.5,288.8,243.3,272.9z"/>
		<path class="st0" d="M357.2,327.2c0.9-9.3,1.5-16.7,1.4-16.6c10.3-7.9,19.5-12.6,26.4-20.6c17.4-19.8,28.5-43.3,31.4-70.3
			c1.9-18.4-0.4-33.8-11.5-43c-7.2-6-14.6-11.8-22.6-16.2c-10-5.6-20.9-2.1-31.5,9c-5.2,5.4-10.8,10.6-15.2,16.9
			c-28.8,41.3-57.4,82.8-85.9,124.5c-6.5,9.6-7.1,21.7-2.9,30c4.4,8.5,12.4,11.6,21.7,5.7c8.2-5.2,16-12.4,23.6-19.5
			c6.1-5.6,11.7-12.8,17.5-18.1c-0.5,12.3-1.9,18.8-3.2,33.6c-1.9,22.6-11,91.3,23.3,70.2C354.6,398.5,355,351.6,357.2,327.2z
			 M341.8,263.2c-1.4-1.7,0.1-6.2,0.6-8.6c1-4.5,4.8-12.9,9.1-13.7c7.8-1.6,5.5,10.9,2.5,16.7C350.4,264.7,345,267.1,341.8,263.2
			L341.8,263.2z"/>
		<path class="st0" d="M581,486.8c7.2-12.3,10.3-24.4,5.1-34.5c-4.7-9.2-17.9-16-28.5-10c-5.8,3.2-32.3,31.5-35.8,14
			c-3.1-15.3,38-41.1,43.2-48.3c10-13.8,12-27.8,6.7-41.2s-15-19.2-27.8-12.8s-25.1,15-37,24.3c-16.4,12.9-32.6,26.3-48.7,39.7
			c-16.9,14-50.1,30.8-53.7,58.4c-2.9,22.3,6.5,50.5,28.4,36.7c8.8-5.5,24.5-24.4,33.7-28.5c3.8-1.7,12.1-6.4,15.5-4.2
			c9.8,6.3,2,25.3-3.7,31.7c-12.5,14.2-38.9,22.9-47.1,42.9c-12.7,30.8,21.9,44.1,41.6,28.8c24.1-18.8,29.3-30.5,53.2-50
			C543.9,519.2,568,509.1,581,486.8z"/>
		<path class="st0" d="M482.5,252.1c-38.2,1.9-66.1,16.5-87.8,46.1c-32.2,43.8-36.4,74.9-15.4,114.9c9.1,17.3,45.2,23.6,59-7.7
			c12.9-29.5-12.9-30.3-9.7-53.7c1.7-12.6,10.1-26.1,20.2-29.7c6.2-2.2,12.5-0.3,16,5c5.7,8.6,4,24.5,11.5,30.7
			c3.9,3.2,9.5,2.9,14.7,0.2c13.7-7.3,22.7-27.4,25.1-43.4c2.3-15-1.2-31-7.9-43.1C501.7,259.6,492.3,251.7,482.5,252.1z"/>
	</g>
</g>
</svg>
