<svg xmlns="http://www.w3.org/2000/svg" viewBox="0 0 716.22 311.4"><defs><style>.cls-1{fill:#fff;}</style></defs><title>Soundcloud</title><g id="Layer_2" data-name="Layer 2"><g id="Layer_1-2" data-name="Layer 1"><path class="cls-1" d="M452.88.79a103.15,103.15,0,0,1,24.27,3.86q70.85,18.94,103,85a143.88,143.88,0,0,1,13.38,46.49c.17,1.42.41,2.83.65,4.24a2.37,2.37,0,0,0,.33.63c1.4.31,2.54-.51,3.74-.94a86.76,86.76,0,0,1,31.54-5.29,88.1,88.1,0,0,1,34,168.64,85.82,85.82,0,0,1-28.94,7.27H383.69c-5.89-1.66-8.44-4.59-9-10.47a31.42,31.42,0,0,1-.09-3.22q0-136.31,0-272.62c0-1.9.24-3.8.38-5.7A7.43,7.43,0,0,1,378.32,13a19,19,0,0,1,4.1-2.16,142.69,142.69,0,0,1,27-7.89c5.71-1.1,11.44-2.31,17.33-2.19,1.5,0,3,0,4.49-.07,1.32-.09,2.8.52,3.92-.7h8.59c.66.87,1.63.7,2.53.71Z"/><path class="cls-1" d="M0,226.2c1.19-1.19,1.22-2.75,1.42-4.27Q3.51,206,5.63,190.08a12.27,12.27,0,0,1,.17-1.42c.36-1.54,1.19-2.62,2.92-2.57a2.69,2.69,0,0,1,2.68,2.43c.51,2.57,1,5.15,1.35,7.74,1.54,10,2.95,20,4.64,30a19.38,19.38,0,0,1-.32,6.34C15.45,243.4,13.71,254.21,12,265a30,30,0,0,1-.66,3.14,2.74,2.74,0,0,1-2.58,2.14A2.68,2.68,0,0,1,5.93,268a47.48,47.48,0,0,1-.82-4.93c-1.27-9.67-2.51-19.35-3.78-29A5.54,5.54,0,0,0,0,230.5Z"/><path class="cls-1" d="M383.67,311.38v-.72H634.83l.07.74Z"/><path class="cls-1" d="M452.88.79,446.33.72c-.9,0-1.87.16-2.53-.71h9.31a3.18,3.18,0,0,0-.29.48C452.78.57,452.86.69,452.88.79Z"/><path class="cls-1" d="M426.79.78a.61.61,0,0,0-.17-.77h8.59c-1.13,1.22-2.6.61-3.92.7C429.79.81,428.29.76,426.79.78Z"/><path class="cls-1" d="M370.74,222.12c0,9.17-.6,16.29-1.13,23.42-.34,4.63-.46,9.28-.79,13.92-.74,10.34-1.16,20.7-1.74,31-.18,3.33-.42,6.66-.65,10-.41,5.81-4.38,9.66-9.9,9.62s-9.14-3.78-9.47-9.57c-.74-13.08-1.42-26.17-2.18-39.25-.58-10.11-1.3-20.21-1.83-30.32a94.93,94.93,0,0,1,0-11.08c.51-7.86.36-15.73.51-23.6.31-15.85.4-31.71.94-47.56.36-10.49.22-21,.62-31.46.5-13.35.32-26.71.81-40,.4-10.85.33-21.69.61-32.54.12-4.76.29-9.53.47-14.29.19-5.15,3.64-9.1,8.34-9.62a9.67,9.67,0,0,1,10.75,7.84,14.18,14.18,0,0,1,.28,2.83c.3,15,.45,30,.91,45,.39,12.75.35,25.51.83,38.26.39,10.25.2,20.51.65,30.75.51,11.68.28,23.37.77,35,.44,10.37.39,20.74.62,31.11C370.3,215.8,370.87,220,370.74,222.12Z"/><path class="cls-1" d="M339.32,219.6c.41,12.06-.53,24.07-1.29,36.09-.34,5.35-.55,10.71-.82,16.07q-.75,15-1.53,30a9.42,9.42,0,0,1-7.18,8.79c-3.22.88-7.11-.74-9.34-3.88a8.58,8.58,0,0,1-1.52-4.68c-.34-6.55-.81-13.09-1.11-19.63-.61-13.46-.9-26.94-1.79-40.38-.75-11.34-.64-22.66-.3-34,.41-13.24.21-26.48.73-39.71.47-12.16.2-24.33.68-36.49.53-13.35.23-26.72.76-40.07.46-11.69.34-23.37.63-35.06.09-3.46.22-6.91.43-10.36a8.69,8.69,0,0,1,8.48-8.48,9.13,9.13,0,0,1,9.47,7.92,15.2,15.2,0,0,1,.08,1.79c.26,13.24.4,26.48.82,39.71.45,14,.37,27.91.86,41.85.34,9.78.21,19.56.6,29.33.52,12.88.36,25.76.82,38.63C339.1,204.58,339.13,212.09,339.32,219.6Z"/><path class="cls-1" d="M284.34,224.41c.55-12.39.29-24.8.8-37.18.35-8.58.37-17.16.59-25.74.51-20.26.87-40.52,1.56-60.78.26-7.75.38-15.49.54-23.24a14,14,0,0,1,.72-4.56,8.37,8.37,0,0,1,15.72-.15,10.11,10.11,0,0,1,.68,3.49c.2,7.27.45,14.53.64,21.8.34,13.23.53,26.46,1,39.69q.86,25.2,1.41,50.4c.28,12.51.84,25,1.16,37.53.18,7-.6,14-1.07,21.05-.31,4.64-.45,9.28-.77,13.92-.75,10.7-1.16,21.42-1.74,32.13-.17,3.21-.37,6.42-.64,9.63a8.85,8.85,0,0,1-8,8.25c-4.06.31-7.91-2.87-8.84-7.33a11.41,11.41,0,0,1-.21-1.77c-.54-11.07-1-22.14-1.6-33.21-.59-11.42-1.3-22.84-1.88-34.26C284.21,230.86,284.34,227.63,284.34,224.41Z"/><path class="cls-1" d="M254.7,221.12c.35-15.39.58-30.17,1-45,.58-18.23,1-36.47,1.44-54.71.43-16.68,1.07-33.36,1.31-50.06a12,12,0,0,1,.4-3.18c1.18-4.12,4.41-6.39,8.56-6a7.85,7.85,0,0,1,6.8,7.55c.55,7.74.51,15.49.72,23.24.47,17.64.92,35.28,1.53,52.91.52,15.13,1,30.26,1.36,45.4.23,10.6.66,21.21,1.14,31.8.28,6.22-.58,12.38-.76,18.57-.14,5-.77,10-1.08,15-.59,9.63-1.08,19.28-1.68,28.91q-.54,8.74-1.26,17.47a7.81,7.81,0,0,1-7.09,7.32c-3.62.39-7.14-2.21-8.26-6a16.51,16.51,0,0,1-.42-3.9c-.55-10.59-1.07-21.19-1.65-31.78-.68-12.49-1.44-25-2.08-37.48C254.55,227.68,254.7,224.09,254.7,221.12Z"/><path class="cls-1" d="M248.93,222.17c.33,9.39-.54,15.9-1,22.43-.3,4.16-.49,8.32-.8,12.48-1,12.59-1.64,25.2-2.45,37.8-.19,3-.34,6-.7,8.9a7.52,7.52,0,0,1-7.15,6.77c-3.8,0-6.65-2.78-7.19-7-.14-1.06-.33-2.12-.39-3.19-.57-9.87-1.07-19.75-1.67-29.62q-1.24-20.33-2.59-40.65c-.2-3.11.25-6.19.33-9.28.35-13.7.63-27.41,1-41.12.49-19.07.95-38.13,1.55-57.19.5-15.61,1.08-31.21,1.33-46.82.06-3.45.23-6.91.51-10.35a6.88,6.88,0,0,1,6.69-6.62,7.41,7.41,0,0,1,7.52,5.85,11.39,11.39,0,0,1,.18,2.13c.29,10.13.55,20.26.85,30.38.49,16.56.94,33.12,1.54,49.68.51,14.17.84,28.36,1.42,42.52C248.34,201.17,248.06,213.1,248.93,222.17Z"/><path class="cls-1" d="M198.2,150c.32-11.92.61-23.84,1-35.75.41-13.82.89-27.64,1.32-41.46.16-5,2.61-8.12,6.6-8.23s6.73,3.11,6.9,8.29c.53,16.8,1,33.6,1.64,50.39.54,13.58.95,27.16,1.44,40.74.5,13.94.94,27.88,1.46,41.81.37,9.77,1,19.54.39,29.31-.71,11.29-1.73,22.56-2.57,33.85-.58,7.72-1.08,15.45-1.61,23.17-.26,3.8-.46,7.61-.81,11.41-.41,4.42-3.21,6.94-7.24,6.68-3.45-.22-5.83-2.7-6.15-6.69-.26-3.2-.4-6.42-.63-9.63-.68-9.27-1.12-18.55-1.71-27.83q-1.16-18.37-2.43-36.73c-.11-1.57.17-3.08.2-4.63.24-9.41.54-18.83.8-28.24.33-12,.62-24.07,1-36.11.1-3.45.37-6.9.57-10.35Z"/><path class="cls-1" d="M189.83,224.49c.26,7.18-.77,14.28-1.3,21.4q-.84,11.41-1.72,22.81-1.39,18-2.85,36a6,6,0,1,1-12,.12c-.38-3.07-.42-6.18-.67-9.27-.69-8.55-1.1-17.12-1.7-25.68-.84-12.12-1.77-24.24-2.62-36.36a139.15,139.15,0,0,1,.12-16.8c.08-1.67.25-3.33.31-5q.87-26.27,1.71-52.55c.43-12.75.92-25.49,1.38-38.24q.68-18.4,1.37-36.81a9.85,9.85,0,0,1,.16-1.78,6.24,6.24,0,0,1,6.47-5A6.07,6.07,0,0,1,184,83c.3,3.92.47,7.85.62,11.78.58,15.37,1.11,30.73,1.7,46.1q.67,17.69,1.44,35.37Q188.74,200.38,189.83,224.49Z"/><path class="cls-1" d="M160.51,226.1c.26,6.46-.74,12.84-1.16,19.26-.46,7.13-1.22,14.23-1.83,21.35q-1.37,16-2.71,32c-.13,1.54-.21,3.09-.25,4.64a10.07,10.07,0,0,1-.7,3.49,5.43,5.43,0,0,1-5,3.47,5.36,5.36,0,0,1-5-3.9,15.34,15.34,0,0,1-.55-3.16c-.58-8.2-1.07-16.4-1.67-24.6-.82-11-1.78-22.08-2.56-33.12-.74-10.46-1.54-20.91-.44-31.41.56-5.32.46-10.71.76-16.06.74-13.09,1.15-26.19,1.74-39.28q1-23.21,2.2-46.41a14.93,14.93,0,0,1,.66-3.86,4.81,4.81,0,0,1,4.88-3.46,4.88,4.88,0,0,1,5,3.33,10.71,10.71,0,0,1,.64,3.13c.57,10.71,1,21.42,1.62,32.13.83,15.34,1.74,30.68,2.6,46,.26,4.64.37,9.28.7,13.92C160,211.09,160.16,218.6,160.51,226.1Z"/><path class="cls-1" d="M109.4,228.46c.59-7.6,1.15-15.2,1.77-22.79s1.3-15.18,1.93-22.77c.74-8.9,1.43-17.8,2.19-26.7.25-3,2.17-5,4.58-5.1s4.55,1.57,5,4.58.67,5.91.94,8.87c1.28,14.23,2.52,28.46,3.82,42.69.57,6.28,1.28,12.55,1.89,18.83.46,4.79-.56,9.5-.86,14.25-.42,6.65-1.21,13.27-1.81,19.91q-1.37,14.94-2.69,29.88c-.36,4-.63,8.07-1,12.11a20.27,20.27,0,0,1-.46,3.53c-.69,2.6-2.58,4.09-4.82,4a5,5,0,0,1-4.6-4.71c-.35-3-.52-5.93-.75-8.9q-1.37-17.27-2.72-34.54c-.55-7.12-1.15-14.24-1.57-21.37C110.06,236.3,109.31,232.41,109.4,228.46Z"/><path class="cls-1" d="M103,228.15c-.55,6.11-1,11.81-1.58,17.49-.59,6.16-1.23,12.31-1.83,18.47q-1.37,14-2.7,28.07c-.33,3.44-.61,6.88-.91,10.32a15.79,15.79,0,0,1-.27,2.48,4.33,4.33,0,0,1-4,3.47,4.28,4.28,0,0,1-4.18-3.7c-.34-2-.48-4-.64-6-.56-6.88-1.06-13.77-1.64-20.65-.85-10.2-1.76-20.39-2.62-30.59-.63-6.2-1.26-12.37-1.56-18.5a68.26,68.26,0,0,1,.61-8.9c1.1-13.28,2.24-26.57,3.32-39.85.58-7.12,1.09-14.24,1.64-21.37.22-2.85.41-5.7.73-8.54.29-2.56,1.9-4.16,4.05-4.25s4.09,1.58,4.39,4.3c.57,5.21,1,10.43,1.47,15.64C98.2,176,99.14,186,100,195.9c.82,9.13,1.59,18.26,2.39,27.39C102.58,225,102.81,226.8,103,228.15Z"/><path class="cls-1" d="M53,228.56c.56-6.74,1.08-13.39,1.66-20s1.27-13.52,1.88-20.28q1.4-15.48,2.75-31c.14-1.54.1-3.11.3-4.64.3-2.36,1.64-3.72,3.55-3.8s3.21,1,3.62,3.58c.52,3.29.85,6.61,1.17,9.93,1.28,13.16,2.5,26.32,3.8,39.48.82,8.29,1.74,16.58,2.61,24.87.39,3.72-.51,7.36-.84,11-.74,8.42-1.73,16.82-2.61,25.23l-3.32,31.62c-.25,2.37-.38,4.76-.77,7.1-.42,2.52-1.77,3.84-3.51,3.84-1.92,0-3.46-1.58-3.72-4.1C59,296,58.53,290.51,58,285l-3.4-37C54,241.53,53.51,235,53,228.56Z"/><path class="cls-1" d="M45.92,229.38c-.52,4.29-1.13,9.61-1.8,14.92-1.33,10.51-2.7,21-4,31.52-.57,4.49-1.11,9-1.68,13.47a17.11,17.11,0,0,1-.41,2.1c-.5,2-1.61,3-3.13,2.79a3,3,0,0,1-2.69-2.88q-.71-5.67-1.36-11.34-1.69-14.72-3.34-29.45-1.16-10.29-2.3-20.58c-.34-3.12.45-6.17.76-9.24,1.2-11.84,2.64-23.66,4-35.49.74-6.62,1.44-13.25,2.17-19.88a9.11,9.11,0,0,1,.38-2.1A2.73,2.73,0,0,1,35,161.4a2.64,2.64,0,0,1,2.82,1.78,18.93,18.93,0,0,1,.8,3.84Q42,194.49,45.31,222A52.74,52.74,0,0,1,45.92,229.38Z"/></g></g></svg>