<svg xmlns="http://www.w3.org/2000/svg" viewBox="0 0 560.01 559.8"><defs><style>.cls-1{fill:red;}</style></defs><title>Spotify Red</title><g id="Layer_2" data-name="Layer 2"><g id="Layer_1-2" data-name="Layer 1"><g id="Layer_2-2" data-name="Layer 2"><g id="Layer_1-2-2" data-name="Layer 1-2"><path class="cls-1" d="M299.22,0c6.07,2,12.46,1.73,18.69,2.57C365.28,9,408.29,26.28,446.47,54.86c54.72,41,91.05,94.69,105.93,161.51,19.68,88.41,1.21,168.94-55.45,239.76-37.87,47.34-86.84,78.74-145.6,94-67.32,17.47-132.83,11.5-195-19.8C78.18,491,27.53,428.35,7.9,343c-20.47-89-1-170.12,56.52-241.17C104.2,52.72,155.81,21.57,217.36,7A241.9,241.9,0,0,1,260.19.78c1.21-.06,2.52.2,3.54-.78ZM236.4,147.9c-13.56.59-30.66.71-47.71,2.29-27.75,2.57-55.12,7-81.87,15C91.58,169.71,83.77,183.41,88,198c4,14.09,18.22,21.77,33.28,17.36,38.53-11.27,78-15,117.93-15.16A502.25,502.25,0,0,1,319,206.29c44.54,6.92,87.33,19,126.7,41.69a26,26,0,0,0,35.63-9.07l.37-.63c7.18-12.8,2.77-28.19-10.31-35.81a330,330,0,0,0-54-25.19C360.06,156.57,300.62,148.4,236.4,147.9Zm-3.08,96.48a377.19,377.19,0,0,0-60,4.14A348.94,348.94,0,0,0,121.57,260c-12.52,3.82-18.9,16.63-14.56,28.54,4.19,11.51,15.81,16.61,29.24,12.68,49.16-14.4,99.22-16.22,149.63-9.52,45.06,6,87.93,19.17,127.12,42.92a19.87,19.87,0,0,0,13.85,2.88c9.85-1.66,16.79-8.3,18.68-17.74,1.72-8.6-2.28-17.64-10.47-22.66-6.09-3.73-12.33-7.26-18.69-10.5-57.49-29.36-118.87-41.9-183-42.22ZM393.24,411.76a17.41,17.41,0,0,0,16.52-23.62c-2-5.16-6-8.08-10.52-10.74-48.74-28.78-101.85-41.15-158-42a416.82,416.82,0,0,0-59.5,3.7,473.42,473.42,0,0,0-50.84,9.19c-9.53,2.31-15.33,11.44-13.2,20.44,2.33,9.9,11.17,15.57,21.12,13.42,24.31-5.26,48.77-9.3,73.65-10.85,28.36-1.77,56.51-.69,84.46,4.61A260.88,260.88,0,0,1,383.6,408.7C386.56,410.5,389.65,412,393.24,411.76Z"/></g></g></g></g></svg>