<?xml version="1.0" encoding="utf-8"?>
<!-- Generator: Adobe Illustrator 21.1.0, SVG Export Plug-In . SVG Version: 6.00 Build 0)  -->
<svg version="1.1" id="Layer_1" xmlns="http://www.w3.org/2000/svg" xmlns:xlink="http://www.w3.org/1999/xlink" x="0px" y="0px"
	 viewBox="0 0 358 639.2" style="enable-background:new 0 0 358 639.2;" xml:space="preserve">
<style type="text/css">
	.st0{fill:#14CC61;}
</style>
<title>Subscribe</title>
<g id="Layer_2">
	<g id="Desktop">
		<path class="st0" d="M336.4,241c8.8,1.6,16.2,6,17,17.1c0.7,10-6.6,21.6-16.7,24.9c-5.6,1.8-11.7,3.2-17.5,3
			c-12.4-0.6-23.1,2.2-37.4,4.5c-6.2,1-12.4,1.3-18.7,1c-9.4-0.5-15.1-6.5-16.8-16.2c-1.6-9.2,2.7-19,11.9-22.2
			c10.3-3.5,14.1-5.2,24.8-7.5c11.1-2.4,22.3-4.1,33.7-4.9C322.8,240.2,330,239.8,336.4,241z"/>
		<path class="st0" d="M234.9,281.5c-2.5,12.3-13.1,19.5-25,17c-10.4-2.2-17.2-13.4-14.9-24.7c2.5-12,13.8-19,26.6-16.3
			C232.5,259.9,237.4,268.8,234.9,281.5z"/>
		<path class="st0" d="M299.7,315.5c-3.7,3.2-7.4,6.4-9.5,8.2c-9.1-4.8-15.8-10.2-23.4-12.1c-19-4.8-37.4-2.3-54.1,9
			c-11.4,7.7-19.3,17.5-19.7,31.7c-0.4,9.2-0.2,18.4,0.6,27.6c1.2,11.4,8,18.9,19,22.3c5.4,1.7,10.8,3.8,16.4,4.4
			c36.4,3.5,72.8,6.8,109.3,9.9c8.4,0.7,15.6-5,18.5-12.8c3-8,1.2-16.5-6.2-21.4c-6.6-4.4-14.2-7.3-21.5-10.2
			c-6-2.4-12.3-3.8-19.9-6.1c6.9-2.9,12.4-5,17.7-7.4c8.5-3.8,16.5-8.3,21.2-16.9c5.8-10.5,3.5-21-6.3-28.1
			C328.9,304.6,311.6,305.3,299.7,315.5z M270.2,360.4c-1,4.5-11.4,7.1-16.4,7.6c-20.3,1.9-15.1-16.2,1.6-17.4
			C265.2,349.8,271.6,354.3,270.2,360.4z"/>
		<path class="st0" d="M106.7,430c-6,5-10.7,11.3-14.8,17.9c-6.1,9.6-6.3,22.4-11.7,32.6c-2.3,4.3-5.8,9.7-11.2,9.6
			C56.4,490,50.5,474,55.5,464c3.4-6.8,10.6-11.8,9.9-20.2c-0.7-7.4-7.8-13-14.3-15.4c-8.3-3.1-16.9-1.7-20.8,6.1
			c-14.8,29.4-22.2,58.1,1.6,81.4c13.4,13.2,29.3,14.2,46.9,9c12-3.5,20.1-13,26.3-23.5c5.2-8.8,12-39.8,25.5-39.2
			c2.6,0.1,4.7,2,6.1,4.3c2,3.4,2.5,7.4,2.6,11.4c0.3,11.6-3.1,20.7-8.2,30.8c-2.4,4.8-4.2,10.6-2.2,15.6
			c3.4,8.5,15.1,10.9,23.2,9.5c9.7-1.7,15-15,18.3-23.7c12.7-33.2,8.4-58.3-10.5-76.6c-9.9-9.6-21.7-11.8-33.9-11
			C119.4,423.6,111.8,425.8,106.7,430z"/>
		<path class="st0" d="M269.4,536.4c-5.3,2.3-9.8,5.9-13.1,10.6c-11.6,16.5-7.4,42-26.2,53.8c-9.5,6-17-8-17.1-15.4
			c-0.1-8.8,7.3-16.9,6.5-25.8c-0.8-9.5-10.7-11.7-18.4-12.8c-4.8-0.7-5.6-0.4-9.9,1.9c-15.9,8.5-15,34.9-14.2,50.4
			c1.3,25,26.6,41.9,50.3,39.8c26.5-2.3,34.1-23.2,43.2-44.5c2.7-6.4,10-22.2,18.9-19.3c16.4,5.4-0.8,36.7-1.6,45.6
			s9.7,15,17.4,15.5c14.2,1,23.4-13.8,28.1-26.2C347.2,572.7,312.8,517.3,269.4,536.4z"/>
		<path class="st0" d="M98.4,303.6c-23,2.2-44.6-3.8-64.1,9.6c-8.8,6.1-11.1,10.3-8.2,22.2c2.5,10.1,15.5,17.3,25,18
			c14.9,1,30.2-5.5,44.9-7.5c9.4-1.3,20.9-3.4,30.2-0.3c7.7,2.6,10.2,11.9,6.2,19c-4.2,7.5-13,6.8-20.3,7.1
			c-9.4,0.6-18.8,0.2-28.1-0.9c-10.1-1.3-20.4-1-30.4,1.1c-11.8,2.4-19.6,7-19.7,19.6c0,5.8,1.5,12.2,5,16.9c5,7,13,11.3,21.5,11.5
			c11.6,0.5,23.2,0.5,34.7-0.2c26.8-1.8,50.8-11.1,69.7-31.5c12-12.9,11.7-35.7,5.7-53.6c-3-9.1-7.1-13.3-13.4-19.9
			c-10.1-10.8-24.4-12.2-36.5-12.1C113.3,302.6,105.8,302.9,98.4,303.6z"/>
		<path class="st0" d="M173.6,267.6c-0.3-46-14.1-69.3-26.8-75.8c-20.2-10.3-35.4-7.8-44.7-3.9C91.9,192.2,84,200.5,81,210.1l-1,3.1
			l-2.4-2.1c-16.8-14.4-30.2-14-49.1-8.4c-8.9,2.7-16.2,9.3-21.3,19.2c-5.7,11.1-8,25.1-6.9,40.2c0.8,9.9,2.8,19.7,6,29.1
			c2.5,7.3,10.9,7,15.6,6.1c25.6-4.5,46-4.8,65.8-5.2c18.8-0.3,38.2-0.7,62.4-4.5C159.1,286.2,173.7,274.8,173.6,267.6z
			 M120.6,227.2c2.5,1.2,4.3,3.5,5,6.2c0.7,2.1,1.5,5.6,1,7.9c-0.1,0.5-0.3,0.9-0.7,1.3c-2.2,2.3-8.9,1.9-11.4,2.1
			c-4.3,0.5-9.4,2.7-10-3.2c-0.3-3.2-0.4-8,1.1-11C108.2,225.3,115.9,224.9,120.6,227.2L120.6,227.2z M46.2,255
			c-1,0.2-2.1,0.2-3.1-0.1c-0.2-0.1-0.3-0.1-0.4-0.2c-3.2-1.8-2.4-9.6-1.8-12.3c1.2-6.2,10.5-8.6,15.9-6.6c4,1.5,5.4,5.5,6,9.5
			c0.2,1.7,0.7,4.2,0.3,5.9C61.9,255.4,49.5,254.7,46.2,255z"/>
		<path class="st0" d="M262.1,15.4c-0.5,6.8,1.8,11.5,5.1,17.5s3.2,2.7,5.5,9.1c1.4,4.1,2,8.6,0.5,12.7s-5.8,7.6-10.4,7.5
			c-3.1-0.2-6-1.7-8.1-4.1c-1.9-2.3-3.5-4.9-4.8-7.6c-3.7-6.8-3.3-8.3-8.7-14.1c-6-6.4-11.3-12.4-21.3-9.4c-3.7,1.1-7.4,2.6-9.7,5.6
			c-3.5,4.7-1.9,10.9-0.1,16.1l6.8,20c1.2,3.6,1.1,1.7,0,5.4s-9.6,7.5-13.1,5.7c-1.2-0.7-2.1-1.6-2.8-2.8c-2.8-4.3-2.4-3.6-3.3-8.6
			c-0.9-5.4-1.9-11.2-4.9-15.9c-7.9-12.2-25.4-4.9-32.4,4.7c-12.2,16.6-2.9,54.2,14.6,63.5c5.9,3.1,13.6,3.5,20.4,5.2l-0.3-0.1
			c5.8-0.3,11.7,0,17.4-1c8.3-1.5,16.5-3.7,24.6-5.9c12.2-3.2,24.3-6.8,36.1-11.2c1.2-0.4,2.4-0.9,3.5-1.4
			c10.3-4.1,20.2-9,30.7-12.7c9.8-3.6,14.6-10,14.8-19.2c0.6-28.3-8.6-46.7-27-67.5C285.1-5,263.3-0.7,262.1,15.4z"/>
		<path class="st0" d="M277.1,525.2c40.8-5.9,56.4-23,59.4-65.4l0,0c0.7-9.7-6.4-25.4-18.1-33.3c-5-3.4-12.7-6.5-21.4-2.3
			c-10.3,5-10.1,11.7-9.9,20.9c0.2,7.6,0.5,16.1-6.2,23.5c-8.8,9.6-23,12.3-33.1,6.3c-6.8-4.1-11-11.4-11.2-19.3
			c-0.1-5.4,1.6-10.4,3.4-15.1c1.8-5.1,3.5-10,2.4-14.4c-1.2-3.9-4.1-7.1-7.9-8.5c-11.4-4.6-25,2.1-32.9,10.4
			c-7.2,7.5-12,20.2-12.7,33.7c-0.7,12.9,2.5,24.1,8.4,30l0,0C224.2,518.5,249.6,529.2,277.1,525.2z"/>
		<path class="st0" d="M250.2,151.1c-17-12.1-30.1-11.1-48.2-3.8c-23.3,9.4-31.9,46.9-14.1,86.7c2.8,6.3,9.7,7.6,17.4,5.5
			c45.4-12.3,72.6-8.3,118.1-19.9c8.5-2.2,22.5-14.4,21.6-22.8c-3.1-31.5-14-62.3-32.6-69.8C277.5,113.1,254,132.8,250.2,151.1z
			 M220.3,196.3c-3.1-1.4-3-8.7-2.7-11.3c0.6-5.9,9-8.9,14.2-7.4c3.8,1.1,5.5,4.7,6.3,8.3c0.4,1.6,1,3.8,0.8,5.4
			c-0.6,4-12.2,4.4-15.2,5.1c-0.9,0.3-1.9,0.3-2.9,0.2C220.6,196.4,220.5,196.3,220.3,196.3z M296.7,177.9c-1.9,2.4-8.1,2.5-10.5,3
			c-4,0.9-8.5,3.3-9.6-2.1c-0.6-3-1-7.4,0.1-10.3c1.9-5,9.1-6.1,13.6-4.4c2.4,0.9,4.4,2.9,5.2,5.4c0.8,1.9,1.9,5.1,1.6,7.2
			C297.2,177.1,297,177.5,296.7,177.9L296.7,177.9z"/>
	</g>
</g>
</svg>
