<?xml version="1.0" encoding="utf-8"?>
<!-- Generator: Adobe Illustrator 21.1.0, SVG Export Plug-In . SVG Version: 6.00 Build 0)  -->
<svg version="1.1" id="Layer_1" xmlns="http://www.w3.org/2000/svg" xmlns:xlink="http://www.w3.org/1999/xlink" x="0px" y="0px"
	 viewBox="0 0 498.9 693.2" style="enable-background:new 0 0 498.9 693.2;" xml:space="preserve">
<style type="text/css">
	.st0{fill:#14CC61;}
</style>
<title>Subscribe Mobile</title>
<g id="Layer_2">
	<g id="Layer_1-2">
		<path class="st0" d="M466.1,277.5c10.6,4.5,18.4,11.6,16.4,23.8c-1.9,10.9-14.3,21.1-27.7,21.4c-7.4,0.2-15.5-0.3-22.5-2.4
			c-15.3-4.6-29.3-5-47.8-7c-8-0.9-15.8-2.6-23.5-4.9c-11.5-3.5-17-11.8-16.3-22.8c0.6-10.4,8.7-19.6,21-20
			c13.7-0.5,19-1.1,32.9-0.1c14.5,0.9,28.9,2.7,43.2,5.4C449.4,272.4,458.5,274.3,466.1,277.5z"/>
		<path class="st0" d="M328.5,288.8c-6.5,12.4-21.7,16.8-35.9,10.2c-12.4-5.7-17.6-19.9-11.6-31.2c6.5-12.1,22.5-16,37.6-9
			C331.7,264.7,335.3,275.9,328.5,288.8z"/>
		<path class="st0" d="M399.7,345.9c-5.5,2.3-11,4.5-14.1,5.8c-9.9-8.1-16.8-16-25.7-20.4c-22.3-11.2-45.8-14.4-69.8-7.6
			c-16.4,4.7-28.8,12.7-33.3,27.8c-2.9,9.8-5.6,19.7-7,29.8c-1.7,12.6,4.6,22.9,17.4,30c6.2,3.5,12.4,7.6,19.1,9.9
			c44.3,15.4,88.6,30.5,133.1,45.4c9.6,3.3,20.3,0.1,26.6-7.9c5.9-7.7,6.1-17.3-1.7-25c-7-6.8-15.6-12.4-23.9-17.9
			c-6.7-4.4-14.2-8-23.1-12.9c9.4-0.9,16.8-1.4,24.1-2.3c11.6-1.3,22.8-3.7,31.1-11.3c10.2-9.4,10.2-21.5,0-32.1
			C439.2,343.5,417,338.7,399.7,345.9z M350.4,384.6c-2.6,4.5-16.1,4-22.4,2.9c-25.8-4.4-14.2-22.2,6.9-18.2
			C347.2,371.7,353.9,378.5,350.4,384.6L350.4,384.6z"/>
		<path class="st0" d="M127.8,407.3c-8.8,3.4-16.4,8.7-23.4,14.4c-10.3,8.4-14.1,22.1-23.7,31.3c-4.1,3.9-9.9,8.5-16.7,6.8
			c-15.6-4.1-18.5-23.2-9.5-32.3c6.2-6.2,16.5-9.3,17.9-18.6c1.2-8.2-6-16.4-13.5-21c-9.5-6-20.5-7.2-27.6,0
			C4.9,414.5-12.2,443,10.8,475.6c13,18.5,32.5,24.5,55.8,24.6c15.9,0,28.7-7.6,39.3-16.9c8.9-7.8,26-38.9,42.6-34
			c3.2,0.9,5.3,3.7,6.3,6.5c1.6,4.3,1.1,8.8,0.1,13c-2.9,12.6-9.6,21.2-18.8,30.5c-4.4,4.4-8.2,10-7.1,16.1
			c1.9,10.2,15.7,16.6,26.2,17.6c12.5,1.2,22.8-11.3,29.4-19.6c25-31.6,26.7-59.9,8.3-85.6c-9.6-13.4-23.7-19.6-39.1-22.6
			C145.4,404.4,135.3,404.4,127.8,407.3z"/>
		<path class="st0" d="M300.3,573.3c-7,0.7-13.6,3.2-19.3,7.2c-19,14-21,42.7-47.6,49.5c-13.5,3.4-18.9-14.1-17-21.9
			c2.3-9.5,13.8-15.8,15.3-25.6c1.7-10.4-10.1-16-19.4-19.6c-5.8-2.3-6.9-2.2-12.8-1.1c-22.1,4.1-28.4,32.6-31.7,49.6
			c-5.3,27.3,21.4,53.5,51.5,58.8c33.6,6,48.8-14,66.1-34c5.2-6,18.6-20.7,28.9-14.8c18.9,11-11.2,39.1-14.8,48.5
			s7.9,19.2,17.3,22.2c17.4,5.6,33-7.3,42.2-19.2C387,637.1,359.7,566.6,300.3,573.3z"/>
		<path class="st0" d="M152.8,268.9c-29.2-5-54.4-18.3-82.4-10.1c-12.7,3.7-16.7,7.5-16.4,21.2c0.3,11.6,14.5,23.5,26.1,27.2
			c18.3,5.9,39,3.7,57.9,6.3c12.1,1.6,26.9,3,37.7,9.3c8.9,5.2,9.4,16,2.4,22.4c-7.3,6.7-18.1,3.1-27.3,1.2
			c-11.8-2.4-23.4-5.7-34.7-10c-12.2-4.6-25.1-7.5-38.1-8.4c-15.4-1.1-26.2,1.2-29.9,14.8c-1.7,6.2-1.5,13.6,1.5,19.7
			c4.7,9.7,13,16.2,23.6,19.2c14.3,4.1,28.7,8,43.2,10.9c33.8,6.6,66.2,4.3,95.5-11.6c18.5-10,24.4-34.6,22-55.8
			c-1.2-10.7-5.1-16.5-11.1-25.6c-9.6-14.8-27-20.8-42.1-24.6C171.5,272.6,162.2,270.5,152.8,268.9z"/>
		<path class="st0" d="M256.3,254.3c12.4-49.5,1.9-78.9-12.1-89.9c-22.2-17.5-41.9-19.7-54.4-18.4c-14.1,1.4-26.2,7.8-32.5,17.1
			l-2,3l-2.5-3c-16.9-20.8-33.7-24.7-58.7-24.6c-11.8,0-22.8,4.8-31.9,13.9c-10.1,10-16.9,24.4-19.8,40.9c-1.8,11-2,22.2-0.6,33.2
			c1,8.6,11.6,11,17.7,11.6c33.1,3.4,58.6,9.5,83.2,15.4c23.5,5.6,47.7,11.5,78.8,15C233,269.6,254.4,262,256.3,254.3z M201.7,194
			c2.7,1.9,4.4,5,4.5,8.3c0.2,2.5,0.3,6.5-0.9,8.8c-0.3,0.5-0.7,0.9-1.2,1.1c-3.4,1.8-11.6-0.9-14.8-1.4c-5.5-0.8-12.5-0.1-11.6-6.6
			c0.5-3.6,1.8-8.7,4.4-11.4C186.7,188,196.5,190,201.7,194z M101.3,200.2c-1.3-0.1-2.6-0.5-3.8-1.1c-0.2-0.1-0.3-0.2-0.5-0.4
			c-3.4-3-0.3-11,1.2-13.8c3.2-6.3,15.4-6,21.6-2c4.5,2.9,5.2,7.7,4.8,12c-0.2,1.9-0.3,4.7-1.3,6.4
			C120.8,205.5,105.6,200.8,101.3,200.2L101.3,200.2z"/>
		<path class="st0" d="M436.7,11.7c-2.5,7.2-1,12.9,1.4,20.4s3.3,3.9,4.2,11.5c0.6,4.8,0.2,9.8-2.9,13.8c-3.7,4.3-9.6,6.2-15.1,4.7
			c-3.7-1.2-6.9-3.7-8.9-7.1c-1.9-3.1-2.7-6.4-3.8-9.7c-2.7-8.5-1.8-10-6.9-17.9c-5.6-8.8-10.6-17-23.9-16.9c-4.9,0-10,0.4-13.6,2.9
			c-5.7,3.9-5.3,11.1-4.6,17.3l2.9,23.6c0.5,4.2,1,2.2-1.6,5.8s-14,5-17.9,1.9c-1.2-1-2.2-2.4-2.7-3.9c-2.2-5.5-2-4.7-1.7-10.3
			c0.4-6.1,0.8-12.6-1.7-18.6c-6.4-15.6-30.2-13.4-41.7-5.3c-19.8,13.9-18.8,57.3,0.5,72.8c6.5,5.2,15.9,8.1,24,12.1l-0.3-0.2
			c7.3,1.6,14.5,3.7,21.9,4.5c10.7,1.1,21.5,1.3,32.2,1.5c16,0.4,32.1,0.4,48-0.5c1.6-0.1,3.2-0.2,4.8-0.3c14-1.1,27.7-3.2,41.7-3.9
			c13.2-0.7,20.9-6.1,23.7-15.9c8.6-30.2,2.3-52.8-14.7-81C470.9-2.9,442.7-5.2,436.7,11.7z"/>
		<path class="st0" d="M313,563.8c52.4,6.6,76.5-6.8,92-51.2l0,0c3.5-10.2-0.9-29.3-13.2-41.5c-5.2-5.2-14-11-25.9-9.3
			c-14.2,2.1-15.9,9.3-18.1,19.3c-1.8,8.2-3.9,17.5-14.3,23.3c-13.5,7.5-32,5.9-42.9-3.8c-7.2-6.4-10.6-15.9-8.6-24.3
			c1.4-5.9,4.9-10.6,8.4-15.2c3.7-4.9,7.2-9.6,7-14.6c-0.1-4.2-3-8.7-7.5-11.7c-12.8-8.6-31.7-5.7-43.8,0.6
			c-11,5.8-20.4,17.8-25.1,32.1c-4.4,13.6-3.6,26.6,2.1,34.9l0,0C249.2,539.8,277.8,559.3,313,563.8z"/>
		<path class="st0" d="M384,153.6c-17.8-18.4-34.3-21.5-58.9-19.4c-31.6,2.7-52.8,40.2-41.8,88.6c1.8,7.7,9.9,11.2,20.1,11.4
			c59.8,1.2,92.6,14.2,152.5,16.2c11.1,0.4,32-8.4,33.3-17.5c4.9-34.9,0-71.4-21-85.3C428.6,121.5,393.9,135.2,384,153.6z
			 M334.2,192.6c-3.5-2.5-1.3-10.3-0.2-13c2.4-6.2,13.6-6.7,19.7-3.5c4.5,2.4,5.5,6.8,5.6,10.9c0,1.8,0.1,4.4-0.6,6
			c-1.8,4.1-16.4,0.9-20.4,0.6c-1.2,0-2.5-0.3-3.6-0.7C334.6,192.8,334.4,192.7,334.2,192.6L334.2,192.6z M434.3,197.2
			c-3,1.9-10.8,0.1-13.8-0.1c-5.2-0.4-11.6,0.9-11.3-5.3c0.1-3.4,0.8-8.2,3-11c3.8-4.8,13-3.6,18.1-0.3c2.7,1.6,4.5,4.3,5,7.4
			c0.5,2.3,0.9,6.1,0,8.3C435.1,196.5,434.8,196.9,434.3,197.2L434.3,197.2z"/>
	</g>
</g>
</svg>
