<svg xmlns="http://www.w3.org/2000/svg" viewBox="0 0 779.76 282.77"><defs><style>.cls-1{fill:#fff;}</style></defs><title>Tour White</title><g id="Layer_2" data-name="Layer 2"><g id="Layer_1-2" data-name="Layer 1"><g id="Layer_2-2" data-name="Layer 2"><g id="Mobile"><g id="Tour"><path class="cls-1" d="M158.06,25.28c3.4.7,6.8,1.6,10.2,2.5,4.8,1.3,9.9,3.1,12.9,7.2,2.4,3.4,2.9,7.7,3.2,11.8,1.3,15,1.6,32.2-9.3,42.6-8.5,8-22.7,10.7-26.6,21.8-2.8,7.8,1.2,16.3,5.8,23.1,17.1,25.1,46.1,45.1,48.7,75.3,1.3,14.7-4.7,30-16.1,39.5s-27.8,12.5-41.7,7.2c-24-9.2-33.1-37.7-39-62.7s-14.2-53.6-37.6-64c-12.9-5.7-27.7-4.4-41.4-7.5-36.5-8.1-32.4-48.2-10.1-69.6,11.3-10.8,25.8-17.6,40.7-22.4A194,194,0,0,1,158.06,25.28Z"/><path class="cls-1" d="M344.66,30.68C333.26,17,310.76,6.48,287.26,4c-18.5-2-33.7,1.5-42.9,9.8-13.4,12.1-22.8,29.6-24.6,45.7-5.2,45.8-8.9,94.6,8.9,142.8,8,21.6,18.8,36,41.7,46.4,30,13.5,69.8,13,89.5-11.3,8-9.8,10-20.9,11.4-33.2,1.8-15.7,3.6-31.3,4.7-47.1.8-10.5,1.2-21.1,1.2-31.7C377.46,88.38,366.76,57.28,344.66,30.68ZM294.86,189a32.1,32.1,0,0,1-3.4-8.9c-2.6-10.4-5.2-21.3-7-31.8-3.5-20.2-8.6-24.1-5.4-43.9,1.3-7.8.4-16.1,6.1-22,2.8-2.9,19.5-2,22.4,1.8,7.2,9.5,5,20.5,3.5,30.6-2.6,16.8-2.8,13.8-2.9,31,0,7.6-.6,15.2-.2,22.8.4,6.2,3.1,13.6,1.7,19.6-.8,3.7-4.2,5.6-8.8,4.3C298.56,191.78,296.16,191.18,294.86,189Z"/><path class="cls-1" d="M587.86,112.78c1-18.8-1.1-19-1.8-35.2-.7-15-7.6-27.7-20-36.7s-36.7-12-49-2.1l-.8.8c-4.9,5.9-5.6,14.3-6.3,21.1-.1,1.3-.2,2.6-.4,3.8-1.6,13.4-1,8.2-1.8,21.5l-.2,2.7c-.2,3.9-.5,7.8-.7,11.7-.6,11.1-1.3,22.6-2.2,33.9-.2,2.7-.2,5.7-.2,8.5,0,9.9-.1,20.1-8.1,24.9a14.91,14.91,0,0,1-12.5,1.7,11.69,11.69,0,0,1-7.4-7.6c-6.4-18.7,12.3-86,19.3-111.4,3.9-14,4-14.5,3.7-15.9-1.6-9-4.9-27.8-26.7-32.7-20.5-4.7-32.4-.3-42.6,15.4-18.2,28.1-28.6,61.9-32,103.4-.9,11-1.2,22.4-1.2,34.8v3c.1,18.9.2,40.3,17.4,56.2,10.4,9.7,23.5,17,39,21.9,3.3,1,6.8,2,10.4,2.8,25.1,5.5,56.8,4.4,76.3-14.8C569.86,195.58,585.36,159,587.86,112.78Z"/><path class="cls-1" d="M743.76,214.68c-3.2-6.8-6.3-13.6-8.1-17.5,11.3-10.8,22.3-18,28.6-28,15.6-25.1,20.1-52.6,10.4-81.9-6.6-20-17.9-35.7-39.1-42.9-13.7-4.7-27.7-9.1-41.8-11.9-17.7-3.5-32,2.7-42,16.9-4.9,7-10.6,13.7-13.8,21.4q-32.25,75.9-63.3,152.3c-4.8,11.7.6,24.7,11.1,32.5,10.8,8,24.3,9.4,35,1,9.5-7.4,17.3-16.9,25-26.2,6.2-7.4,11.2-15.9,18-25.8,1.3,11.3,2.1,20.1,3.3,28.8,1.9,14,5.2,27.5,16,38.3,13.2,13.2,30.2,14.7,45.1,4A49.42,49.42,0,0,0,743.76,214.68ZM686.46,151c-3-1.5-3.1-6.6-3.5-9.2-.9-5,.5-14.8,6.5-16.7,10.7-3.5,13.7,10.3,12.3,17.1-1.8,8.3-8.6,12.1-15.3,8.8Z"/></g></g></g></g></g></svg>