<?xml version="1.0" encoding="utf-8"?>
<!-- Generator: Adobe Illustrator 21.1.0, SVG Export Plug-In . SVG Version: 6.00 Build 0)  -->
<svg version="1.1" id="Layer_1" xmlns="http://www.w3.org/2000/svg" xmlns:xlink="http://www.w3.org/1999/xlink" x="0px" y="0px"
	 viewBox="0 0 455.3 361.2" style="enable-background:new 0 0 455.3 361.2;" xml:space="preserve">
<style type="text/css">
	.st0{fill:#14CC61;}
</style>
<title>Tour</title>
<g id="Layer_2">
	<g id="Desktop">
		<path class="st0" d="M54.8,230.9c13.4-9.3,28.6-8.4,38.1,0.2c8.4,7.7,6.3,16.6,2.4,25.4c-8.4,19.2-4.4,25.5,16.6,29
			c22.9,3.8,45.8,8,68.4,13.4c11.8,2.8,18.5,12.5,21.3,24.3c3,12.7-1.4,23.4-11.2,31.1c-8.7,6.9-19.3,9.3-29.9,4.2
			c-14.9-7.2-29.7-14.8-44.2-22.9c-13.9-7.7-28.4-13.3-44.3-12.4c-5.6,0.3-11.3,4-16.3,7.2c-4,2.6-6.7,7.3-10.5,10.4
			c-10.8,8.7-22.9,9.1-33.2,1.6c-16.3-11.8-13.3-28.2-7.6-45c4.3-12.6,9.5-25,17.6-35.6C31.2,250,43.9,240.8,54.8,230.9z"/>
		<path class="st0" d="M136.8,135.1c-12.2-0.9-28.1,5.4-40.5,15.9c-9.7,8.2-15.3,17.5-15.5,26c-0.3,12.4,3.9,25.4,11,33.9
			c20.3,24.4,42.8,49.3,75.2,63.4c14.5,6.3,26.8,7.8,42.9,1.3c21-8.5,39.6-28.5,36.9-49.8c-1.1-8.6-5.6-14.9-11.1-21.4
			c-6.9-8.3-13.9-16.6-21.2-24.7c-4.9-5.4-9.9-10.6-15.1-15.6C181,146.3,160.6,136.8,136.8,135.1z M191.8,235.1
			c-2.1-0.5-4.1-1.4-6-2.6c-6.4-3.7-13-7.5-19.1-11.6c-11.7-7.8-16-7.2-24.4-18.2c-3.3-4.4-7.8-7.8-8-13.5
			c-0.1-2.8,8.2-10.6,11.5-10.2c8.1,0.9,12.6,7.3,16.8,12.8c7.1,9.3,5.5,7.9,14,16.1c3.8,3.6,7.2,7.5,11.2,10.9
			c3.2,2.8,8.2,4.9,10.6,8.4c1.4,2.2,0.8,4.8-2,6.4C194.9,234.6,193.5,235.5,191.8,235.1L191.8,235.1z"/>
		<path class="st0" d="M288.6,55.2c-9.2-9.5-10.3-8.5-19-15.9c-7.7-6.7-18.1-9.4-28.1-7.3c-10.5,2-23.2,12.9-23.8,23.9v0.8
			c0.8,5.3,4.8,9.7,8,13.3c0.6,0.7,1.2,1.4,1.8,2c6.2,7.2,3.8,4.4,10.3,11.2l1.3,1.4l5.7,5.9c5.4,5.6,11.1,11.5,16.4,17.3
			c1.3,1.4,2.8,2.8,4.3,4.2c5.1,4.7,10.3,9.7,9.1,16.1c-0.5,3-2.3,5.6-4.9,7.2c-2.3,1.2-5,1.3-7.3,0.1
			c-12.6-5.7-38.6-47.4-48.4-63.1c-5.4-8.7-5.6-8.9-6.5-9.5c-5.4-3.5-16.5-10.8-29.2-2.1c-11.9,8.2-15.2,16.3-11.8,29
			c6,22.7,18.6,44.2,38.5,65.7c5.2,5.7,10.9,11.3,17.4,17.2l1.6,1.4c9.8,9,20.8,19.2,37,18.1c10.4-0.9,20.4-4.1,29.4-9.4
			c2.1-1.2,4.2-2.5,6.2-4c14.5-10.1,28.6-26.8,27.8-45.9C322.9,104,311.2,78.6,288.6,55.2z"/>
		<path class="st0" d="M435.5,95c-4.7-2.4-9.4-4.9-12.1-6.3c1.2-11.1,3.9-20,2.7-28.4c-2.9-21.1-12.7-38.5-30.9-50.8
			c-12.4-8.4-25.4-12.3-39.9-7c-9.4,3.2-18.6,7.1-27.5,11.6c-11,5.8-15.8,15.6-14.8,28.1c0.5,6.1,0.5,12.4,2.2,18.2
			c11.1,38,22.4,76,34,113.9c2.6,8.8,11.2,13.8,20.3,13.5c9.3-0.2,17.1-5.4,19-14.9c1.7-8.4,1.7-17.2,1.6-25.8
			c0-6.9-1.1-13.9-1.9-22.5c5.7,5.8,10,10.4,14.6,14.8c7.2,7,15,13.3,25.5,14.6c12.9,1.6,22.5-5,25.7-17.6
			C458.2,120,450.5,102.9,435.5,95z M376.8,84.1c-2.2,0.5-4.6-2.4-6-3.7c-2.7-2.4-6.3-8.6-4-12.3c4.1-6.7,11.8-0.2,14.1,4.3
			C383.8,77.9,381.8,83.1,376.8,84.1z"/>
	</g>
</g>
</svg>
