<svg xmlns="http://www.w3.org/2000/svg" viewBox="0 0 521.19 206.55"><defs><style>.cls-1{fill:#fff;}</style></defs><title>Tour White Desktop</title><g id="Layer_2" data-name="Layer 2"><g id="Layer_1-2" data-name="Layer 1"><g id="Layer_2-2" data-name="Layer 2"><g id="Desktop"><g id="Tour"><path class="cls-1" d="M108.68,37.81c2.3.5,4.7,1.1,7,1.7,3.3.9,6.8,2.1,8.8,4.9,1.7,2.3,2,5.3,2.2,8.1.9,10.3,1.1,22.1-6.4,29.2-5.8,5.5-15.6,7.4-18.3,14.9-1.9,5.3.8,11.2,4,15.9,11.8,17.3,31.7,31,33.5,51.8a31.85,31.85,0,0,1-11.1,27.1,29.08,29.08,0,0,1-28.6,4.9c-16.4-6.1-22.7-25.7-26.7-42.9s-9.7-36.8-25.9-43.9c-8.8-3.9-19-3-28.5-5.1-25.1-5.5-22.3-33.2-6.9-47.8,7.8-7.4,17.7-12.1,28-15.4A134.33,134.33,0,0,1,108.68,37.81Z"/><path class="cls-1" d="M226.68,19.61c-7.8-9.4-23.3-16.6-39.5-18.4-12.7-1.3-23.2,1.1-29.5,6.8-9.2,8.3-15.6,20.3-16.9,31.4-3.6,31.5-6.1,65,6.1,98.1,5.5,14.9,12.9,24.8,28.7,31.9,20.6,9.3,48,8.9,61.5-7.8,5.5-6.7,6.9-14.4,7.8-22.8,1.2-10.8,2.5-21.5,3.2-32.4.5-7.2.8-14.5.9-21.8C249.18,59.21,241.88,37.91,226.68,19.61Zm-34.3,108.8a19.66,19.66,0,0,1-2.3-6.1c-1.8-7.2-3.6-14.6-4.8-21.9-2.4-13.9-5.9-16.5-3.7-30.2.9-5.4.3-11,4.2-15.1,1.9-2,13.4-1.4,15.4,1.2,5,6.5,3.4,14.1,2.4,21-1.8,11.6-1.9,9.5-2,21.3,0,5.2-.4,10.4-.1,15.7.2,4.3,2.1,9.4,1.2,13.5-.6,2.6-2.9,3.9-6,3C195,130.31,193.28,129.91,192.38,128.41Z"/><path class="cls-1" d="M390.38,77.41c.7-12.9-.7-13-1.3-24.2A32.46,32.46,0,0,0,375.38,28c-8.6-6.3-25.2-8.3-33.7-1.4l-.6.5c-3.3,4-3.9,9.9-4.3,14.5-.1.9-.2,1.8-.3,2.6-1.1,9.2-.7,5.7-1.2,14.8l-.1,1.9c-.2,2.7-.3,5.3-.5,8-.4,7.6-.9,15.5-1.5,23.3-.1,1.9-.2,3.9-.2,5.8,0,6.8-.1,13.8-5.6,17.1a10.46,10.46,0,0,1-8.6,1.2,8.24,8.24,0,0,1-5.1-5.2c-4.4-12.8,8.5-59.1,13.3-76.5,2.7-9.6,2.7-9.9,2.5-10.9-1.1-6.2-3.3-19.1-18.3-22.5-14-3.2-22.1-.2-29.1,10.6-12.5,19.3-19.7,42.5-22,71.1-.6,7.6-.9,15.4-.8,23.9v2.1c.1,13,.1,27.7,12,38.6a70,70,0,0,0,26.8,15.1c2.3.7,4.7,1.4,7.2,1.9,17.2,3.8,39,3,52.5-10.2C378,134.31,388.68,109.11,390.38,77.41Z"/><path class="cls-1" d="M495.08,155.91c-2.1-5-4.2-9.9-5.4-12.8,8-8.1,15.7-13.6,20.1-21.1,11.1-18.7,14.6-39,8.3-60.5-4.3-14.6-11.8-26.1-26.4-31.1a220.05,220.05,0,0,0-28.8-8.2c-12.2-2.4-22.2,2.4-29.3,13.1-3.5,5.2-7.5,10.3-9.9,16q-23.4,56.4-45.9,113.2c-3.5,8.7,0,18.2,7.2,23.8,7.4,5.7,16.6,6.6,24.2.2,6.6-5.6,12.2-12.7,17.6-19.7,4.4-5.6,7.9-11.9,12.8-19.3.7,8.3,1.1,14.8,1.9,21.2,1.1,10.3,3.2,20.2,10.5,28,9,9.6,20.6,10.4,31.1,2.3A38.43,38.43,0,0,0,495.08,155.91Zm-38.6-46.2c-2-1-2-4.8-2.3-6.8-.6-3.7.6-10.9,4.7-12.4,7.5-2.8,9.3,7.4,8.2,12.5-1.3,6.2-6.1,9.1-10.6,6.7Z"/></g></g></g></g></g></svg>