<?xml version="1.0" encoding="utf-8"?>
<!-- Generator: Adobe Illustrator 21.1.0, SVG Export Plug-In . SVG Version: 6.00 Build 0)  -->
<svg version="1.1" id="Layer_1" xmlns="http://www.w3.org/2000/svg" xmlns:xlink="http://www.w3.org/1999/xlink" x="0px" y="0px"
	 viewBox="0 0 512.6 286.3" style="enable-background:new 0 0 512.6 286.3;" xml:space="preserve">
<style type="text/css">
	.st0{fill:#14CC61;}
</style>
<title>Tour Mobile</title>
<g id="Layer_2">
	<g id="Layer_1-2">
		<path class="st0" d="M115.5,18.2c14.4,7.2,21,23.9,18.2,40.3c-2.4,14.6-11,18.9-20.4,21.4C93,85.4,89.5,94.3,96.8,119
			c7.9,27,15.4,54.2,21.7,82c3.3,14.5-1.7,28.9-10.3,40.6c-9.3,12.6-20.5,15.9-31.8,11.4c-10.1-4-17.3-13.4-18-28.4
			c-1.1-21.1-1.8-42.3-1.9-63.6c-0.2-20.4-2.4-39.8-10.9-55.9c-3-5.7-8.9-9-14-11.8C27.3,91,22,91.8,17.6,90
			C5,85.1-1.2,72.7,0.2,56.2c2.1-25.9,17.5-35,34.5-41.5c12.8-4.8,25.9-8.7,38.8-7.9C87.8,7.6,101.8,14.1,115.5,18.2z"/>
		<path class="st0" d="M236.5,33.4c-5.2-13.5-18.2-25.7-33.1-30.9c-11.7-4.1-22.2-3-29.6,3c-10.7,8.9-19.7,23-23.5,36.8
			c-10.9,39.5-21.2,81.8-17.5,126.4c1.7,20,6.4,34.1,19.6,46.2c17.3,15.8,43.4,20.5,60.2,1.8c6.8-7.5,9.9-17,12.8-27.6
			c3.7-13.5,7.4-27,10.8-40.7c2.2-9.1,4.2-18.3,6-27.6C248.5,88.3,246.6,59.7,236.5,33.4z M179.4,160.1c-5.8-12.1-3.4-9.5-5-22.6
			c-1.3-10.2-3.4-24.5,3.8-33.2c9.7-11.6,20.4,1.4,19.8,11.7s-3.5,20.2-4.8,30.4c-1.3,9.9-1.1,4.4-3.9,14c-0.7,2.6-3,3.6-5.9,2.4
			C181.7,162.2,180.2,161.6,179.4,160.1z"/>
		<path class="st0" d="M385,129.3c3.6-16.8,2.3-17.2,4.3-31.9c1.9-13.6-0.6-25.8-7.4-35.2s-22.1-14.8-31.8-7.3l-0.7,0.6
			c-4.1,4.8-6,12.3-7.4,18.3c-0.3,1.2-0.6,2.3-0.9,3.4c-3.2,11.9-1.9,7.3-4.5,19.1l-0.5,2.4c-0.8,3.5-1.5,6.9-2.3,10.4
			c-2.2,9.9-4.4,20.2-6.8,30.2c-0.6,2.4-1,5.1-1.5,7.6c-1.6,8.9-3.2,18-9.3,21.5c-3,1.7-6.1,1.8-8.5,0.2c-2.1-1.4-3.4-4.2-3.7-7.6
			c-1.2-17.5,21.6-76,30.2-98c4.8-12.2,4.9-12.6,4.9-13.9c0.4-8.3,1.2-25.5-12.4-32.3c-12.8-6.4-21.2-3.8-30.4,9.2
			c-16.4,23.3-28.6,52.5-37.2,89.5c-2.3,9.8-4.3,20-6.2,31.2l-0.5,2.7c-2.9,17-6.2,36.2,2.6,52.5c5.2,9.8,12.9,18,22.2,24
			c2.1,1.3,4.2,2.5,6.4,3.6c15.6,7.7,36.6,10.2,52.4-5C360.2,201.8,376.2,170.6,385,129.3z"/>
		<path class="st0" d="M479.8,221.4c-1.7-6-3.3-12-4.2-15.4c8.6-10.6,16.8-18,21.9-27.6c12.7-24.1,18-49.5,13.7-75.6
			c-3-17.8-9.4-31.4-23.5-36.5c-9.1-3.3-18.3-6.3-27.8-7.9c-11.9-2-22.2,4.7-30.3,18.4c-3.9,6.7-8.4,13.3-11.2,20.6
			c-18.8,47.8-37.3,95.6-55.6,143.6c-4.2,11-1.6,22.5,5,28.9c6.8,6.5,15.9,6.9,24-1.6c7.1-7.4,13.3-16.7,19.3-25.7
			c4.9-7.2,8.9-15.3,14.4-24.9c0,10.2-0.2,18.2,0,26.1c0.2,12.6,1.4,24.8,7.9,33.8c8,11.1,19.5,11.3,30.7,0.4
			C478.4,264.3,485,240.2,479.8,221.4z M442.8,173.6c-3-1.7-2.4-8.9-2.6-12.6c-0.4-7,2.4-20.8,8.9-24.1
			c11.7-6.1,13.2,12.9,10.9,22.7C457.1,171.4,449.5,177.5,442.8,173.6L442.8,173.6z"/>
	</g>
</g>
</svg>
