<?xml version="1.0" encoding="utf-8"?>
<!-- Generator: Adobe Illustrator 21.1.0, SVG Export Plug-In . SVG Version: 6.00 Build 0)  -->
<svg version="1.1" id="Layer_1" xmlns="http://www.w3.org/2000/svg" xmlns:xlink="http://www.w3.org/1999/xlink" x="0px" y="0px"
	 viewBox="0 0 713.5 648.2" style="enable-background:new 0 0 713.5 648.2;" xml:space="preserve">
<style type="text/css">
	.st0{fill:#14CC61;}
</style>
<title>Twitter Mobile</title>
<g id="Layer_2">
	<g id="Layer_1-2">
		<path class="st0" d="M484.6,185.3c4.1,7.4,8.4,14.4,14.4,20.4c5.4,5.4,12.2,9.1,17.5,14.8c8.5,9.2,8.5,26.3,0.8,38.1
			c-12,18.2-22.5,23-35.5,16.1c-1.4-0.7-2.8-1.5-4.1-2.3c-16.1-8.6-20.6-7-32.3,13.3c-11,19.1-21.7,38.1-38.7,51.5
			c-19.3,15.2-34.5,20.5-45.6,5.6c-5.9-8-7.6-11.6-3.7-22.7c5.5-15.9,16.1-27.4,26.3-39.6c10.7-12.8,22-24.7,32.9-37.2
			c9.4-11,9.7-21.9,8.1-35.1c-2.6-22.6,3.8-36,20-43.2c8.3-3.8,17.9-3.3,25.7,1.4c3.9,2.4,7.1,5.8,9.3,9.8
			C481.3,179.1,482.9,182.2,484.6,185.3z"/>
		<path class="st0" d="M122.9,20.3c12.8,9.5,16,26.4,10.1,41.4c-5.3,13.3-14.6,15.8-24.3,16.5c-21.1,1.4-26.3,9.2-24,33.8
			c2.5,26.9,3.4,68.6,4.2,96c0.5,14.3-7.2,26.9-18,36.4c-11.6,10.2-23.3,11.3-33.6,4.9c-9.2-5.6-14.4-15.8-12.2-30
			c3.1-20.1,5-20.3,9-40.4c3.8-19.3,8.1-72.6,2.8-89.4c-1.8-5.9-7-10.1-11.5-13.7c-3.7-2.9-9-3.2-13-5.7C1,63.2-2.7,50.3,1.9,35
			C9,11,25.9,5.2,44,2.2C57.5,0,71.2-1.2,83.8,1.8C97.8,5.2,110.2,13.9,122.9,20.3z"/>
		<path class="st0" d="M606.2,313.5c-1.1,18.1-10.6,32.7-22.5,37.7c-10.6,4.4-15.8-2.3-20-10.6c-9.1-18.1-16.1-17.5-30.9,1.5
			c-16.2,20.8-32.7,41.3-49.9,60.9c-9,10.2-20,11.9-30.3,8.7c-11.1-3.5-16.3-13.4-16.2-27c0-12.2,4.5-23.9,14.5-31.8
			c14-11.1,28.3-21.8,42.7-32c13.8-9.8,26.4-21.3,35.1-37.6c3-5.7,3.8-13.3,4.3-19.9c0.4-5.3-1.4-10.4-1.4-15.7
			c0-15.2,6.8-27.3,18.3-33.7c18.2-10.1,28.4,1.2,37.3,15.6c6.7,10.7,12.8,22.2,15.7,35.8C606.1,280.3,605.4,297.6,606.2,313.5z"/>
		<path class="st0" d="M327.1,321.8c-8.1,8.4-24.9,9.8-35.2,1.6c-8.4-6.7-13.2-22.3-9.7-34.3c2-6.6,4.6-13.5,8.4-18.8
			c18.6-25.3,29.4-55.9,42.3-85.1c2.9-6.5,6.5-12.7,10.8-18.4c6.2-8.5,14.5-9.5,23.3-3.9c8.4,5.3,19.3,18,16.1,29.1
			c-3.5,12.4-8.9,23.9-13.7,35.7c-7.6,18.9-15.3,37.8-23.2,56.5c-3.8,9-7.8,17.8-11.8,26.6C332.7,314.9,330.2,318.6,327.1,321.8z"/>
		<path class="st0" d="M366.1,148c-9.5-13.1-8.6-30.6,2.1-41.4c9.3-9.4,24.4-7.3,33,4.8c9.2,12.9,7.6,31-3.8,42.5
			C387.6,163.8,376,161.6,366.1,148z"/>
		<path class="st0" d="M309.2,104.1c-7.9-13.6-19.9-14.3-32.1,0.8c-6.3,7.8-11.8,63.3-17.5,72.1c-14.7-90-40.6-64.1-72-9.4
			c2.6-20.3,14.5-72.7,8.2-88.1s-18.7-22.2-31.1-16.7c-13.4,5.9-22.5,20.2-25.3,42.5c-4.1,32.8-7.9,65.6-10.8,98.2
			c-2.8,30.8,3.6,55,23.2,67.5c11,7,25.4,1.5,35.9-13.3c4.3-6,14.6-22.6,20.3-31.3c-0.2,7.2,1.9,23.5,1.8,28
			c-0.5,19,13.8,38.1,30.9,35.3c21.1-3.3,34-37.7,43.5-57.4c11.4-23.6,20-48.5,26.7-73.6C316.2,138.8,318.1,119.5,309.2,104.1z
			 M236.4,115.1L236.4,115.1L236.4,115.1z"/>
		<path class="st0" d="M635.5,612.1c1.5-5.9,3.1-11.8,4-15.1c10.4-3.1,19.1-3.9,26.7-8.4c19-11.3,33.7-28.5,42.2-52.3
			c5.8-16.2,7.5-31.3,0.4-44.3c-4.6-8.4-9.4-16.7-15-24.1c-7-9.2-16.9-10.3-28.2-4.3c-5.6,2.9-11.5,5.5-16.6,9.5
			c-33.5,26.7-66.8,53.5-100,80.6c-7.7,6.2-10.9,17.2-9.3,26.5c1.7,9.6,7.6,15.7,16.7,14c8-1.5,16.1-5.1,24.1-8.5
			c6.4-2.8,12.7-6.7,20.5-10.9c-4.5,8.2-8.1,14.6-11.5,21.1c-5.4,10.3-9.9,20.9-9.6,32.4c0.5,14.1,8.1,21.5,20.2,19.8
			C615.8,645.8,630.8,630.6,635.5,612.1z M636.5,546.6c-0.8-2.1,1.5-5.7,2.5-7.7c1.8-3.8,7-9.9,10.8-9c6.8,1.7,2,12.3-1.8,16.4
			C643.3,551.3,638.3,551.4,636.5,546.6L636.5,546.6z"/>
		<path class="st0" d="M553.3,509c-0.2-8.2-3.7-14.8-7.8-20.5s-8.9-10.8-11.9-17.5c-2.2-4.5-2.9-9.7-1.8-14.6
			c1.2-5.4,5.3-11.2,10.3-12.9c3.1-1,6.5-0.4,9,1.7c2.4,1.9,4,4.5,5.8,7c4.6,6.5,6.4,14.5,12.6,19.1c7,5.1,13.3,10,23.6,2.5
			c3.8-2.7,7.6-6,9.7-10.3c3.2-6.8,0.8-13.4-1.6-18.9l-9.3-20.6c-1.7-3.7-3.4-7.7-2.5-12.4s9.3-12.5,13.3-11.8
			c1.3,0.3,2.5,1.1,3.3,2.2c3.4,3.9,4.9,9.4,6.3,14.9c1.5,6,3.1,12.3,6.9,16.6c9.6,11.1,27.3-4.3,33.8-18.4
			c11.2-24.1-2.6-64.4-22.1-68.3c-6.6-1.3-14.7,1.2-22.2,2l0.3,0c-6.1,2.6-12.4,4.6-18.3,8.1c-8.6,5-17,10.9-25.4,16.6
			c-12.5,8.6-25,17.6-37,27.4c-1.2,1-2.4,2-3.6,3c-10.5,8.8-20.5,18.5-31.1,27c-10,8-14.4,17.5-13.6,28.3c2.3,33.2,17.9,56,39.4,73
			C531.2,542,553.7,528.3,553.3,509z"/>
	</g>
</g>
</svg>
