<svg xmlns="http://www.w3.org/2000/svg" viewBox="0 0 1613.1 277.4"><defs><style>.cls-1{fill:#fff;}</style></defs><title>Twiier white 1</title><g id="Layer_2" data-name="Layer 2"><g id="Layer_1-2" data-name="Layer 1"><g id="RlOplj"><path class="cls-1" d="M275.39,0c0,4.86-3.41,7.56-6.59,10.57,1.3.81,2.4,0,3.54-.28,4.9-1.28,9.78-2.64,14.72-3.75,2.4-.54,5.28-1,6.54,1.81s-.92,4.91-3.06,6.44c-6.49,4.65-14.13,6.43-21.66,8.48a29.22,29.22,0,0,0-4.5,1.47c5.37,1.18,10.87,1.48,16.2,2.8,22.33,5.57,38.4,19.5,51.07,38,7.28,10.62,13.06,21.9,14.71,34.88.28,2.2,1.73,2.3,3.2,2.66a84.15,84.15,0,0,0,41.68-.21l2.42-.65c-9.07,15.77-24.41,18.44-40.39,21.47,14.06,5.19,28,4.68,42.06,4.32-.47,1.86-1.91,2.61-3,3.56-11,9.53-23.62,14.63-38.26,13.76-4.38-.26-6.13.94-7.28,5.42-8.67,33.69-28.16,60.14-55.11,81.6s-57.37,36-91.68,41.53a202.48,202.48,0,0,1-29.47,2.68h-31.7c-8.36,0-16.57-1.3-24.74-2.86-31-5.91-58.63-19.27-83.42-38.6C19.46,226.36,9.29,216.5,1,204.87l.61-.6c1.09.71,2.16,1.44,3.26,2.14,36.08,23.23,73.49,27.1,112.36,7.45A93.25,93.25,0,0,0,143.36,194c-3.61.84-7.08.36-10.55-.17-8-1.22-16.23-7.75-17.39-14.39-1.46-8.29,3.74-13,9.83-17.08,1.17-.78,2.32-1.61,3.47-2.42-14,2.35-25.21-3.52-35.84-11A25.65,25.65,0,0,1,84,137.81c-.85-2-.48-3.25,1-4.76a27,27,0,0,1,23-8.22,62.16,62.16,0,0,0-6.35-2.84c-7.25-3-14.27-6.41-20.41-11.32-7.32-5.85-13.61-12.47-15.71-22.13-.61-2.82-.26-4.16,2.76-5A60.49,60.49,0,0,1,88,81.31C82.71,78.1,78.27,75.44,74.46,72,63.59,62,56.84,49.88,55.78,35c-.3-4.25,0-4.3,4-2.77,19.31,7.37,38.52,15,57.27,23.73,22.32,10.36,44.33,21.33,63.55,37,2.8,2.28,5.48,4.7,8.28,7.11,3.89-9.44,7.46-18.65,11.45-27.67,8.77-19.82,18.84-38.88,33.58-55.06A63.29,63.29,0,0,1,250,4c.35,3.09-1.41,5.26-2,7.74-.14.13-.76.09-.17.48l.1-.54c1.36.5,2.21-.53,3.09-1.16C257.18,6.21,263.43,2.17,270.68,0Z"/><path class="cls-1" d="M1613,117.22c-1.9,5.74-3.75,11.43-8.25,15.91a26.72,26.72,0,0,1-19.52,8.27h-39a26.17,26.17,0,0,0-26.18,25.92c-.12,18.74,0,37.48-.07,56.22a27.94,27.94,0,0,1-21.95,27.64c-15,3.36-31.65-9.42-31.81-24.83-.23-21.47-.71-43,.16-64.41.91-22.47,10.95-41.13,27.59-56.17,14.79-13.37,32.15-20.16,52.18-20,13.53.11,27.07-.15,40.6.13,13.17.27,23.82,10.24,25.56,23.36.08.64.06,1.31.74,1.68Z"/><path class="cls-1" d="M138.66,277.4a3.64,3.64,0,0,0,.25-.53.48.48,0,0,0-.08-.31h31.7l.17.84Z"/><path class="cls-1" d="M613.78,141.82c0-9.9-.1-19.79,0-29.69.17-13.42,8.66-24.09,21.42-27.19,14.43-3.5,29.86,6.68,32.39,21.35a51.61,51.61,0,0,1,.75,8.92c0,18.1-.12,36.2,0,54.29s18.93,31.06,35.72,24.18c10.21-4.18,16.37-12.18,16.62-23.38.41-18.61.12-37.24.18-55.85,0-8.51,2.45-16.11,8.72-22.22,7.93-7.74,17.32-10,27.62-6.38s16.66,11.31,18.16,22.34.43,22.36.62,33.54c.16,9.11-.07,18.23.08,27.34.24,15.09,11.72,26.4,26.54,26.33,14.33-.07,25.88-11.81,26-26.61.09-18.75,0-37.5.06-56.25.07-13.32,8.72-24.43,21.16-27.51,14.36-3.56,29.92,6.49,32.61,21.08a45.94,45.94,0,0,1,.79,8.52c-.06,18,.25,35.94-.09,53.9-.61,32.08-15,56.59-42.36,73-27,16.18-63.34,12.9-87.67-7.16-4.68-3.86-4.68-3.86-9.43,0-32.22,26.23-79.31,22.26-107.38-8.67-15.17-16.71-22.44-36.16-22.53-58.52V141.79Z"/><path class="cls-1" d="M430.1,104.9V42.42c0-16.54,12.59-29.25,29-29.29,16.08,0,28.84,13,28.85,29.48,0,8.72.17,17.45-.08,26.16-.1,3.38,1,4,4.16,4q40.61-.18,81.23-.06c15,0,27.08,10.77,29.4,26,2.15,14.08-7,28.61-20.71,32.79a33.71,33.71,0,0,1-10,1.34q-40,0-80-.1c-3.32,0-4.18.93-4,4.13.52,10.25-.72,20.55.76,30.78a27.88,27.88,0,0,0,27.16,23.84c19,.13,38,0,57,.08,12.17.07,21.3,5.69,26.72,16.45,5.33,10.56,4.62,21.22-2.21,31-5.78,8.28-13.78,12.7-24.16,12.64-18.87-.12-37.75-.28-56.62,0-43.13.67-76.18-33.13-84-67.35a92,92,0,0,1-2.41-21.22C430.17,143.7,430.1,124.3,430.1,104.9Z"/><path class="cls-1" d="M974.72,92.88c-.25-21,.23-37.67,1.52-54.29,1-12.62,13.1-24.15,25.62-25.42,19-1.92,32.58,14.39,32.26,30.6-.34,17,0,34.12-.15,51.17,0,3,.85,3.68,3.73,3.66q25-.2,50,0c13.88.06,26.19,9.78,29,22.76,3.16,14.38-3.43,28.48-16.23,34.63a27.32,27.32,0,0,1-12.05,2.71c-15.89,0-31.77.06-47.66-.08-2.9,0-3.84.69-3.68,3.67a72.61,72.61,0,0,0,1.87,13.87c2.12,8.48,11.38,15.2,21.22,15.36,9.37.15,18.75,0,28.13.1,15.1.18,27.17,11.19,29.07,27.24A29.85,29.85,0,0,1,1097,250.38a23.39,23.39,0,0,1-7.25,1.3c-10.81,0-21.64.43-32.42-.13-25.3-1.3-46.39-11.19-60.79-32.64-8.29-12.35-11.89-26.72-14.81-41.14-3.7-18.23-5.39-36.68-6.45-55.25C974.66,111.14,975,99.83,974.72,92.88Z"/><path class="cls-1" d="M1187.2,68.2c0,9,.11,18-.06,27-.05,2.8.85,3.46,3.53,3.44q25-.17,50,0a30,30,0,1,1,.77,60.07h0c-15.89,0-31.77.07-47.66,0-2.69,0-3.65.63-3.5,3.44a71.12,71.12,0,0,0,1.95,14.25c2.18,8.33,11.35,15,20.94,15.19,9.37.17,18.75,0,28.13.11,15,.14,26.86,10.91,29.33,26.62,2.09,13.27-7,27.71-20.2,32.07a26.08,26.08,0,0,1-8.41,1.39c-9.51-.06-19,.06-28.52,0-30.73-.32-61.57-16.23-72.87-52.26-4.87-15.53-7.75-31.42-9.73-47.55-3.47-28.25-3.35-56.6-2.91-85,.16-10.63-.08-21.4,2.25-31.84,3-13.52,14.93-22.21,28.93-21.84a28.88,28.88,0,0,1,27.36,23.34,19.74,19.74,0,0,1,.64,3.44c.05,9.38,0,18.75,0,28.13Z"/><path class="cls-1" d="M1388.61,184.47c-15,0-29.94.1-44.91-.07-3.64,0-3.94,1.56-3.06,4.24,1.42,4.29,4.48,7.26,8.28,9.47,6.3,3.67,13.32,4.8,20.4,5.91,13.62,2.13,26-1.58,37.83-7.77,6.74-3.51,13.62-6.21,21.53-5.7,13.06.84,21.15,12,17.46,24.53-2.65,9-8.56,15.63-16,21-11,7.92-23.59,11.76-36.79,14-9.79,1.64-19.67,1.63-29.55,1.59-39.23-.13-75-29.65-81.77-68.27-4.63-26.34.28-50.73,17.84-71.63,10.32-12.28,23.9-19.53,39.42-22.85,26.08-5.57,51.76-4.67,75.93,7.7,22.76,11.65,36.34,30.54,40.52,55.82a39,39,0,0,1-.87,17c-2.68,9.45-10.52,14.87-22.11,15-14.71.12-29.42,0-44.13,0Zm-19-37.51h25.78c2.22,0,2.89-.4,2.37-2.88a15.23,15.23,0,0,0-8.16-10.84c-13.24-6.9-26.68-6.7-40-.21a15.4,15.4,0,0,0-8.16,9.52c-1.11,3.57-.52,4.36,3.19,4.37q12.47.08,25,.08Z"/><path class="cls-1" d="M899.75,173.12c0-16.26-.08-32.53,0-48.79a29.9,29.9,0,0,1,23.89-29.26c15.18-3.33,32,8.7,33.79,24.21a98.18,98.18,0,0,1,.6,10.89q.07,44.69,0,89.39c0,10.74-3.5,19.83-12.34,26.45-17.23,12.89-40.69,2.74-45.23-17.92a40.61,40.61,0,0,1-.79-8.9C899.78,203.83,899.75,188.48,899.75,173.12Z"/><path class="cls-1" d="M928.75,72.69c-15.87,0-29-13.66-29-30s13.29-30,29.09-30,29.13,13.7,29.22,30S944.85,72.71,928.75,72.69Z"/><path class="cls-1" d="M248,11.7l-.1.54c-.59-.39,0-.35.17-.48Z"/><path class="cls-1" d="M1,204.88c-.5-.35-1.3-.9-.84-1.36s1.06.28,1.44.76Z"/></g></g></g></svg>