<?xml version="1.0" encoding="utf-8"?>
<!-- Generator: Adobe Illustrator 21.1.0, SVG Export Plug-In . SVG Version: 6.00 Build 0)  -->
<svg version="1.1" id="Layer_1" xmlns="http://www.w3.org/2000/svg" xmlns:xlink="http://www.w3.org/1999/xlink" x="0px" y="0px"
	 viewBox="0 0 645.7 430.2" style="enable-background:new 0 0 645.7 430.2;" xml:space="preserve">
<style type="text/css">
	.st0{fill:#14CC61;}
</style>
<title>Twitter</title>
<g id="Layer_2">
	<g id="Desktop">
		<path class="st0" d="M342.9,238.8c6.5-2,12.7-4.9,18.5-8.4c5.4-3.5,10.1-8.2,15.6-11.5c9-5.4,20.8-3.1,26.4,4.4
			c8.8,11.6,8.7,20.4-0.1,29.5c-0.9,1-1.9,1.9-2.9,2.9c-10.9,11.3-11.3,15-1,26.7c9.7,11,19.4,21.7,23.2,36.6
			c4.4,16.9,3.2,29.3-10.5,35.9c-7.3,3.5-10.3,4.3-16.7-0.1c-9.2-6.3-13.8-16-19-25.5c-5.5-9.9-10-20.2-15.2-30.2
			c-4.6-8.7-12-10.4-21.6-10.9c-16.3-0.9-23.5-7.6-23.4-21.1c0.1-7.4,3.7-14.6,9-19.6c2.8-2.6,6-4.6,9.6-5.9
			C337.6,240.6,340.3,239.7,342.9,238.8z"/>
		<path class="st0" d="M98.5,256c12.2,6.1,17.6,17.5,15.1,27.9c-2.2,9.2-9.6,11.2-17.5,11.9c-17.3,1.6-20.4,7-14.5,23.7
			c6.4,18.2,15.9,60.2,20.9,78.8c2.6,9.7-1.7,18.5-9.2,25.3c-8,7.3-17.6,8.3-27.2,4.3c-8.5-3.6-14.5-10.3-15-20.1
			c-0.7-13.8-1.1-27.6-1-41.4c0.1-13.2-5-49.6-12-60.9c-2.5-4-7.4-6.7-11.8-9c-3.5-1.9-8-1.9-11.8-3.5c-10.7-4.4-15.8-13-14.5-23.5
			c2.1-16.6,15.2-21,29.7-23.5c10.9-1.9,22-3.1,33-1.4C75.1,246.5,86.9,252.1,98.5,256z"/>
		<path class="st0" d="M481.5,162.4c12.4-1.9,22.5,3.8,26.1,12.9c3.2,8.1-1.3,13.5-6.9,18.2c-12.2,10.4-11.6,16.1,1.7,25.5
			c14.5,10.3,28.8,20.9,42.6,32.2c7.1,5.9,8.5,14.8,6.5,23.9c-2.2,9.7-8.8,15.6-18.1,17.6c-8.3,1.8-16.4,0-21.9-7.1
			c-7.8-10-15.4-20.2-22.7-30.6c-7-10-15-18.7-26.3-23.4c-4-1.7-9.1-1.1-13.6-0.5c-3.6,0.4-7,2.8-10.7,3.6
			c-10.3,2.3-18.8-1.4-23.4-10.1c-7.2-13.6,0.3-23.8,9.9-33.5c7.2-7.2,14.9-14,24.1-18.6C458.8,167.7,470.7,165.6,481.5,162.4z"/>
		<path class="st0" d="M350.8,387.1c0.1,9.9-4.9,19.2-15.9,22.4c-9,2.6-21.1-1.9-26-10.5c-2.8-4.8-5.3-10.1-6.1-15.5
			c-3.8-25.9-15.5-49.1-25-73c-2.1-5.5-3.6-11.1-4.5-16.9c-1.3-8.7,3-15.1,11.6-18.5c8.1-3.2,18-1.2,22.6,6.6
			c5.2,8.7,8.8,18.4,12.9,27.8c6.6,15,13.2,29.9,19.5,45c3,7.2,5.8,14.5,8.6,21.8C350.1,379.8,350.8,383.4,350.8,387.1z"/>
		<path class="st0" d="M277,265.8c-11.8,0.1-20.4-8.2-20.4-19.7c0-10,9-18.4,19.8-18.4c11.5,0,20,9,20,21.2
			C296.4,259.5,289.2,265.7,277,265.8z"/>
		<path class="st0" d="M247.4,288.8c-10.8-6.5-20.6-4.1-25.3,8.2c-2.5,6.3,11.4,41.9,9.7,48.7c-41.3-52.1-53.4-29.9-60.5,11.3
			c-4.6-13.1-12.3-48.3-22.4-56.3s-22.2-9.2-30.3-2.9c-8.8,6.9-11.3,17.8-6.3,32.3c7.4,21.2,15.2,42.4,23.6,63.2
			c7.9,19.7,20.9,33.1,40.6,36.1c11.1,1.7,20.7-5.2,24.2-16.8c1.4-4.8,4.2-17.4,5.9-24.2c2.2,4.5,9.3,14.1,10.6,16.9
			c5.8,11.9,23.5,20.2,36.2,14.5c15.7-7.1,14.7-31.4,15.8-45.8c1.2-17.3,0.2-34.7-2.9-51.8C264.3,308.5,259.5,296.1,247.4,288.8z
			 M192.9,312.9L192.9,312.9L192.9,312.9z"/>
		<path class="st0" d="M606,14.1c-3.5,2-7,4-9,5.1c-6.6-5.4-11.2-10.8-17.1-13.5c-14.7-6.9-30-7.8-45.5-1.3
			c-10.5,4.5-18.4,11.2-21,22.7c-1.8,7.4-3.1,14.9-3.9,22.5c-0.8,9.5,3.5,16.7,11.9,21.2c4.1,2.2,8.2,4.8,12.6,6.2
			c29,8.7,58.1,17.1,87.3,25.4c6.7,1.9,13.5-1.6,17.1-7.5s3.6-13.2-1.7-18.4c-4.7-4.6-10.3-8.2-15.9-11.8c-4.5-2.9-9.4-5-15.2-8.1
			c6.1-1.2,10.8-2.1,15.6-3.2c7.5-1.7,14.7-4.1,20-10.3c6.4-7.6,6.2-16.5-0.7-23.8C631.5,9.8,617.3,7.7,606,14.1z M574.7,47.3
			c-0.6,1.6-3.4,1.9-4.8,2.3c-2.7,0.7-8.1,0.5-9.6-2.5c-2.6-5.4,4.8-7.7,8.6-7.3C573.6,40.3,576.1,43.7,574.7,47.3L574.7,47.3z"/>
		<path class="st0" d="M594.7,119.5c-4.5,3.6-6.8,9.1-8.4,14.6s-2.7,11.2-5.3,16.3c-1.6,3.2-3.9,6.2-7.4,7.6s-8.2,0.8-10.9-2.1
			c-1.8-2-2.6-4.7-2.4-7.4c0.3-2.5,0.9-5,1.7-7.3c1.9-6.2,5.7-11,5.9-17.6c0.2-7.4,0.6-14.2-7.3-18.7c-2.9-1.6-6.1-3.1-9.3-2.8
			c-5,0.5-7.7,5.1-9.8,9.3l-8,15.8c-1.4,2.8-3,5.8-6,7.2s-10.4-1.6-11.4-4.8c-0.3-1.1-0.3-2.3,0-3.4c0.9-4.2,3.4-7.7,5.9-11.1
			c2.7-3.7,5.7-7.6,6.7-12.2c2.6-11.8-12.4-18.5-22.6-17.4c-17.5,2-34.7,29.5-29.6,45.7c1.7,5.5,6.1,10.4,9.3,15.6l-0.1-0.2
			c3.7,3.4,7.1,7.2,11.2,10.2c6,4.3,12.3,8,18.6,11.8c9.4,5.7,19,11.1,28.8,15.8c1,0.5,2,1,3,1.4c8.8,4,17.8,7.3,26.5,11.6
			c8.2,4,15,3.2,20.7-2c17.5-16,24.3-37.3,25.8-60.7C621.1,121.9,605.2,110.9,594.7,119.5z"/>
	</g>
</g>
</svg>
