<?xml version="1.0" encoding="utf-8"?>
<!-- Generator: Adobe Illustrator 21.1.0, SVG Export Plug-In . SVG Version: 6.00 Build 0)  -->
<svg version="1.1" id="Layer_1" xmlns="http://www.w3.org/2000/svg" xmlns:xlink="http://www.w3.org/1999/xlink" x="0px" y="0px"
	 viewBox="0 0 673.8 184.5" style="enable-background:new 0 0 673.8 184.5;" xml:space="preserve">
<style type="text/css">
	.st0{fill:#14CC61;}
</style>
<title>Youtube</title>
<g id="Layer_2">
	<g id="Desktop">
		<path class="st0" d="M295.7,17.7c-10.3,6.7-13.9,17.6-10.6,26.6c3,8,9.8,9,17,8.8c15.7-0.4,26.9,10.7,23.4,26.3
			c-3.8,17-7.7,50.2-10.3,67.4c-1.3,9,3.5,16.4,10.9,21.7c8,5.7,16.7,5.6,24.8,1c7.3-4.1,11.9-10.8,11.3-19.6
			c-0.9-12.4-1.6-40.8-3.2-53.2c-1.5-11.8-1.3-23.5,3.9-34.4c1.8-3.8,6-6.8,9.6-9.3c3-2.1,7-2.6,10.2-4.4
			c9.1-5.1,12.8-13.4,10.5-22.7C389.5,11.2,377.3,8.7,364,8c-10-0.6-20.1-0.5-29.8,2.3C323.5,13.2,305.6,12.9,295.7,17.7z"/>
		<path class="st0" d="M184.1,50.4c-5.5-7.8-18.9-12.3-29.7-13.3c-10.5-1-19.2,1-24,5.4c-6.8,6.4-12,15.5-13.4,23.9
			c-4.2,23.7-7.7,49-1,73.8c1.5,5.3,3.4,10.4,5.6,15.5c0.6,1.5,1.1,2.8,1.5,3.8l0.2,0.5l0.4,0.4c8.8,9.6,21.7,13.1,31.8,13.3
			c1.4,0,2.9,0,4.3-0.1c15.7-1.2,27.4-11.8,30.7-27.7c3.1-15.3,4.5-30.9,5.7-46.8C197.6,79.9,193.7,64,184.1,50.4z M154.1,144.8
			c-0.3,0.1-0.7,0.1-1,0.1c-8.1-1.1-7-11.2-7.2-16.3c-0.3-6-0.6-12-0.8-18.1c-0.3-8.9-4.7-32.2,6.2-37.4c5.8-2.8,7.1-0.4,9.1,4.8
			c5.8,15.2,1.5,41.5-2.1,57C157.8,136.8,156.7,144,154.1,144.8L154.1,144.8z"/>
		<path class="st0" d="M106.1,12c-3.9-8.2-5.3-12-14-12c-16.8-0.1-25.2,28.1-30,43.5c-5.7-6.2-23.5-20.7-28.8-25.7
			c-7.6-7.2-17.3-8.3-22.7-1.4C-5.3,36.8-3.4,48.7,17,64.6c2.9,2.3,18.9,13.6,22.2,14.9c8.6,3.4,9.1,9.1,6.8,17
			C42.3,109,34.4,127.3,31.9,140c-1.5,7.9-0.1,15.8,6.9,21.7c12.6,10.5,17.6,7.4,29.6-3.7c5.5-5.1,5.7-5.9,9.3-12.5
			c13-24.4,23.4-51.1,25.4-78.5C104.1,54.1,111.6,23.6,106.1,12z"/>
		<path class="st0" d="M299.4,129.4c3.2-19.7,12.7-36.5,5.9-55.8c-3.1-8.7-7.7-11.8-18.1-12c-8.8-0.1-17.5,9.2-20,17
			c-4,12.3-2,26.4-3.5,39.2c-1,8.2-1.7,18.2-6.3,25.4c-3.8,5.9-11.9,5.9-16.8,1c-5.2-5.2-2.7-12.4-1.4-18.6
			c1.7-8.3,7.2-15,10.3-22.8c3.3-8.2,5.2-16.9,5.7-25.7c0.6-10.4-5-18.4-15.3-21.2c-4.9-1.4-10.1-1.3-14.8,0.5
			c-6.8,2.7-12,8.4-14,15.5c-2.9,9.6-5.4,19.3-7.3,29.1c-4.3,22.8-1.9,44.9,10.7,65.3c8,12.9,26.6,17.6,42.5,16.5
			c7.9-0.4,15.6-2.6,22.6-6.3c11-6.1,13.4-18,16-28.2C297,142,298.4,135.7,299.4,129.4z"/>
		<path class="st0" d="M377.8,127.3c-2.3-20.5-1.3-41.2,6.3-60.8c3.5-8.8,8.3-11.8,18.6-11.5c9.3,0.3,12.7,6.9,15.2,13.5
			c0.6,1.5-6.4,61.3,1.2,74.8c3.5,6.3,11.6,6.7,16.8,1.8c6.3-5.9,2.6-14.9,1.9-22c-1-8.7-2.2-17.4-3.3-26.1
			c-1.1-8.2-2.2-16.4-2.8-24.6c-0.3-4.1-1.4-9.6,0.7-13.5l0.1-0.1c4.9-6,16.8-6.4,23-3.5c6.8,3.1,11.7,9.3,13.4,16.6
			c2.4,10,4.6,20.1,6,30.3c3.2,23.7-0.2,46.4-13.8,66.7c-8.5,12.9-27.3,16.9-43.2,15.1c-7.9-0.8-15.6-3.4-22.3-7.5
			c-10.7-6.8-12.6-19.2-14.6-29.7C379.6,140.4,378.5,133.9,377.8,127.3z"/>
		<path class="st0" d="M554.4,113.5c11.6-12.2,12.4-22.8,8.6-38.1c-4.8-19.8-33.8-31-67.8-21.5c-5.4,1.5-7.2,6.9-6.4,13.3
			c4.5,37.7-1.9,59.1,2.1,96.9c0.7,7,8.9,19.7,15.7,20c25.6,1.2,51.5-3.9,59.6-17.9C581.6,139.9,568.5,118.8,554.4,113.5z
			 M521.7,84.3c1.5-2.3,7.3-1.3,9.4-0.9c4.7,1.2,6.1,8.2,4.3,12.2c-1.3,2.9-4.4,3.9-7.4,4.1c-1.5,0.2-2.9,0.2-4.4,0
			c-3.2-0.9-2.1-10.3-2.3-12.8c-0.1-0.8,0-1.6,0.2-2.3C521.6,84.6,521.7,84.5,521.7,84.3z M527.5,147.6c-1.7-1.8-1-6.8-1.2-8.7
			c-0.2-3.3-1.7-7.2,2.8-7.4c2.5-0.1,6,0,8.2,1.3c3.8,2.1,3.8,8,1.9,11.4c-1,1.9-2.8,3.1-4.9,3.5c-1.6,0.4-4.3,0.9-6,0.5
			C528.1,148.1,527.8,147.9,527.5,147.6L527.5,147.6z"/>
		<path class="st0" d="M664.7,133.6c-5.3-1.8-11.1-0.9-16.5,0.6s-10.8,3.6-16.3,4.1c-3.5,0.3-7.2-0.1-10.2-2.2s-4.9-6.4-3.9-10.2
			c0.8-2.5,2.6-4.6,4.9-5.8c2.2-1.1,4.6-1.9,7-2.4c6.2-1.7,12.1-0.9,17.8-4.2c6.3-3.6,12.2-6.8,11.8-15.8c-0.1-3.3-0.6-6.7-2.5-9.2
			c-3-3.9-8.3-3.8-12.8-3.4l-17.3,1.5c-3.1,0.3-6.4,0.5-9.1-1.3s-4-9.5-1.9-12c0.8-0.8,1.7-1.4,2.8-1.8c4-1.4,8.2-1.2,12.3-0.8
			c4.5,0.4,9.3,0.8,13.7-0.8c11.2-4,9-20,2.7-27.9c-10.7-13.5-42.6-13.7-53.4-1c-3.7,4.3-5.5,10.5-8.2,15.9l0.2-0.2
			c-0.9,4.9-2.3,9.7-2.7,14.6c-0.5,7.2-0.3,14.4-0.2,21.7c0.1,10.8,0.6,21.6,1.7,32.3c0.1,1.1,0.2,2.2,0.4,3.2
			c1.2,9.4,3.1,18.6,4,28.1c0.8,8.9,5,14.2,12.4,16.2c22.4,6.4,43.7,1,64-9.9C676.4,156.9,677.3,137.9,664.7,133.6z"/>
	</g>
</g>
</svg>
