<?xml version="1.0" encoding="utf-8"?>
<!-- Generator: Adobe Illustrator 21.1.0, SVG Export Plug-In . SVG Version: 6.00 Build 0)  -->
<svg version="1.1" id="Layer_1" xmlns="http://www.w3.org/2000/svg" xmlns:xlink="http://www.w3.org/1999/xlink" x="0px" y="0px"
	 viewBox="0 0 817.3 578.2" style="enable-background:new 0 0 817.3 578.2;" xml:space="preserve">
<style type="text/css">
	.st0{fill:#14CC61;}
</style>
<title>Youtube Mobile</title>
<g id="Layer_2">
	<g id="Layer_1-2">
		<path class="st0" d="M247.7,133c-5.7,16-0.3,35,11.6,47.6c10.5,11.2,19.1,9.2,27.2,5.1c17.5-8.9,40.1,2.9,49.9,29.3
			c10.7,28.9,35.7,83.3,48.1,111.9c6.4,14.9,18.6,24.1,31.7,28.6c14.1,4.8,24,0.1,29.1-11.4c4.6-10.3,4-23.3-4.5-37
			c-12-19.2-38.1-63.7-50.8-82.4c-12.2-18-22.3-36.5-26.1-56.3c-1.3-7,0.8-13.9,2.7-19.8c1.5-4.8,5.6-7.7,7.7-12.2
			c5.8-12.8,2.7-27.8-8.2-41.3c-17.1-21.3-33.3-18.9-49.2-13.1c-11.8,4.3-23.3,9.8-31.9,19.1C275.4,111.4,254.8,120.2,247.7,133z"/>
		<path class="st0" d="M154.1,304.9c-12.8-4.2-28.7,3.1-38.8,12.2c-9.7,8.8-14.8,19.4-14,29.2c1.2,14.2,6.7,30.1,14.4,41.5
			c22,32.6,46.1,66.4,78.1,89.9c6.8,4.8,13.9,9.3,21.1,13.4c2.1,1.2,3.9,2.2,5.3,3.1l0.7,0.4l0.8,0.1c17.5,3.3,31.9-4.8,40.5-14.1
			c1.2-1.3,2.4-2.8,3.5-4.3c11.6-16.4,10-40.3-4.2-62.5c-13.8-21.5-29.3-41.5-45.3-61.8C196.9,327.7,176.6,312.2,154.1,304.9z
			 M227,442.4c-6.3,8.5-15.7,0.8-20.9-4.9c-7.6-8.4-41.7-41.4-35.2-53.9c5.4-10.5,29.3,14.8,35.2,19.9c8.7,7.6,17.9,16.6,21.9,27.6
			C229.6,435.5,229.1,439.6,227,442.4z"/>
		<path class="st0" d="M76.9,365.4c-12.4-6.4-17.7-9.7-25.2-1.3c-14.5,16.3,9.5,59.7,22.5,83.4c-11.7-2.1-42.8-2.8-52.9-3.9
			c-14.4-1.6-23.8,6.6-20.8,20.5c8.9,40.9,20.8,36,55.8,35.9c5,0,31.1-1.5,35.4-3.2c11.1-4.3,17.8,2.4,24.5,14.5
			c10.6,19.1,20,28.4,32,46.6c7.4,11.3,17.4,19.8,29.8,20.2c22.3,0.8,24.4-3.8,23.9-15.8c-0.5-11.8-1.6-12.9-5.9-24.6
			c-15.8-43-32.5-65.1-61-101.2C121.6,419.5,94.3,374.3,76.9,365.4z"/>
		<path class="st0" d="M333.8,290.8c-18.5-26.8-28.6-56.1-54.8-72.9c-11.9-7.6-19-6.9-27.8,2.7c-7.4,8.2-4.6,27.6,1.6,39.4
			c9.8,18.6,26.6,33.8,39,50.6c7.9,10.8,18.1,23.6,22,36.5c3.2,10.7-3.4,18.4-12.8,17.2c-9.8-1.3-15.5-12.3-21.1-21
			c-7.5-11.7-10.1-25-15.9-37.3c-6.1-13-13.7-25.2-22.8-36.3c-10.7-13.1-23.8-17.4-35.4-11.1c-5.7,3.1-10,8.4-11.7,14.6
			c-2.8,10.4-0.9,21.5,5,32c7.9,14.2,16.1,28.5,25.1,42c20.9,31.6,46.5,56,78.7,68.6c20.3,8,40.8-4,52.8-20.4
			c6.3-8.6,10.4-18.5,12-29.1c2.5-17.8-8.2-34.4-17-49.1C345.4,308.3,339.8,299.4,333.8,290.8z"/>
		<path class="st0" d="M419.3,213.9c-15.1-33.7-26.1-68.3-27.6-101.7c-0.7-15.1,3.9-20.7,17.7-21.6c12.4-0.8,20.9,9.8,28,20.5
			c1.6,2.4,27.8,102.6,45.7,124c8.3,9.9,19.2,9.5,23.2,0.8c4.8-10.6-5.3-25.1-10.5-36.8c-6.4-14.3-13.2-28.6-19.8-42.8
			c-6.2-13.4-12.5-26.9-18.2-40.5c-2.8-6.7-7.5-15.8-7-22.5v-0.2c2.9-10.6,18.3-12.9,28.3-8.8c11.3,4.7,20.7,13.8,27.3,25.8
			c9,16.3,17.9,32.8,25.8,49.5c18.2,38.9,27.1,76.9,21.4,112.5c-3.6,22.5-26,31.6-48,30.7c-11.9-0.5-23.5-3.8-33.9-9.5
			c-18.1-9.9-27.9-30.1-36.8-47.4C429.4,235.4,424.2,224.7,419.3,213.9z"/>
		<path class="st0" d="M639.6,140.9c7.1-21.5,0.7-38.3-15.2-61.6c-20.5-30.1-67.6-42-106.7-20.3c-6.2,3.5-4.8,12.2,0.7,22.1
			c32.8,58.4,39.2,93.2,71.3,151.8c6,10.9,26,29.1,35.3,28.3c35.4-3.3,66.8-16.4,67.9-40C695,176.8,662.4,146.2,639.6,140.9z
			 M574.8,101.5c0.4-3.9,8.9-3.6,12-3.2c7.1,0.9,14,11.7,14.4,18.4c0.3,4.9-3.2,6.9-7,7.9c-1.7,0.4-4,1.2-6,0.8
			c-4.9-0.8-10.1-15.7-12.1-19.7c-0.7-1.1-1.1-2.4-1.3-3.7C574.8,101.9,574.8,101.7,574.8,101.5z M627.4,199.8
			c-3.5-2.4-6.2-10.5-7.7-13.4c-2.6-5.1-7.4-11-1.4-12.2c3.2-0.6,8.2-1.1,12,0.4c6.6,2.5,10.8,11.8,10.6,17.5
			c0.1,2.8-1.5,5.4-4.1,6.5c-1.9,1-5.2,2.3-7.7,1.9C628.4,200.4,627.9,200.1,627.4,199.8z"/>
		<path class="st0" d="M794.8,148.9c-8.6-2.8-16.3-1.3-23.2,1.2s-13.4,5.8-21,6.7c-5.5,0.7-11-0.4-15.7-3.3
			c-5.4-3.3-10.5-10-11.1-16.1c-0.4-3.6,1-7.1,3.8-9.3c2.5-1.9,5.7-2.8,8.7-3.9c7.9-2.8,16.7-1.7,23-7c7-5.9,13.6-11,8.1-25.2
			c-2-5.2-4.5-10.7-8.6-14.5c-6.4-6.1-13.8-5.8-20.1-5.1L715,75.1c-4.2,0.5-8.8,0.9-13.6-1.8s-11-15-9.3-19c0.6-1.3,1.7-2.3,3-2.8
			c11.4-5.4,69.2-6.5,47.2-33.8c-6.8-8.4-19.8-11.5-29.8-14.3c-22.9-6.4-52-5.5-62.6,19.6c-2.9,6.9-2.1,16.8-3,25.3
			c0-0.1,2.1,15.1,4.3,22.9c3.2,11.4,0.7,3.4,4.7,14.8c6.1,17.1,12.7,34.1,20.1,51.1c0.8,1.7,1.5,3.4,2.3,5.1
			c6.8,14.9,14.6,29.5,21.1,44.4c6.1,14.1,15,22.4,26.5,25.5c35.3,9.6,62.7,0.8,85.6-16.9C824.2,185.5,815.1,155.5,794.8,148.9z"/>
	</g>
</g>
</svg>
