<svg xmlns="http://www.w3.org/2000/svg" viewBox="0 0 1019.56 424.9"><defs><style>.cls-1{fill:#fff;}</style></defs><title>youtube white</title><g id="Layer_2" data-name="Layer 2"><g id="Layer_1-2" data-name="Layer 1"><g id="ruyuzt.tif"><path class="cls-1" d="M715.75,0C765,1,814,1.71,863,3.19c25.12.76,50.28,2.19,75.28,4.7,35.54,3.57,58.33,23.25,68.85,57.53,5.12,16.7,7.22,33.79,8.81,51,4.44,48.21,4.1,96.54,2.84,144.84-.73,28.1-2.06,56.28-7.86,83.94a159.27,159.27,0,0,1-7,23.37C992.59,398.48,970,414.35,939,417.46c-28.14,2.83-56.48,4.17-84.77,5-43.63,1.35-87.29,2.26-130.93,2.39-40.15.12-80.3-.86-120.45-1.69-23.65-.49-47.31-1.22-70.92-2.66-16.09-1-32.27-2.4-48.09-5.33-32.94-6.11-52.12-27.05-60.74-58.91-4.56-16.84-6.31-34-7.92-51.22-4.08-43.89-3.59-87.89-2.83-131.86.53-30.78,2-61.62,7.93-92A153.14,153.14,0,0,1,427.93,56C439,27.18,461,11.57,490.85,8.22c26.28-2.95,52.8-4.19,79.26-5C618.73,1.68,667.38,1,715.75,0Zm6.31,71.89V188.31q0,75,0,150c0,6.42,0,6.43,6.62,6.43,8.33,0,16.66,0,25,0,1.76,0,3.51-.19,5.82-.32v-19c4.31,4.06,7.79,7.93,11.86,11a61.11,61.11,0,0,0,13.16,8c20.18,8.41,39.87-1.75,44.58-23A105.66,105.66,0,0,0,832,299.58c.3-37,.43-74,0-111-.14-12.12-2-24.28-7.83-35.29-5.57-10.47-14.31-15.89-26.33-15.77-14.7.15-25.22,8.29-34.84,18.17-1,1.07-2.06,2.18-4,4.25V71.89ZM583.83,140.71v5.58q0,77.25.05,154.49A159.11,159.11,0,0,0,585,319.21C588,345,609.3,355.41,631.39,341.61c6.55-4.09,12-10,17.91-15.06,1-.89,2-1.87,3.76-3.5V344.4c2.14.12,3.92.29,5.71.3,9.17,0,18.34-.26,27.49.12,5,.21,6-1.55,6-6.22q-.22-96-.1-192c0-1.78,0-3.56,0-5.55H652.94c0,2.33,0,4.3,0,6.27q0,71.75,0,143.49c0,2.07-.08,4.64-1.23,6.12a105.89,105.89,0,0,1-11.36,12.53c-3.73,3.45-8.61,5-13.44,2.79-4.61-2.13-3.83-6.92-3.83-11.05q0-76.5,0-153c0-1.5.36-3.14-.13-4.46s-1.83-2.91-2.82-2.92C608.26,140.64,596.45,140.71,583.83,140.71ZM969.05,248.84c0-15.24.31-30-.13-44.78a125.27,125.27,0,0,0-2.85-23.73c-4.9-21.7-17.88-36.51-40-41.14-22.6-4.73-42.38,1-57,19.92-8.36,10.8-11.66,23.77-11.91,37-.59,31.31-1.32,62.69.08,94,1.65,36.6,25.71,58.91,61.2,57,22.88-1.21,42.41-15.65,47.53-38,2.46-10.74,2.15-22.12,3-33.21.27-3.39-2.25-3.06-4.42-3.06q-15.5,0-31,0a30.89,30.89,0,0,0-3.78.52c0,6.84.19,13.49-.08,20.12a33.49,33.49,0,0,1-1.76,9.72c-2.41,6.8-7.17,9.82-14.55,9.92s-12.4-3-14.92-9.49a31.21,31.21,0,0,1-2.29-10.15c-.37-13.82-.36-27.65-.44-41.48a15.79,15.79,0,0,1,.71-3.15ZM504.24,110.71c0,3.09,0,5.39,0,7.68q0,106.46,0,212.92c0,13.4,0,13.4,13.2,13.4h28V110.78h44.48V71.92H462.11v38.8Z"/><path class="cls-1" d="M341.83,139h38.12V344.08H342V322.36c-1.93,1.75-2.91,2.65-3.9,3.54-5.2,4.65-10,9.93-15.75,13.77a44.09,44.09,0,0,1-16.32,6.93c-16.13,2.81-27.45-4.91-30.93-20.93a115,115,0,0,1-2.52-23.76c-.22-52.82-.12-105.64-.11-158.46,0-1.31.14-2.62.24-4.25h38.39v6q0,78,0,156a29.83,29.83,0,0,0,.25,5.48c1,5.28,4.71,8.23,9.76,6.49a39,39,0,0,0,12.13-7.32c6.15-5.25,8.88-11.72,8.78-20.49-.51-46.65-.24-93.31-.24-140Z"/><path class="cls-1" d="M91.27,344.1H50.69v-6c0-33.49,0-67-.07-100.46a33.78,33.78,0,0,0-1.5-9.77Q25.3,151.19,1.28,74.55C.84,73.15.51,71.72,0,69.79c13.66,0,26.95-.12,40.23.2,1.2,0,3,2.63,3.41,4.32,6.59,24.23,13,48.51,19.46,72.78a250,250,0,0,0,8.53,27.51L99.46,70h42.66C138,83.21,134,96.2,129.95,109.17q-18.6,59.52-37.17,119.05a32.05,32.05,0,0,0-1.44,9.27c-.1,33.49-.06,67-.06,100.46Z"/><path class="cls-1" d="M243.05,243.16c0,17.81.93,35.68-.22,53.41-1.76,27.3-19.16,46.2-44.44,50.39-30.21,5-56.77-13.54-62.17-43.84a148.38,148.38,0,0,1-2.05-24.34c-.26-24-.39-48,.07-72a143.17,143.17,0,0,1,3.24-29.68c6.13-26.23,25.1-40.15,52.41-39.61,31,.61,50.77,19.6,53,52.71,1.18,17.56.21,35.27.21,52.91Zm-37.79-47.9,1-.1c-.86-4.38-1.29-8.91-2.68-13.12-2.19-6.6-7.63-10-14.58-10s-12.51,3.39-14.51,10.06a52.93,52.93,0,0,0-2.06,14.71q-.26,45.68,0,91.36a52.22,52.22,0,0,0,2.5,16.1c2.56,7.57,10,10.89,17.79,9.06,6.8-1.59,11.32-6.78,12.18-15.27.62-6.08.28-12.27.28-18.41Q205.28,237.45,205.26,195.26Z"/><path class="cls-1" d="M759.23,242.53c0-19.16-.12-38.31.15-57.47,0-2.38,1.55-5.83,3.43-6.87,4.81-2.67,10.08-5.25,15.43-6,7.2-1,11.6,2.75,13.44,9.84a40.22,40.22,0,0,1,1.34,9.85q.15,49.47,0,98.94a45.68,45.68,0,0,1-1.66,11.81c-2.26,8.21-7.44,12-15.65,10.07-5.28-1.22-10.18-4.48-14.93-7.35-1.17-.71-1.51-3.49-1.52-5.32-.1-19.16-.06-38.31-.06-57.47Z"/><path class="cls-1" d="M929.06,217.9c-10,0-20.09.1-30.21-.15-1.06,0-3-2.11-3-3.25-.09-9.32-.22-18.67.45-28,.74-10.17,5.88-14.49,16-14.62,10.7-.13,15.83,3.7,16.6,14.24C929.65,196.39,929.06,206.72,929.06,217.9Z"/></g></g></g></svg>