<?xml version="1.0" standalone="no"?>
<!DOCTYPE svg PUBLIC "-//W3C//DTD SVG 1.1//EN" "http://www.w3.org/Graphics/SVG/1.1/DTD/svg11.dtd" >
<svg>
<metadata>
Created by FontForge 20090622 at Fri Sep 14 20:46:47 2018
 By deploy user
Copyright (c) 2015 Swiss Typefaces S&#195;&#160;rl. All rights reserved.
</metadata>
<defs>
<font id="SuisseIntl-Black" horiz-adv-x="678" >
  <font-face 
    font-family="SuisseIntl-Black"
    font-weight="900"
    font-stretch="normal"
    units-per-em="1000"
    panose-1="2 11 10 4 0 0 0 0 0 0"
    ascent="800"
    descent="-200"
    x-height="538"
    cap-height="725"
    bbox="-200 -244 1443 935"
    underline-thickness="100"
    underline-position="-110"
    unicode-range="U+0020-U+FB02"
  />
<missing-glyph horiz-adv-x="500" 
d="M0 725h500v-725h-500v725zM19 696v-667l220 333zM481 29v667l-221 -334zM33 19h433l-216 327zM250 378l216 328h-433z" />
    <glyph glyph-name=".notdef" horiz-adv-x="500" 
d="M0 725h500v-725h-500v725zM19 696v-667l220 333zM481 29v667l-221 -334zM33 19h433l-216 327zM250 378l216 328h-433z" />
    <glyph glyph-name=".null" horiz-adv-x="0" 
 />
    <glyph glyph-name="nonmarkingreturn" horiz-adv-x="333" 
 />
    <glyph glyph-name="space" unicode=" " horiz-adv-x="215" 
 />
    <glyph glyph-name="exclam" unicode="!" horiz-adv-x="337" 
d="M92 237l-44 332v156h241v-156l-43 -332h-154zM60 0v210h217v-210h-217z" />
    <glyph glyph-name="quotedbl" unicode="&#x22;" horiz-adv-x="417" 
d="M394 725l-22 -254h-122l-22 254h166zM189 725l-22 -254h-122l-22 254h166z" />
    <glyph glyph-name="numbersign" unicode="#" horiz-adv-x="826" 
d="M209 571l22 154h157l-22 -154h153l22 154h157l-22 -154h148l-18 -137h-150l-21 -140h148l-17 -138h-151l-22 -156h-157l22 156h-153l-22 -156h-157l22 156h-146l18 138h148l21 140h-146l17 137h149zM325 294h153l21 140h-153z" />
    <glyph glyph-name="dollar" unicode="$" horiz-adv-x="691" 
d="M369 818v-77q123 -8 192 -71t77 -163h-189q-6 39 -25.5 62t-54.5 28v-146l28 -7q46 -12 91.5 -26t81.5 -38.5t58 -63.5t22 -100q0 -54 -23 -95t-62 -70t-90 -44.5t-106 -18.5v-102h-52v103q-63 4 -112.5 25t-85.5 55t-56.5 79t-24.5 98h189q5 -48 28.5 -79t61.5 -36v154
l-61 16q-39 10 -76.5 27t-67.5 43t-48 64t-18 92q0 52 23 91.5t61.5 66t87 40.5t99.5 16v77h52zM454 195q0 28 -23.5 45.5t-61.5 30.5v-141q37 0 61 19.5t24 45.5zM240 540q0 -51 69 -72l8 -2v132q-37 -1 -57 -19.5t-20 -38.5z" />
    <glyph glyph-name="percent" unicode="%" horiz-adv-x="1066" 
d="M199 394q26 0 43.5 27.5t17.5 99.5q0 36 -4.5 60.5t-13 39.5t-19.5 21t-24 6q-14 0 -25.5 -6t-19.5 -21t-12.5 -39.5t-4.5 -60.5q0 -72 17 -99.5t45 -27.5zM199 309q-89 0 -134 56t-45 156t45 155.5t134 55.5q88 0 133 -55.5t45 -155.5t-45 -156t-133 -56zM200 0l500 725
h166l-500 -725h-166zM865 77q26 0 43.5 27.5t17.5 99.5q0 36 -4.5 60.5t-13 39.5t-19.5 21t-24 6q-14 0 -25.5 -6t-19.5 -21t-12.5 -39.5t-4.5 -60.5q0 -72 17 -99.5t45 -27.5zM865 -8q-89 0 -134 56t-45 156t45 155.5t134 55.5q88 0 133 -55.5t45 -155.5t-45 -156t-133 -56
z" />
    <glyph glyph-name="ampersand" unicode="&#x26;" horiz-adv-x="819" 
d="M280 -13q-56 0 -103.5 13.5t-82.5 39.5t-54.5 65.5t-19.5 92.5q0 73 45 124t126 83q-32 41 -52 81.5t-20 85.5q0 37 16 68.5t47 54t76 35t103 12.5q63 0 108.5 -16.5t74.5 -42.5t42.5 -57.5t13.5 -61.5q0 -29 -12 -57.5t-31.5 -53t-43.5 -44t-49 -29.5l80 -90
q20 31 35 62t23 60h191q-13 -48 -48 -114t-92 -130l151 -168h-248l-46 50q-50 -29 -107 -46t-123 -17zM325 136q22 0 43.5 6.5t42.5 17.5l-122 134q-29 -18 -38.5 -40.5t-9.5 -42.5q0 -38 25.5 -56.5t58.5 -18.5zM333 569q0 -17 9 -37.5t32 -49.5q22 12 35 35t13 44
q0 24 -14 35t-31 11t-30.5 -9t-13.5 -29z" />
    <glyph glyph-name="quotesingle" unicode="'" horiz-adv-x="212" 
d="M189 725l-22 -254h-122l-22 254h166z" />
    <glyph glyph-name="parenleft" unicode="(" horiz-adv-x="366" 
d="M32 279q0 67 13.5 133.5t34 125t45 107t47.5 80.5h199q-29 -45 -54.5 -99t-44.5 -112.5t-29.5 -118.5t-10.5 -116t10.5 -117.5t29.5 -121.5t44.5 -115t54.5 -100h-199q-23 32 -47.5 81.5t-45 110t-34 127.5t-13.5 135z" />
    <glyph glyph-name="parenright" unicode=")" horiz-adv-x="366" 
d="M334 279q0 -68 -13.5 -135t-34 -127.5t-45 -110t-47.5 -81.5h-199q29 45 54.5 100t44 115t29.5 121.5t11 117.5t-11 116t-29.5 118.5t-44 112.5t-54.5 99h199q23 -32 47.5 -80.5t45 -107t34 -125t13.5 -133.5z" />
    <glyph glyph-name="asterisk" unicode="*" horiz-adv-x="357" 
d="M219 625l94 36l36 -94l-96 -34l58 -81l-80 -59l-61 84l-57 -84l-85 57l59 83l-97 34l36 94l92 -36v100h101v-100z" />
    <glyph glyph-name="plus" unicode="+" 
d="M240 0v182h-194v174h194v182h200v-182h193v-174h-193v-182h-200z" />
    <glyph glyph-name="comma" unicode="," horiz-adv-x="314" 
d="M48 210h218v-222l-88 -155h-147l73 167h-56v210z" />
    <glyph glyph-name="hyphen" unicode="-" horiz-adv-x="455" 
d="M43 181v174h369v-174h-369z" />
    <glyph glyph-name="period" unicode="." horiz-adv-x="313" 
d="M48 0v210h217v-210h-217z" />
    <glyph glyph-name="slash" unicode="/" horiz-adv-x="500" 
d="M0 0l292 725h208l-292 -725h-208z" />
    <glyph glyph-name="zero" unicode="0" horiz-adv-x="714" 
d="M357 -13q-77 0 -136 26.5t-98.5 75.5t-59.5 119t-20 157t20 157t59.5 118.5t98.5 75t136 26.5q78 0 136.5 -26.5t98 -75t59.5 -118.5t20 -157t-20 -157t-59.5 -119t-98 -75.5t-136.5 -26.5zM357 136q24 0 44 12t34.5 39t22.5 70.5t8 107.5t-8 107.5t-22.5 70.5t-34.5 39
t-44 12t-43.5 -12t-34 -39t-22.5 -70.5t-8 -107.5t8 -107.5t22.5 -70.5t34 -39t43.5 -12z" />
    <glyph glyph-name="one" unicode="1" horiz-adv-x="447" 
d="M171 0v472h-160v146q47 1 81 7.5t57.5 19.5t38.5 33t26 47h157v-725h-200z" />
    <glyph glyph-name="two" unicode="2" horiz-adv-x="635" 
d="M331 742q57 0 106.5 -12t87 -37.5t59 -64.5t21.5 -93q0 -53 -22 -100.5t-62.5 -91.5t-98.5 -86.5t-130 -86.5h310v-170h-578v158l67 47l81 57q42 30 83 63.5t74 67.5t53 66.5t20 61.5q0 38 -26.5 55.5t-60.5 17.5q-46 0 -74 -32t-28 -99h-190q2 134 81.5 206.5
t226.5 72.5z" />
    <glyph glyph-name="three" unicode="3" horiz-adv-x="674" 
d="M329 136q49 0 74 21t25 51q0 42 -34.5 58.5t-106.5 16.5h-30v161h33q60 0 89.5 23.5t29.5 59.5q0 34 -26 50.5t-59 16.5q-40 0 -72.5 -23.5t-36.5 -77.5h-194q9 123 93.5 186t226.5 63q60 0 110 -13.5t86 -39.5t56 -63t20 -83q0 -29 -7.5 -55.5t-20.5 -48t-30 -37.5
t-36 -25q52 -18 84 -61t32 -107q0 -55 -25 -96.5t-67.5 -69.5t-98 -42t-115.5 -14q-140 0 -223.5 68t-92.5 192h194q9 -61 40.5 -86t81.5 -25z" />
    <glyph glyph-name="four" unicode="4" horiz-adv-x="669" 
d="M206 309h144v178zM662 139h-112v-139h-200v139h-342v150l367 436h175v-416h112v-170z" />
    <glyph glyph-name="five" unicode="5" horiz-adv-x="706" 
d="M349 136q53 0 81.5 29t28.5 74t-27.5 75t-78.5 30q-43 0 -70 -15.5t-41 -42.5l-178 15l54 424h500v-169h-332l-16 -113q29 28 71 39t87 11q52 0 95.5 -17.5t75 -50.5t49.5 -80t18 -105q0 -60 -22 -107t-62.5 -79.5t-97 -49.5t-124.5 -17q-62 0 -117 15t-98 45t-70 76
t-33 108h192q7 -47 36.5 -71t78.5 -24z" />
    <glyph glyph-name="six" unicode="6" horiz-adv-x="689" 
d="M246 243q0 -54 29.5 -80.5t69.5 -26.5q39 0 68.5 26.5t29.5 80.5q0 26 -8.5 46t-22 33.5t-31 20.5t-36.5 7q-40 0 -69.5 -27t-29.5 -80zM354 594q-24 0 -44.5 -10.5t-36.5 -30.5t-24.5 -48t-8.5 -64q29 31 73 44t94 13q42 0 85 -15t77.5 -45.5t56.5 -78t22 -113.5
q0 -63 -23 -111t-63.5 -81t-96 -50t-120.5 -17q-75 0 -132.5 25.5t-96 73t-58 114t-19.5 148.5q0 84 19.5 156t60 125t102 83t144.5 30q63 0 112 -16.5t83 -45t52 -67t19 -83.5h-185q-5 32 -31 48t-61 16z" />
    <glyph glyph-name="seven" unicode="7" horiz-adv-x="566" 
d="M-3 725h585v-169q-149 -98 -223.5 -233.5t-69.5 -322.5h-220q-3 90 22.5 174.5t69 156.5t99.5 129.5t114 95.5h-377v169z" />
    <glyph glyph-name="eight" unicode="8" horiz-adv-x="714" 
d="M357 742q71 0 125 -16t90 -43.5t54.5 -63.5t18.5 -76q0 -45 -19 -85.5t-54 -66.5q96 -60 96 -174q0 -50 -22 -92t-62.5 -72.5t-98 -48t-128.5 -17.5t-128.5 17.5t-98 48t-62.5 72.5t-22 92q0 114 96 174q-35 26 -54 66.5t-19 85.5q0 40 18.5 76t55 63.5t90 43.5t124.5 16
zM357 320q-47 0 -77 -26t-30 -66q0 -44 30 -68t77 -24t76.5 24t29.5 68q0 40 -29.5 66t-76.5 26zM447 519q0 35 -26 55t-64 20t-64 -20t-26 -55q0 -36 26 -56.5t64 -20.5t64 20.5t26 56.5z" />
    <glyph glyph-name="nine" unicode="9" horiz-adv-x="685" 
d="M436 486q0 54 -29.5 81t-69.5 27q-39 0 -68 -27t-29 -81q0 -26 8 -46t21.5 -33.5t31 -20t36.5 -6.5q40 0 69.5 26.5t29.5 79.5zM328 136q24 0 44.5 10.5t36.5 30t24.5 48t8.5 63.5q-29 -31 -73 -44t-94 -13q-42 0 -85 15t-77.5 46t-56.5 78.5t-22 112.5q0 63 23 111.5
t63.5 81t96 49.5t120.5 17q75 0 132.5 -25.5t96 -73t58 -114t19.5 -147.5q0 -84 -19.5 -156.5t-60 -125.5t-102 -83t-144.5 -30q-63 0 -112.5 16.5t-83 45t-51.5 67t-19 83.5h185q5 -32 31 -47.5t61 -15.5z" />
    <glyph glyph-name="colon" unicode=":" horiz-adv-x="313" 
d="M48 0v210h217v-210h-217zM48 328v210h217v-210h-217z" />
    <glyph glyph-name="semicolon" unicode=";" horiz-adv-x="314" 
d="M48 328v210h217v-210h-217zM48 210h218v-222l-88 -155h-147l73 167h-56v210z" />
    <glyph glyph-name="less" unicode="&#x3c;" 
d="M618 553v-194l-317 -91l317 -92v-193l-567 198v174z" />
    <glyph glyph-name="equal" unicode="=" 
d="M56 298v175h566v-175h-566zM56 65v174h566v-174h-566z" />
    <glyph glyph-name="greater" unicode="&#x3e;" 
d="M627 181l-567 -198v193l317 92l-317 91v194l567 -198v-174z" />
    <glyph glyph-name="question" unicode="?" horiz-adv-x="629" 
d="M331 742q57 0 108 -12.5t89 -37t60.5 -61t22.5 -85.5q0 -39 -14 -69.5t-35 -53.5t-46.5 -40t-48.5 -28q-26 -12 -42 -22t-25 -20.5t-12 -24.5t-3 -34v-8q0 -4 1 -9h-209q-3 25 -3 48q0 58 27.5 99.5t98.5 70.5q43 18 74 37.5t31 49.5q0 14 -7.5 24t-19.5 16t-27 9t-30 3
q-23 0 -43.5 -6.5t-36.5 -19t-25.5 -32.5t-9.5 -47h-198q0 67 24.5 114.5t67.5 78.5t102 45.5t129 14.5zM174 0v210h217v-210h-217z" />
    <glyph glyph-name="at" unicode="@" horiz-adv-x="826" 
d="M403 459q-21 0 -38 -10t-29 -26.5t-18.5 -39t-6.5 -46.5q0 -75 62 -75q21 0 38 10t28.5 27.5t17.5 40.5t6 49q0 32 -16 51t-44 19zM603 152q-42 0 -75 18.5t-47 59.5q-46 -79 -134 -79q-33 0 -62.5 11t-52.5 34t-36.5 58t-13.5 83q0 51 18.5 94.5t48.5 74.5t67.5 48.5
t75.5 17.5q32 0 62.5 -12.5t50.5 -47.5l8 44h109l-39 -224q-3 -20 -4 -38t2 -31.5t11.5 -21.5t24.5 -8q18 0 34.5 11.5t29 33.5t20.5 53.5t8 70.5q0 62 -20.5 109.5t-57 79.5t-88 48.5t-112.5 16.5q-69 0 -126.5 -23.5t-98.5 -65.5t-63.5 -98.5t-22.5 -122.5q0 -64 20 -117
t56.5 -91t87.5 -59t113 -21q97 0 188 47l29 -69q-54 -26 -110.5 -37.5t-107.5 -11.5q-79 0 -144.5 26.5t-112.5 74.5t-73 114.5t-26 146.5q0 79 30 147.5t82.5 119.5t124.5 80t156 29q70 0 133.5 -19t112.5 -58.5t78 -99.5t29 -142q0 -61 -15 -108t-40.5 -79.5t-58.5 -49.5
t-69 -17z" />
    <glyph glyph-name="A" unicode="A" horiz-adv-x="745" 
d="M258 725h229l263 -725h-227l-37 121h-231l-37 -121h-223zM304 277h134l-66 218z" />
    <glyph glyph-name="B" unicode="B" horiz-adv-x="720" 
d="M65 725h318q61 0 112.5 -8t89.5 -29.5t59.5 -59t21.5 -95.5q0 -45 -13 -79t-44 -62q38 -23 61 -62t23 -99q0 -62 -21.5 -106t-60.5 -71.5t-93.5 -40.5t-121.5 -13h-331v725zM274 169h128q35 0 54 18t19 44q0 27 -19 45t-54 18h-128v-125zM274 439h115q30 0 46 17.5
t16 40.5t-16 41t-46 18h-115v-117z" />
    <glyph glyph-name="C" unicode="C" horiz-adv-x="768" 
d="M22 365q0 88 25.5 158t73 118.5t115 74.5t152.5 26q70 0 130 -19.5t106.5 -57t77.5 -91t42 -122.5h-206q-11 53 -48.5 84t-94.5 31q-68 0 -111.5 -50.5t-43.5 -151.5q0 -102 43.5 -152.5t111.5 -50.5q57 0 96 32t50 84h205q-11 -69 -42 -123t-78 -91.5t-107.5 -57
t-130.5 -19.5q-85 0 -152.5 26t-115 74.5t-73 118.5t-25.5 159z" />
    <glyph glyph-name="D" unicode="D" horiz-adv-x="754" 
d="M515 363q0 62 -14.5 100t-41 58.5t-62.5 27.5t-79 7h-44v-387h44q43 0 79 7t62.5 28t41 59t14.5 100zM315 725q87 0 163.5 -18t133 -60t89 -111.5t32.5 -172.5q0 -104 -32.5 -173.5t-89 -111.5t-133 -60t-163.5 -18h-250v725h250z" />
    <glyph glyph-name="E" unicode="E" horiz-adv-x="683" 
d="M65 725h574v-179h-365v-92h346v-180h-346v-94h369v-180h-578v725z" />
    <glyph glyph-name="F" unicode="F" horiz-adv-x="601" 
d="M65 725h526v-179h-317v-92h298v-180h-298v-274h-209v725z" />
    <glyph glyph-name="G" unicode="G" horiz-adv-x="794" 
d="M395 567q-72 0 -113.5 -53t-41.5 -147q0 -46 10 -83.5t29.5 -64.5t49 -42t69.5 -15q34 0 59.5 9t42 23t24.5 30t8 31v1h-157v158h360v-414h-163l-1 77q-33 -47 -87.5 -68.5t-121.5 -21.5q-78 0 -141 27t-107 76.5t-68 119.5t-24 157q0 86 25.5 155.5t73.5 118t116.5 75
t154.5 26.5q61 0 115.5 -14.5t99 -44.5t77 -77t47.5 -112h-205q-10 31 -41.5 52t-89.5 21z" />
    <glyph glyph-name="H" unicode="H" horiz-adv-x="797" 
d="M732 725v-725h-209v274h-249v-274h-209v725h209v-271h249v271h209z" />
    <glyph glyph-name="I" unicode="I" horiz-adv-x="339" 
d="M274 0h-209v725h209v-725z" />
    <glyph glyph-name="J" unicode="J" horiz-adv-x="682" 
d="M618 272q0 -77 -21 -131t-60.5 -88.5t-96 -50t-126.5 -15.5t-126 18.5t-95 54.5t-60.5 90.5t-21.5 126.5h209q2 -79 23 -110.5t71 -31.5t72.5 29.5t22.5 107.5v453h209v-453z" />
    <glyph glyph-name="K" unicode="K" horiz-adv-x="736" 
d="M274 467l208 258h253l-251 -292l262 -433h-246l-156 269l-70 -82v-187h-209v725h209v-258z" />
    <glyph glyph-name="L" unicode="L" horiz-adv-x="611" 
d="M274 180h338v-180h-547v725h209v-545z" />
    <glyph glyph-name="M" unicode="M" horiz-adv-x="982" 
d="M399 0l-146 499v-499h-188v725h306l123 -451l121 451h303v-725h-188v502l-144 -502h-187z" />
    <glyph glyph-name="N" unicode="N" horiz-adv-x="802" 
d="M480 0l-222 462v-462h-193v725h257l223 -461v461h193v-725h-258z" />
    <glyph glyph-name="O" unicode="O" horiz-adv-x="804" 
d="M239 364q0 -54 13.5 -92t36.5 -62.5t52 -36t61 -11.5q31 0 60.5 11.5t52.5 36t36.5 62.5t13.5 92t-13.5 92t-36.5 63t-52.5 36.5t-60.5 11.5q-32 0 -61 -11.5t-52 -36.5t-36.5 -63t-13.5 -92zM782 364q0 -90 -28 -160t-78.5 -118t-120.5 -73.5t-153 -25.5t-153 25.5
t-120.5 73.5t-78.5 118t-28 160t28 160t78.5 118.5t120.5 74t153 25.5t153 -25.5t120.5 -74t78.5 -118.5t28 -160z" />
    <glyph glyph-name="P" unicode="P" horiz-adv-x="695" 
d="M360 725q71 0 131.5 -10.5t105 -38t69.5 -75t25 -121.5t-25 -121.5t-69.5 -74.5t-105 -37.5t-131.5 -10.5h-86v-236h-209v725h295zM274 556v-151h105q45 0 70 18t25 57q0 40 -25 58t-70 18h-105z" />
    <glyph glyph-name="Q" unicode="Q" horiz-adv-x="804" 
d="M782 364q0 -97 -32.5 -170.5t-89.5 -121.5l72 -99l-127 -89l-86 117q-56 -14 -117 -14q-83 0 -153 25.5t-120.5 73.5t-78.5 118t-28 160t28 160t78.5 118.5t120.5 74t153 25.5t153 -25.5t120.5 -74t78.5 -118.5t28 -160zM239 364q0 -54 13.5 -92t36.5 -62.5t52 -36
t61 -11.5q31 0 60.5 11.5t52.5 36t36.5 62.5t13.5 92t-13.5 92t-36.5 63t-52.5 36.5t-60.5 11.5q-32 0 -61 -11.5t-52 -36.5t-36.5 -63t-13.5 -92z" />
    <glyph glyph-name="R" unicode="R" horiz-adv-x="750" 
d="M360 255h-86v-255h-209v725h300q71 0 132 -10t105.5 -36.5t69.5 -71.5t25 -115q0 -78 -36 -126t-93 -74l172 -292h-235zM274 556v-143h115q46 0 68 20t22 51t-22 51.5t-68 20.5h-115z" />
    <glyph glyph-name="S" unicode="S" horiz-adv-x="706" 
d="M46 511q0 59 26.5 102.5t70 72t99 42.5t113.5 14q97 0 173 -21t145 -59l-88 -173q-20 12 -47 24t-58.5 21.5t-65 15.5t-66.5 6q-42 0 -65 -10t-23 -31q0 -32 60 -45l107 -22q51 -11 96.5 -26t80 -39t54.5 -60t20 -90q0 -62 -25 -108t-67.5 -76.5t-100.5 -46t-124 -15.5
q-115 0 -201 29.5t-147 74.5l103 169q23 -17 52 -32.5t61.5 -27t68 -18.5t70.5 -7q44 0 69.5 9t25.5 32t-28.5 36.5t-79.5 24.5l-82 17q-43 9 -83.5 24.5t-72.5 41t-51.5 62.5t-19.5 89z" />
    <glyph glyph-name="T" unicode="T" horiz-adv-x="653" 
d="M221 546h-216v179h642v-179h-217v-546h-209v546z" />
    <glyph glyph-name="U" unicode="U" horiz-adv-x="762" 
d="M263 725v-425q0 -35 6 -60.5t19.5 -43t36 -26t56.5 -8.5q67 0 92.5 37t25.5 101v425h209v-404q0 -85 -17.5 -147.5t-56 -104t-100.5 -62t-151 -20.5q-86 0 -148 17t-102 56t-59.5 101.5t-19.5 152.5v411h209z" />
    <glyph glyph-name="V" unicode="V" horiz-adv-x="702" 
d="M222 725l130 -478l133 478h222l-241 -725h-229l-242 725h227z" />
    <glyph glyph-name="W" unicode="W" horiz-adv-x="985" 
d="M696 268l68 457h211l-142 -725h-243l-97 495l-98 -495h-242l-143 725h212l73 -451l84 451h227z" />
    <glyph glyph-name="X" unicode="X" horiz-adv-x="727" 
d="M243 364l-246 361h247l123 -182l127 182h236l-246 -353l254 -372h-247l-132 193l-134 -193h-236z" />
    <glyph glyph-name="Y" unicode="Y" horiz-adv-x="731" 
d="M229 725l136 -253l138 253h244l-281 -445v-280h-209v282l-273 443h245z" />
    <glyph glyph-name="Z" unicode="Z" horiz-adv-x="688" 
d="M639 546l-359 -366h372v-180h-626v180l359 366h-330v179h584v-179z" />
    <glyph glyph-name="bracketleft" unicode="[" horiz-adv-x="384" 
d="M364 725v-157h-115v-586h115v-157h-299v900h299z" />
    <glyph glyph-name="backslash" unicode="\" horiz-adv-x="500" 
d="M500 0h-207l-293 725h209z" />
    <glyph glyph-name="bracketright" unicode="]" horiz-adv-x="384" 
d="M319 725v-900h-299v157h115v586h-115v157h299z" />
    <glyph glyph-name="asciicircum" unicode="^" horiz-adv-x="598" 
d="M588 338h-189l-100 228l-100 -228h-188l188 387h200z" />
    <glyph glyph-name="underscore" unicode="_" horiz-adv-x="522" 
d="M11 -174v174h500v-174h-500z" />
    <glyph glyph-name="grave" unicode="`" horiz-adv-x="346" 
d="M22 725h208l94 -116h-160z" />
    <glyph glyph-name="a" unicode="a" horiz-adv-x="636" 
d="M387 356q0 22 -6.5 36t-17.5 21.5t-25.5 10.5t-30.5 3q-38 0 -62 -17t-29 -52h-172q3 38 22 74t53.5 63.5t84.5 44.5t117 17q58 0 106.5 -12t83 -39.5t54 -73.5t18.5 -113l-1 -103v-53q0 -28 1.5 -57t3.5 -56.5t5 -49.5h-186v70q-30 -45 -78 -64t-105 -19q-39 0 -74 11.5
t-61.5 33t-41.5 51t-15 65.5q0 47 23.5 81t69 57t112 36t151.5 19v15zM394 241q-80 -5 -121 -20.5t-41 -50.5q0 -17 15.5 -33t50.5 -16q19 0 36.5 4.5t31 16.5t21 32t7.5 51v16z" />
    <glyph glyph-name="b" unicode="b" horiz-adv-x="680" 
d="M259 725v-262q18 35 60 61t102 26q45 0 87.5 -18t75 -53t52.5 -87.5t20 -122.5t-20 -122.5t-52.5 -88t-75 -53.5t-87.5 -18q-60 0 -102 26t-60 61v-74h-200v725h200zM252 269q0 -61 27.5 -97t69.5 -36q43 0 68 38t25 95t-25 94.5t-68 37.5q-42 0 -69.5 -35.5t-27.5 -96.5
z" />
    <glyph glyph-name="c" unicode="c" horiz-adv-x="608" 
d="M315 559q59 0 107 -18.5t82.5 -50t56 -72.5t27.5 -86h-184q-2 13 -8 27t-16.5 25.5t-24.5 18.5t-32 7q-27 0 -45 -10.5t-28.5 -29.5t-14.5 -44t-4 -53q0 -29 4.5 -54t15.5 -43.5t28 -29.5t43 -11q19 0 34 7t25.5 18t17 24.5t8.5 26.5h184q-8 -45 -30 -86t-57.5 -71.5
t-83.5 -49t-106 -18.5q-71 0 -124.5 21t-89.5 58.5t-54.5 90.5t-18.5 116q0 64 21 117t58.5 90.5t90.5 58.5t118 21z" />
    <glyph glyph-name="d" unicode="d" horiz-adv-x="680" 
d="M421 725h200v-725h-200v74q-18 -35 -60 -61t-102 -26q-45 0 -87.5 18t-75 53.5t-52.5 88t-20 122.5t20 122.5t52.5 87.5t75 53t87.5 18q60 0 102 -26t60 -61v262zM428 269q0 61 -27.5 96.5t-69.5 35.5q-43 0 -68 -37.5t-25 -94.5t25 -95t68 -38q42 0 69.5 36t27.5 97z
" />
    <glyph glyph-name="e" unicode="e" horiz-adv-x="634" 
d="M326 -14q-71 0 -127 21.5t-94 60t-58 92t-20 116.5q0 64 22.5 116.5t61.5 89t92 56.5t114 20q71 0 127 -26t94.5 -71.5t57 -106.5t13.5 -131h-388q5 -41 33 -65.5t75 -24.5q29 0 55.5 13t35.5 35h188q-9 -30 -30.5 -64t-56.5 -63t-83.5 -48.5t-111.5 -19.5zM330 421
q-16 0 -32.5 -4.5t-31 -15t-26 -27t-16.5 -40.5h208q-2 24 -12 40.5t-25 27t-32 15t-33 4.5z" />
    <glyph glyph-name="f" unicode="f" horiz-adv-x="453" 
d="M97 568q0 53 10 84.5t33.5 47.5t61.5 20.5t94 4.5h147v-127h-107q-22 0 -30 -6.5t-8 -26.5v-27h145v-126h-146v-412h-200v412h-97v126h97v30z" />
    <glyph glyph-name="g" unicode="g" horiz-adv-x="680" 
d="M421 96q-9 -15 -24.5 -29t-36 -25t-46 -17.5t-55.5 -6.5q-45 0 -87.5 15.5t-75 48t-52.5 83t-20 120.5t20 120t52.5 82t75 47.5t87.5 15.5q60 0 102 -22.5t60 -54.5v65h200v-456q0 -74 -24.5 -125t-66 -83.5t-95.5 -47t-113 -14.5q-122 0 -188 46.5t-83 128.5h185
q5 -23 24.5 -37t59.5 -14q21 0 39.5 5.5t32 18t21.5 33t8 49.5v54zM428 285q0 60 -27.5 88t-69.5 28q-43 0 -70.5 -29.5t-27.5 -86.5q0 -58 27.5 -87.5t70.5 -29.5q42 0 69.5 28t27.5 89z" />
    <glyph glyph-name="h" unicode="h" horiz-adv-x="653" 
d="M259 468q27 40 69.5 61t97.5 21q50 0 84.5 -14.5t55.5 -42.5t30 -67.5t9 -88.5v-337h-200v296q0 17 -2 33.5t-8.5 30t-19.5 21.5t-35 8q-37 0 -59 -24.5t-22 -83.5v-281h-200v725h200v-257z" />
    <glyph glyph-name="i" unicode="i" horiz-adv-x="318" 
d="M259 538v-538h-200v538h200zM259 725v-142h-200v142h200z" />
    <glyph glyph-name="j" unicode="j" horiz-adv-x="319" 
d="M59 538h200v-534q0 -55 -10.5 -90t-34 -54.5t-61.5 -27t-94 -7.5h-75v134h36q19 0 29 7.5t10 30.5v541zM259 725v-142h-200v142h200z" />
    <glyph glyph-name="k" unicode="k" horiz-adv-x="653" 
d="M259 725v-366l169 179h225l-198 -206l203 -332h-227l-114 189l-58 -61v-128h-200v725h200z" />
    <glyph glyph-name="l" unicode="l" horiz-adv-x="318" 
d="M259 0h-200v725h200v-725z" />
    <glyph glyph-name="m" unicode="m" horiz-adv-x="981" 
d="M671 390q-36 0 -55.5 -24.5t-19.5 -83.5v-282h-200v287q0 45 -12 74t-50 29q-36 0 -55.5 -24.5t-19.5 -83.5v-282h-200v538h200v-59q23 33 62.5 52t97.5 19q60 0 96.5 -22t53.5 -69q29 42 73.5 66.5t114.5 24.5q42 0 75 -12.5t55.5 -41t34 -74t11.5 -111.5v-311h-200v287
q0 45 -12 74t-50 29z" />
    <glyph glyph-name="n" unicode="n" horiz-adv-x="653" 
d="M259 468q27 40 69.5 61t97.5 21q50 0 84.5 -14.5t55.5 -42.5t30 -67.5t9 -88.5v-337h-200v297q0 17 -2 33.5t-8.5 30t-19.5 21.5t-35 8q-37 0 -59 -24.5t-22 -83.5v-282h-200v538h200v-70z" />
    <glyph glyph-name="o" unicode="o" horiz-adv-x="640" 
d="M320 405q-38 0 -64 -30t-26 -105q0 -38 7 -63.5t19 -41t28.5 -22.5t35.5 -7t35.5 7t28.5 22.5t19 41t7 63.5q0 75 -26 105t-64 30zM320 -13q-60 0 -114 17.5t-94.5 53t-64 88.5t-23.5 124t23.5 124t64 88.5t94.5 53.5t114 18t113.5 -18t94 -53.5t64.5 -88.5t24 -124
t-24 -124t-64.5 -88.5t-94 -53t-113.5 -17.5z" />
    <glyph glyph-name="p" unicode="p" horiz-adv-x="680" 
d="M252 268q0 -61 27.5 -96.5t69.5 -35.5q43 0 68 37.5t25 94.5t-25 95t-68 38q-42 0 -69.5 -36t-27.5 -97zM259 -175h-200v713h200v-75q18 35 60 61t102 26q45 0 87.5 -18t75 -53.5t52.5 -88t20 -122.5t-20 -122.5t-52.5 -88t-75 -53t-87.5 -17.5q-60 0 -102 26t-60 61
v-249z" />
    <glyph glyph-name="q" unicode="q" horiz-adv-x="680" 
d="M421 -175v249q-18 -35 -60 -61t-102 -26q-45 0 -87.5 17.5t-75 53t-52.5 88t-20 122.5t20 122.5t52.5 88t75 53.5t87.5 18q60 0 102 -26t60 -61v75h200v-713h-200zM428 268q0 61 -27.5 97t-69.5 36q-43 0 -68 -38t-25 -95t25 -94.5t68 -37.5q42 0 69.5 35.5t27.5 96.5z
" />
    <glyph glyph-name="r" unicode="r" horiz-adv-x="429" 
d="M419 351q-11 2 -23.5 4t-26.5 2q-48 0 -79 -19t-31 -73v-265h-200v538h195v-103q16 50 56 78.5t84 28.5h12q8 0 13 -1v-190z" />
    <glyph glyph-name="s" unicode="s" horiz-adv-x="582" 
d="M485 357q-37 15 -88 29.5t-102 14.5q-26 0 -38 -7t-12 -16q0 -8 7.5 -17t34.5 -14l70 -13q44 -8 81 -19.5t63.5 -29.5t41.5 -44.5t15 -64.5q0 -94 -69.5 -141.5t-187.5 -47.5q-100 0 -168 20.5t-113 48.5l74 139q37 -20 87.5 -37.5t110.5 -17.5q28 0 49 6.5t21 20.5
t-15 20.5t-47 12.5l-57 11q-42 7 -77.5 20t-61 33.5t-39.5 49t-14 66.5q0 42 20.5 74t55.5 53.5t81.5 33t98.5 11.5q39 0 75.5 -5t68 -13t56.5 -17.5t42 -18.5z" />
    <glyph glyph-name="t" unicode="t" horiz-adv-x="480" 
d="M108 686h200v-148h137v-126h-137v-240q0 -23 9.5 -30t29.5 -7h98v-135h-138q-56 0 -94 4.5t-61 21t-33.5 49t-10.5 87.5v250h-108v126h108v148z" />
    <glyph glyph-name="u" unicode="u" horiz-adv-x="645" 
d="M385 73q-23 -38 -60.5 -62t-94.5 -24q-45 0 -81.5 12.5t-59.5 40.5q-20 24 -30.5 64t-10.5 107v327h200v-287q0 -32 4 -49.5t11 -27.5q16 -21 50 -21t53 24.5t19 84.5v276h200v-538h-200v73z" />
    <glyph glyph-name="v" unicode="v" horiz-adv-x="589" 
d="M300 199l81 339h208l-181 -538h-222l-186 538h214z" />
    <glyph glyph-name="w" unicode="w" horiz-adv-x="879" 
d="M338 538h208l72 -339l69 339h192l-139 -538h-222l-76 342l-74 -342h-223l-145 538h198l75 -339z" />
    <glyph glyph-name="x" unicode="x" horiz-adv-x="626" 
d="M425 275l207 -275h-224l-96 127l-97 -127h-220l208 272l-200 266h225l88 -118l91 118h219z" />
    <glyph glyph-name="y" unicode="y" horiz-adv-x="595" 
d="M58 -175v134h61q31 0 47 5t23 26l3 7l-192 541h199l101 -344l100 344h195l-183 -523q-22 -62 -50.5 -99.5t-63.5 -57.5t-77 -26.5t-91 -6.5h-72z" />
    <glyph glyph-name="z" unicode="z" horiz-adv-x="579" 
d="M24 146l281 246h-261v146h502v-146l-281 -246h293v-146h-534v146z" />
    <glyph glyph-name="braceleft" unicode="{" horiz-adv-x="404" 
d="M297 -175q-56 0 -94 7.5t-61 27t-33.5 54.5t-10.5 90v95q0 23 -2.5 42t-10.5 32.5t-23 21t-40 7.5v147q25 0 40 7.5t23 21t10.5 32.5t2.5 42v94q0 55 10.5 90t33.5 54.5t61 27t94 7.5h87v-145h-47q-20 0 -28.5 -7t-8.5 -31v-116q0 -39 -8.5 -65.5t-22.5 -43t-32.5 -26
t-38.5 -14.5v-3q20 -5 38.5 -14.5t32.5 -26t22.5 -42.5t8.5 -65v-118q0 -24 8.5 -31t28.5 -7h47v-145h-87z" />
    <glyph glyph-name="bar" unicode="|" horiz-adv-x="310" 
d="M245 725v-815h-180v815h180z" />
    <glyph glyph-name="braceright" unicode="}" horiz-adv-x="403" 
d="M20 -30h46q20 0 29 7t9 31v118q0 39 8.5 65t22.5 42.5t32 26t38 14.5v3q-20 5 -38 14.5t-32 26t-22.5 43t-8.5 65.5v116q0 24 -9 31t-29 7h-46v145h86q56 0 94 -7.5t61.5 -27t33.5 -54.5t10 -90v-94q0 -23 2.5 -42t11 -32.5t23.5 -21t40 -7.5v-147q-25 0 -40 -7.5
t-23.5 -21t-11 -32.5t-2.5 -42v-95q0 -55 -10 -90t-33.5 -54.5t-61.5 -27t-94 -7.5h-86v145z" />
    <glyph glyph-name="asciitilde" unicode="~" 
d="M433 318q17 0 23.5 13t7.5 48h147q0 -52 -8 -93.5t-25.5 -71t-45.5 -45t-69 -15.5q-33 0 -64.5 9.5t-59.5 20.5l-51 21q-24 10 -40 10q-18 0 -25.5 -13t-8.5 -48h-147q0 52 8 93.5t26 71t47 45t70 15.5q34 0 67 -9.5t62 -21.5l51 -20q23 -10 35 -10z" />
    <glyph glyph-name="uni00A0" unicode="&#xa0;" horiz-adv-x="215" 
 />
    <glyph glyph-name="exclamdown" unicode="&#xa1;" horiz-adv-x="337" 
d="M289 -175h-241v145l44 332h154l43 -332v-145zM60 328v210h217v-210h-217z" />
    <glyph glyph-name="cent" unicode="&#xa2;" horiz-adv-x="605" 
d="M342 633v-76q53 -4 96 -24t74.5 -50.5t50.5 -69.5t25 -81h-184q-4 23 -19.5 45.5t-42.5 29.5v-270q29 7 45 29t20 45h184q-7 -42 -27.5 -81t-52 -69t-74.5 -50t-95 -24v-94h-54v94q-65 4 -113.5 26.5t-81.5 60t-49.5 88t-16.5 110.5q0 61 18.5 111.5t53 88t82.5 59.5
t107 27v75h54zM231 273q0 -47 12.5 -82.5t44.5 -49.5v263q-33 -13 -45 -48.5t-12 -82.5z" />
    <glyph glyph-name="sterling" unicode="&#xa3;" horiz-adv-x="691" 
d="M365 594q-33 0 -60 -15t-27 -49q0 -33 19 -70l40 -74h163v-75h-133q1 -6 1.5 -11.5t0.5 -10.5q0 -27 -17.5 -56t-61.5 -60l1 -2q18 7 35.5 8.5t30.5 1.5q25 0 43 -3.5t33 -8t29 -8t31 -3.5q20 0 48.5 7t72.5 27l65 -162q-48 -20 -96 -31t-105 -11q-28 0 -55 6t-54 13
t-54 13t-55 6q-22 0 -59.5 -7.5t-92.5 -36.5l-74 149q67 31 102 63t35 83q0 8 -2 17l-4 17h-122v75h87q-20 36 -38.5 75t-18.5 82q0 53 25.5 91t67 62t94 35t105.5 11q71 0 128 -19t97 -54.5t61.5 -87t21.5 -116.5h-190q-4 66 -35.5 97.5t-82.5 31.5z" />
    <glyph glyph-name="currency" unicode="&#xa4;" horiz-adv-x="636" 
d="M79 346q0 39 11.5 74.5t32.5 64.5l-69 70l49 49l68 -68q30 23 66.5 36t77.5 13q42 0 79.5 -13.5t67.5 -37.5l71 70l49 -49l-72 -72q20 -29 32 -64t12 -73t-11.5 -73t-32.5 -64l72 -71l-49 -49l-71 70q-31 -23 -68 -36t-79 -13q-41 0 -77 12.5t-66 35.5l-69 -69l-49 49
l69 70q-21 29 -32.5 64t-11.5 74zM234 346q0 -38 22.5 -62.5t58.5 -24.5q39 0 63 24.5t24 62.5q0 40 -24 65.5t-63 25.5q-36 0 -58.5 -25.5t-22.5 -65.5z" />
    <glyph glyph-name="yen" unicode="&#xa5;" horiz-adv-x="711" 
d="M452 69v-69h-200v69h-140v78h140v65h-140v80h128l-240 433h221l135 -274l138 274h217l-246 -433h127v-80h-140v-65h140v-78h-140z" />
    <glyph glyph-name="brokenbar" unicode="&#xa6;" horiz-adv-x="298" 
d="M239 725v-305h-180v305h180zM239 215v-305h-180v305h180z" />
    <glyph glyph-name="section" unicode="&#xa7;" horiz-adv-x="694" 
d="M349 -59q26 0 45.5 9.5t19.5 27.5q0 21 -27 37.5t-62 32.5l-128 61q-81 38 -125.5 83.5t-44.5 108.5q0 42 27 80t75 64q-47 53 -47 119q0 43 21 76.5t56 56t82 34t99 11.5q56 0 103.5 -12t83.5 -37.5t59 -65.5t32 -95h-196q-9 35 -33 50.5t-60 15.5q-26 0 -42 -8.5
t-16 -19.5q0 -14 21 -27.5t53 -29.5l137 -64q43 -20 77 -40.5t58 -43.5t37 -49t13 -58q0 -54 -31 -93t-73 -62q44 -47 44 -111q0 -48 -21 -84t-57 -61t-84 -37.5t-103 -12.5q-63 0 -113 16t-86.5 46t-58.5 72.5t-28 94.5h196q9 -51 35 -68t62 -17zM258 358
q-20 -12 -27 -20.5t-7 -19.5q0 -17 20 -30.5t50 -28.5l134 -65l1 -1q17 9 27.5 20.5t10.5 22.5q0 14 -16.5 27t-57.5 33z" />
    <glyph glyph-name="dieresis" unicode="&#xa8;" horiz-adv-x="466" 
d="M22 725h171v-116h-171v116zM444 725v-116h-170v116h170z" />
    <glyph glyph-name="copyright" unicode="&#xa9;" horiz-adv-x="825" 
d="M38 361q0 84 29.5 153t80 119t119 77.5t146.5 27.5t146 -27.5t118.5 -77.5t80 -119t29.5 -153q0 -83 -29.5 -152t-80 -118.5t-118.5 -76.5t-146 -27t-146.5 27t-119 76.5t-80 118.5t-29.5 152zM121 361q0 -66 22.5 -121t62 -94.5t92.5 -61.5t115 -22q63 0 116 22t92 61.5
t61 94.5t22 121q0 67 -22 122.5t-61 95.5t-92 61.5t-116 21.5q-62 0 -115 -21.5t-92.5 -61.5t-62 -95.5t-22.5 -122.5zM414 244q35 0 61 17t34 59l104 -23q-17 -62 -70.5 -101.5t-131.5 -39.5q-47 0 -84.5 15.5t-63.5 43t-39.5 65t-13.5 82.5q0 46 14.5 83.5t41.5 64.5
t64.5 41.5t83.5 14.5q37 0 70 -10.5t58.5 -30t43 -46t23.5 -58.5l-103 -25q-5 35 -29.5 59.5t-62.5 24.5q-39 0 -66 -29.5t-27 -88.5q0 -57 25.5 -87.5t67.5 -30.5z" />
    <glyph glyph-name="ordfeminine" unicode="&#xaa;" horiz-adv-x="348" 
d="M25 642q5 51 44.5 77.5t115.5 26.5q68 0 102.5 -28t33.5 -93v-63q-1 -28 0.5 -59t4.5 -65h-102l-1 36q-11 -18 -33 -31t-60 -13q-27 0 -48.5 8.5t-36.5 22.5t-22.5 32.5t-7.5 38.5q0 22 8 37.5t20 25.5q23 18 61 26t73 12l34 3v6q0 14 -9 21t-30 7q-14 0 -26.5 -5.5
t-14.5 -22.5h-106zM214 569l-37 -3q-27 -3 -37 -10.5t-10 -18.5t8 -19.5t25 -8.5q23 0 37 11t14 31v18z" />
    <glyph glyph-name="guillemotleft" unicode="&#xab;" horiz-adv-x="646" 
d="M-3 274l169 231h175l-119 -232l118 -232h-174zM280 274l169 231h175l-119 -232l118 -232h-174z" />
    <glyph glyph-name="logicalnot" unicode="&#xac;" 
d="M36 274v175h566v-346h-200v171h-366z" />
    <glyph glyph-name="uni00AD" unicode="&#xad;" horiz-adv-x="455" 
d="M43 181v174h369v-174h-369z" />
    <glyph glyph-name="registered" unicode="&#xae;" horiz-adv-x="825" 
d="M38 361q0 84 29.5 153t80 119t119 77.5t146.5 27.5t146 -27.5t118.5 -77.5t80 -119t29.5 -153q0 -83 -29.5 -152t-80 -118.5t-118.5 -76.5t-146 -27t-146.5 27t-119 76.5t-80 118.5t-29.5 152zM121 361q0 -66 22.5 -121t62 -94.5t92.5 -61.5t115 -22q63 0 116 22t92 61.5
t61 94.5t22 121q0 67 -22 122.5t-61 95.5t-92 61.5t-116 21.5q-62 0 -115 -21.5t-92.5 -61.5t-62 -95.5t-22.5 -122.5zM349 175h-108v400h160q40 0 74 -6t59 -20.5t39 -40t14 -64.5q0 -45 -20.5 -71t-52.5 -39l97 -159h-120l-84 143h-58v-143zM479 444q0 17 -12 32t-39 15
h-79v-90h79q27 0 39 12.5t12 30.5z" />
    <glyph glyph-name="macron" unicode="&#xaf;" horiz-adv-x="357" 
d="M22 621v104h313v-104h-313z" />
    <glyph glyph-name="degree" unicode="&#xb0;" horiz-adv-x="373" 
d="M11 562q0 37 14 69t37.5 56t55.5 37.5t68 13.5q37 0 69 -13.5t56 -37.5t38 -56t14 -69q0 -36 -14 -68t-38 -56t-56 -37.5t-69 -13.5q-36 0 -68 13.5t-55.5 37.5t-37.5 56t-14 68zM113 562q0 -32 20.5 -55.5t52.5 -23.5q34 0 55 23.5t21 55.5q0 33 -21 56.5t-55 23.5
q-32 0 -52.5 -23.5t-20.5 -56.5z" />
    <glyph glyph-name="plusminus" unicode="&#xb1;" 
d="M240 538h200v-85h193v-175h-193v-85h-200v85h-194v175h194v85zM46 0v174h587v-174h-587z" />
    <glyph glyph-name="uni00B2" unicode="&#xb2;" horiz-adv-x="362" 
d="M187 853q33 0 61 -7t49 -21.5t33 -36.5t12 -53q0 -30 -12 -55.5t-34.5 -48.5t-54.5 -46.5t-71 -49.5h170v-97h-328v90l61 41q36 24 70 51t58.5 54.5t24.5 52.5q0 22 -12.5 32t-32.5 10q-26 0 -42.5 -18.5t-18.5 -56.5h-109q2 76 47.5 117.5t128.5 41.5z" />
    <glyph glyph-name="uni00B3" unicode="&#xb3;" horiz-adv-x="386" 
d="M194 515q27 0 40 11.5t13 27.5q0 24 -19 34.5t-60 10.5h-17v93h18q68 0 68 42q0 17 -15 26t-33 9q-23 0 -40 -10.5t-19 -40.5h-111q8 60 53 97.5t126 37.5q69 0 112 -29t43 -82q0 -33 -16 -56t-38 -33q29 -10 47.5 -35.5t18.5 -62.5q0 -30 -14 -53.5t-38 -39.5t-55 -24
t-65 -8q-80 0 -126.5 38.5t-52.5 105.5h110q5 -31 23.5 -45t46.5 -14z" />
    <glyph glyph-name="acute" unicode="&#xb4;" horiz-adv-x="346" 
d="M182 609h-160l95 116h207z" />
    <glyph glyph-name="mu" unicode="&#xb5;" horiz-adv-x="645" 
d="M42 -175q6 32 9 59t3 59v595h200v-293q0 -57 17.5 -77.5t47.5 -20.5q34 0 53 23t19 75v293h200v-538h-200v62q-42 -68 -137 -74v-30q0 -67 -12 -133h-200z" />
    <glyph glyph-name="mu" unicode="&#x3bc;" horiz-adv-x="645" 
d="M42 -175q6 32 9 59t3 59v595h200v-293q0 -57 17.5 -77.5t47.5 -20.5q34 0 53 23t19 75v293h200v-538h-200v62q-42 -68 -137 -74v-30q0 -67 -12 -133h-200z" />
    <glyph glyph-name="paragraph" unicode="&#xb6;" horiz-adv-x="504" 
d="M0 554q0 40 16.5 72t46.5 54t72 33.5t93 11.5h213v-814h-82v738h-112v-738h-81v473q-27 3 -56.5 13t-54 30t-40 51t-15.5 76z" />
    <glyph glyph-name="periodcentered" unicode="&#xb7;" horiz-adv-x="314" 
d="M48 164v210h217v-210h-217z" />
    <glyph glyph-name="cedilla" unicode="&#xb8;" horiz-adv-x="277" 
d="M39 -133q9 -5 27.5 -9.5t38.5 -4.5t34 6t14 23q0 14 -11 21t-29 7q-8 0 -19 -2t-19 -7l-30 17l51 83h62l-33 -52q13 4 37 4q15 0 31.5 -3.5t30 -11.5t22.5 -21t9 -32q0 -24 -11.5 -40t-31 -26.5t-44.5 -15t-51 -4.5q-53 0 -95 14z" />
    <glyph glyph-name="uni00B9" unicode="&#xb9;" horiz-adv-x="248" 
d="M94 438v264h-91v82q53 2 78.5 16t36.5 46h89v-408h-113z" />
    <glyph glyph-name="ordmasculine" unicode="&#xba;" horiz-adv-x="364" 
d="M132 588q0 -38 14 -55.5t36 -17.5t35.5 17.5t13.5 55.5t-13.5 55.5t-35.5 17.5t-36 -17.5t-14 -55.5zM15 588q0 40 13.5 70t36 49.5t53 29t64.5 9.5t64 -9.5t52.5 -29t35.5 -49.5t13 -70q0 -41 -13 -70.5t-35.5 -49t-52.5 -29t-64 -9.5t-64.5 9.5t-53 29t-36 49
t-13.5 70.5z" />
    <glyph glyph-name="guillemotright" unicode="&#xbb;" horiz-adv-x="646" 
d="M480 41h-174l118 232l-119 232h175l169 -231zM197 41h-174l118 232l-119 232h175l169 -231z" />
    <glyph glyph-name="onequarter" unicode="&#xbc;" horiz-adv-x="913" 
d="M94 317v264h-91v82q53 2 78.5 16t36.5 46h89v-408h-113zM48 0l500 725h166l-500 -725h-166zM642 176h82v96zM901 80h-63v-80h-114v80h-195v86l209 242h100v-232h63v-96z" />
    <glyph glyph-name="onehalf" unicode="&#xbd;" horiz-adv-x="876" 
d="M94 317v264h-91v82q53 2 78.5 16t36.5 46h89v-408h-113zM48 0l500 725h166l-500 -725h-166zM701 415q33 0 61 -7t49 -21.5t33 -36.5t12 -53q0 -30 -12 -55.5t-34.5 -48.5t-54.5 -46.5t-71 -49.5h170v-97h-328v90l61 41q36 24 70 51t58.5 54.5t24.5 52.5q0 22 -12.5 32
t-32.5 10q-26 0 -42.5 -18.5t-18.5 -56.5h-109q2 76 47.5 117.5t128.5 41.5z" />
    <glyph glyph-name="threequarters" unicode="&#xbe;" horiz-adv-x="1051" 
d="M194 394q27 0 40 11.5t13 27.5q0 24 -19 34.5t-60 10.5h-17v93h18q68 0 68 42q0 17 -15 26t-33 9q-23 0 -40 -10.5t-19 -40.5h-111q8 60 53 97.5t126 37.5q69 0 112 -29t43 -82q0 -33 -16 -56t-38 -33q29 -10 47.5 -35.5t18.5 -62.5q0 -30 -14 -53.5t-38 -39.5t-55 -24
t-65 -8q-80 0 -126.5 38.5t-52.5 105.5h110q5 -31 23.5 -45t46.5 -14zM186 0l500 725h166l-500 -725h-166zM780 176h82v96zM1039 80h-63v-80h-114v80h-195v86l209 242h100v-232h63v-96z" />
    <glyph glyph-name="questiondown" unicode="&#xbf;" horiz-adv-x="646" 
d="M302 -187q-57 0 -108 13.5t-89 39.5t-60.5 63.5t-22.5 86.5q0 38 12 65t31.5 46.5t43 33.5t46.5 25l43 22q18 10 29 20t16 23.5t5 33.5v8q0 4 -1 9h209q3 -26 3 -48q0 -57 -27.5 -99t-98.5 -71q-21 -9 -40.5 -16.5t-33.5 -16t-22.5 -17.5t-8.5 -21q0 -14 7.5 -24
t19.5 -16t27 -9t29 -3q23 0 44 6.5t37 19.5t25.5 33t9.5 47l198 -5q0 -65 -24.5 -112t-67.5 -77.5t-102 -45t-129 -14.5zM242 328v210h217v-210h-217z" />
    <glyph glyph-name="Agrave" unicode="&#xc0;" horiz-adv-x="745" 
d="M258 725h229l263 -725h-227l-37 121h-231l-37 -121h-223zM304 277h134l-66 218zM124 886h233l104 -113h-178z" />
    <glyph glyph-name="Aacute" unicode="&#xc1;" horiz-adv-x="745" 
d="M258 725h229l263 -725h-227l-37 121h-231l-37 -121h-223zM304 277h134l-66 218zM461 773h-178l103 113h234z" />
    <glyph glyph-name="Acircumflex" unicode="&#xc2;" horiz-adv-x="745" 
d="M258 725h229l263 -725h-227l-37 121h-231l-37 -121h-223zM304 277h134l-66 218zM624 773h-196l-55 49l-58 -49h-195l140 113h227z" />
    <glyph glyph-name="Atilde" unicode="&#xc3;" horiz-adv-x="745" 
d="M258 725h229l263 -725h-227l-37 121h-231l-37 -121h-223zM304 277h134l-66 218zM433 860q47 0 54 37h97q-7 -38 -24 -61t-38 -35t-43 -16t-39 -4q-24 0 -42 6t-32 13l-27 12q-13 6 -28 6q-46 0 -53 -37h-97q7 37 24 60t38 35.5t43 16.5t39 4q24 0 41 -6t30 -13l27 -12
q13 -6 30 -6z" />
    <glyph glyph-name="Adieresis" unicode="&#xc4;" horiz-adv-x="745" 
d="M258 725h229l263 -725h-227l-37 121h-231l-37 -121h-223zM304 277h134l-66 218zM342 886v-113h-169v113h169zM571 886v-113h-169v113h169z" />
    <glyph glyph-name="Aring" unicode="&#xc5;" horiz-adv-x="745" 
d="M258 725h229l263 -725h-227l-37 121h-231l-37 -121h-223zM304 277h134l-66 218zM372 935q38 0 64.5 -24t26.5 -61q0 -38 -26.5 -61.5t-64.5 -23.5t-64 23.5t-26 61.5q0 37 26.5 61t63.5 24zM372 893q-17 0 -30 -12t-13 -31t13 -30.5t30 -11.5t30 11.5t13 30.5t-13 31
t-30 12z" />
    <glyph glyph-name="AE" unicode="&#xc6;" horiz-adv-x="1173" 
d="M565 0v121h-268l-96 -121h-244l608 725h563v-179h-354v-92h335v-180h-335v-94h358v-180h-567zM421 277h144v180z" />
    <glyph glyph-name="Ccedilla" unicode="&#xc7;" horiz-adv-x="768" 
d="M22 365q0 88 25.5 158t73 118.5t115 74.5t152.5 26q70 0 130 -19.5t106.5 -57t77.5 -91t42 -122.5h-206q-11 53 -48.5 84t-94.5 31q-68 0 -111.5 -50.5t-43.5 -151.5q0 -102 43.5 -152.5t111.5 -50.5q57 0 96 32t50 84h205q-11 -69 -42 -123t-78 -91.5t-107.5 -57
t-130.5 -19.5q-85 0 -152.5 26t-115 74.5t-73 118.5t-25.5 159zM285 -133q9 -5 27.5 -9.5t38.5 -4.5t34 6t14 23q0 14 -11 21t-29 7q-8 0 -19 -2t-19 -7l-30 17l51 83h62l-33 -52q13 4 37 4q15 0 31.5 -3.5t30 -11.5t22.5 -21t9 -32q0 -24 -11.5 -40t-31 -26.5t-44.5 -15
t-51 -4.5q-53 0 -95 14z" />
    <glyph glyph-name="Egrave" unicode="&#xc8;" horiz-adv-x="683" 
d="M65 725h574v-179h-365v-92h346v-180h-346v-94h369v-180h-578v725zM126 886h233l104 -113h-178z" />
    <glyph glyph-name="Eacute" unicode="&#xc9;" horiz-adv-x="683" 
d="M65 725h574v-179h-365v-92h346v-180h-346v-94h369v-180h-578v725zM433 773h-178l103 113h234z" />
    <glyph glyph-name="Ecircumflex" unicode="&#xca;" horiz-adv-x="683" 
d="M65 725h574v-179h-365v-92h346v-180h-346v-94h369v-180h-578v725zM606 773h-196l-55 49l-58 -49h-195l140 113h227z" />
    <glyph glyph-name="Edieresis" unicode="&#xcb;" horiz-adv-x="683" 
d="M65 725h574v-179h-365v-92h346v-180h-346v-94h369v-180h-578v725zM324 886v-113h-169v113h169zM553 886v-113h-169v113h169z" />
    <glyph glyph-name="Igrave" unicode="&#xcc;" horiz-adv-x="339" 
d="M274 0h-209v725h209v-725zM-78 886h233l104 -113h-178z" />
    <glyph glyph-name="Iacute" unicode="&#xcd;" horiz-adv-x="339" 
d="M274 0h-209v725h209v-725zM258 773h-178l103 113h234z" />
    <glyph glyph-name="Icircumflex" unicode="&#xce;" horiz-adv-x="339" 
d="M274 0h-209v725h209v-725zM422 773h-196l-55 49l-58 -49h-195l140 113h227z" />
    <glyph glyph-name="Idieresis" unicode="&#xcf;" horiz-adv-x="339" 
d="M274 0h-209v725h209v-725zM140 886v-113h-169v113h169zM369 886v-113h-169v113h169z" />
    <glyph glyph-name="Eth" unicode="&#xd0;" horiz-adv-x="800" 
d="M360 725q87 0 163.5 -18t133 -60t89 -111.5t32.5 -172.5q0 -104 -32.5 -173.5t-89 -111.5t-133 -60t-163.5 -18h-250v280h-83v158h83v287h250zM560 363q0 62 -14.5 100t-41 58.5t-62.5 27.5t-79 7h-44v-118h108v-158h-108v-111h44q43 0 79 7t62.5 28t41 59t14.5 100z" />
    <glyph glyph-name="Ntilde" unicode="&#xd1;" horiz-adv-x="802" 
d="M480 0l-222 462v-462h-193v725h257l223 -461v461h193v-725h-258zM472 860q47 0 54 37h97q-7 -38 -24 -61t-38 -35t-43 -16t-39 -4q-24 0 -42 6t-32 13l-27 12q-13 6 -28 6q-46 0 -53 -37h-97q7 37 24 60t38 35.5t43 16.5t39 4q24 0 41 -6t31 -13l26 -12q13 -6 30 -6z" />
    <glyph glyph-name="Ograve" unicode="&#xd2;" horiz-adv-x="804" 
d="M239 364q0 -54 13.5 -92t36.5 -62.5t52 -36t61 -11.5q31 0 60.5 11.5t52.5 36t36.5 62.5t13.5 92t-13.5 92t-36.5 63t-52.5 36.5t-60.5 11.5q-32 0 -61 -11.5t-52 -36.5t-36.5 -63t-13.5 -92zM782 364q0 -90 -28 -160t-78.5 -118t-120.5 -73.5t-153 -25.5t-153 25.5
t-120.5 73.5t-78.5 118t-28 160t28 160t78.5 118.5t120.5 74t153 25.5t153 -25.5t120.5 -74t78.5 -118.5t28 -160zM154 886h233l104 -113h-178z" />
    <glyph glyph-name="Oacute" unicode="&#xd3;" horiz-adv-x="804" 
d="M239 364q0 -54 13.5 -92t36.5 -62.5t52 -36t61 -11.5q31 0 60.5 11.5t52.5 36t36.5 62.5t13.5 92t-13.5 92t-36.5 63t-52.5 36.5t-60.5 11.5q-32 0 -61 -11.5t-52 -36.5t-36.5 -63t-13.5 -92zM782 364q0 -90 -28 -160t-78.5 -118t-120.5 -73.5t-153 -25.5t-153 25.5
t-120.5 73.5t-78.5 118t-28 160t28 160t78.5 118.5t120.5 74t153 25.5t153 -25.5t120.5 -74t78.5 -118.5t28 -160zM491 773h-178l103 113h234z" />
    <glyph glyph-name="Ocircumflex" unicode="&#xd4;" horiz-adv-x="804" 
d="M239 364q0 -54 13.5 -92t36.5 -62.5t52 -36t61 -11.5q31 0 60.5 11.5t52.5 36t36.5 62.5t13.5 92t-13.5 92t-36.5 63t-52.5 36.5t-60.5 11.5q-32 0 -61 -11.5t-52 -36.5t-36.5 -63t-13.5 -92zM782 364q0 -90 -28 -160t-78.5 -118t-120.5 -73.5t-153 -25.5t-153 25.5
t-120.5 73.5t-78.5 118t-28 160t28 160t78.5 118.5t120.5 74t153 25.5t153 -25.5t120.5 -74t78.5 -118.5t28 -160zM654 773h-196l-55 49l-58 -49h-195l140 113h227z" />
    <glyph glyph-name="Otilde" unicode="&#xd5;" horiz-adv-x="804" 
d="M239 364q0 -54 13.5 -92t36.5 -62.5t52 -36t61 -11.5q31 0 60.5 11.5t52.5 36t36.5 62.5t13.5 92t-13.5 92t-36.5 63t-52.5 36.5t-60.5 11.5q-32 0 -61 -11.5t-52 -36.5t-36.5 -63t-13.5 -92zM782 364q0 -90 -28 -160t-78.5 -118t-120.5 -73.5t-153 -25.5t-153 25.5
t-120.5 73.5t-78.5 118t-28 160t28 160t78.5 118.5t120.5 74t153 25.5t153 -25.5t120.5 -74t78.5 -118.5t28 -160zM463 860q47 0 54 37h97q-7 -38 -24 -61t-38 -35t-43 -16t-39 -4q-24 0 -42 6t-32 13l-27 12q-13 6 -28 6q-46 0 -53 -37h-97q7 37 24 60t38 35.5t43 16.5
t39 4q24 0 41 -6t30 -13l27 -12q13 -6 30 -6z" />
    <glyph glyph-name="Odieresis" unicode="&#xd6;" horiz-adv-x="804" 
d="M239 364q0 -54 13.5 -92t36.5 -62.5t52 -36t61 -11.5q31 0 60.5 11.5t52.5 36t36.5 62.5t13.5 92t-13.5 92t-36.5 63t-52.5 36.5t-60.5 11.5q-32 0 -61 -11.5t-52 -36.5t-36.5 -63t-13.5 -92zM782 364q0 -90 -28 -160t-78.5 -118t-120.5 -73.5t-153 -25.5t-153 25.5
t-120.5 73.5t-78.5 118t-28 160t28 160t78.5 118.5t120.5 74t153 25.5t153 -25.5t120.5 -74t78.5 -118.5t28 -160zM372 886v-113h-169v113h169zM601 886v-113h-169v113h169z" />
    <glyph glyph-name="multiply" unicode="&#xd7;" 
d="M487 19l-147 140l-156 -147l-114 108l155 149l-150 141l116 109l149 -142l154 148l115 -110l-155 -146l148 -140z" />
    <glyph glyph-name="Oslash" unicode="&#xd8;" horiz-adv-x="804" 
d="M782 364q0 -90 -28 -160t-78.5 -118t-120.5 -73.5t-153 -25.5q-129 0 -224 60l-57 -67l-55 47l56 66q-48 48 -74 115.5t-26 155.5q0 90 28 160t78.5 118.5t120.5 74t153 25.5q64 0 120.5 -15.5t102.5 -44.5l45 53l56 -46l-45 -53q48 -48 74.5 -116t26.5 -156zM565 364
q0 65 -22 111l-239 -280q21 -17 46.5 -25t51.5 -8q31 0 60.5 11.5t52.5 36t36.5 62.5t13.5 92zM239 364q0 -34 5.5 -61t15.5 -49l238 280q-42 33 -96 33q-32 0 -61 -11.5t-52 -36.5t-36.5 -63t-13.5 -92z" />
    <glyph glyph-name="Ugrave" unicode="&#xd9;" horiz-adv-x="762" 
d="M263 725v-425q0 -35 6 -60.5t19.5 -43t36 -26t56.5 -8.5q67 0 92.5 37t25.5 101v425h209v-404q0 -85 -17.5 -147.5t-56 -104t-100.5 -62t-151 -20.5q-86 0 -148 17t-102 56t-59.5 101.5t-19.5 152.5v411h209zM153 886h233l104 -113h-178z" />
    <glyph glyph-name="Uacute" unicode="&#xda;" horiz-adv-x="762" 
d="M263 725v-425q0 -35 6 -60.5t19.5 -43t36 -26t56.5 -8.5q67 0 92.5 37t25.5 101v425h209v-404q0 -85 -17.5 -147.5t-56 -104t-100.5 -62t-151 -20.5q-86 0 -148 17t-102 56t-59.5 101.5t-19.5 152.5v411h209zM470 773h-178l103 113h234z" />
    <glyph glyph-name="Ucircumflex" unicode="&#xdb;" horiz-adv-x="762" 
d="M263 725v-425q0 -35 6 -60.5t19.5 -43t36 -26t56.5 -8.5q67 0 92.5 37t25.5 101v425h209v-404q0 -85 -17.5 -147.5t-56 -104t-100.5 -62t-151 -20.5q-86 0 -148 17t-102 56t-59.5 101.5t-19.5 152.5v411h209zM633 773h-196l-55 49l-58 -49h-195l140 113h227z" />
    <glyph glyph-name="Udieresis" unicode="&#xdc;" horiz-adv-x="762" 
d="M263 725v-425q0 -35 6 -60.5t19.5 -43t36 -26t56.5 -8.5q67 0 92.5 37t25.5 101v425h209v-404q0 -85 -17.5 -147.5t-56 -104t-100.5 -62t-151 -20.5q-86 0 -148 17t-102 56t-59.5 101.5t-19.5 152.5v411h209zM351 886v-113h-169v113h169zM580 886v-113h-169v113h169z" />
    <glyph glyph-name="Yacute" unicode="&#xdd;" horiz-adv-x="731" 
d="M229 725l136 -253l138 253h244l-281 -445v-280h-209v282l-273 443h245zM454 773h-178l103 113h234z" />
    <glyph glyph-name="Thorn" unicode="&#xde;" horiz-adv-x="691" 
d="M349 618q71 0 131.5 -10.5t105 -38.5t69.5 -75.5t25 -121.5t-25 -121.5t-69.5 -74.5t-105 -37.5t-131.5 -10.5h-75v-128h-209v725h209v-107h75zM274 438v-130h94q46 0 70.5 13t24.5 51q0 40 -24.5 53t-70.5 13h-94z" />
    <glyph glyph-name="germandbls" unicode="&#xdf;" horiz-adv-x="724" 
d="M59 0v480q0 79 21 125t56 75q42 34 101.5 48t130.5 14q62 0 114.5 -13.5t90.5 -39.5t59 -64.5t21 -87.5q0 -44 -18 -79t-39 -52q42 -21 71.5 -68.5t29.5 -115.5q0 -58 -19 -102t-54 -73.5t-84.5 -44.5t-110.5 -15q-29 0 -64.5 3t-75.5 11l34 156q15 -4 34 -7.5t38 -3.5
t37 4t31.5 13.5t21.5 24.5t8 37q0 45 -33 64t-93 19h-43v153h35q54 0 76.5 17.5t22.5 47.5q0 29 -24 48.5t-69 19.5q-28 0 -50.5 -6.5t-37.5 -23.5q-8 -11 -13 -29.5t-5 -53.5v-481h-200z" />
    <glyph glyph-name="agrave" unicode="&#xe0;" horiz-adv-x="636" 
d="M387 356q0 22 -6.5 36t-17.5 21.5t-25.5 10.5t-30.5 3q-38 0 -62 -17t-29 -52h-172q3 38 22 74t53.5 63.5t84.5 44.5t117 17q58 0 106.5 -12t83 -39.5t54 -73.5t18.5 -113l-1 -103v-53q0 -28 1.5 -57t3.5 -56.5t5 -49.5h-186v70q-30 -45 -78 -64t-105 -19q-39 0 -74 11.5
t-61.5 33t-41.5 51t-15 65.5q0 47 23.5 81t69 57t112 36t151.5 19v15zM394 241q-80 -5 -121 -20.5t-41 -50.5q0 -17 15.5 -33t50.5 -16q19 0 36.5 4.5t31 16.5t21 32t7.5 51v16zM109 725h208l94 -116h-160z" />
    <glyph glyph-name="aacute" unicode="&#xe1;" horiz-adv-x="636" 
d="M387 356q0 22 -6.5 36t-17.5 21.5t-25.5 10.5t-30.5 3q-38 0 -62 -17t-29 -52h-172q3 38 22 74t53.5 63.5t84.5 44.5t117 17q58 0 106.5 -12t83 -39.5t54 -73.5t18.5 -113l-1 -103v-53q0 -28 1.5 -57t3.5 -56.5t5 -49.5h-186v70q-30 -45 -78 -64t-105 -19q-39 0 -74 11.5
t-61.5 33t-41.5 51t-15 65.5q0 47 23.5 81t69 57t112 36t151.5 19v15zM394 241q-80 -5 -121 -20.5t-41 -50.5q0 -17 15.5 -33t50.5 -16q19 0 36.5 4.5t31 16.5t21 32t7.5 51v16zM391 609h-160l95 116h207z" />
    <glyph glyph-name="acircumflex" unicode="&#xe2;" horiz-adv-x="636" 
d="M387 356q0 22 -6.5 36t-17.5 21.5t-25.5 10.5t-30.5 3q-38 0 -62 -17t-29 -52h-172q3 38 22 74t53.5 63.5t84.5 44.5t117 17q58 0 106.5 -12t83 -39.5t54 -73.5t18.5 -113l-1 -103v-53q0 -28 1.5 -57t3.5 -56.5t5 -49.5h-186v70q-30 -45 -78 -64t-105 -19q-39 0 -74 11.5
t-61.5 33t-41.5 51t-15 65.5q0 47 23.5 81t69 57t112 36t151.5 19v15zM394 241q-80 -5 -121 -20.5t-41 -50.5q0 -17 15.5 -33t50.5 -16q19 0 36.5 4.5t31 16.5t21 32t7.5 51v16zM546 609h-162l-61 57l-64 -57h-162l136 116h181z" />
    <glyph glyph-name="atilde" unicode="&#xe3;" horiz-adv-x="636" 
d="M387 356q0 22 -6.5 36t-17.5 21.5t-25.5 10.5t-30.5 3q-38 0 -62 -17t-29 -52h-172q3 38 22 74t53.5 63.5t84.5 44.5t117 17q58 0 106.5 -12t83 -39.5t54 -73.5t18.5 -113l-1 -103v-53q0 -28 1.5 -57t3.5 -56.5t5 -49.5h-186v70q-30 -45 -78 -64t-105 -19q-39 0 -74 11.5
t-61.5 33t-41.5 51t-15 65.5q0 47 23.5 81t69 57t112 36t151.5 19v15zM394 241q-80 -5 -121 -20.5t-41 -50.5q0 -17 15.5 -33t50.5 -16q19 0 36.5 4.5t31 16.5t21 32t7.5 51v16zM381 692q44 0 53 44h97q-11 -63 -46 -95t-89 -32q-26 0 -45 7t-35 15l-29 15q-13 7 -28 7
q-43 0 -51 -44h-97q10 60 44 93.5t92 33.5q25 0 43 -7t32 -15l28 -15q14 -7 31 -7z" />
    <glyph glyph-name="adieresis" unicode="&#xe4;" horiz-adv-x="636" 
d="M387 356q0 22 -6.5 36t-17.5 21.5t-25.5 10.5t-30.5 3q-38 0 -62 -17t-29 -52h-172q3 38 22 74t53.5 63.5t84.5 44.5t117 17q58 0 106.5 -12t83 -39.5t54 -73.5t18.5 -113l-1 -103v-53q0 -28 1.5 -57t3.5 -56.5t5 -49.5h-186v70q-30 -45 -78 -64t-105 -19q-39 0 -74 11.5
t-61.5 33t-41.5 51t-15 65.5q0 47 23.5 81t69 57t112 36t151.5 19v15zM394 241q-80 -5 -121 -20.5t-41 -50.5q0 -17 15.5 -33t50.5 -16q19 0 36.5 4.5t31 16.5t21 32t7.5 51v16zM110 725h171v-116h-171v116zM532 725v-116h-170v116h170z" />
    <glyph glyph-name="aring" unicode="&#xe5;" horiz-adv-x="636" 
d="M387 356q0 22 -6.5 36t-17.5 21.5t-25.5 10.5t-30.5 3q-38 0 -62 -17t-29 -52h-172q3 38 22 74t53.5 63.5t84.5 44.5t117 17q58 0 106.5 -12t83 -39.5t54 -73.5t18.5 -113l-1 -103v-53q0 -28 1.5 -57t3.5 -56.5t5 -49.5h-186v70q-30 -45 -78 -64t-105 -19q-39 0 -74 11.5
t-61.5 33t-41.5 51t-15 65.5q0 47 23.5 81t69 57t112 36t151.5 19v15zM394 241q-80 -5 -121 -20.5t-41 -50.5q0 -17 15.5 -33t50.5 -16q19 0 36.5 4.5t31 16.5t21 32t7.5 51v16zM312 785q19 0 36 -6.5t30 -18.5t20.5 -28.5t7.5 -35.5q0 -38 -27.5 -63.5t-66.5 -25.5
q-20 0 -37.5 6.5t-30 18.5t-20 28.5t-7.5 35.5q0 39 28 64t67 25zM312 737q-17 0 -29 -11.5t-12 -29.5q0 -17 12 -28.5t29 -11.5t29 11.5t12 28.5q0 18 -12 29.5t-29 11.5z" />
    <glyph glyph-name="ae" unicode="&#xe6;" horiz-adv-x="985" 
d="M682 -13q-81 0 -138 26.5t-92 74.5q-23 -31 -50.5 -50.5t-58 -31t-63 -15.5t-63.5 -4q-38 0 -72.5 10.5t-60 30.5t-40.5 49t-15 66q0 48 25 82t71 57.5t112 38.5t148 25v15q0 38 -24 54t-59 16q-31 0 -54.5 -17.5t-28.5 -49.5h-177q3 35 21.5 69.5t52 62t83.5 44.5
t117 17q60 0 105.5 -14.5t78.5 -47.5q34 29 78.5 44t94.5 15q71 0 126 -27.5t91.5 -73t53.5 -106t12 -126.5h-376q4 -40 31 -63.5t73 -23.5q29 0 51.5 12.5t31.5 34.5h188q-9 -30 -29.5 -64t-53.5 -63t-80 -48t-110 -19zM677 417q-32 0 -59 -18.5t-35 -66.5h186
q-2 24 -10.5 40.5t-21.5 26t-28.5 14t-31.5 4.5zM390 245q-17 -2 -33 -4.5t-34 -6.5q-30 -6 -48 -13.5t-27.5 -15.5t-12.5 -17t-3 -18q0 -17 14.5 -33t46.5 -16q17 0 34 4.5t31 16.5t23 32t9 51v20z" />
    <glyph glyph-name="ccedilla" unicode="&#xe7;" horiz-adv-x="608" 
d="M315 559q59 0 107 -18.5t82.5 -50t56 -72.5t27.5 -86h-184q-2 13 -8 27t-16.5 25.5t-24.5 18.5t-32 7q-27 0 -45 -10.5t-28.5 -29.5t-14.5 -44t-4 -53q0 -29 4.5 -54t15.5 -43.5t28 -29.5t43 -11q19 0 34 7t25.5 18t17 24.5t8.5 26.5h184q-8 -45 -30 -86t-57.5 -71.5
t-83.5 -49t-106 -18.5q-71 0 -124.5 21t-89.5 58.5t-54.5 90.5t-18.5 116q0 64 21 117t58.5 90.5t90.5 58.5t118 21zM210 -133q9 -5 27.5 -9.5t38.5 -4.5t34 6t14 23q0 14 -11 21t-29 7q-8 0 -19 -2t-19 -7l-30 17l51 83h62l-33 -52q13 4 37 4q15 0 31.5 -3.5t30 -11.5
t22.5 -21t9 -32q0 -24 -11.5 -40t-31 -26.5t-44.5 -15t-51 -4.5q-53 0 -95 14z" />
    <glyph glyph-name="egrave" unicode="&#xe8;" horiz-adv-x="634" 
d="M326 -14q-71 0 -127 21.5t-94 60t-58 92t-20 116.5q0 64 22.5 116.5t61.5 89t92 56.5t114 20q71 0 127 -26t94.5 -71.5t57 -106.5t13.5 -131h-388q5 -41 33 -65.5t75 -24.5q29 0 55.5 13t35.5 35h188q-9 -30 -30.5 -64t-56.5 -63t-83.5 -48.5t-111.5 -19.5zM330 421
q-16 0 -32.5 -4.5t-31 -15t-26 -27t-16.5 -40.5h208q-2 24 -12 40.5t-25 27t-32 15t-33 4.5zM96 725h208l94 -116h-160z" />
    <glyph glyph-name="eacute" unicode="&#xe9;" horiz-adv-x="634" 
d="M326 -14q-71 0 -127 21.5t-94 60t-58 92t-20 116.5q0 64 22.5 116.5t61.5 89t92 56.5t114 20q71 0 127 -26t94.5 -71.5t57 -106.5t13.5 -131h-388q5 -41 33 -65.5t75 -24.5q29 0 55.5 13t35.5 35h188q-9 -30 -30.5 -64t-56.5 -63t-83.5 -48.5t-111.5 -19.5zM330 421
q-16 0 -32.5 -4.5t-31 -15t-26 -27t-16.5 -40.5h208q-2 24 -12 40.5t-25 27t-32 15t-33 4.5zM398 609h-160l95 116h207z" />
    <glyph glyph-name="ecircumflex" unicode="&#xea;" horiz-adv-x="634" 
d="M326 -14q-71 0 -127 21.5t-94 60t-58 92t-20 116.5q0 64 22.5 116.5t61.5 89t92 56.5t114 20q71 0 127 -26t94.5 -71.5t57 -106.5t13.5 -131h-388q5 -41 33 -65.5t75 -24.5q29 0 55.5 13t35.5 35h188q-9 -30 -30.5 -64t-56.5 -63t-83.5 -48.5t-111.5 -19.5zM330 421
q-16 0 -32.5 -4.5t-31 -15t-26 -27t-16.5 -40.5h208q-2 24 -12 40.5t-25 27t-32 15t-33 4.5zM543 609h-162l-61 57l-64 -57h-162l136 116h181z" />
    <glyph glyph-name="edieresis" unicode="&#xeb;" horiz-adv-x="634" 
d="M326 -14q-71 0 -127 21.5t-94 60t-58 92t-20 116.5q0 64 22.5 116.5t61.5 89t92 56.5t114 20q71 0 127 -26t94.5 -71.5t57 -106.5t13.5 -131h-388q5 -41 33 -65.5t75 -24.5q29 0 55.5 13t35.5 35h188q-9 -30 -30.5 -64t-56.5 -63t-83.5 -48.5t-111.5 -19.5zM330 421
q-16 0 -32.5 -4.5t-31 -15t-26 -27t-16.5 -40.5h208q-2 24 -12 40.5t-25 27t-32 15t-33 4.5zM107 725h171v-116h-171v116zM529 725v-116h-170v116h170z" />
    <glyph glyph-name="igrave" unicode="&#xec;" horiz-adv-x="318" 
d="M259 538v-538h-200v538h200zM-62 725h208l94 -116h-160z" />
    <glyph glyph-name="iacute" unicode="&#xed;" horiz-adv-x="318" 
d="M259 538v-538h-200v538h200zM239 609h-160l95 116h207z" />
    <glyph glyph-name="icircumflex" unicode="&#xee;" horiz-adv-x="318" 
d="M259 538v-538h-200v538h200zM385 609h-162l-61 57l-64 -57h-162l136 116h181z" />
    <glyph glyph-name="idieresis" unicode="&#xef;" horiz-adv-x="318" 
d="M259 538v-538h-200v538h200zM-51 725h171v-116h-171v116zM371 725v-116h-170v116h170z" />
    <glyph glyph-name="eth" unicode="&#xf0;" horiz-adv-x="636" 
d="M433 750l58 -28l-67 -41q40 -29 73.5 -66t58.5 -83t39 -101.5t14 -119.5q0 -83 -22.5 -143.5t-62 -101t-95 -60t-121.5 -19.5q-64 0 -116.5 19t-89.5 54.5t-57.5 87t-20.5 116.5q0 64 18 116.5t49.5 90t74 58.5t89.5 21q53 0 95.5 -23t67.5 -64l1 1q-12 42 -45 77.5
t-75 64.5l-66 -39l-58 27l73 44q-26 14 -51 26l-49 22l161 60l33 -16q15 -7 31 -16zM428 269q0 61 -27.5 96.5t-69.5 35.5q-43 0 -68 -37.5t-25 -94.5t25 -95t68 -38q42 0 69.5 36t27.5 97z" />
    <glyph glyph-name="ntilde" unicode="&#xf1;" horiz-adv-x="653" 
d="M259 468q27 40 69.5 61t97.5 21q50 0 84.5 -14.5t55.5 -42.5t30 -67.5t9 -88.5v-337h-200v297q0 17 -2 33.5t-8.5 30t-19.5 21.5t-35 8q-37 0 -59 -24.5t-22 -83.5v-282h-200v538h200v-70zM392 692q44 0 53 44h97q-11 -63 -46 -95t-89 -32q-26 0 -45 7t-35 15l-29 15
q-13 7 -28 7q-43 0 -51 -44h-97q10 60 44 93.5t92 33.5q25 0 43 -7t33 -15l28 -15q13 -7 30 -7z" />
    <glyph glyph-name="ograve" unicode="&#xf2;" horiz-adv-x="640" 
d="M320 405q-38 0 -64 -30t-26 -105q0 -38 7 -63.5t19 -41t28.5 -22.5t35.5 -7t35.5 7t28.5 22.5t19 41t7 63.5q0 75 -26 105t-64 30zM320 -13q-60 0 -114 17.5t-94.5 53t-64 88.5t-23.5 124t23.5 124t64 88.5t94.5 53.5t114 18t113.5 -18t94 -53.5t64.5 -88.5t24 -124
t-24 -124t-64.5 -88.5t-94 -53t-113.5 -17.5zM97 725h208l94 -116h-160z" />
    <glyph glyph-name="oacute" unicode="&#xf3;" horiz-adv-x="640" 
d="M320 405q-38 0 -64 -30t-26 -105q0 -38 7 -63.5t19 -41t28.5 -22.5t35.5 -7t35.5 7t28.5 22.5t19 41t7 63.5q0 75 -26 105t-64 30zM320 -13q-60 0 -114 17.5t-94.5 53t-64 88.5t-23.5 124t23.5 124t64 88.5t94.5 53.5t114 18t113.5 -18t94 -53.5t64.5 -88.5t24 -124
t-24 -124t-64.5 -88.5t-94 -53t-113.5 -17.5zM399 609h-160l95 116h207z" />
    <glyph glyph-name="ocircumflex" unicode="&#xf4;" horiz-adv-x="640" 
d="M320 405q-38 0 -64 -30t-26 -105q0 -38 7 -63.5t19 -41t28.5 -22.5t35.5 -7t35.5 7t28.5 22.5t19 41t7 63.5q0 75 -26 105t-64 30zM320 -13q-60 0 -114 17.5t-94.5 53t-64 88.5t-23.5 124t23.5 124t64 88.5t94.5 53.5t114 18t113.5 -18t94 -53.5t64.5 -88.5t24 -124
t-24 -124t-64.5 -88.5t-94 -53t-113.5 -17.5zM544 609h-162l-61 57l-64 -57h-162l136 116h181z" />
    <glyph glyph-name="otilde" unicode="&#xf5;" horiz-adv-x="640" 
d="M320 405q-38 0 -64 -30t-26 -105q0 -38 7 -63.5t19 -41t28.5 -22.5t35.5 -7t35.5 7t28.5 22.5t19 41t7 63.5q0 75 -26 105t-64 30zM320 -13q-60 0 -114 17.5t-94.5 53t-64 88.5t-23.5 124t23.5 124t64 88.5t94.5 53.5t114 18t113.5 -18t94 -53.5t64.5 -88.5t24 -124
t-24 -124t-64.5 -88.5t-94 -53t-113.5 -17.5zM379 692q44 0 53 44h97q-11 -63 -46 -95t-89 -32q-26 0 -45 7t-35 15l-29 15q-13 7 -28 7q-43 0 -51 -44h-97q10 60 44 93.5t92 33.5q25 0 43 -7t32 -15l28 -15q14 -7 31 -7z" />
    <glyph glyph-name="odieresis" unicode="&#xf6;" horiz-adv-x="640" 
d="M320 405q-38 0 -64 -30t-26 -105q0 -38 7 -63.5t19 -41t28.5 -22.5t35.5 -7t35.5 7t28.5 22.5t19 41t7 63.5q0 75 -26 105t-64 30zM320 -13q-60 0 -114 17.5t-94.5 53t-64 88.5t-23.5 124t23.5 124t64 88.5t94.5 53.5t114 18t113.5 -18t94 -53.5t64.5 -88.5t24 -124
t-24 -124t-64.5 -88.5t-94 -53t-113.5 -17.5zM108 725h171v-116h-171v116zM530 725v-116h-170v116h170z" />
    <glyph glyph-name="divide" unicode="&#xf7;" 
d="M231 145h217v-145h-217v145zM231 538h217v-145h-217v145zM46 182v174h587v-174h-587z" />
    <glyph glyph-name="oslash" unicode="&#xf8;" horiz-adv-x="640" 
d="M320 -13q-47 0 -90 10.5t-79 31.5l-57 -65l-49 45l53 61q-35 35 -54.5 84.5t-19.5 115.5q0 71 23.5 124t64 88.5t94.5 53.5t114 18q45 0 86.5 -10t76.5 -30l40 46l51 -43l-37 -43q37 -35 58 -86t21 -118q0 -71 -24 -124t-64.5 -88.5t-94 -53t-113.5 -17.5zM410 270
q0 28 -5 53l-143 -165q12 -12 26.5 -17t31.5 -5q19 0 35.5 7t28.5 22.5t19 41t7 63.5zM320 405q-38 0 -64 -30t-26 -105q0 -26 3 -45l140 162q-21 18 -53 18z" />
    <glyph glyph-name="ugrave" unicode="&#xf9;" horiz-adv-x="645" 
d="M385 73q-23 -38 -60.5 -62t-94.5 -24q-45 0 -81.5 12.5t-59.5 40.5q-20 24 -30.5 64t-10.5 107v327h200v-287q0 -32 4 -49.5t11 -27.5q16 -21 50 -21t53 24.5t19 84.5v276h200v-538h-200v73zM94 725h208l94 -116h-160z" />
    <glyph glyph-name="uacute" unicode="&#xfa;" horiz-adv-x="645" 
d="M385 73q-23 -38 -60.5 -62t-94.5 -24q-45 0 -81.5 12.5t-59.5 40.5q-20 24 -30.5 64t-10.5 107v327h200v-287q0 -32 4 -49.5t11 -27.5q16 -21 50 -21t53 24.5t19 84.5v276h200v-538h-200v73zM396 609h-160l95 116h207z" />
    <glyph glyph-name="ucircumflex" unicode="&#xfb;" horiz-adv-x="645" 
d="M385 73q-23 -38 -60.5 -62t-94.5 -24q-45 0 -81.5 12.5t-59.5 40.5q-20 24 -30.5 64t-10.5 107v327h200v-287q0 -32 4 -49.5t11 -27.5q16 -21 50 -21t53 24.5t19 84.5v276h200v-538h-200v73zM541 609h-162l-61 57l-64 -57h-162l136 116h181z" />
    <glyph glyph-name="udieresis" unicode="&#xfc;" horiz-adv-x="645" 
d="M385 73q-23 -38 -60.5 -62t-94.5 -24q-45 0 -81.5 12.5t-59.5 40.5q-20 24 -30.5 64t-10.5 107v327h200v-287q0 -32 4 -49.5t11 -27.5q16 -21 50 -21t53 24.5t19 84.5v276h200v-538h-200v73zM105 725h171v-116h-171v116zM527 725v-116h-170v116h170z" />
    <glyph glyph-name="yacute" unicode="&#xfd;" horiz-adv-x="595" 
d="M58 -175v134h61q31 0 47 5t23 26l3 7l-192 541h199l101 -344l100 344h195l-183 -523q-22 -62 -50.5 -99.5t-63.5 -57.5t-77 -26.5t-91 -6.5h-72zM377 609h-160l95 116h207z" />
    <glyph glyph-name="thorn" unicode="&#xfe;" horiz-adv-x="680" 
d="M259 463q18 35 59 61t101 26q45 0 87 -18t74.5 -53t52.5 -87.5t20 -122.5t-20 -122.5t-52.5 -88t-74.5 -53.5t-87 -18q-60 0 -101 26t-59 61v-249h-200v900h200v-262zM253 269q0 -61 27 -97t69 -36q43 0 68.5 38t25.5 95t-25.5 94t-68.5 37q-42 0 -69 -35t-27 -96z" />
    <glyph glyph-name="ydieresis" unicode="&#xff;" horiz-adv-x="595" 
d="M58 -175v134h61q31 0 47 5t23 26l3 7l-192 541h199l101 -344l100 344h195l-183 -523q-22 -62 -50.5 -99.5t-63.5 -57.5t-77 -26.5t-91 -6.5h-72zM86 725h171v-116h-171v116zM508 725v-116h-170v116h170z" />
    <glyph glyph-name="Amacron" unicode="&#x100;" horiz-adv-x="745" 
d="M258 725h229l263 -725h-227l-37 121h-231l-37 -121h-223zM304 277h134l-66 218zM194 783v95h356v-95h-356z" />
    <glyph glyph-name="amacron" unicode="&#x101;" horiz-adv-x="636" 
d="M387 356q0 22 -6.5 36t-17.5 21.5t-25.5 10.5t-30.5 3q-38 0 -62 -17t-29 -52h-172q3 38 22 74t53.5 63.5t84.5 44.5t117 17q58 0 106.5 -12t83 -39.5t54 -73.5t18.5 -113l-1 -103v-53q0 -28 1.5 -57t3.5 -56.5t5 -49.5h-186v70q-30 -45 -78 -64t-105 -19q-39 0 -74 11.5
t-61.5 33t-41.5 51t-15 65.5q0 47 23.5 81t69 57t112 36t151.5 19v15zM394 241q-80 -5 -121 -20.5t-41 -50.5q0 -17 15.5 -33t50.5 -16q19 0 36.5 4.5t31 16.5t21 32t7.5 51v16zM155 621v104h313v-104h-313z" />
    <glyph glyph-name="Abreve" unicode="&#x102;" horiz-adv-x="745" 
d="M258 725h229l263 -725h-227l-37 121h-231l-37 -121h-223zM304 277h134l-66 218zM563 886q-6 -62 -52 -90t-140 -28q-91 0 -138 28t-52 90h129q6 -36 61 -36q57 0 63 36h129z" />
    <glyph glyph-name="abreve" unicode="&#x103;" horiz-adv-x="636" 
d="M387 356q0 22 -6.5 36t-17.5 21.5t-25.5 10.5t-30.5 3q-38 0 -62 -17t-29 -52h-172q3 38 22 74t53.5 63.5t84.5 44.5t117 17q58 0 106.5 -12t83 -39.5t54 -73.5t18.5 -113l-1 -103v-53q0 -28 1.5 -57t3.5 -56.5t5 -49.5h-186v70q-30 -45 -78 -64t-105 -19q-39 0 -74 11.5
t-61.5 33t-41.5 51t-15 65.5q0 47 23.5 81t69 57t112 36t151.5 19v15zM394 241q-80 -5 -121 -20.5t-41 -50.5q0 -17 15.5 -33t50.5 -16q19 0 36.5 4.5t31 16.5t21 32t7.5 51v16zM506 725q-5 -54 -50 -87t-131 -33q-84 0 -129 33t-50 87h118q7 -31 62 -31q56 0 62 31h118z
" />
    <glyph glyph-name="Aogonek" unicode="&#x104;" horiz-adv-x="745" 
d="M258 725h229l263 -725q-38 -17 -60.5 -30t-22.5 -36q0 -17 14.5 -24t34.5 -7q10 0 17.5 2t16.5 5v-87q-16 -4 -43.5 -7.5t-57.5 -3.5q-31 0 -61.5 5.5t-55 17.5t-39.5 30.5t-15 45.5q0 35 14 55.5t31 33.5l-37 121h-231l-37 -121h-223zM304 277h134l-66 218z" />
    <glyph glyph-name="aogonek" unicode="&#x105;" horiz-adv-x="636" 
d="M387 356q0 22 -6.5 36t-17.5 21.5t-25.5 10.5t-30.5 3q-38 0 -62 -17t-29 -52h-172q3 38 22 74t53.5 63.5t84.5 44.5t117 17q58 0 106.5 -12t83 -39.5t54 -73.5t18.5 -113l-1 -103v-53q0 -28 1.5 -57t3.5 -56.5t5 -49.5q-41 -16 -64.5 -29t-23.5 -36q0 -16 13.5 -23
t31.5 -7q13 0 23 2t19 4v-89l-36 -6q-20 -4 -50 -4t-60 5t-54 16t-39 29t-15 45q0 30 19 53t50 40v70q-30 -45 -78 -64t-105 -19q-39 0 -74 11.5t-61.5 33t-41.5 51t-15 65.5q0 47 23.5 81t69 57t112 36t151.5 19v15zM394 241q-80 -5 -121 -20.5t-41 -50.5q0 -17 15.5 -33
t50.5 -16q19 0 36.5 4.5t31 16.5t21 32t7.5 51v16z" />
    <glyph glyph-name="Cacute" unicode="&#x106;" horiz-adv-x="768" 
d="M22 365q0 88 25.5 158t73 118.5t115 74.5t152.5 26q70 0 130 -19.5t106.5 -57t77.5 -91t42 -122.5h-206q-11 53 -48.5 84t-94.5 31q-68 0 -111.5 -50.5t-43.5 -151.5q0 -102 43.5 -152.5t111.5 -50.5q57 0 96 32t50 84h205q-11 -69 -42 -123t-78 -91.5t-107.5 -57
t-130.5 -19.5q-85 0 -152.5 26t-115 74.5t-73 118.5t-25.5 159zM473 773h-178l103 113h234z" />
    <glyph glyph-name="cacute" unicode="&#x107;" horiz-adv-x="608" 
d="M315 559q59 0 107 -18.5t82.5 -50t56 -72.5t27.5 -86h-184q-2 13 -8 27t-16.5 25.5t-24.5 18.5t-32 7q-27 0 -45 -10.5t-28.5 -29.5t-14.5 -44t-4 -53q0 -29 4.5 -54t15.5 -43.5t28 -29.5t43 -11q19 0 34 7t25.5 18t17 24.5t8.5 26.5h184q-8 -45 -30 -86t-57.5 -71.5
t-83.5 -49t-106 -18.5q-71 0 -124.5 21t-89.5 58.5t-54.5 90.5t-18.5 116q0 64 21 117t58.5 90.5t90.5 58.5t118 21zM389 609h-160l95 116h207z" />
    <glyph glyph-name="Ccircumflex" unicode="&#x108;" horiz-adv-x="768" 
d="M22 365q0 88 25.5 158t73 118.5t115 74.5t152.5 26q70 0 130 -19.5t106.5 -57t77.5 -91t42 -122.5h-206q-11 53 -48.5 84t-94.5 31q-68 0 -111.5 -50.5t-43.5 -151.5q0 -102 43.5 -152.5t111.5 -50.5q57 0 96 32t50 84h205q-11 -69 -42 -123t-78 -91.5t-107.5 -57
t-130.5 -19.5q-85 0 -152.5 26t-115 74.5t-73 118.5t-25.5 159zM636 773h-196l-55 49l-58 -49h-195l140 113h227z" />
    <glyph glyph-name="ccircumflex" unicode="&#x109;" horiz-adv-x="608" 
d="M315 559q59 0 107 -18.5t82.5 -50t56 -72.5t27.5 -86h-184q-2 13 -8 27t-16.5 25.5t-24.5 18.5t-32 7q-27 0 -45 -10.5t-28.5 -29.5t-14.5 -44t-4 -53q0 -29 4.5 -54t15.5 -43.5t28 -29.5t43 -11q19 0 34 7t25.5 18t17 24.5t8.5 26.5h184q-8 -45 -30 -86t-57.5 -71.5
t-83.5 -49t-106 -18.5q-71 0 -124.5 21t-89.5 58.5t-54.5 90.5t-18.5 116q0 64 21 117t58.5 90.5t90.5 58.5t118 21zM534 609h-162l-61 57l-64 -57h-162l136 116h181z" />
    <glyph glyph-name="Cdotaccent" unicode="&#x10a;" horiz-adv-x="768" 
d="M22 365q0 88 25.5 158t73 118.5t115 74.5t152.5 26q70 0 130 -19.5t106.5 -57t77.5 -91t42 -122.5h-206q-11 53 -48.5 84t-94.5 31q-68 0 -111.5 -50.5t-43.5 -151.5q0 -102 43.5 -152.5t111.5 -50.5q57 0 96 32t50 84h205q-11 -69 -42 -123t-78 -91.5t-107.5 -57
t-130.5 -19.5q-85 0 -152.5 26t-115 74.5t-73 118.5t-25.5 159zM470 886v-113h-171v113h171z" />
    <glyph glyph-name="cdotaccent" unicode="&#x10b;" horiz-adv-x="608" 
d="M315 559q59 0 107 -18.5t82.5 -50t56 -72.5t27.5 -86h-184q-2 13 -8 27t-16.5 25.5t-24.5 18.5t-32 7q-27 0 -45 -10.5t-28.5 -29.5t-14.5 -44t-4 -53q0 -29 4.5 -54t15.5 -43.5t28 -29.5t43 -11q19 0 34 7t25.5 18t17 24.5t8.5 26.5h184q-8 -45 -30 -86t-57.5 -71.5
t-83.5 -49t-106 -18.5q-71 0 -124.5 21t-89.5 58.5t-54.5 90.5t-18.5 116q0 64 21 117t58.5 90.5t90.5 58.5t118 21zM392 725v-116h-166v116h166z" />
    <glyph glyph-name="Ccaron" unicode="&#x10c;" horiz-adv-x="768" 
d="M22 365q0 88 25.5 158t73 118.5t115 74.5t152.5 26q70 0 130 -19.5t106.5 -57t77.5 -91t42 -122.5h-206q-11 53 -48.5 84t-94.5 31q-68 0 -111.5 -50.5t-43.5 -151.5q0 -102 43.5 -152.5t111.5 -50.5q57 0 96 32t50 84h205q-11 -69 -42 -123t-78 -91.5t-107.5 -57
t-130.5 -19.5q-85 0 -152.5 26t-115 74.5t-73 118.5t-25.5 159zM132 886h196l55 -50l58 50h195l-140 -113h-227z" />
    <glyph glyph-name="ccaron" unicode="&#x10d;" horiz-adv-x="608" 
d="M315 559q59 0 107 -18.5t82.5 -50t56 -72.5t27.5 -86h-184q-2 13 -8 27t-16.5 25.5t-24.5 18.5t-32 7q-27 0 -45 -10.5t-28.5 -29.5t-14.5 -44t-4 -53q0 -29 4.5 -54t15.5 -43.5t28 -29.5t43 -11q19 0 34 7t25.5 18t17 24.5t8.5 26.5h184q-8 -45 -30 -86t-57.5 -71.5
t-83.5 -49t-106 -18.5q-71 0 -124.5 21t-89.5 58.5t-54.5 90.5t-18.5 116q0 64 21 117t58.5 90.5t90.5 58.5t118 21zM85 725h161l62 -57l63 57h163l-136 -116h-182z" />
    <glyph glyph-name="Dcaron" unicode="&#x10e;" horiz-adv-x="754" 
d="M515 363q0 62 -14.5 100t-41 58.5t-62.5 27.5t-79 7h-44v-387h44q43 0 79 7t62.5 28t41 59t14.5 100zM315 725q87 0 163.5 -18t133 -60t89 -111.5t32.5 -172.5q0 -104 -32.5 -173.5t-89 -111.5t-133 -60t-163.5 -18h-250v725h250zM127 886h196l55 -50l58 50h195
l-140 -113h-227z" />
    <glyph glyph-name="dcaron" unicode="&#x10f;" horiz-adv-x="835" 
d="M796 555h-134l20 170h173zM421 725h200v-725h-200v74q-18 -35 -60 -61t-102 -26q-45 0 -87.5 18t-75 53.5t-52.5 88t-20 122.5t20 122.5t52.5 87.5t75 53t87.5 18q60 0 102 -26t60 -61v262zM428 269q0 61 -27.5 96.5t-69.5 35.5q-43 0 -68 -37.5t-25 -94.5t25 -95t68 -38
q42 0 69.5 36t27.5 97z" />
    <glyph glyph-name="Dcroat" unicode="&#x110;" horiz-adv-x="800" 
d="M360 725q87 0 163.5 -18t133 -60t89 -111.5t32.5 -172.5q0 -104 -32.5 -173.5t-89 -111.5t-133 -60t-163.5 -18h-250v280h-83v158h83v287h250zM560 363q0 62 -14.5 100t-41 58.5t-62.5 27.5t-79 7h-44v-118h108v-158h-108v-111h44q43 0 79 7t62.5 28t41 59t14.5 100z" />
    <glyph glyph-name="dcroat" unicode="&#x111;" horiz-adv-x="680" 
d="M302 663h119v62h200v-62h51v-87h-51v-576h-200v74q-18 -35 -60 -61t-102 -26q-45 0 -87.5 18t-75 53.5t-52.5 88t-20 122.5t20 122.5t52.5 87.5t75 53t87.5 18q60 0 102 -26t60 -61v113h-119v87zM428 269q0 61 -27.5 96.5t-69.5 35.5q-43 0 -68 -37.5t-25 -94.5t25 -95
t68 -38q42 0 69.5 36t27.5 97z" />
    <glyph glyph-name="Emacron" unicode="&#x112;" horiz-adv-x="683" 
d="M65 725h574v-179h-365v-92h346v-180h-346v-94h369v-180h-578v725zM176 783v95h356v-95h-356z" />
    <glyph glyph-name="emacron" unicode="&#x113;" horiz-adv-x="634" 
d="M326 -14q-71 0 -127 21.5t-94 60t-58 92t-20 116.5q0 64 22.5 116.5t61.5 89t92 56.5t114 20q71 0 127 -26t94.5 -71.5t57 -106.5t13.5 -131h-388q5 -41 33 -65.5t75 -24.5q29 0 55.5 13t35.5 35h188q-9 -30 -30.5 -64t-56.5 -63t-83.5 -48.5t-111.5 -19.5zM330 421
q-16 0 -32.5 -4.5t-31 -15t-26 -27t-16.5 -40.5h208q-2 24 -12 40.5t-25 27t-32 15t-33 4.5zM162 621v104h313v-104h-313z" />
    <glyph glyph-name="Ebreve" unicode="&#x114;" horiz-adv-x="683" 
d="M65 725h574v-179h-365v-92h346v-180h-346v-94h369v-180h-578v725zM555 886q-6 -62 -52 -90t-140 -28q-91 0 -138 28t-52 90h129q6 -36 61 -36q57 0 63 36h129z" />
    <glyph glyph-name="ebreve" unicode="&#x115;" horiz-adv-x="634" 
d="M326 -14q-71 0 -127 21.5t-94 60t-58 92t-20 116.5q0 64 22.5 116.5t61.5 89t92 56.5t114 20q71 0 127 -26t94.5 -71.5t57 -106.5t13.5 -131h-388q5 -41 33 -65.5t75 -24.5q29 0 55.5 13t35.5 35h188q-9 -30 -30.5 -64t-56.5 -63t-83.5 -48.5t-111.5 -19.5zM330 421
q-16 0 -32.5 -4.5t-31 -15t-26 -27t-16.5 -40.5h208q-2 24 -12 40.5t-25 27t-32 15t-33 4.5zM498 725q-5 -54 -50 -87t-131 -33q-84 0 -129 33t-50 87h118q7 -31 62 -31q56 0 62 31h118z" />
    <glyph glyph-name="Edotaccent" unicode="&#x116;" horiz-adv-x="683" 
d="M65 725h574v-179h-365v-92h346v-180h-346v-94h369v-180h-578v725zM440 886v-113h-171v113h171z" />
    <glyph glyph-name="edotaccent" unicode="&#x117;" horiz-adv-x="634" 
d="M326 -14q-71 0 -127 21.5t-94 60t-58 92t-20 116.5q0 64 22.5 116.5t61.5 89t92 56.5t114 20q71 0 127 -26t94.5 -71.5t57 -106.5t13.5 -131h-388q5 -41 33 -65.5t75 -24.5q29 0 55.5 13t35.5 35h188q-9 -30 -30.5 -64t-56.5 -63t-83.5 -48.5t-111.5 -19.5zM330 421
q-16 0 -32.5 -4.5t-31 -15t-26 -27t-16.5 -40.5h208q-2 24 -12 40.5t-25 27t-32 15t-33 4.5zM401 725v-116h-166v116h166z" />
    <glyph glyph-name="Eogonek" unicode="&#x118;" horiz-adv-x="683" 
d="M643 0q-38 -16 -63 -30t-25 -37q0 -17 12.5 -23.5t32.5 -6.5q13 0 23.5 2t19.5 4v-87q-16 -3 -36.5 -6.5t-50.5 -3.5t-64 4t-62 14.5t-46.5 29t-18.5 47.5q0 30 19 53t50 40h209zM65 725h574v-179h-365v-92h346v-180h-346v-94h369v-180h-578v725z" />
    <glyph glyph-name="eogonek" unicode="&#x119;" horiz-adv-x="634" 
d="M272 -41q12 15 28 28q-56 3 -101 20q-56 22 -94 60.5t-58 92t-20 116.5q0 64 22.5 116.5t61.5 89t92 56.5t114 20q71 0 127 -26t94.5 -71.5t57 -106.5t13.5 -131h-388q5 -41 33 -65.5t75 -24.5q29 0 55.5 13t35.5 35h188q-9 -30 -31 -64q-20 -32 -52 -59h1q-2 -2 -4 -3
l-1 -1q-3 -2 -5 -4q-28 -24 -45 -40q-19 -18 -29.5 -31t-13 -23t-2.5 -21q0 -16 13.5 -23t31.5 -7q13 0 23 2t19 4v-89l-36 -6q-20 -4 -50 -4t-61 3.5t-56 13.5t-41 28.5t-16 47.5q0 30 19 54zM330 421q-16 0 -32.5 -4.5t-31 -15t-26 -27t-16.5 -40.5h208q-2 24 -12 40.5
t-25 27t-32 15t-33 4.5z" />
    <glyph glyph-name="Ecaron" unicode="&#x11a;" horiz-adv-x="683" 
d="M65 725h574v-179h-365v-92h346v-180h-346v-94h369v-180h-578v725zM102 886h196l55 -50l58 50h195l-140 -113h-227z" />
    <glyph glyph-name="ecaron" unicode="&#x11b;" horiz-adv-x="634" 
d="M326 -14q-71 0 -127 21.5t-94 60t-58 92t-20 116.5q0 64 22.5 116.5t61.5 89t92 56.5t114 20q71 0 127 -26t94.5 -71.5t57 -106.5t13.5 -131h-388q5 -41 33 -65.5t75 -24.5q29 0 55.5 13t35.5 35h188q-9 -30 -30.5 -64t-56.5 -63t-83.5 -48.5t-111.5 -19.5zM330 421
q-16 0 -32.5 -4.5t-31 -15t-26 -27t-16.5 -40.5h208q-2 24 -12 40.5t-25 27t-32 15t-33 4.5zM94 725h161l62 -57l63 57h163l-136 -116h-182z" />
    <glyph glyph-name="Gcircumflex" unicode="&#x11c;" horiz-adv-x="794" 
d="M395 567q-72 0 -113.5 -53t-41.5 -147q0 -46 10 -83.5t29.5 -64.5t49 -42t69.5 -15q34 0 59.5 9t42 23t24.5 30t8 31v1h-157v158h360v-414h-163l-1 77q-33 -47 -87.5 -68.5t-121.5 -21.5q-78 0 -141 27t-107 76.5t-68 119.5t-24 157q0 86 25.5 155.5t73.5 118t116.5 75
t154.5 26.5q61 0 115.5 -14.5t99 -44.5t77 -77t47.5 -112h-205q-10 31 -41.5 52t-89.5 21zM630 773h-196l-55 49l-58 -49h-195l140 113h227z" />
    <glyph glyph-name="gcircumflex" unicode="&#x11d;" horiz-adv-x="680" 
d="M421 96q-9 -15 -24.5 -29t-36 -25t-46 -17.5t-55.5 -6.5q-45 0 -87.5 15.5t-75 48t-52.5 83t-20 120.5t20 120t52.5 82t75 47.5t87.5 15.5q60 0 102 -22.5t60 -54.5v65h200v-456q0 -74 -24.5 -125t-66 -83.5t-95.5 -47t-113 -14.5q-122 0 -188 46.5t-83 128.5h185
q5 -23 24.5 -37t59.5 -14q21 0 39.5 5.5t32 18t21.5 33t8 49.5v54zM428 285q0 60 -27.5 88t-69.5 28q-43 0 -70.5 -29.5t-27.5 -86.5q0 -58 27.5 -87.5t70.5 -29.5q42 0 69.5 28t27.5 89zM557 609h-162l-61 57l-64 -57h-162l136 116h181z" />
    <glyph glyph-name="Gbreve" unicode="&#x11e;" horiz-adv-x="794" 
d="M395 567q-72 0 -113.5 -53t-41.5 -147q0 -46 10 -83.5t29.5 -64.5t49 -42t69.5 -15q34 0 59.5 9t42 23t24.5 30t8 31v1h-157v158h360v-414h-163l-1 77q-33 -47 -87.5 -68.5t-121.5 -21.5q-78 0 -141 27t-107 76.5t-68 119.5t-24 157q0 86 25.5 155.5t73.5 118t116.5 75
t154.5 26.5q61 0 115.5 -14.5t99 -44.5t77 -77t47.5 -112h-205q-10 31 -41.5 52t-89.5 21zM569 886q-6 -62 -52 -90t-140 -28q-91 0 -138 28t-52 90h129q6 -36 61 -36q57 0 63 36h129z" />
    <glyph glyph-name="gbreve" unicode="&#x11f;" horiz-adv-x="680" 
d="M421 96q-9 -15 -24.5 -29t-36 -25t-46 -17.5t-55.5 -6.5q-45 0 -87.5 15.5t-75 48t-52.5 83t-20 120.5t20 120t52.5 82t75 47.5t87.5 15.5q60 0 102 -22.5t60 -54.5v65h200v-456q0 -74 -24.5 -125t-66 -83.5t-95.5 -47t-113 -14.5q-122 0 -188 46.5t-83 128.5h185
q5 -23 24.5 -37t59.5 -14q21 0 39.5 5.5t32 18t21.5 33t8 49.5v54zM428 285q0 60 -27.5 88t-69.5 28q-43 0 -70.5 -29.5t-27.5 -86.5q0 -58 27.5 -87.5t70.5 -29.5q42 0 69.5 28t27.5 89zM522 725q-5 -54 -50 -87t-131 -33q-84 0 -129 33t-50 87h118q7 -31 62 -31
q56 0 62 31h118z" />
    <glyph glyph-name="Gdotaccent" unicode="&#x120;" horiz-adv-x="794" 
d="M395 567q-72 0 -113.5 -53t-41.5 -147q0 -46 10 -83.5t29.5 -64.5t49 -42t69.5 -15q34 0 59.5 9t42 23t24.5 30t8 31v1h-157v158h360v-414h-163l-1 77q-33 -47 -87.5 -68.5t-121.5 -21.5q-78 0 -141 27t-107 76.5t-68 119.5t-24 157q0 86 25.5 155.5t73.5 118t116.5 75
t154.5 26.5q61 0 115.5 -14.5t99 -44.5t77 -77t47.5 -112h-205q-10 31 -41.5 52t-89.5 21zM464 886v-113h-171v113h171z" />
    <glyph glyph-name="gdotaccent" unicode="&#x121;" horiz-adv-x="680" 
d="M421 96q-9 -15 -24.5 -29t-36 -25t-46 -17.5t-55.5 -6.5q-45 0 -87.5 15.5t-75 48t-52.5 83t-20 120.5t20 120t52.5 82t75 47.5t87.5 15.5q60 0 102 -22.5t60 -54.5v65h200v-456q0 -74 -24.5 -125t-66 -83.5t-95.5 -47t-113 -14.5q-122 0 -188 46.5t-83 128.5h185
q5 -23 24.5 -37t59.5 -14q21 0 39.5 5.5t32 18t21.5 33t8 49.5v54zM428 285q0 60 -27.5 88t-69.5 28q-43 0 -70.5 -29.5t-27.5 -86.5q0 -58 27.5 -87.5t70.5 -29.5q42 0 69.5 28t27.5 89zM420 577h-166v119h166v-119z" />
    <glyph glyph-name="uni0122" unicode="&#x122;" horiz-adv-x="794" 
d="M395 567q-72 0 -113.5 -53t-41.5 -147q0 -46 10 -83.5t29.5 -64.5t49 -42t69.5 -15q34 0 59.5 9t42 23t24.5 30t8 31v1h-157v158h360v-414h-163l-1 77q-33 -47 -87.5 -68.5t-121.5 -21.5q-78 0 -141 27t-107 76.5t-68 119.5t-24 157q0 86 25.5 155.5t73.5 118t116.5 75
t154.5 26.5q61 0 115.5 -14.5t99 -44.5t77 -77t47.5 -112h-205q-10 31 -41.5 52t-89.5 21zM305 -36h149v-106l-55 -89h-97l39 95h-36v100z" />
    <glyph glyph-name="uni0123" unicode="&#x123;" horiz-adv-x="680" 
d="M392 598h-149v107l55 89h97l-39 -96h36v-100zM421 96q-9 -15 -24.5 -29t-36 -25t-46 -17.5t-55.5 -6.5q-45 0 -87.5 15.5t-75 48t-52.5 83t-20 120.5t20 120t52.5 82t75 47.5t87.5 15.5q60 0 102 -22.5t60 -54.5v65h200v-456q0 -74 -24.5 -125t-66 -83.5t-95.5 -47
t-113 -14.5q-122 0 -188 46.5t-83 128.5h185q5 -23 24.5 -37t59.5 -14q21 0 39.5 5.5t32 18t21.5 33t8 49.5v54zM428 285q0 60 -27.5 88t-69.5 28q-43 0 -70.5 -29.5t-27.5 -86.5q0 -58 27.5 -87.5t70.5 -29.5q42 0 69.5 28t27.5 89z" />
    <glyph glyph-name="Hcircumflex" unicode="&#x124;" horiz-adv-x="796" 
d="M732 725v-725h-209v274h-249v-274h-209v725h209v-271h249v271h209zM650 773h-196l-55 49l-58 -49h-195l140 113h227z" />
    <glyph glyph-name="hcircumflex" unicode="&#x125;" horiz-adv-x="653" 
d="M259 468q27 40 69.5 61t97.5 21q50 0 84.5 -14.5t55.5 -42.5t30 -67.5t9 -88.5v-337h-200v296q0 17 -2 33.5t-8.5 30t-19.5 21.5t-35 8q-37 0 -59 -24.5t-22 -83.5v-281h-200v725h200v-257zM412 773h-196l-55 49l-58 -49h-195l140 113h227z" />
    <glyph glyph-name="Hbar" unicode="&#x126;" horiz-adv-x="797" 
d="M732 725v-85h54v-116h-54v-524h-209v274h-249v-274h-209v524h-55v116h55v85h209v-85h249v85h209zM523 454v70h-249v-70h249z" />
    <glyph glyph-name="hbar" unicode="&#x127;" horiz-adv-x="653" 
d="M259 663h88v-87h-88v-108q27 40 69.5 61t97.5 21q50 0 84.5 -14.5t55.5 -42.5t30 -67.5t9 -88.5v-337h-200v296q0 17 -2 33.5t-8.5 30t-19.5 21.5t-35 8q-37 0 -59 -24.5t-22 -83.5v-281h-200v576h-81v87h81v62h200v-62z" />
    <glyph glyph-name="Itilde" unicode="&#x128;" horiz-adv-x="339" 
d="M274 0h-209v725h209v-725zM231 860q47 0 54 37h97q-7 -38 -24 -61t-38 -35t-43 -16t-39 -4q-24 0 -42 6t-32 13l-27 12q-13 6 -28 6q-46 0 -53 -37h-97q7 37 24 60t38 35.5t43 16.5t39 4q24 0 41 -6t30 -13l27 -12q13 -6 30 -6z" />
    <glyph glyph-name="itilde" unicode="&#x129;" horiz-adv-x="318" 
d="M259 538v-538h-200v538h200zM220 692q44 0 53 44h97q-11 -63 -46 -95t-89 -32q-26 0 -45 7t-35 15l-29 15q-13 7 -28 7q-43 0 -51 -44h-97q10 60 44 93.5t92 33.5q25 0 43 -7t33 -15l28 -15q13 -7 30 -7z" />
    <glyph glyph-name="Imacron" unicode="&#x12a;" horiz-adv-x="339" 
d="M274 0h-209v725h209v-725zM-8 783v95h356v-95h-356z" />
    <glyph glyph-name="imacron" unicode="&#x12b;" horiz-adv-x="318" 
d="M259 538v-538h-200v538h200zM4 621v104h313v-104h-313z" />
    <glyph glyph-name="Ibreve" unicode="&#x12c;" horiz-adv-x="339" 
d="M274 0h-209v725h209v-725zM361 886q-6 -62 -52 -90t-140 -28q-91 0 -138 28t-52 90h129q6 -36 61 -36q57 0 63 36h129z" />
    <glyph glyph-name="ibreve" unicode="&#x12d;" horiz-adv-x="318" 
d="M259 538v-538h-200v538h200zM340 725q-5 -54 -50 -87t-131 -33q-84 0 -129 33t-50 87h118q7 -31 62 -31q56 0 62 31h118z" />
    <glyph glyph-name="Iogonek" unicode="&#x12e;" horiz-adv-x="339" 
d="M275 0q-38 -16 -63 -30t-25 -37q0 -17 12.5 -23.5t32.5 -6.5q13 0 23.5 2t19.5 4v-87q-16 -3 -36.5 -6.5t-50.5 -3.5t-64 4t-62 14.5t-46.5 29t-18.5 47.5q0 30 19 53t50 40h209zM274 0h-209v725h209v-725z" />
    <glyph glyph-name="iogonek" unicode="&#x12f;" horiz-adv-x="318" 
d="M59 0v538h200v-538h1q-41 -16 -64 -29t-23 -36q0 -16 13.5 -23t31.5 -7q13 0 23 2t19 4v-89l-36 -6q-20 -4 -50 -4t-62.5 3.5t-59.5 13.5t-44 28.5t-17 47.5q0 30 19 54t50 41h-1zM259 725v-142h-200v142h200z" />
    <glyph glyph-name="Idotaccent" unicode="&#x130;" horiz-adv-x="339" 
d="M274 0h-209v725h209v-725zM255 886v-113h-171v113h171z" />
    <glyph glyph-name="dotlessi" unicode="&#x131;" horiz-adv-x="318" 
d="M259 538v-538h-200v538h200z" />
    <glyph glyph-name="Jcircumflex" unicode="&#x134;" horiz-adv-x="682" 
d="M618 272q0 -77 -21 -131t-60.5 -88.5t-96 -50t-126.5 -15.5t-126 18.5t-95 54.5t-60.5 90.5t-21.5 126.5h209q2 -79 23 -110.5t71 -31.5t72.5 29.5t22.5 107.5v453h209v-453zM766 773h-196l-55 49l-58 -49h-195l140 113h227z" />
    <glyph glyph-name="jcircumflex" unicode="&#x135;" horiz-adv-x="318" 
d="M59 538h200v-534q0 -55 -10.5 -90t-34 -54.5t-61.5 -27t-94 -7.5h-75v134h36q19 0 29 7.5t10 30.5v541zM385 609h-162l-61 57l-64 -57h-162l136 116h181z" />
    <glyph glyph-name="uni0136" unicode="&#x136;" horiz-adv-x="736" 
d="M274 467l208 258h253l-251 -292l262 -433h-246l-156 269l-70 -82v-187h-209v725h209v-258zM332 -36h149v-106l-55 -89h-97l39 95h-36v100z" />
    <glyph glyph-name="uni0137" unicode="&#x137;" horiz-adv-x="653" 
d="M259 725v-366l169 179h225l-198 -206l203 -332h-227l-114 189l-58 -61v-128h-200v725h200zM265 -36h149v-106l-55 -89h-97l39 95h-36v100z" />
    <glyph glyph-name="Lacute" unicode="&#x139;" horiz-adv-x="611" 
d="M274 180h338v-180h-547v725h209v-545zM247 773h-178l103 113h234z" />
    <glyph glyph-name="lacute" unicode="&#x13a;" horiz-adv-x="318" 
d="M259 0h-200v725h200v-725zM248 773h-178l103 113h234z" />
    <glyph glyph-name="uni013B" unicode="&#x13b;" horiz-adv-x="611" 
d="M274 180h338v-180h-547v725h209v-545zM265 -36h149v-106l-55 -89h-97l39 95h-36v100z" />
    <glyph glyph-name="uni013C" unicode="&#x13c;" horiz-adv-x="318" 
d="M259 0h-200v725h200v-725zM86 -36h149v-106l-55 -89h-97l39 95h-36v100z" />
    <glyph glyph-name="Lcaron" unicode="&#x13d;" horiz-adv-x="611" 
d="M274 180h338v-180h-547v725h209v-545zM465 555h-134l20 170h173z" />
    <glyph glyph-name="lcaron" unicode="&#x13e;" horiz-adv-x="473" 
d="M259 0h-200v725h200v-725zM434 555h-134l20 170h173z" />
    <glyph glyph-name="Ldot" unicode="&#x13f;" horiz-adv-x="611" 
d="M274 180h338v-180h-547v725h209v-545zM560 510v-113h-171v113h171z" />
    <glyph glyph-name="ldot" unicode="&#x140;" horiz-adv-x="502" 
d="M493 511v-116h-166v116h166zM259 0h-200v725h200v-725z" />
    <glyph glyph-name="Lslash" unicode="&#x141;" horiz-adv-x="649" 
d="M311 546l120 74v-180l-120 -74v-186h338v-180h-547v238l-91 -56v180l91 56v307h209v-179z" />
    <glyph glyph-name="lslash" unicode="&#x142;" horiz-adv-x="346" 
d="M273 512l67 32v-154l-67 -33v-357h-200v260l-67 -32v155l67 32v310h200v-213z" />
    <glyph glyph-name="Nacute" unicode="&#x143;" horiz-adv-x="802" 
d="M480 0l-222 462v-462h-193v725h257l223 -461v461h193v-725h-258zM490 773h-178l103 113h234z" />
    <glyph glyph-name="nacute" unicode="&#x144;" horiz-adv-x="653" 
d="M259 468q27 40 69.5 61t97.5 21q50 0 84.5 -14.5t55.5 -42.5t30 -67.5t9 -88.5v-337h-200v297q0 17 -2 33.5t-8.5 30t-19.5 21.5t-35 8q-37 0 -59 -24.5t-22 -83.5v-282h-200v538h200v-70zM412 609h-160l95 116h207z" />
    <glyph glyph-name="uni0145" unicode="&#x145;" horiz-adv-x="802" 
d="M480 0l-222 462v-462h-193v725h257l223 -461v461h193v-725h-258zM328 -36h149v-106l-55 -89h-97l39 95h-36v100z" />
    <glyph glyph-name="uni0146" unicode="&#x146;" horiz-adv-x="653" 
d="M259 468q27 40 69.5 61t97.5 21q50 0 84.5 -14.5t55.5 -42.5t30 -67.5t9 -88.5v-337h-200v297q0 17 -2 33.5t-8.5 30t-19.5 21.5t-35 8q-37 0 -59 -24.5t-22 -83.5v-282h-200v538h200v-70zM259 -36h149v-106l-55 -89h-97l39 95h-36v100z" />
    <glyph glyph-name="Ncaron" unicode="&#x147;" horiz-adv-x="802" 
d="M480 0l-222 462v-462h-193v725h257l223 -461v461h193v-725h-258zM149 886h196l55 -50l58 50h195l-140 -113h-227z" />
    <glyph glyph-name="ncaron" unicode="&#x148;" horiz-adv-x="653" 
d="M259 468q27 40 69.5 61t97.5 21q50 0 84.5 -14.5t55.5 -42.5t30 -67.5t9 -88.5v-337h-200v297q0 17 -2 33.5t-8.5 30t-19.5 21.5t-35 8q-37 0 -59 -24.5t-22 -83.5v-282h-200v538h200v-70zM108 725h161l62 -57l63 57h163l-136 -116h-182z" />
    <glyph glyph-name="Eng" unicode="&#x14a;" horiz-adv-x="797" 
d="M274 451v-451h-209v725h272l187 -330v330h209v-716q0 -63 -10.5 -99.5t-35 -55.5t-65.5 -24t-101 -5h-91v151h35q28 0 43.5 7.5t15.5 26.5v8z" />
    <glyph glyph-name="eng" unicode="&#x14b;" horiz-adv-x="653" 
d="M405 297q0 17 -2 33.5t-9 30t-20 21.5t-35 8q-37 0 -58.5 -24.5t-21.5 -83.5v-282h-200v538h200v-70q27 40 69.5 61t97.5 21q54 0 88.5 -14.5t55 -42.5t28 -67.5t7.5 -88.5v-343q0 -56 -10.5 -89t-34 -51t-62 -23.5t-94.5 -5.5h-75v134h37q19 0 29 7.5t10 30.5v300z" />
    <glyph glyph-name="Omacron" unicode="&#x14c;" horiz-adv-x="804" 
d="M239 364q0 -54 13.5 -92t36.5 -62.5t52 -36t61 -11.5q31 0 60.5 11.5t52.5 36t36.5 62.5t13.5 92t-13.5 92t-36.5 63t-52.5 36.5t-60.5 11.5q-32 0 -61 -11.5t-52 -36.5t-36.5 -63t-13.5 -92zM782 364q0 -90 -28 -160t-78.5 -118t-120.5 -73.5t-153 -25.5t-153 25.5
t-120.5 73.5t-78.5 118t-28 160t28 160t78.5 118.5t120.5 74t153 25.5t153 -25.5t120.5 -74t78.5 -118.5t28 -160zM224 783v95h356v-95h-356z" />
    <glyph glyph-name="omacron" unicode="&#x14d;" horiz-adv-x="640" 
d="M320 405q-38 0 -64 -30t-26 -105q0 -38 7 -63.5t19 -41t28.5 -22.5t35.5 -7t35.5 7t28.5 22.5t19 41t7 63.5q0 75 -26 105t-64 30zM320 -13q-60 0 -114 17.5t-94.5 53t-64 88.5t-23.5 124t23.5 124t64 88.5t94.5 53.5t114 18t113.5 -18t94 -53.5t64.5 -88.5t24 -124
t-24 -124t-64.5 -88.5t-94 -53t-113.5 -17.5zM163 621v104h313v-104h-313z" />
    <glyph glyph-name="Obreve" unicode="&#x14e;" horiz-adv-x="804" 
d="M239 364q0 -54 13.5 -92t36.5 -62.5t52 -36t61 -11.5q31 0 60.5 11.5t52.5 36t36.5 62.5t13.5 92t-13.5 92t-36.5 63t-52.5 36.5t-60.5 11.5q-32 0 -61 -11.5t-52 -36.5t-36.5 -63t-13.5 -92zM782 364q0 -90 -28 -160t-78.5 -118t-120.5 -73.5t-153 -25.5t-153 25.5
t-120.5 73.5t-78.5 118t-28 160t28 160t78.5 118.5t120.5 74t153 25.5t153 -25.5t120.5 -74t78.5 -118.5t28 -160zM593 886q-6 -62 -52 -90t-140 -28q-91 0 -138 28t-52 90h129q6 -36 61 -36q57 0 63 36h129z" />
    <glyph glyph-name="obreve" unicode="&#x14f;" horiz-adv-x="640" 
d="M320 405q-38 0 -64 -30t-26 -105q0 -38 7 -63.5t19 -41t28.5 -22.5t35.5 -7t35.5 7t28.5 22.5t19 41t7 63.5q0 75 -26 105t-64 30zM320 -13q-60 0 -114 17.5t-94.5 53t-64 88.5t-23.5 124t23.5 124t64 88.5t94.5 53.5t114 18t113.5 -18t94 -53.5t64.5 -88.5t24 -124
t-24 -124t-64.5 -88.5t-94 -53t-113.5 -17.5zM499 725q-5 -54 -50 -87t-131 -33q-84 0 -129 33t-50 87h118q7 -31 62 -31q56 0 62 31h118z" />
    <glyph glyph-name="Ohungarumlaut" unicode="&#x150;" horiz-adv-x="804" 
d="M239 364q0 -54 13.5 -92t36.5 -62.5t52 -36t61 -11.5q31 0 60.5 11.5t52.5 36t36.5 62.5t13.5 92t-13.5 92t-36.5 63t-52.5 36.5t-60.5 11.5q-32 0 -61 -11.5t-52 -36.5t-36.5 -63t-13.5 -92zM782 364q0 -90 -28 -160t-78.5 -118t-120.5 -73.5t-153 -25.5t-153 25.5
t-120.5 73.5t-78.5 118t-28 160t28 160t78.5 118.5t120.5 74t153 25.5t153 -25.5t120.5 -74t78.5 -118.5t28 -160zM362 773h-178l103 113h234zM621 773h-178l104 113h233z" />
    <glyph glyph-name="ohungarumlaut" unicode="&#x151;" horiz-adv-x="640" 
d="M279 609h-160l95 116h207zM519 609h-160l95 116h207zM320 405q-38 0 -64 -30t-26 -105q0 -38 7 -63.5t19 -41t28.5 -22.5t35.5 -7t35.5 7t28.5 22.5t19 41t7 63.5q0 75 -26 105t-64 30zM320 -13q-60 0 -114 17.5t-94.5 53t-64 88.5t-23.5 124t23.5 124t64 88.5t94.5 53.5
t114 18t113.5 -18t94 -53.5t64.5 -88.5t24 -124t-24 -124t-64.5 -88.5t-94 -53t-113.5 -17.5z" />
    <glyph glyph-name="OE" unicode="&#x152;" horiz-adv-x="1155" 
d="M579 53q-36 -31 -82.5 -48.5t-105.5 -17.5q-83 0 -151 25.5t-116.5 74.5t-75 119t-26.5 160t26.5 160t75 118t116.5 73t151 25q59 0 105.5 -17t82.5 -46v46h531v-179h-365v-92h347v-180h-347v-94h369v-180h-535v53zM564 366q0 54 -13.5 92t-36 62t-52 35.5t-60.5 11.5
q-32 0 -61 -11.5t-52 -35.5t-36.5 -62t-13.5 -92t13.5 -92.5t36.5 -63t52 -36.5t61 -12q31 0 60.5 12t52 36.5t36 63t13.5 92.5z" />
    <glyph glyph-name="oe" unicode="&#x153;" horiz-adv-x="1002" 
d="M695 417q-32 0 -59 -18.5t-35 -66.5h186q-2 24 -10.5 40.5t-21.5 26t-28.5 14t-31.5 4.5zM232 270q0 -38 7 -63.5t19 -41t28.5 -22.5t35.5 -7t35.5 7t28.5 22.5t19 41t7 63.5q0 37 -7 63t-19 42t-28.5 23t-35.5 7q-38 0 -64 -30t-26 -105zM973 181q-9 -30 -29.5 -64
t-53.5 -63t-80 -48t-110 -19q-64 0 -113 17t-83 48q-68 -65 -182 -65q-60 0 -114 17.5t-94.5 53t-64 88.5t-23.5 124t23.5 124t64 88.5t94.5 53.5t114 18q114 0 183 -66q34 32 81.5 49t104.5 17q71 0 126 -27.5t91.5 -73t53.5 -106t12 -126.5h-376q4 -40 31 -63.5t73 -23.5
q29 0 51.5 12.5t31.5 34.5h188z" />
    <glyph glyph-name="Racute" unicode="&#x154;" horiz-adv-x="750" 
d="M360 255h-86v-255h-209v725h300q71 0 132 -10t105.5 -36.5t69.5 -71.5t25 -115q0 -78 -36 -126t-93 -74l172 -292h-235zM274 556v-143h115q46 0 68 20t22 51t-22 51.5t-68 20.5h-115zM441 773h-178l103 113h234z" />
    <glyph glyph-name="racute" unicode="&#x155;" horiz-adv-x="429" 
d="M419 351q-11 2 -23.5 4t-26.5 2q-48 0 -79 -19t-31 -73v-265h-200v538h195v-103q16 50 56 78.5t84 28.5h12q8 0 13 -1v-190zM319 609h-160l95 116h207z" />
    <glyph glyph-name="uni0156" unicode="&#x156;" horiz-adv-x="750" 
d="M360 255h-86v-255h-209v725h300q71 0 132 -10t105.5 -36.5t69.5 -71.5t25 -115q0 -78 -36 -126t-93 -74l172 -292h-235zM274 556v-143h115q46 0 68 20t22 51t-22 51.5t-68 20.5h-115zM309 -36h149v-106l-55 -89h-97l39 95h-36v100z" />
    <glyph glyph-name="uni0157" unicode="&#x157;" horiz-adv-x="429" 
d="M419 351q-11 2 -23.5 4t-26.5 2q-48 0 -79 -19t-31 -73v-265h-200v538h195v-103q16 50 56 78.5t84 28.5h12q8 0 13 -1v-190zM87 -36h149v-106l-55 -89h-97l39 95h-36v100z" />
    <glyph glyph-name="Rcaron" unicode="&#x158;" horiz-adv-x="750" 
d="M360 255h-86v-255h-209v725h300q71 0 132 -10t105.5 -36.5t69.5 -71.5t25 -115q0 -78 -36 -126t-93 -74l172 -292h-235zM274 556v-143h115q46 0 68 20t22 51t-22 51.5t-68 20.5h-115zM130 886h196l55 -50l58 50h195l-140 -113h-227z" />
    <glyph glyph-name="rcaron" unicode="&#x159;" horiz-adv-x="429" 
d="M419 351q-11 2 -23.5 4t-26.5 2q-48 0 -79 -19t-31 -73v-265h-200v538h195v-103q16 50 56 78.5t84 28.5h12q8 0 13 -1v-190zM16 725h161l62 -57l63 57h163l-136 -116h-182z" />
    <glyph glyph-name="Sacute" unicode="&#x15a;" horiz-adv-x="706" 
d="M46 511q0 59 26.5 102.5t70 72t99 42.5t113.5 14q97 0 173 -21t145 -59l-88 -173q-20 12 -47 24t-58.5 21.5t-65 15.5t-66.5 6q-42 0 -65 -10t-23 -31q0 -32 60 -45l107 -22q51 -11 96.5 -26t80 -39t54.5 -60t20 -90q0 -62 -25 -108t-67.5 -76.5t-100.5 -46t-124 -15.5
q-115 0 -201 29.5t-147 74.5l103 169q23 -17 52 -32.5t61.5 -27t68 -18.5t70.5 -7q44 0 69.5 9t25.5 32t-28.5 36.5t-79.5 24.5l-82 17q-43 9 -83.5 24.5t-72.5 41t-51.5 62.5t-19.5 89zM434 773h-178l103 113h234z" />
    <glyph glyph-name="sacute" unicode="&#x15b;" horiz-adv-x="582" 
d="M485 357q-37 15 -88 29.5t-102 14.5q-26 0 -38 -7t-12 -16q0 -8 7.5 -17t34.5 -14l70 -13q44 -8 81 -19.5t63.5 -29.5t41.5 -44.5t15 -64.5q0 -94 -69.5 -141.5t-187.5 -47.5q-100 0 -168 20.5t-113 48.5l74 139q37 -20 87.5 -37.5t110.5 -17.5q28 0 49 6.5t21 20.5
t-15 20.5t-47 12.5l-57 11q-42 7 -77.5 20t-61 33.5t-39.5 49t-14 66.5q0 42 20.5 74t55.5 53.5t81.5 33t98.5 11.5q39 0 75.5 -5t68 -13t56.5 -17.5t42 -18.5zM369 609h-160l95 116h207z" />
    <glyph glyph-name="Scircumflex" unicode="&#x15c;" horiz-adv-x="706" 
d="M46 511q0 59 26.5 102.5t70 72t99 42.5t113.5 14q97 0 173 -21t145 -59l-88 -173q-20 12 -47 24t-58.5 21.5t-65 15.5t-66.5 6q-42 0 -65 -10t-23 -31q0 -32 60 -45l107 -22q51 -11 96.5 -26t80 -39t54.5 -60t20 -90q0 -62 -25 -108t-67.5 -76.5t-100.5 -46t-124 -15.5
q-115 0 -201 29.5t-147 74.5l103 169q23 -17 52 -32.5t61.5 -27t68 -18.5t70.5 -7q44 0 69.5 9t25.5 32t-28.5 36.5t-79.5 24.5l-82 17q-43 9 -83.5 24.5t-72.5 41t-51.5 62.5t-19.5 89zM617 773h-196l-55 49l-58 -49h-195l140 113h227z" />
    <glyph glyph-name="scircumflex" unicode="&#x15d;" horiz-adv-x="582" 
d="M485 357q-37 15 -88 29.5t-102 14.5q-26 0 -38 -7t-12 -16q0 -8 7.5 -17t34.5 -14l70 -13q44 -8 81 -19.5t63.5 -29.5t41.5 -44.5t15 -64.5q0 -94 -69.5 -141.5t-187.5 -47.5q-100 0 -168 20.5t-113 48.5l74 139q37 -20 87.5 -37.5t110.5 -17.5q28 0 49 6.5t21 20.5
t-15 20.5t-47 12.5l-57 11q-42 7 -77.5 20t-61 33.5t-39.5 49t-14 66.5q0 42 20.5 74t55.5 53.5t81.5 33t98.5 11.5q39 0 75.5 -5t68 -13t56.5 -17.5t42 -18.5zM534 609h-162l-61 57l-64 -57h-162l136 116h181z" />
    <glyph glyph-name="Scedilla" unicode="&#x15e;" horiz-adv-x="706" 
d="M46 511q0 59 26.5 102.5t70 72t99 42.5t113.5 14q97 0 173 -21t145 -59l-88 -173q-20 12 -47 24t-58.5 21.5t-65 15.5t-66.5 6q-42 0 -65 -10t-23 -31q0 -32 60 -45l107 -22q51 -11 96.5 -26t80 -39t54.5 -60t20 -90q0 -62 -25 -108t-67.5 -76.5t-100.5 -46t-124 -15.5
q-115 0 -201 29.5t-147 74.5l103 169q23 -17 52 -32.5t61.5 -27t68 -18.5t70.5 -7q44 0 69.5 9t25.5 32t-28.5 36.5t-79.5 24.5l-82 17q-43 9 -83.5 24.5t-72.5 41t-51.5 62.5t-19.5 89zM246 -133q9 -5 27.5 -9.5t38.5 -4.5t34 6t14 23q0 14 -11 21t-29 7q-8 0 -19 -2
t-19 -7l-30 17l51 83h62l-33 -52q13 4 37 4q15 0 31.5 -3.5t30 -11.5t22.5 -21t9 -32q0 -24 -11.5 -40t-31 -26.5t-44.5 -15t-51 -4.5q-53 0 -95 14z" />
    <glyph glyph-name="scedilla" unicode="&#x15f;" horiz-adv-x="582" 
d="M485 357q-37 15 -88 29.5t-102 14.5q-26 0 -38 -7t-12 -16q0 -8 7.5 -17t34.5 -14l70 -13q44 -8 81 -19.5t63.5 -29.5t41.5 -44.5t15 -64.5q0 -94 -69.5 -141.5t-187.5 -47.5q-100 0 -168 20.5t-113 48.5l74 139q37 -20 87.5 -37.5t110.5 -17.5q28 0 49 6.5t21 20.5
t-15 20.5t-47 12.5l-57 11q-42 7 -77.5 20t-61 33.5t-39.5 49t-14 66.5q0 42 20.5 74t55.5 53.5t81.5 33t98.5 11.5q39 0 75.5 -5t68 -13t56.5 -17.5t42 -18.5zM190 -133q9 -5 27.5 -9.5t38.5 -4.5t34 6t14 23q0 14 -11 21t-29 7q-8 0 -19 -2t-19 -7l-30 17l51 83h62
l-33 -52q13 4 37 4q15 0 31.5 -3.5t30 -11.5t22.5 -21t9 -32q0 -24 -11.5 -40t-31 -26.5t-44.5 -15t-51 -4.5q-53 0 -95 14z" />
    <glyph glyph-name="Scaron" unicode="&#x160;" horiz-adv-x="706" 
d="M46 511q0 59 26.5 102.5t70 72t99 42.5t113.5 14q97 0 173 -21t145 -59l-88 -173q-20 12 -47 24t-58.5 21.5t-65 15.5t-66.5 6q-42 0 -65 -10t-23 -31q0 -32 60 -45l107 -22q51 -11 96.5 -26t80 -39t54.5 -60t20 -90q0 -62 -25 -108t-67.5 -76.5t-100.5 -46t-124 -15.5
q-115 0 -201 29.5t-147 74.5l103 169q23 -17 52 -32.5t61.5 -27t68 -18.5t70.5 -7q44 0 69.5 9t25.5 32t-28.5 36.5t-79.5 24.5l-82 17q-43 9 -83.5 24.5t-72.5 41t-51.5 62.5t-19.5 89zM113 886h196l55 -50l58 50h195l-140 -113h-227z" />
    <glyph glyph-name="scaron" unicode="&#x161;" horiz-adv-x="582" 
d="M485 357q-37 15 -88 29.5t-102 14.5q-26 0 -38 -7t-12 -16q0 -8 7.5 -17t34.5 -14l70 -13q44 -8 81 -19.5t63.5 -29.5t41.5 -44.5t15 -64.5q0 -94 -69.5 -141.5t-187.5 -47.5q-100 0 -168 20.5t-113 48.5l74 139q37 -20 87.5 -37.5t110.5 -17.5q28 0 49 6.5t21 20.5
t-15 20.5t-47 12.5l-57 11q-42 7 -77.5 20t-61 33.5t-39.5 49t-14 66.5q0 42 20.5 74t55.5 53.5t81.5 33t98.5 11.5q39 0 75.5 -5t68 -13t56.5 -17.5t42 -18.5zM85 725h161l62 -57l63 57h163l-136 -116h-182z" />
    <glyph glyph-name="uni0162" unicode="&#x162;" horiz-adv-x="653" 
d="M221 546h-216v179h642v-179h-217v-546h-209v546zM253 -36h149v-106l-55 -89h-97l39 95h-36v100z" />
    <glyph glyph-name="uni0163" unicode="&#x163;" horiz-adv-x="480" 
d="M108 686h200v-148h137v-126h-137v-240q0 -23 9.5 -30t29.5 -7h98v-135h-138q-56 0 -94 4.5t-61 21t-33.5 49t-10.5 87.5v250h-108v126h108v148zM149 -36h149v-106l-55 -89h-97l39 95h-36v100z" />
    <glyph glyph-name="Tcaron" unicode="&#x164;" horiz-adv-x="653" 
d="M221 546h-216v179h642v-179h-217v-546h-209v546zM74 886h196l55 -50l58 50h195l-140 -113h-227z" />
    <glyph glyph-name="tcaron" unicode="&#x165;" horiz-adv-x="536" 
d="M486 583h-133l29 142h174zM108 686h200v-148h137v-126h-137v-240q0 -23 9.5 -30t29.5 -7h98v-135h-138q-56 0 -94 4.5t-61 21t-33.5 49t-10.5 87.5v250h-108v126h108v148z" />
    <glyph glyph-name="Tbar" unicode="&#x166;" horiz-adv-x="653" 
d="M221 280h-107v147h107v119h-216v179h642v-179h-217v-119h108v-147h-108v-280h-209v280z" />
    <glyph glyph-name="tbar" unicode="&#x167;" horiz-adv-x="522" 
d="M140 686h200v-148h137v-126h-137v-57h136v-126h-136v-57q0 -23 9.5 -30t29.5 -7h98v-135h-138q-56 0 -94 4.5t-61 21t-33.5 49t-10.5 87.5v67h-108v126h108v57h-108v126h108v148z" />
    <glyph glyph-name="Utilde" unicode="&#x168;" horiz-adv-x="762" 
d="M263 725v-425q0 -35 6 -60.5t19.5 -43t36 -26t56.5 -8.5q67 0 92.5 37t25.5 101v425h209v-404q0 -85 -17.5 -147.5t-56 -104t-100.5 -62t-151 -20.5q-86 0 -148 17t-102 56t-59.5 101.5t-19.5 152.5v411h209zM442 860q47 0 54 37h97q-7 -38 -24 -61t-38 -35t-43 -16
t-39 -4q-24 0 -42 6t-32 13l-27 12q-13 6 -28 6q-46 0 -53 -37h-97q7 37 24 60t38 35.5t43 16.5t39 4q24 0 41 -6t30 -12l27 -13q13 -6 30 -6z" />
    <glyph glyph-name="utilde" unicode="&#x169;" horiz-adv-x="645" 
d="M385 73q-23 -38 -60.5 -62t-94.5 -24q-45 0 -81.5 12.5t-59.5 40.5q-20 24 -30.5 64t-10.5 107v327h200v-287q0 -32 4 -49.5t11 -27.5q16 -21 50 -21t53 24.5t19 84.5v276h200v-538h-200v73zM376 692q44 0 53 44h97q-11 -63 -46 -95t-89 -32q-26 0 -45 7t-35 15l-29 15
q-13 7 -28 7q-43 0 -51 -44h-97q10 60 44 93.5t92 33.5q25 0 43 -7t32 -15l28 -15q14 -7 31 -7z" />
    <glyph glyph-name="Umacron" unicode="&#x16a;" horiz-adv-x="762" 
d="M263 725v-425q0 -35 6 -60.5t19.5 -43t36 -26t56.5 -8.5q67 0 92.5 37t25.5 101v425h209v-404q0 -85 -17.5 -147.5t-56 -104t-100.5 -62t-151 -20.5q-86 0 -148 17t-102 56t-59.5 101.5t-19.5 152.5v411h209zM203 783v95h356v-95h-356z" />
    <glyph glyph-name="umacron" unicode="&#x16b;" horiz-adv-x="645" 
d="M385 73q-23 -38 -60.5 -62t-94.5 -24q-45 0 -81.5 12.5t-59.5 40.5q-20 24 -30.5 64t-10.5 107v327h200v-287q0 -32 4 -49.5t11 -27.5q16 -21 50 -21t53 24.5t19 84.5v276h200v-538h-200v73zM160 621v104h313v-104h-313z" />
    <glyph glyph-name="Ubreve" unicode="&#x16c;" horiz-adv-x="762" 
d="M263 725v-425q0 -35 6 -60.5t19.5 -43t36 -26t56.5 -8.5q67 0 92.5 37t25.5 101v425h209v-404q0 -85 -17.5 -147.5t-56 -104t-100.5 -62t-151 -20.5q-86 0 -148 17t-102 56t-59.5 101.5t-19.5 152.5v411h209zM572 886q-6 -62 -52 -90t-140 -28q-91 0 -138 28t-52 90h129
q6 -36 61 -36q57 0 63 36h129z" />
    <glyph glyph-name="ubreve" unicode="&#x16d;" horiz-adv-x="645" 
d="M385 73q-23 -38 -60.5 -62t-94.5 -24q-45 0 -81.5 12.5t-59.5 40.5q-20 24 -30.5 64t-10.5 107v327h200v-287q0 -32 4 -49.5t11 -27.5q16 -21 50 -21t53 24.5t19 84.5v276h200v-538h-200v73zM496 725q-5 -54 -50 -87t-131 -33q-84 0 -129 33t-50 87h118q7 -31 62 -31
q56 0 62 31h118z" />
    <glyph glyph-name="Uring" unicode="&#x16e;" horiz-adv-x="762" 
d="M263 725v-425q0 -35 6 -60.5t19.5 -43t36 -26t56.5 -8.5q67 0 92.5 37t25.5 101v425h209v-404q0 -85 -17.5 -147.5t-56 -104t-100.5 -62t-151 -20.5q-86 0 -148 17t-102 56t-59.5 101.5t-19.5 152.5v411h209zM381 935q38 0 64.5 -24t26.5 -61q0 -38 -26.5 -61.5
t-64.5 -23.5t-64 23.5t-26 61.5q0 37 26.5 61t63.5 24zM381 893q-17 0 -30 -12t-13 -31t13 -30.5t30 -11.5t30 11.5t13 30.5t-13 31t-30 12z" />
    <glyph glyph-name="uring" unicode="&#x16f;" horiz-adv-x="645" 
d="M385 73q-23 -38 -60.5 -62t-94.5 -24q-45 0 -81.5 12.5t-59.5 40.5q-20 24 -30.5 64t-10.5 107v327h200v-287q0 -32 4 -49.5t11 -27.5q16 -21 50 -21t53 24.5t19 84.5v276h200v-538h-200v73zM317 785q19 0 36 -6.5t30 -18.5t20.5 -28.5t7.5 -35.5q0 -38 -27.5 -63.5
t-66.5 -25.5q-20 0 -37.5 6.5t-30 18.5t-20 28.5t-7.5 35.5q0 39 28 64t67 25zM317 737q-17 0 -29 -11.5t-12 -29.5q0 -17 12 -28.5t29 -11.5t29 11.5t12 28.5q0 18 -12 29.5t-29 11.5z" />
    <glyph glyph-name="Uhungarumlaut" unicode="&#x170;" horiz-adv-x="762" 
d="M263 725v-425q0 -35 6 -60.5t19.5 -43t36 -26t56.5 -8.5q67 0 92.5 37t25.5 101v425h209v-404q0 -85 -17.5 -147.5t-56 -104t-100.5 -62t-151 -20.5q-86 0 -148 17t-102 56t-59.5 101.5t-19.5 152.5v411h209zM341 773h-178l103 113h234zM600 773h-178l104 113h233z" />
    <glyph glyph-name="uhungarumlaut" unicode="&#x171;" horiz-adv-x="644" 
d="M276 609h-160l95 116h207zM516 609h-160l95 116h207zM385 73q-23 -38 -60.5 -62t-94.5 -24q-45 0 -81.5 12.5t-59.5 40.5q-20 24 -30.5 64t-10.5 107v327h200v-287q0 -32 4 -49.5t11 -27.5q16 -21 50 -21t53 24.5t19 84.5v276h200v-538h-200v73z" />
    <glyph glyph-name="Uogonek" unicode="&#x172;" horiz-adv-x="762" 
d="M419 -188q-30 0 -64 4t-62 14.5t-46.5 29t-18.5 47.5q0 27 16 48t42 38q-120 18 -176 93t-56 228v411h211v-425q0 -35 6 -60.5t19.5 -43t36 -26t56.5 -8.5q67 0 92.5 37t25.5 101v425h207v-404q0 -68 -10.5 -121t-34.5 -92.5t-63 -66.5t-96 -42q-38 -11 -62 -27t-24 -39
q0 -17 12.5 -23.5t32.5 -6.5q13 0 23.5 2t19.5 4v-87q-16 -3 -36.5 -6.5t-50.5 -3.5z" />
    <glyph glyph-name="uogonek" unicode="&#x173;" horiz-adv-x="645" 
d="M385 73q-23 -38 -60.5 -62t-94.5 -24q-45 0 -81.5 12.5t-59.5 40.5q-20 24 -30.5 64t-10.5 107v327h200v-287q0 -32 4 -49.5t11 -27.5q16 -21 50 -21t53 24.5t19 84.5v276h200v-538h-200v73zM585 0q-41 -16 -64 -29t-23 -36q0 -16 13.5 -23t31.5 -7q13 0 23 2t19 4v-89
l-36 -6q-20 -4 -50 -4t-62.5 3.5t-59.5 13.5t-44 28.5t-17 47.5q0 30 19 54t50 41h200z" />
    <glyph glyph-name="Wcircumflex" unicode="&#x174;" horiz-adv-x="985" 
d="M696 268l68 457h211l-142 -725h-243l-97 495l-98 -495h-242l-143 725h212l73 -451l84 451h227zM744 773h-196l-55 49l-58 -49h-195l140 113h227z" />
    <glyph glyph-name="wcircumflex" unicode="&#x175;" horiz-adv-x="879" 
d="M338 538h208l72 -339l69 339h192l-139 -538h-222l-76 342l-74 -342h-223l-145 538h198l75 -339zM664 609h-162l-61 57l-64 -57h-162l136 116h181z" />
    <glyph glyph-name="Ycircumflex" unicode="&#x176;" horiz-adv-x="731" 
d="M229 725l136 -253l138 253h244l-281 -445v-280h-209v282l-273 443h245zM617 773h-196l-55 49l-58 -49h-195l140 113h227z" />
    <glyph glyph-name="ycircumflex" unicode="&#x177;" horiz-adv-x="595" 
d="M58 -175v134h61q31 0 47 5t23 26l3 7l-192 541h199l101 -344l100 344h195l-183 -523q-22 -62 -50.5 -99.5t-63.5 -57.5t-77 -26.5t-91 -6.5h-72zM522 609h-162l-61 57l-64 -57h-162l136 116h181z" />
    <glyph glyph-name="Ydieresis" unicode="&#x178;" horiz-adv-x="731" 
d="M229 725l136 -253l138 253h244l-281 -445v-280h-209v282l-273 443h245zM335 886v-113h-169v113h169zM564 886v-113h-169v113h169z" />
    <glyph glyph-name="Zacute" unicode="&#x179;" horiz-adv-x="688" 
d="M639 546l-359 -366h372v-180h-626v180l359 366h-330v179h584v-179zM428 773h-178l103 113h234z" />
    <glyph glyph-name="zacute" unicode="&#x17a;" horiz-adv-x="579" 
d="M24 146l281 246h-261v146h502v-146l-281 -246h293v-146h-534v146zM371 609h-160l95 116h207z" />
    <glyph glyph-name="Zdotaccent" unicode="&#x17b;" horiz-adv-x="688" 
d="M639 546l-359 -366h372v-180h-626v180l359 366h-330v179h584v-179zM435 886v-113h-171v113h171z" />
    <glyph glyph-name="zdotaccent" unicode="&#x17c;" horiz-adv-x="579" 
d="M24 146l281 246h-261v146h502v-146l-281 -246h293v-146h-534v146zM374 725v-116h-166v116h166z" />
    <glyph glyph-name="Zcaron" unicode="&#x17d;" horiz-adv-x="688" 
d="M639 546l-359 -366h372v-180h-626v180l359 366h-330v179h584v-179zM107 886h196l55 -50l58 50h195l-140 -113h-227z" />
    <glyph glyph-name="zcaron" unicode="&#x17e;" horiz-adv-x="579" 
d="M24 146l281 246h-261v146h502v-146l-281 -246h293v-146h-534v146zM67 725h161l62 -57l63 57h163l-136 -116h-182z" />
    <glyph glyph-name="uni018F" unicode="&#x18f;" horiz-adv-x="798" 
d="M549 447q-2 32 -17 55t-37 37.5t-49.5 21t-54.5 6.5q-35 0 -69 -10.5t-56 -43.5h-223q19 62 55.5 105.5t84.5 71t104 40t113 12.5q83 0 152 -25t119 -73.5t78 -118.5t28 -160t-28 -160.5t-78 -118.5t-119 -73.5t-152 -25.5q-98 0 -173.5 34t-124.5 95t-68.5 145.5
t-5.5 185.5h521zM400 162q27 0 52.5 5.5t46 20t34.5 38.5t17 60h-302q4 -36 18.5 -60t36 -38.5t47 -20t50.5 -5.5z" />
    <glyph glyph-name="uni0218" unicode="&#x218;" horiz-adv-x="706" 
d="M46 511q0 59 26.5 102.5t70 72t99 42.5t113.5 14q97 0 173 -21t145 -59l-88 -173q-20 12 -47 24t-58.5 21.5t-65 15.5t-66.5 6q-42 0 -65 -10t-23 -31q0 -32 60 -45l107 -22q51 -11 96.5 -26t80 -39t54.5 -60t20 -90q0 -62 -25 -108t-67.5 -76.5t-100.5 -46t-124 -15.5
q-115 0 -201 29.5t-147 74.5l103 169q23 -17 52 -32.5t61.5 -27t68 -18.5t70.5 -7q44 0 69.5 9t25.5 32t-28.5 36.5t-79.5 24.5l-82 17q-43 9 -83.5 24.5t-72.5 41t-51.5 62.5t-19.5 89zM272 -36h149v-106l-55 -89h-97l39 95h-36v100z" />
    <glyph glyph-name="uni0219" unicode="&#x219;" horiz-adv-x="582" 
d="M485 357q-37 15 -88 29.5t-102 14.5q-26 0 -38 -7t-12 -16q0 -8 7.5 -17t34.5 -14l70 -13q44 -8 81 -19.5t63.5 -29.5t41.5 -44.5t15 -64.5q0 -94 -69.5 -141.5t-187.5 -47.5q-100 0 -168 20.5t-113 48.5l74 139q37 -20 87.5 -37.5t110.5 -17.5q28 0 49 6.5t21 20.5
t-15 20.5t-47 12.5l-57 11q-42 7 -77.5 20t-61 33.5t-39.5 49t-14 66.5q0 42 20.5 74t55.5 53.5t81.5 33t98.5 11.5q39 0 75.5 -5t68 -13t56.5 -17.5t42 -18.5zM216 -36h149v-106l-55 -89h-97l39 95h-36v100z" />
    <glyph glyph-name="uni021A" unicode="&#x21a;" horiz-adv-x="653" 
d="M221 546h-216v179h642v-179h-217v-546h-209v546zM253 -36h149v-106l-55 -89h-97l39 95h-36v100z" />
    <glyph glyph-name="uni021B" unicode="&#x21b;" horiz-adv-x="480" 
d="M108 686h200v-148h137v-126h-137v-240q0 -23 9.5 -30t29.5 -7h98v-135h-138q-56 0 -94 4.5t-61 21t-33.5 49t-10.5 87.5v250h-108v126h108v148zM149 -36h149v-106l-55 -89h-97l39 95h-36v100z" />
    <glyph glyph-name="uni0232" unicode="&#x232;" horiz-adv-x="731" 
d="M229 725l136 -253l138 253h244l-281 -445v-280h-209v282l-273 443h245zM187 783v95h356v-95h-356z" />
    <glyph glyph-name="uni0233" unicode="&#x233;" horiz-adv-x="595" 
d="M58 -175v134h61q31 0 47 5t23 26l3 7l-192 541h199l101 -344l100 344h195l-183 -523q-22 -62 -50.5 -99.5t-63.5 -57.5t-77 -26.5t-91 -6.5h-72zM141 621v104h313v-104h-313z" />
    <glyph glyph-name="uni0237" unicode="&#x237;" horiz-adv-x="318" 
d="M59 538h200v-534q0 -55 -10.5 -90t-34 -54.5t-61.5 -27t-94 -7.5h-75v134h36q19 0 29 7.5t10 30.5v541z" />
    <glyph glyph-name="uni0259" unicode="&#x259;" horiz-adv-x="633" 
d="M306 555q71 0 126.5 -21.5t94 -60t58.5 -92t20 -116.5q0 -65 -22.5 -117t-61.5 -88.5t-92 -56.5t-114 -20q-71 0 -127.5 26t-94.5 71.5t-56.5 106.5t-13.5 131h388q-5 40 -33.5 65t-74.5 25q-29 0 -55.5 -13t-35.5 -35h-188q9 30 30.5 64t56.5 63t83.5 48.5t111.5 19.5z
M302 120q16 0 32.5 4.5t31 15t25.5 27t16 40.5h-207q1 -24 11.5 -40.5t25.5 -27t32 -15t33 -4.5z" />
    <glyph glyph-name="circumflex" unicode="&#x2c6;" horiz-adv-x="493" 
d="M471 609h-162l-61 57l-64 -57h-162l136 116h181z" />
    <glyph glyph-name="caron" unicode="&#x2c7;" horiz-adv-x="493" 
d="M22 725h161l62 -57l63 57h163l-136 -116h-182z" />
    <glyph glyph-name="breve" unicode="&#x2d8;" horiz-adv-x="404" 
d="M382 725q-5 -54 -50 -87t-131 -33q-84 0 -129 33t-50 87h118q7 -31 62 -31q56 0 62 31h118z" />
    <glyph glyph-name="dotaccent" unicode="&#x2d9;" horiz-adv-x="210" 
d="M188 725v-116h-166v116h166z" />
    <glyph glyph-name="ring" unicode="&#x2da;" horiz-adv-x="233" 
d="M117 785q19 0 36 -6.5t30 -18.5t20.5 -28.5t7.5 -35.5q0 -38 -27.5 -63.5t-66.5 -25.5q-20 0 -37.5 6.5t-30 18.5t-20 28.5t-7.5 35.5q0 39 28 64t67 25zM117 737q-17 0 -29 -11.5t-12 -29.5q0 -17 12 -28.5t29 -11.5t29 11.5t12 28.5q0 18 -12 29.5t-29 11.5z" />
    <glyph glyph-name="ogonek" unicode="&#x2db;" horiz-adv-x="313" 
d="M291 0q-41 -16 -64 -29t-23 -36q0 -16 13.5 -23t31.5 -7q13 0 23 2t19 4v-89l-36 -6q-20 -4 -50 -4t-62.5 3.5t-59.5 13.5t-44 28.5t-17 47.5q0 30 19 54t50 41h200z" />
    <glyph glyph-name="tilde" unicode="&#x2dc;" horiz-adv-x="464" 
d="M292 692q44 0 53 44h97q-11 -63 -46 -95t-89 -32q-26 0 -45 7t-35 15l-29 15q-13 7 -28 7q-43 0 -51 -44h-97q10 60 44 93.5t92 33.5q25 0 43 -7t33 -15l28 -15q13 -7 30 -7z" />
    <glyph glyph-name="hungarumlaut" unicode="&#x2dd;" horiz-adv-x="586" 
d="M182 609h-160l95 116h207zM422 609h-160l95 116h207z" />
    <glyph glyph-name="uni032C" unicode="&#x32c;" horiz-adv-x="493" 
d="M22 0h172l51 -57l52 57h174l-141 -138h-171z" />
    <glyph glyph-name="uni0394" unicode="&#x394;" horiz-adv-x="717" 
d="M358 763l359 -763h-717zM358 395l-112 -235h223z" />
    <glyph glyph-name="uni0394" unicode="&#x2206;" horiz-adv-x="717" 
d="M358 763l359 -763h-717zM358 395l-112 -235h223z" />
    <glyph glyph-name="uni03A9" unicode="&#x3a9;" horiz-adv-x="777" 
d="M388 742q69 0 133 -18t113.5 -55t79.5 -93.5t30 -132.5q0 -42 -10 -80t-31.5 -69t-54.5 -53t-79 -31v-34h175v-176h-328v277q39 1 67 13.5t46 32.5t26.5 46.5t8.5 57.5q0 67 -46.5 107t-129.5 40t-129 -40t-46 -107q0 -31 8.5 -57.5t26.5 -46.5t45.5 -32.5t66.5 -13.5
v-277h-328v176h175v34q-46 9 -79 31t-54.5 53t-31.5 69t-10 80q0 76 30 132.5t79.5 93.5t113.5 55t133 18z" />
    <glyph glyph-name="uni03A9" unicode="&#x2126;" horiz-adv-x="777" 
d="M388 742q69 0 133 -18t113.5 -55t79.5 -93.5t30 -132.5q0 -42 -10 -80t-31.5 -69t-54.5 -53t-79 -31v-34h175v-176h-328v277q39 1 67 13.5t46 32.5t26.5 46.5t8.5 57.5q0 67 -46.5 107t-129.5 40t-129 -40t-46 -107q0 -31 8.5 -57.5t26.5 -46.5t45.5 -32.5t66.5 -13.5
v-277h-328v176h175v34q-46 9 -79 31t-54.5 53t-31.5 69t-10 80q0 76 30 132.5t79.5 93.5t113.5 55t133 18z" />
    <glyph glyph-name="pi" unicode="&#x3c0;" horiz-adv-x="749" 
d="M107 0v364h-75v174h684v-174h-75v-181q0 -23 9.5 -30.5t29.5 -7.5h36v-145h-76q-56 0 -94 4.5t-61.5 21t-33.5 49t-10 87.5v202h-134v-364h-200z" />
    <glyph glyph-name="Wgrave" unicode="&#x1e80;" horiz-adv-x="985" 
d="M696 268l68 457h211l-142 -725h-243l-97 495l-98 -495h-242l-143 725h212l73 -451l84 451h227zM244 886h233l104 -113h-178z" />
    <glyph glyph-name="wgrave" unicode="&#x1e81;" horiz-adv-x="879" 
d="M338 538h208l72 -339l69 339h192l-139 -538h-222l-76 342l-74 -342h-223l-145 538h198l75 -339zM217 725h208l94 -116h-160z" />
    <glyph glyph-name="Wacute" unicode="&#x1e82;" horiz-adv-x="985" 
d="M696 268l68 457h211l-142 -725h-243l-97 495l-98 -495h-242l-143 725h212l73 -451l84 451h227zM581 773h-178l103 113h234z" />
    <glyph glyph-name="wacute" unicode="&#x1e83;" horiz-adv-x="879" 
d="M338 538h208l72 -339l69 339h192l-139 -538h-222l-76 342l-74 -342h-223l-145 538h198l75 -339zM519 609h-160l95 116h207z" />
    <glyph glyph-name="Wdieresis" unicode="&#x1e84;" horiz-adv-x="985" 
d="M696 268l68 457h211l-142 -725h-243l-97 495l-98 -495h-242l-143 725h212l73 -451l84 451h227zM462 886v-113h-169v113h169zM691 886v-113h-169v113h169z" />
    <glyph glyph-name="wdieresis" unicode="&#x1e85;" horiz-adv-x="879" 
d="M338 538h208l72 -339l69 339h192l-139 -538h-222l-76 342l-74 -342h-223l-145 538h198l75 -339zM228 725h171v-116h-171v116zM650 725v-116h-170v116h170z" />
    <glyph glyph-name="uni1ECA" unicode="&#x1eca;" horiz-adv-x="339" 
d="M274 0h-209v725h209v-725zM252 -175h-166v119h166v-119z" />
    <glyph glyph-name="uni1ECB" unicode="&#x1ecb;" horiz-adv-x="318" 
d="M259 538v-538h-200v538h200zM259 725v-142h-200v142h200zM242 -175h-166v119h166v-119z" />
    <glyph glyph-name="uni1ECC" unicode="&#x1ecc;" horiz-adv-x="804" 
d="M239 364q0 -54 13.5 -92t36.5 -62.5t52 -36t61 -11.5q31 0 60.5 11.5t52.5 36t36.5 62.5t13.5 92t-13.5 92t-36.5 63t-52.5 36.5t-60.5 11.5q-32 0 -61 -11.5t-52 -36.5t-36.5 -63t-13.5 -92zM782 364q0 -90 -28 -160t-78.5 -118t-120.5 -73.5t-153 -25.5t-153 25.5
t-120.5 73.5t-78.5 118t-28 160t28 160t78.5 118.5t120.5 74t153 25.5t153 -25.5t120.5 -74t78.5 -118.5t28 -160zM485 -175h-166v119h166v-119z" />
    <glyph glyph-name="uni1ECD" unicode="&#x1ecd;" horiz-adv-x="640" 
d="M320 405q-38 0 -64 -30t-26 -105q0 -38 7 -63.5t19 -41t28.5 -22.5t35.5 -7t35.5 7t28.5 22.5t19 41t7 63.5q0 75 -26 105t-64 30zM320 -13q-60 0 -114 17.5t-94.5 53t-64 88.5t-23.5 124t23.5 124t64 88.5t94.5 53.5t114 18t113.5 -18t94 -53.5t64.5 -88.5t24 -124
t-24 -124t-64.5 -88.5t-94 -53t-113.5 -17.5zM402 -175h-166v119h166v-119z" />
    <glyph glyph-name="uni1EE4" unicode="&#x1ee4;" horiz-adv-x="762" 
d="M263 725v-425q0 -35 6 -60.5t19.5 -43t36 -26t56.5 -8.5q67 0 92.5 37t25.5 101v425h209v-404q0 -85 -17.5 -147.5t-56 -104t-100.5 -62t-151 -20.5q-86 0 -148 17t-102 56t-59.5 101.5t-19.5 152.5v411h209zM464 -175h-166v119h166v-119z" />
    <glyph glyph-name="uni1EE5" unicode="&#x1ee5;" horiz-adv-x="645" 
d="M385 73q-23 -38 -60.5 -62t-94.5 -24q-45 0 -81.5 12.5t-59.5 40.5q-20 24 -30.5 64t-10.5 107v327h200v-287q0 -32 4 -49.5t11 -27.5q16 -21 50 -21t53 24.5t19 84.5v276h200v-538h-200v73zM399 -175h-166v119h166v-119z" />
    <glyph glyph-name="Ygrave" unicode="&#x1ef2;" horiz-adv-x="731" 
d="M229 725l136 -253l138 253h244l-281 -445v-280h-209v282l-273 443h245zM117 886h233l104 -113h-178z" />
    <glyph glyph-name="ygrave" unicode="&#x1ef3;" horiz-adv-x="595" 
d="M58 -175v134h61q31 0 47 5t23 26l3 7l-192 541h199l101 -344l100 344h195l-183 -523q-22 -62 -50.5 -99.5t-63.5 -57.5t-77 -26.5t-91 -6.5h-72zM75 725h208l94 -116h-160z" />
    <glyph glyph-name="endash" unicode="&#x2013;" horiz-adv-x="565" 
d="M32 181v174h500v-174h-500z" />
    <glyph glyph-name="emdash" unicode="&#x2014;" horiz-adv-x="728" 
d="M32 181v174h664v-174h-664z" />
    <glyph glyph-name="quoteleft" unicode="&#x2018;" horiz-adv-x="314" 
d="M265 349h-217v221l87 155h148l-74 -167h56v-209z" />
    <glyph glyph-name="quoteright" unicode="&#x2019;" horiz-adv-x="314" 
d="M48 725h218v-222l-88 -155h-147l73 167h-56v210z" />
    <glyph glyph-name="quotesinglbase" unicode="&#x201a;" horiz-adv-x="314" 
d="M48 210h218v-222l-88 -155h-147l73 167h-56v210z" />
    <glyph glyph-name="quotedblleft" unicode="&#x201c;" horiz-adv-x="582" 
d="M534 349h-217v221l87 155h148l-74 -167h56v-209zM265 349h-217v221l87 155h148l-74 -167h56v-209z" />
    <glyph glyph-name="quotedblright" unicode="&#x201d;" horiz-adv-x="584" 
d="M318 725h218v-222l-88 -155h-147l73 167h-56v210zM48 725h218v-222l-88 -155h-147l73 167h-56v210z" />
    <glyph glyph-name="quotedblbase" unicode="&#x201e;" horiz-adv-x="584" 
d="M318 210h218v-222l-88 -155h-147l73 167h-56v210zM48 210h218v-222l-88 -155h-147l73 167h-56v210z" />
    <glyph glyph-name="dagger" unicode="&#x2020;" horiz-adv-x="652" 
d="M226 0v364h-194v174h194v187h200v-187h193v-174h-193v-364h-200z" />
    <glyph glyph-name="daggerdbl" unicode="&#x2021;" horiz-adv-x="652" 
d="M619 310v-174h-193v-136h-200v136h-194v174h194v103h-194v174h194v138h200v-138h193v-174h-193v-103h193z" />
    <glyph glyph-name="bullet" unicode="&#x2022;" horiz-adv-x="446" 
d="M43 279q0 37 14 69t38 56t56 38t68 14q39 0 73 -14t58.5 -38t38.5 -56t14 -69q0 -39 -14 -72.5t-38.5 -58t-58.5 -38.5t-73 -14q-36 0 -68 14t-56 38.5t-38 58t-14 72.5z" />
    <glyph glyph-name="ellipsis" unicode="&#x2026;" horiz-adv-x="939" 
d="M361 0v210h217v-210h-217zM674 0v210h217v-210h-217zM48 0v210h217v-210h-217z" />
    <glyph glyph-name="perthousand" unicode="&#x2030;" horiz-adv-x="1466" 
d="M1265 77q26 0 43.5 27.5t17.5 99.5q0 36 -4.5 60.5t-13 39.5t-19.5 21t-24 6q-14 0 -25.5 -6t-19.5 -21t-12.5 -39.5t-4.5 -60.5q0 -72 17 -99.5t45 -27.5zM1265 -8q-89 0 -134 56t-45 156t45 155.5t134 55.5q88 0 133 -55.5t45 -155.5t-45 -156t-133 -56zM199 394
q26 0 43.5 27.5t17.5 99.5q0 36 -4.5 60.5t-13 39.5t-19.5 21t-24 6q-14 0 -25.5 -6t-19.5 -21t-12.5 -39.5t-4.5 -60.5q0 -72 17 -99.5t45 -27.5zM199 309q-89 0 -134 56t-45 156t45 155.5t134 55.5q88 0 133 -55.5t45 -155.5t-45 -156t-133 -56zM200 0l500 725h166
l-500 -725h-166zM865 77q26 0 43.5 27.5t17.5 99.5q0 36 -4.5 60.5t-13 39.5t-19.5 21t-24 6q-14 0 -25.5 -6t-19.5 -21t-12.5 -39.5t-4.5 -60.5q0 -72 17 -99.5t45 -27.5zM865 -8q-89 0 -134 56t-45 156t45 155.5t134 55.5q88 0 133 -55.5t45 -155.5t-45 -156t-133 -56z
" />
    <glyph glyph-name="guilsinglleft" unicode="&#x2039;" horiz-adv-x="363" 
d="M-3 274l169 231h175l-119 -232l118 -232h-174z" />
    <glyph glyph-name="guilsinglright" unicode="&#x203a;" horiz-adv-x="363" 
d="M197 41h-174l118 232l-119 232h175l169 -231z" />
    <glyph glyph-name="fraction" unicode="&#x2044;" horiz-adv-x="266" 
d="M-200 0l500 725h166l-500 -725h-166z" />
    <glyph glyph-name="uni2070" unicode="&#x2070;" horiz-adv-x="400" 
d="M199 515q26 0 43.5 27.5t17.5 99.5q0 36 -4.5 60.5t-13 39.5t-19.5 21t-24 6q-14 0 -25.5 -6t-19.5 -21t-12.5 -39.5t-4.5 -60.5q0 -72 17 -99.5t45 -27.5zM199 430q-89 0 -134 56t-45 156t45 155.5t134 55.5q88 0 133 -55.5t45 -155.5t-45 -156t-133 -56z" />
    <glyph glyph-name="uni2074" unicode="&#x2074;" horiz-adv-x="399" 
d="M128 614h82v96zM387 518h-63v-80h-114v80h-195v86l209 242h100v-232h63v-96z" />
    <glyph glyph-name="uni2075" unicode="&#x2075;" horiz-adv-x="398" 
d="M196 515q30 0 46.5 17t16.5 43q0 25 -15.5 42.5t-43.5 17.5q-24 0 -40 -9t-24 -24l-102 8l31 236h284v-97h-188l-10 -58q17 16 41 22.5t50 6.5q59 0 96.5 -39t37.5 -106q0 -69 -47.5 -107t-125.5 -38q-35 0 -66 7.5t-55 23.5t-40 42t-20 64h109q4 -20 21 -36t44 -16z" />
    <glyph glyph-name="uni2076" unicode="&#x2076;" horiz-adv-x="390" 
d="M138 575q0 -29 17 -44.5t40 -15.5t39.5 15.5t16.5 44.5t-17 44t-39 15q-23 0 -40 -15t-17 -44zM201 769q-28 0 -47 -21.5t-19 -60.5q17 17 42 24t54 7q24 0 48 -8.5t43.5 -25.5t32 -43.5t12.5 -63.5q0 -36 -13 -63t-36 -46t-54.5 -28.5t-68.5 -9.5q-43 0 -75.5 14.5
t-54.5 41.5t-33 64.5t-11 83.5q0 47 11 87t34 69.5t58 46t83 16.5q72 0 110.5 -34t40.5 -85h-106q-2 17 -16.5 26t-34.5 9z" />
    <glyph glyph-name="uni2077" unicode="&#x2077;" horiz-adv-x="339" 
d="M10 846h332v-97q-85 -56 -127 -130t-39 -181h-125q-2 52 12.5 99t39 87t56 72t64.5 53h-213v97z" />
    <glyph glyph-name="uni2078" unicode="&#x2078;" horiz-adv-x="387" 
d="M193 853q79 0 120.5 -33t41.5 -78q0 -26 -10.5 -48.5t-30.5 -36.5q54 -34 54 -98q0 -28 -12.5 -51.5t-35.5 -41t-55.5 -27t-71.5 -9.5t-71 9.5t-55 27t-35.5 41t-12.5 51.5q0 31 13.5 56t41.5 42q-20 14 -31 36.5t-11 48.5q0 45 41.5 78t119.5 33zM193 614
q-26 0 -42 -13.5t-16 -34.5q0 -23 16 -37t42 -14q27 0 42.5 14t15.5 37q0 21 -15.5 34.5t-42.5 13.5zM243 728q0 19 -14 30t-36 11q-21 0 -34.5 -11t-13.5 -30q0 -18 13.5 -29t34.5 -11q22 0 36 11t14 29z" />
    <glyph glyph-name="uni2079" unicode="&#x2079;" horiz-adv-x="391" 
d="M189 515q27 0 46 21t19 62q-17 -17 -42 -24.5t-53 -7.5q-24 0 -48.5 8.5t-44 26t-32 44t-12.5 63.5q0 35 13 62t36 45.5t53.5 28t66.5 9.5q90 0 133.5 -53.5t43.5 -148.5q0 -48 -11 -88.5t-33.5 -70t-57 -46t-82.5 -16.5q-72 0 -111 34.5t-41 85.5h105q2 -18 17 -26.5
t35 -8.5zM251 709q0 29 -17 44.5t-40 15.5t-39 -15.5t-16 -44.5t17 -43.5t38 -14.5q23 0 40 14.5t17 43.5z" />
    <glyph glyph-name="uni207A" unicode="&#x207a;" horiz-adv-x="377" 
d="M132 438v103h-110v99h110v99h114v-99h110v-99h-110v-103h-114z" />
    <glyph glyph-name="uni207B" unicode="&#x207b;" horiz-adv-x="377" 
d="M356 640v-99h-334v99h334z" />
    <glyph glyph-name="uni207C" unicode="&#x207c;" horiz-adv-x="365" 
d="M22 609v100h322v-100h-322zM22 476v100h322v-100h-322z" />
    <glyph glyph-name="uni207D" unicode="&#x207d;" horiz-adv-x="214" 
d="M22 591q0 39 7.5 76.5t19.5 71t26 61t27 46.5h113q-17 -26 -31.5 -56.5t-25 -64t-16.5 -68t-6 -66.5t6 -67t16.5 -69t25 -66t31.5 -58h-113q-13 18 -27 47t-26 63.5t-19.5 73t-7.5 76.5z" />
    <glyph glyph-name="uni207E" unicode="&#x207e;" horiz-adv-x="214" 
d="M193 591q0 -38 -7.5 -76.5t-19.5 -73t-26 -63.5t-27 -47h-113q16 26 30.5 58t25.5 66t17 69t6 67t-6 66.5t-17 68t-25.5 64t-30.5 56.5h113q13 -19 27 -46.5t26 -61t19.5 -71t7.5 -76.5z" />
    <glyph glyph-name="uni207F" unicode="&#x207f;" horiz-adv-x="371" 
d="M147 705q28 41 95 41q23 0 43.5 -7t33.5 -21q12 -14 18 -37t6 -61v-182h-113v160q0 20 -2 29.5t-7 14.5q-5 7 -12.5 9.5t-16.5 2.5q-20 0 -32.5 -13.5t-12.5 -47.5v-155h-114v301h114v-34z" />
    <glyph glyph-name="uni2080" unicode="&#x2080;" horiz-adv-x="400" 
d="M199 -51q26 0 43.5 27.5t17.5 99.5q0 36 -4.5 60.5t-13 39.5t-19.5 21t-24 6q-14 0 -25.5 -6t-19.5 -21t-12.5 -39.5t-4.5 -60.5q0 -72 17 -99.5t45 -27.5zM199 -136q-89 0 -134 56t-45 156t45 155.5t134 55.5q88 0 133 -55.5t45 -155.5t-45 -156t-133 -56z" />
    <glyph glyph-name="uni2081" unicode="&#x2081;" horiz-adv-x="248" 
d="M94 -128v264h-91v82q53 2 78.5 16t36.5 46h89v-408h-113z" />
    <glyph glyph-name="uni2082" unicode="&#x2082;" horiz-adv-x="362" 
d="M187 287q33 0 61 -7t49 -21.5t33 -36.5t12 -53q0 -30 -12 -55.5t-34.5 -48.5t-54.5 -46.5t-71 -49.5h170v-97h-328v90l61 41q36 24 70 51t58.5 54.5t24.5 52.5q0 22 -12.5 32t-32.5 10q-26 0 -42.5 -18.5t-18.5 -56.5h-109q2 76 47.5 117.5t128.5 41.5z" />
    <glyph glyph-name="uni2083" unicode="&#x2083;" horiz-adv-x="386" 
d="M194 -51q27 0 40 11.5t13 27.5q0 24 -19 34.5t-60 10.5h-17v93h18q68 0 68 42q0 17 -15 26t-33 9q-23 0 -40 -10.5t-19 -40.5h-111q8 60 53 97.5t126 37.5q69 0 112 -29t43 -82q0 -33 -16 -56t-38 -33q29 -10 47.5 -35.5t18.5 -62.5q0 -30 -14 -53.5t-38 -39.5t-55 -24
t-65 -8q-80 0 -126.5 38.5t-52.5 105.5h110q5 -31 23.5 -45t46.5 -14z" />
    <glyph glyph-name="uni2084" unicode="&#x2084;" horiz-adv-x="399" 
d="M128 48h82v96zM387 -48h-63v-80h-114v80h-195v86l209 242h100v-232h63v-96z" />
    <glyph glyph-name="uni2085" unicode="&#x2085;" horiz-adv-x="398" 
d="M196 -51q30 0 46.5 17t16.5 43q0 25 -15.5 42.5t-43.5 17.5q-24 0 -40 -9t-24 -24l-102 8l31 236h284v-97h-188l-10 -58q17 16 41 22.5t50 6.5q59 0 96.5 -39t37.5 -106q0 -69 -47.5 -107t-125.5 -38q-35 0 -66 7.5t-55 23.5t-40 42t-20 64h109q4 -20 21 -36t44 -16z" />
    <glyph glyph-name="uni2086" unicode="&#x2086;" horiz-adv-x="390" 
d="M138 9q0 -29 17 -44.5t40 -15.5t39.5 15.5t16.5 44.5t-17 44t-39 15q-23 0 -40 -15t-17 -44zM201 203q-28 0 -47 -21.5t-19 -60.5q17 17 42 24t54 7q24 0 48 -8.5t43.5 -25.5t32 -43.5t12.5 -63.5q0 -36 -13 -63t-36 -46t-54.5 -28.5t-68.5 -9.5q-43 0 -75.5 14.5
t-54.5 41.5t-33 64.5t-11 83.5q0 47 11 87t34 69.5t58 46t83 16.5q72 0 110.5 -34t40.5 -85h-106q-2 17 -16.5 26t-34.5 9z" />
    <glyph glyph-name="uni2087" unicode="&#x2087;" horiz-adv-x="339" 
d="M10 280h332v-97q-85 -56 -127 -130t-39 -181h-125q-2 52 12.5 99t39 87t56 72t64.5 53h-213v97z" />
    <glyph glyph-name="uni2088" unicode="&#x2088;" horiz-adv-x="387" 
d="M193 287q79 0 120.5 -33t41.5 -78q0 -26 -10.5 -48.5t-30.5 -36.5q54 -34 54 -98q0 -28 -12.5 -51.5t-35.5 -41t-55.5 -27t-71.5 -9.5t-71 9.5t-55 27t-35.5 41t-12.5 51.5q0 31 13.5 56t41.5 42q-20 14 -31 36.5t-11 48.5q0 45 41.5 78t119.5 33zM193 48
q-26 0 -42 -13.5t-16 -34.5q0 -23 16 -37t42 -14q27 0 42.5 14t15.5 37q0 21 -15.5 34.5t-42.5 13.5zM243 162q0 19 -14 30t-36 11q-21 0 -34.5 -11t-13.5 -30q0 -18 13.5 -29t34.5 -11q22 0 36 11t14 29z" />
    <glyph glyph-name="uni2089" unicode="&#x2089;" horiz-adv-x="391" 
d="M189 -51q27 0 46 21t19 62q-17 -17 -42 -24.5t-53 -7.5q-24 0 -48.5 8.5t-44 26t-32 44t-12.5 63.5q0 35 13 62t36 45.5t53.5 28t66.5 9.5q90 0 133.5 -53.5t43.5 -148.5q0 -48 -11 -88.5t-33.5 -70t-57 -46t-82.5 -16.5q-72 0 -111 34.5t-41 85.5h105q2 -18 17 -26.5
t35 -8.5zM251 143q0 29 -17 44.5t-40 15.5t-39 -15.5t-16 -44.5t17 -43.5t38 -14.5q23 0 40 14.5t17 43.5z" />
    <glyph glyph-name="uni208D" unicode="&#x208d;" horiz-adv-x="214" 
d="M22 25q0 39 7.5 76.5t19.5 71t26 61t27 46.5h113q-17 -26 -31.5 -56.5t-25 -64t-16.5 -68t-6 -66.5t6 -67t16.5 -69t25 -66t31.5 -58h-113q-13 18 -27 47t-26 63.5t-19.5 73t-7.5 76.5z" />
    <glyph glyph-name="uni208E" unicode="&#x208e;" horiz-adv-x="214" 
d="M193 25q0 -38 -7.5 -76.5t-19.5 -73t-26 -63.5t-27 -47h-113q16 26 30.5 58t25.5 66t17 69t6 67t-6 66.5t-17 68t-25.5 64t-30.5 56.5h113q13 -19 27 -46.5t26 -61t19.5 -71t7.5 -76.5z" />
    <glyph glyph-name="Euro" unicode="&#x20ac;" horiz-adv-x="785" 
d="M321 263q5 -27 14.5 -50t25.5 -40t39.5 -27t56.5 -10q115 0 127 118h190q-1 -62 -24.5 -111t-65.5 -84t-99.5 -53.5t-127.5 -18.5q-137 0 -226 72.5t-115 203.5h-138l52 68h77q-1 9 -1 17v35h-120l51 69h75q22 137 110.5 213.5t234.5 76.5q70 0 127.5 -18.5t98.5 -53
t64 -84t24 -110.5h-190q-7 57 -37 87.5t-90 30.5q-35 0 -59 -11t-39.5 -30.5t-24.5 -45t-13 -55.5h226l-52 -69h-178v-52h154l-52 -68h-95z" />
    <glyph glyph-name="uni2113" unicode="&#x2113;" horiz-adv-x="572" 
d="M331 -13q-44 0 -81 8t-65 26.5t-46 49.5t-24 77l-58 -40l-57 87l112 80v215q0 67 19 114t52 76.5t77 43t93 13.5q90 0 138.5 -41t48.5 -115q0 -45 -13.5 -80.5t-40.5 -68.5t-67.5 -66t-94.5 -71l-12 -9v-63q0 -48 16.5 -67.5t50.5 -19.5q27 0 49.5 10.5t42.5 25.5
l67 -110q-12 -11 -32.5 -24.5t-47.5 -24.5t-59 -18.5t-68 -7.5zM312 417q38 29 63.5 65.5t25.5 71.5q0 21 -9.5 33.5t-33.5 12.5q-26 0 -36 -19t-10 -58v-106z" />
    <glyph glyph-name="uni2116" unicode="&#x2116;" horiz-adv-x="1201" 
d="M1153 534q0 -53 -14 -91.5t-39.5 -63.5t-60 -37t-76.5 -12q-41 0 -75 12t-59.5 37t-39.5 63.5t-14 91.5t14 91.5t39.5 63t59.5 36.5t75 12t76 -12t60.5 -36.5t39.5 -63t14 -91.5zM1003 534q0 35 -8 53.5t-30 18.5q-23 0 -31.5 -18.5t-8.5 -53.5q0 -36 8.5 -54t31.5 -18
q22 0 30 18t8 54zM781 129v174h366v-174h-366zM480 0l-222 462v-462h-193v725h257l223 -461v461h193v-725h-258z" />
    <glyph glyph-name="uni2117" unicode="&#x2117;" horiz-adv-x="825" 
d="M38 361q0 84 29.5 153t80 119t119 77.5t146.5 27.5t146 -27.5t118.5 -77.5t80 -119t29.5 -153q0 -83 -29.5 -152t-80 -118.5t-118.5 -76.5t-146 -27t-146.5 27t-119 76.5t-80 118.5t-29.5 152zM121 361q0 -66 22.5 -121t62 -94.5t92.5 -61.5t115 -22q63 0 116 22t92 61.5
t61 94.5t22 121q0 67 -22 122.5t-61 95.5t-92 61.5t-116 21.5q-62 0 -115 -21.5t-92.5 -61.5t-62 -95.5t-22.5 -122.5zM377 318v-143h-108v400h160q40 0 74 -6t59 -20.5t39 -40t14 -64.5t-16 -64t-42 -38.5t-59.5 -18.5t-68.5 -5h-52zM507 444q0 17 -12 32t-39 15h-79v-90
h79q27 0 39 12.5t12 30.5z" />
    <glyph glyph-name="trademark" unicode="&#x2122;" horiz-adv-x="970" 
d="M142 625h-131v100h381v-100h-132v-299h-118v299zM625 326l-92 278v-278h-116v399h188l73 -256l83 256h176v-399h-116v280l-91 -280h-105z" />
    <glyph glyph-name="estimated" unicode="&#x212e;" horiz-adv-x="579" 
d="M537 151q-12 -35 -32.5 -64.5t-50.5 -52t-69.5 -35t-88.5 -12.5q-66 0 -116.5 22t-84 60t-51 89.5t-17.5 110.5q0 62 18.5 113.5t53 89t83.5 58t109 20.5q63 0 111 -22.5t81 -61t50 -89t18 -107.5h-409v-193q23 -25 67.5 -40t94.5 -15q71 0 120 34t73 95h40zM142 303h293
v159q-22 23 -59.5 38t-85.5 15q-46 0 -85 -13t-63 -39v-160z" />
    <glyph glyph-name="onethird" unicode="&#x2153;" horiz-adv-x="900" 
d="M94 317v264h-91v82q53 2 78.5 16t36.5 46h89v-408h-113zM48 0l500 725h166l-500 -725h-166zM708 77q27 0 40 11.5t13 27.5q0 24 -19 34.5t-60 10.5h-17v93h18q68 0 68 42q0 17 -15 26t-33 9q-23 0 -40 -10.5t-19 -40.5h-111q8 60 53 97.5t126 37.5q69 0 112 -29t43 -82
q0 -33 -16 -56t-38 -33q29 -10 47.5 -35.5t18.5 -62.5q0 -30 -14 -53.5t-38 -39.5t-55 -24t-65 -8q-80 0 -126.5 38.5t-52.5 105.5h110q5 -31 23.5 -45t46.5 -14z" />
    <glyph glyph-name="twothirds" unicode="&#x2154;" horiz-adv-x="1014" 
d="M187 732q33 0 61 -7t49 -21.5t33 -36.5t12 -53q0 -30 -12 -55.5t-34.5 -48.5t-54.5 -46.5t-71 -49.5h170v-97h-328v90l61 41q36 24 70 51t58.5 54.5t24.5 52.5q0 22 -12.5 32t-32.5 10q-26 0 -42.5 -18.5t-18.5 -56.5h-109q2 76 47.5 117.5t128.5 41.5zM162 0l500 725
h166l-500 -725h-166zM822 77q27 0 40 11.5t13 27.5q0 24 -19 34.5t-60 10.5h-17v93h18q68 0 68 42q0 17 -15 26t-33 9q-23 0 -40 -10.5t-19 -40.5h-111q8 60 53 97.5t126 37.5q69 0 112 -29t43 -82q0 -33 -16 -56t-38 -33q29 -10 47.5 -35.5t18.5 -62.5q0 -30 -14 -53.5
t-38 -39.5t-55 -24t-65 -8q-80 0 -126.5 38.5t-52.5 105.5h110q5 -31 23.5 -45t46.5 -14z" />
    <glyph glyph-name="uni2155" unicode="&#x2155;" horiz-adv-x="912" 
d="M94 317v264h-91v82q53 2 78.5 16t36.5 46h89v-408h-113zM48 0l500 725h166l-500 -725h-166zM710 77q30 0 46.5 17t16.5 43q0 25 -15.5 42.5t-43.5 17.5q-24 0 -40 -9t-24 -24l-102 8l31 236h284v-97h-188l-10 -58q17 16 41 22.5t50 6.5q59 0 96.5 -39t37.5 -106
q0 -69 -47.5 -107t-125.5 -38q-35 0 -66 7.5t-55 23.5t-40 42t-20 64h109q4 -20 21 -36t44 -16z" />
    <glyph glyph-name="uni2156" unicode="&#x2156;" horiz-adv-x="1026" 
d="M187 732q33 0 61 -7t49 -21.5t33 -36.5t12 -53q0 -30 -12 -55.5t-34.5 -48.5t-54.5 -46.5t-71 -49.5h170v-97h-328v90l61 41q36 24 70 51t58.5 54.5t24.5 52.5q0 22 -12.5 32t-32.5 10q-26 0 -42.5 -18.5t-18.5 -56.5h-109q2 76 47.5 117.5t128.5 41.5zM162 0l500 725
h166l-500 -725h-166zM824 77q30 0 46.5 17t16.5 43q0 25 -15.5 42.5t-43.5 17.5q-24 0 -40 -9t-24 -24l-102 8l31 236h284v-97h-188l-10 -58q17 16 41 22.5t50 6.5q59 0 96.5 -39t37.5 -106q0 -69 -47.5 -107t-125.5 -38q-35 0 -66 7.5t-55 23.5t-40 42t-20 64h109
q4 -20 21 -36t44 -16z" />
    <glyph glyph-name="uni2157" unicode="&#x2157;" horiz-adv-x="1050" 
d="M194 394q27 0 40 11.5t13 27.5q0 24 -19 34.5t-60 10.5h-17v93h18q68 0 68 42q0 17 -15 26t-33 9q-23 0 -40 -10.5t-19 -40.5h-111q8 60 53 97.5t126 37.5q69 0 112 -29t43 -82q0 -33 -16 -56t-38 -33q29 -10 47.5 -35.5t18.5 -62.5q0 -30 -14 -53.5t-38 -39.5t-55 -24
t-65 -8q-80 0 -126.5 38.5t-52.5 105.5h110q5 -31 23.5 -45t46.5 -14zM186 0l500 725h166l-500 -725h-166zM848 77q30 0 46.5 17t16.5 43q0 25 -15.5 42.5t-43.5 17.5q-24 0 -40 -9t-24 -24l-102 8l31 236h284v-97h-188l-10 -58q17 16 41 22.5t50 6.5q59 0 96.5 -39
t37.5 -106q0 -69 -47.5 -107t-125.5 -38q-35 0 -66 7.5t-55 23.5t-40 42t-20 64h109q4 -20 21 -36t44 -16z" />
    <glyph glyph-name="uni2158" unicode="&#x2158;" horiz-adv-x="1063" 
d="M128 493h82v96zM387 397h-63v-80h-114v80h-195v86l209 242h100v-232h63v-96zM199 0l500 725h166l-500 -725h-166zM861 77q30 0 46.5 17t16.5 43q0 25 -15.5 42.5t-43.5 17.5q-24 0 -40 -9t-24 -24l-102 8l31 236h284v-97h-188l-10 -58q17 16 41 22.5t50 6.5
q59 0 96.5 -39t37.5 -106q0 -69 -47.5 -107t-125.5 -38q-35 0 -66 7.5t-55 23.5t-40 42t-20 64h109q4 -20 21 -36t44 -16z" />
    <glyph glyph-name="uni2159" unicode="&#x2159;" horiz-adv-x="904" 
d="M94 317v264h-91v82q53 2 78.5 16t36.5 46h89v-408h-113zM48 0l500 725h166l-500 -725h-166zM652 137q0 -29 17 -44.5t40 -15.5t39.5 15.5t16.5 44.5t-17 44t-39 15q-23 0 -40 -15t-17 -44zM715 331q-28 0 -47 -21.5t-19 -60.5q17 17 42 24t54 7q24 0 48 -8.5t43.5 -25.5
t32 -43.5t12.5 -63.5q0 -36 -13 -63t-36 -46t-54.5 -28.5t-68.5 -9.5q-43 0 -75.5 14.5t-54.5 41.5t-33 64.5t-11 83.5q0 47 11 87t34 69.5t58 46t83 16.5q72 0 110.5 -34t40.5 -85h-106q-2 17 -16.5 26t-34.5 9z" />
    <glyph glyph-name="uni215A" unicode="&#x215a;" horiz-adv-x="1054" 
d="M196 394q30 0 46.5 17t16.5 43q0 25 -15.5 42.5t-43.5 17.5q-24 0 -40 -9t-24 -24l-102 8l31 236h284v-97h-188l-10 -58q17 16 41 22.5t50 6.5q59 0 96.5 -39t37.5 -106q0 -69 -47.5 -107t-125.5 -38q-35 0 -66 7.5t-55 23.5t-40 42t-20 64h109q4 -20 21 -36t44 -16z
M198 0l500 725h166l-500 -725h-166zM802 137q0 -29 17 -44.5t40 -15.5t39.5 15.5t16.5 44.5t-17 44t-39 15q-23 0 -40 -15t-17 -44zM865 331q-28 0 -47 -21.5t-19 -60.5q17 17 42 24t54 7q24 0 48 -8.5t43.5 -25.5t32 -43.5t12.5 -63.5q0 -36 -13 -63t-36 -46t-54.5 -28.5
t-68.5 -9.5q-43 0 -75.5 14.5t-54.5 41.5t-33 64.5t-11 83.5q0 47 11 87t34 69.5t58 46t83 16.5q72 0 110.5 -34t40.5 -85h-106q-2 17 -16.5 26t-34.5 9z" />
    <glyph glyph-name="oneeighth" unicode="&#x215b;" horiz-adv-x="901" 
d="M94 317v264h-91v82q53 2 78.5 16t36.5 46h89v-408h-113zM48 0l500 725h166l-500 -725h-166zM707 415q79 0 120.5 -33t41.5 -78q0 -26 -10.5 -48.5t-30.5 -36.5q54 -34 54 -98q0 -28 -12.5 -51.5t-35.5 -41t-55.5 -27t-71.5 -9.5t-71 9.5t-55 27t-35.5 41t-12.5 51.5
q0 31 13.5 56t41.5 42q-20 14 -31 36.5t-11 48.5q0 45 41.5 78t119.5 33zM707 176q-26 0 -42 -13.5t-16 -34.5q0 -23 16 -37t42 -14q27 0 42.5 14t15.5 37q0 21 -15.5 34.5t-42.5 13.5zM757 290q0 19 -14 30t-36 11q-21 0 -34.5 -11t-13.5 -30q0 -18 13.5 -29t34.5 -11
q22 0 36 11t14 29z" />
    <glyph glyph-name="threeeighths" unicode="&#x215c;" horiz-adv-x="1039" 
d="M194 394q27 0 40 11.5t13 27.5q0 24 -19 34.5t-60 10.5h-17v93h18q68 0 68 42q0 17 -15 26t-33 9q-23 0 -40 -10.5t-19 -40.5h-111q8 60 53 97.5t126 37.5q69 0 112 -29t43 -82q0 -33 -16 -56t-38 -33q29 -10 47.5 -35.5t18.5 -62.5q0 -30 -14 -53.5t-38 -39.5t-55 -24
t-65 -8q-80 0 -126.5 38.5t-52.5 105.5h110q5 -31 23.5 -45t46.5 -14zM186 0l500 725h166l-500 -725h-166zM845 415q79 0 120.5 -33t41.5 -78q0 -26 -10.5 -48.5t-30.5 -36.5q54 -34 54 -98q0 -28 -12.5 -51.5t-35.5 -41t-55.5 -27t-71.5 -9.5t-71 9.5t-55 27t-35.5 41
t-12.5 51.5q0 31 13.5 56t41.5 42q-20 14 -31 36.5t-11 48.5q0 45 41.5 78t119.5 33zM845 176q-26 0 -42 -13.5t-16 -34.5q0 -23 16 -37t42 -14q27 0 42.5 14t15.5 37q0 21 -15.5 34.5t-42.5 13.5zM895 290q0 19 -14 30t-36 11q-21 0 -34.5 -11t-13.5 -30q0 -18 13.5 -29
t34.5 -11q22 0 36 11t14 29z" />
    <glyph glyph-name="fiveeighths" unicode="&#x215d;" horiz-adv-x="1051" 
d="M196 394q30 0 46.5 17t16.5 43q0 25 -15.5 42.5t-43.5 17.5q-24 0 -40 -9t-24 -24l-102 8l31 236h284v-97h-188l-10 -58q17 16 41 22.5t50 6.5q59 0 96.5 -39t37.5 -106q0 -69 -47.5 -107t-125.5 -38q-35 0 -66 7.5t-55 23.5t-40 42t-20 64h109q4 -20 21 -36t44 -16z
M198 0l500 725h166l-500 -725h-166zM857 415q79 0 120.5 -33t41.5 -78q0 -26 -10.5 -48.5t-30.5 -36.5q54 -34 54 -98q0 -28 -12.5 -51.5t-35.5 -41t-55.5 -27t-71.5 -9.5t-71 9.5t-55 27t-35.5 41t-12.5 51.5q0 31 13.5 56t41.5 42q-20 14 -31 36.5t-11 48.5q0 45 41.5 78
t119.5 33zM857 176q-26 0 -42 -13.5t-16 -34.5q0 -23 16 -37t42 -14q27 0 42.5 14t15.5 37q0 21 -15.5 34.5t-42.5 13.5zM907 290q0 19 -14 30t-36 11q-21 0 -34.5 -11t-13.5 -30q0 -18 13.5 -29t34.5 -11q22 0 36 11t14 29z" />
    <glyph glyph-name="seveneighths" unicode="&#x215e;" horiz-adv-x="992" 
d="M10 725h332v-97q-85 -56 -127 -130t-39 -181h-125q-2 52 12.5 99t39 87t56 72t64.5 53h-213v97zM139 0l500 725h166l-500 -725h-166zM798 415q79 0 120.5 -33t41.5 -78q0 -26 -10.5 -48.5t-30.5 -36.5q54 -34 54 -98q0 -28 -12.5 -51.5t-35.5 -41t-55.5 -27t-71.5 -9.5
t-71 9.5t-55 27t-35.5 41t-12.5 51.5q0 31 13.5 56t41.5 42q-20 14 -31 36.5t-11 48.5q0 45 41.5 78t119.5 33zM798 176q-26 0 -42 -13.5t-16 -34.5q0 -23 16 -37t42 -14q27 0 42.5 14t15.5 37q0 21 -15.5 34.5t-42.5 13.5zM848 290q0 19 -14 30t-36 11q-21 0 -34.5 -11
t-13.5 -30q0 -18 13.5 -29t34.5 -11q22 0 36 11t14 29z" />
    <glyph glyph-name="uni215F" unicode="&#x215f;" horiz-adv-x="514" 
d="M94 317v264h-91v82q53 2 78.5 16t36.5 46h89v-408h-113zM48 0l500 725h166l-500 -725h-166z" />
    <glyph glyph-name="arrowleft" unicode="&#x2190;" horiz-adv-x="800" 
d="M292 186l137 -133l-98 -95l-311 311l311 311l98 -95l-137 -133h469v-166h-469z" />
    <glyph glyph-name="arrowup" unicode="&#x2191;" horiz-adv-x="800" 
d="M317 469l-133 -137l-95 98l311 311l311 -311l-95 -98l-133 137v-469h-166v469z" />
    <glyph glyph-name="arrowright" unicode="&#x2192;" horiz-adv-x="800" 
d="M508 352l-137 133l98 95l311 -311l-311 -311l-98 95l137 133h-469v166h469z" />
    <glyph glyph-name="arrowdown" unicode="&#x2193;" horiz-adv-x="800" 
d="M483 256l133 137l95 -98l-311 -311l-311 311l95 98l133 -137v469h166v-469z" />
    <glyph glyph-name="uni2196" unicode="&#x2196;" horiz-adv-x="800" 
d="M272 287v-189h-134v440h440v-134h-189l332 -331l-118 -118z" />
    <glyph glyph-name="uni2197" unicode="&#x2197;" horiz-adv-x="800" 
d="M411 403h-189v135h440v-440h-135v189l-330 -332l-118 118z" />
    <glyph glyph-name="uni2198" unicode="&#x2198;" horiz-adv-x="800" 
d="M527 251v189h135v-440h-440v135h189l-332 330l118 118z" />
    <glyph glyph-name="uni2199" unicode="&#x2199;" horiz-adv-x="800" 
d="M389 135h189v-135h-440v440h135v-189l330 332l118 -118z" />
    <glyph glyph-name="uni219E" unicode="&#x219e;" horiz-adv-x="800" 
d="M586 186l137 -133l-98 -95l-228 228h-105l137 -133l-98 -95l-311 311l311 311l98 -95l-137 -133h105l228 228l98 -95l-137 -133h175v-166h-175z" />
    <glyph glyph-name="uni219F" unicode="&#x219f;" horiz-adv-x="800" 
d="M317 175l-133 -137l-95 98l228 228v105l-133 -137l-95 98l311 311l311 -311l-95 -98l-133 137v-105l228 -228l-95 -98l-133 137v-175h-166v175z" />
    <glyph glyph-name="uni21A0" unicode="&#x21a0;" horiz-adv-x="800" 
d="M214 352l-137 133l98 95l228 -228h105l-137 133l98 95l311 -311l-311 -311l-98 95l137 133h-105l-228 -228l-98 95l137 133h-175v166h175z" />
    <glyph glyph-name="uni21A1" unicode="&#x21a1;" horiz-adv-x="800" 
d="M483 550l133 137l95 -98l-228 -228v-105l133 137l95 -98l-311 -311l-311 311l95 98l133 -137v105l-228 228l95 98l133 -137v175h166v-175z" />
    <glyph glyph-name="uni21A2" unicode="&#x21a2;" horiz-adv-x="800" 
d="M784 53l-98 -95l-228 228h-166l137 -133l-98 -95l-311 311l311 311l98 -95l-137 -133h166l228 228l98 -95l-218 -217z" />
    <glyph glyph-name="uni21A3" unicode="&#x21a3;" horiz-adv-x="800" 
d="M243 268l-218 217l98 95l228 -228h166l-137 133l98 95l311 -311l-311 -311l-98 95l137 133h-166l-228 -228l-98 95z" />
    <glyph glyph-name="uni21A4" unicode="&#x21a4;" horiz-adv-x="800" 
d="M595 0v186h-303l137 -133l-98 -95l-311 311l311 311l98 -95l-137 -133h303v186h166v-538h-166z" />
    <glyph glyph-name="uni21A5" unicode="&#x21a5;" horiz-adv-x="800" 
d="M131 166h186v303l-133 -137l-95 98l311 311l311 -311l-95 -98l-133 137v-303h186v-166h-538v166z" />
    <glyph glyph-name="uni21A6" unicode="&#x21a6;" horiz-adv-x="800" 
d="M205 538v-186h303l-137 133l98 95l311 -311l-311 -311l-98 95l137 133h-303v-186h-166v538h166z" />
    <glyph glyph-name="uni21A7" unicode="&#x21a7;" horiz-adv-x="800" 
d="M669 559h-186v-303l133 137l95 -98l-311 -311l-311 311l95 98l133 -137v303h-186v166h538v-166z" />
    <glyph glyph-name="uni21B0" unicode="&#x21b0;" horiz-adv-x="800" 
d="M595 186h-303l137 -133l-98 -95l-311 311l311 311l98 -95l-137 -133h469v-527h-166v361z" />
    <glyph glyph-name="uni21B1" unicode="&#x21b1;" horiz-adv-x="800" 
d="M39 -175v527h469l-137 133l98 95l311 -311l-311 -311l-98 95l137 133h-303v-361h-166z" />
    <glyph glyph-name="uni21B2" unicode="&#x21b2;" horiz-adv-x="800" 
d="M292 186l137 -133l-98 -95l-311 311l311 311l98 -95l-137 -133h303v373h166v-539h-469z" />
    <glyph glyph-name="uni21B3" unicode="&#x21b3;" horiz-adv-x="800" 
d="M205 725v-373h303l-137 133l98 95l311 -311l-311 -311l-98 95l137 133h-469v539h166z" />
    <glyph glyph-name="partialdiff" unicode="&#x2202;" horiz-adv-x="625" 
d="M398 263q0 60 -23 94t-65 34q-21 0 -36.5 -11t-25.5 -29t-15 -41t-5 -47t5 -47t15 -41t25.5 -28.5t36.5 -10.5q42 0 65 33t23 94zM301 -13q-64 0 -115.5 19t-88 54.5t-56 87t-19.5 116.5q0 66 18 117t49 86t72.5 53.5t88.5 18.5q45 0 81.5 -16.5t58.5 -44.5l1 1
q-12 34 -36 58t-55 39t-65 22t-66 7v141q112 -3 194 -37.5t135.5 -92t79.5 -134t26 -162.5q0 -83 -24.5 -145t-66 -104t-96.5 -63t-116 -21z" />
    <glyph glyph-name="product" unicode="&#x220f;" horiz-adv-x="749" 
d="M65 -175v900h620v-900h-200v726h-220v-726h-200z" />
    <glyph glyph-name="summation" unicode="&#x2211;" horiz-adv-x="652" 
d="M332 275l-300 276v174h587v-174h-349l297 -276l-297 -276h349v-174h-587v174z" />
    <glyph glyph-name="minus" unicode="&#x2212;" 
d="M633 356v-174h-587v174h587z" />
    <glyph glyph-name="radical" unicode="&#x221a;" horiz-adv-x="657" 
d="M251 300l100 -249l119 674h187l-164 -900h-226l-130 297l-96 -29l-41 131z" />
    <glyph glyph-name="infinity" unicode="&#x221e;" horiz-adv-x="773" 
d="M560 90q-57 0 -97.5 25.5t-75.5 61.5q-34 -35 -75.5 -60.5t-100.5 -25.5q-40 0 -73 12.5t-56.5 35.5t-36.5 54.5t-13 69.5q0 37 13.5 68.5t38 54.5t58.5 35.5t76 12.5q53 0 93 -22.5t75 -58.5q35 36 75.5 58.5t92.5 22.5q42 0 76 -12.5t58.5 -35.5t38 -54.5t13.5 -68.5
q0 -38 -13 -70t-36.5 -55t-57 -35.5t-73.5 -12.5zM218 207q30 0 53 16.5t42 39.5q-20 22 -42 38.5t-51 16.5q-28 0 -47 -15t-19 -39q0 -25 17.5 -41t46.5 -16zM554 318q-29 0 -51 -16.5t-42 -38.5q20 -23 43 -39.5t52 -16.5q28 0 45.5 15.5t17.5 40.5q0 24 -18 39.5
t-47 15.5z" />
    <glyph glyph-name="integral" unicode="&#x222b;" horiz-adv-x="373" 
d="M109 433q0 96 15 156.5t40.5 95.5t60 48t73.5 13q20 0 39.5 -5.5t34.5 -16.5t24.5 -27t9.5 -38q0 -27 -16 -43.5t-44 -16.5q-9 0 -18.5 2.5t-18 9t-13.5 17.5t-5 28q0 13 3 27q-41 -8 -41 -118q0 -27 1.5 -48.5t4 -48.5t4 -65t1.5 -97v-173q0 -96 -15 -156.5t-40.5 -95.5
t-60 -48t-73.5 -13q-20 0 -39.5 5.5t-34.5 16.5t-24.5 27t-9.5 38q0 24 16 42t45 18q18 0 36 -12.5t18 -45.5q0 -13 -3 -26q22 5 30.5 34t8.5 84q0 38 -4.5 93t-4.5 123v216z" />
    <glyph glyph-name="approxequal" unicode="&#x2248;" 
d="M433 440q17 0 23.5 12.5t7.5 47.5h147q0 -52 -8 -93.5t-25.5 -71t-45.5 -45t-69 -15.5q-33 0 -64.5 9.5t-59.5 21.5l-51 21q-24 10 -40 10q-18 0 -25.5 -13t-8.5 -49h-147q0 52 8 93.5t26 71t47 45t70 15.5q34 0 67 -9.5t62 -20.5t51.5 -20.5t34.5 -9.5zM433 196
q17 0 23.5 12.5t7.5 47.5h147q0 -52 -8 -93.5t-25.5 -71t-45.5 -45t-69 -15.5q-33 0 -64.5 9.5t-59.5 21.5l-51 21q-24 10 -40 10q-18 0 -25.5 -13t-8.5 -49h-147q0 52 8 93.5t26 71t47 45t70 15.5q34 0 67 -9.5t62 -20.5t51.5 -20.5t34.5 -9.5z" />
    <glyph glyph-name="notequal" unicode="&#x2260;" 
d="M56 65v174h171l22 59h-193v174h257l32 88h207l-32 -88h102v-174h-165l-22 -59h187v-174h-250l-35 -97h-209l35 97h-107z" />
    <glyph glyph-name="lessequal" unicode="&#x2264;" 
d="M633 382v-194l-587 166v174l587 166v-194l-337 -59zM46 174h587v-174h-587v174z" />
    <glyph glyph-name="greaterequal" unicode="&#x2265;" 
d="M46 500v194l587 -166v-174l-587 -166v194l338 59zM46 0v174h587v-174h-587z" />
    <glyph glyph-name="filledbox" unicode="&#x25a0;" horiz-adv-x="624" 
d="M43 538h538v-538h-538v538z" />
    <glyph glyph-name="H22073" unicode="&#x25a1;" horiz-adv-x="624" 
d="M43 538h538v-538h-538v538zM209 166h206v206h-206v-206z" />
    <glyph glyph-name="lozenge" unicode="&#x25ca;" horiz-adv-x="596" 
d="M197 330l105 -155l105 155l-105 156zM301 771l295 -441l-295 -442l-301 442z" />
    <glyph glyph-name="circle" unicode="&#x25cb;" horiz-adv-x="602" 
d="M301 550q61 0 113 -22.5t89.5 -60.5t59 -89t21.5 -109t-21.5 -109.5t-59 -89.5t-89.5 -60.5t-113 -22.5t-113 22.5t-89.5 60.5t-59 89.5t-21.5 109.5t21.5 109t59 89t89.5 60.5t113 22.5zM301 387q-26 0 -47.5 -9.5t-37 -25.5t-24 -37.5t-8.5 -45.5t8.5 -46t24 -38
t37 -25.5t47.5 -9.5q25 0 46.5 9.5t37 25.5t24.5 38t9 46t-9 45.5t-24.5 37.5t-37 25.5t-46.5 9.5z" />
    <glyph glyph-name="H18533" unicode="&#x25cf;" horiz-adv-x="602" 
d="M301 550q61 0 113 -22.5t89.5 -60.5t59 -89t21.5 -109t-21.5 -109.5t-59 -89.5t-89.5 -60.5t-113 -22.5t-113 22.5t-89.5 60.5t-59 89.5t-21.5 109.5t21.5 109t59 89t89.5 60.5t113 22.5z" />
    <glyph glyph-name="uniFB01" unicode="&#xfb01;" horiz-adv-x="772" 
d="M712 538v-538h-200v538h200zM97 568q0 53 10 84.5t33.5 47.5t61.5 20.5t94 4.5h147v-127h-107q-22 0 -30 -6.5t-8 -26.5v-27h145v-126h-146v-412h-200v412h-97v126h97v30zM712 725v-142h-200v142h200z" />
    <glyph glyph-name="uniFB02" unicode="&#xfb02;" horiz-adv-x="772" 
d="M97 568q0 53 10 84.5t33.5 47.5t61.5 20.5t94 4.5h147v-127h-107q-22 0 -30 -6.5t-8 -26.5v-27h145v-126h-146v-412h-200v412h-97v126h97v30zM712 0h-200v725h200v-725z" />
    <glyph glyph-name="glyph1" horiz-adv-x="0" 
 />
    <glyph glyph-name="glyph2" horiz-adv-x="215" 
 />
    <glyph glyph-name="glyph360" horiz-adv-x="446" 
d="M43 279q0 37 14 69t38 56t56 38t68 14q39 0 73 -14t58.5 -38t38.5 -56t14 -69q0 -39 -14 -72.5t-38.5 -58t-58.5 -38.5t-73 -14q-36 0 -68 14t-56 38.5t-38 58t-14 72.5z" />
    <glyph glyph-name="glyph383" horiz-adv-x="319" 
d="M259 725v-142h-200v142h200z" />
    <glyph glyph-name="glyph384" horiz-adv-x="210" 
d="M188 -175h-166v119h166v-119z" />
    <glyph glyph-name="glyph386" horiz-adv-x="196" 
d="M25 -36h149v-106l-55 -89h-97l39 95h-36v100z" />
    <glyph glyph-name="glyph390" horiz-adv-x="237" 
d="M156 555h-134l20 170h173z" />
    <glyph glyph-name="zero.zero" horiz-adv-x="714" 
d="M357 -13q-77 0 -136 26.5t-98.5 75.5t-59.5 119t-20 157t20 157t59.5 118.5t98.5 75t136 26.5q78 0 136.5 -26.5t98 -75t59.5 -118.5t20 -157t-20 -157t-59.5 -119t-98 -75.5t-136.5 -26.5zM249 362l212 93q-11 76 -38.5 107.5t-65.5 31.5q-24 0 -43.5 -12t-34 -39
t-22.5 -70.5t-8 -107.5v-3zM357 136q23 0 43 11.5t34 37t22.5 67t9.5 102.5l-210 -92q11 -69 38 -97.5t63 -28.5z" />
    <glyph glyph-name="one.oldstyle" horiz-adv-x="436" 
d="M161 0v409h-150v142q53 1 86.5 8t54.5 20t32 31.5t19 41.5h158v-652h-200z" />
    <glyph glyph-name="two.oldstyle" horiz-adv-x="613" 
d="M323 663q54 0 101.5 -11t83 -34t56 -59.5t20.5 -88.5q0 -50 -20.5 -90.5t-57.5 -76t-88.5 -68t-114.5 -65.5h275v-170h-551v158l61 33q36 19 75.5 43.5t78 52t69.5 56t50 56.5t19 53q0 26 -17 43.5t-57 17.5q-47 0 -70 -29.5t-25 -81.5l-188 2q3 127 79.5 193t220.5 66z
" />
    <glyph glyph-name="three.oldstyle" horiz-adv-x="649" 
d="M320 137q45 0 63 16t18 37q0 29 -29.5 44t-96.5 15h-22v155h27q52 0 78.5 17.5t26.5 44.5q0 25 -24 36t-51 11q-36 0 -64.5 -20t-32.5 -70l-194 21q6 47 27.5 87t60 69.5t93.5 46t127 16.5q60 0 109 -14.5t83 -39.5t52.5 -59t18.5 -73q0 -53 -27.5 -86.5t-64.5 -50.5
q45 -15 78 -52t33 -98q0 -49 -24 -86.5t-64 -63t-93 -39t-111 -13.5q-70 0 -124.5 18.5t-92.5 50.5t-59.5 74.5t-25.5 90.5l193 18q7 -59 36 -81t76 -22z" />
    <glyph glyph-name="four.oldstyle" horiz-adv-x="643" 
d="M196 285h132v145zM636 115h-108v-115h-200v115h-320v155l346 382h174v-367h108v-170z" />
    <glyph glyph-name="five.oldstyle" horiz-adv-x="664" 
d="M336 137q45 0 68.5 22.5t23.5 60.5q0 34 -23 59.5t-75 25.5q-32 0 -58 -13t-38 -38l-178 14l54 384h485v-170h-317l-14 -77q23 17 60 30.5t92 13.5q50 0 90.5 -16t69 -45.5t44 -71.5t15.5 -94q0 -53 -20.5 -96t-58.5 -73.5t-92 -47.5t-121 -17q-120 0 -200 52.5
t-101 152.5l186 27q7 -33 33.5 -58t74.5 -25z" />
    <glyph glyph-name="six.oldstyle" horiz-adv-x="665" 
d="M245 223q0 -24 7.5 -40.5t20 -26.5t28 -14.5t32.5 -4.5q16 0 32 4.5t28 14.5t19.5 26.5t7.5 40.5q0 23 -7.5 39t-20 25.5t-28 13.5t-31.5 4q-34 0 -61 -19t-27 -63zM342 512q-43 0 -73.5 -30.5t-30.5 -84.5q29 32 72.5 43t90.5 11q37 0 76.5 -10.5t72.5 -36t54 -68.5
t21 -108q0 -60 -22 -105t-61 -75t-92.5 -45t-116.5 -15q-142 0 -218 85.5t-76 239.5q0 78 19.5 142.5t58.5 110.5t98 71.5t138 25.5q60 0 106.5 -14.5t79 -40t50 -60t17.5 -75.5l-182 -1q-4 17 -27 28.5t-55 11.5z" />
    <glyph glyph-name="seven.oldstyle" horiz-adv-x="546" 
d="M-3 652h565v-174q-69 -33 -122 -82.5t-88.5 -111.5t-52.5 -134t-14 -150h-220q-2 50 8.5 100.5t31 98.5t49 92t61.5 81t68.5 65.5t70.5 44.5h-357v170z" />
    <glyph glyph-name="eight.oldstyle" horiz-adv-x="680" 
d="M340 663q67 0 118 -15.5t85 -41t51.5 -58t17.5 -66.5q0 -44 -18 -80t-50 -54q43 -24 66 -62t23 -92q0 -40 -21 -77.5t-59 -66t-92 -45.5t-121 -17t-121.5 17t-92.5 45.5t-59 66t-21 77.5q0 54 23.5 92t65.5 62q-32 19 -49.5 56t-17.5 79q0 33 17 65.5t51 58t85 41
t119 15.5zM340 281q-42 0 -66.5 -20.5t-24.5 -50.5q0 -38 24.5 -55.5t66.5 -17.5t66 17.5t24 55.5q0 30 -24 50.5t-66 20.5zM414 452q0 29 -21 45t-53 16q-33 0 -53.5 -16t-20.5 -45t20.5 -44.5t53.5 -15.5q32 0 53 15.5t21 44.5z" />
    <glyph glyph-name="nine.oldstyle" horiz-adv-x="662" 
d="M415 430q0 24 -7.5 39.5t-20 25.5t-28.5 14t-33 4t-32.5 -4t-27.5 -14t-19.5 -25.5t-7.5 -39.5t8 -40t20.5 -25.5t28 -14t30.5 -4.5q34 0 61.5 20t27.5 64zM317 139q21 0 40 8t33 23t22 36t8 47q-28 -32 -71.5 -42.5t-89.5 -10.5q-38 0 -78 10.5t-73 36.5t-54 69.5
t-21 108.5q0 62 22.5 107t61.5 74t91.5 43t112.5 14q148 0 223 -81t75 -244q0 -79 -19 -143.5t-57 -110.5t-96.5 -71t-136.5 -25q-60 0 -107.5 14.5t-81 40t-51.5 60t-18 75.5l182 1q5 -20 28 -30t55 -10z" />
    <glyph glyph-name="zero.oldstyle" horiz-adv-x="664" 
d="M332 -12q-148 0 -223 87t-75 248q0 160 75.5 250t222.5 90t222 -90t75 -250q0 -161 -74.5 -248t-222.5 -87zM332 137q20 0 37 6.5t29 26.5t19 56.5t7 96.5t-7 97t-19 58t-29 28t-37 7t-37 -7t-29 -28t-19 -58t-7 -97t7 -96.5t19 -56.5t29 -26.5t37 -6.5z" />
    <glyph glyph-name="zero.oldstyle.zero" horiz-adv-x="664" 
d="M332 -12q-148 0 -223 87t-75 248q0 160 75.5 250t222.5 90t222 -90t75 -250q0 -161 -74.5 -248t-222.5 -87zM332 513q-20 0 -36.5 -7t-29 -26.5t-19.5 -55t-7 -92.5l178 78q-5 31 -13 51.5t-19 31.5t-25 15.5t-29 4.5zM332 137q19 0 35.5 6t29 24.5t19.5 52.5t8 89
l-178 -78q4 -29 12.5 -47.5t19.5 -29t24.5 -14t29.5 -3.5z" />
    <glyph glyph-name="one.tnum" 
d="M641 170v-170h-604v170h214v292h-214v145q63 1 107.5 7.5t74 19.5t47 33t28.5 47h157v-544h190z" />
    <glyph glyph-name="two.tnum" 
d="M356 742q57 0 106.5 -12t87 -37.5t59 -64.5t21.5 -93q0 -53 -22 -100.5t-62.5 -91.5t-98.5 -86.5t-130 -86.5h310v-170h-578v158l67 47l81 57q42 30 83 63.5t74 67.5t53 66.5t20 61.5q0 38 -26.5 55.5t-60.5 17.5q-46 0 -74 -32t-28 -99h-190q2 134 81.5 206.5
t226.5 72.5z" />
    <glyph glyph-name="three.tnum" 
d="M343 136q49 0 74 21t25 51q0 42 -34.5 58.5t-106.5 16.5h-30v161h33q60 0 89.5 23.5t29.5 59.5q0 34 -26 50.5t-59 16.5q-40 0 -72.5 -23.5t-36.5 -77.5h-194q9 123 93.5 186t226.5 63q60 0 110 -13.5t86 -39.5t56 -63t20 -83q0 -29 -7.5 -55.5t-20.5 -48t-30 -37.5
t-36 -25q52 -18 84 -61t32 -107q0 -55 -25 -96.5t-67.5 -69.5t-98 -42t-115.5 -14q-140 0 -223.5 68t-92.5 192h194q9 -61 40.5 -86t81.5 -25z" />
    <glyph glyph-name="four.tnum" 
d="M210 309h144v178zM666 139h-112v-139h-200v139h-342v150l367 436h175v-416h112v-170z" />
    <glyph glyph-name="five.tnum" 
d="M335 136q53 0 81.5 29t28.5 74t-27.5 75t-78.5 30q-43 0 -70 -15.5t-41 -42.5l-178 15l54 424h500v-169h-332l-16 -113q29 28 71 39t87 11q52 0 95.5 -17.5t75 -50.5t49.5 -80t18 -105q0 -60 -22 -107t-62.5 -79.5t-97 -49.5t-124.5 -17q-62 0 -117 15t-98 45t-70 76
t-33 108h192q7 -47 36.5 -71t78.5 -24z" />
    <glyph glyph-name="six.tnum" 
d="M242 243q0 -54 29.5 -80.5t69.5 -26.5q39 0 68.5 26.5t29.5 80.5q0 26 -8.5 46t-22 33.5t-31 20.5t-36.5 7q-40 0 -69.5 -27t-29.5 -80zM350 594q-24 0 -44.5 -10.5t-36.5 -30.5t-24.5 -48t-8.5 -64q29 31 73 44t94 13q42 0 85 -15t77.5 -45.5t56.5 -78t22 -113.5
q0 -63 -23 -111t-63.5 -81t-96 -50t-120.5 -17q-75 0 -132.5 25.5t-96 73t-58 114t-19.5 148.5q0 84 19.5 156t60 125t102 83t144.5 30q63 0 112 -16.5t83 -45t52 -67t19 -83.5h-185q-5 32 -31 48t-61 16z" />
    <glyph glyph-name="seven.tnum" 
d="M46 725h585v-169q-149 -98 -223.5 -233.5t-69.5 -322.5h-220q-3 90 22.5 174.5t69 156.5t99.5 129.5t114 95.5h-377v169z" />
    <glyph glyph-name="eight.tnum" 
d="M340 742q71 0 125 -16t90 -43.5t54.5 -63.5t18.5 -76q0 -45 -19 -85.5t-54 -66.5q96 -60 96 -174q0 -50 -22 -92t-62.5 -72.5t-98 -48t-128.5 -17.5t-128.5 17.5t-98 48t-62.5 72.5t-22 92q0 114 96 174q-35 26 -54 66.5t-19 85.5q0 40 18.5 76t55 63.5t90 43.5t124.5 16
zM340 320q-47 0 -77 -26t-30 -66q0 -44 30 -68t77 -24t76.5 24t29.5 68q0 40 -29.5 66t-76.5 26zM430 519q0 35 -26 55t-64 20t-64 -20t-26 -55q0 -36 26 -56.5t64 -20.5t64 20.5t26 56.5z" />
    <glyph glyph-name="nine.tnum" 
d="M436 486q0 54 -29.5 81t-69.5 27q-39 0 -68 -27t-29 -81q0 -26 8 -46t21.5 -33.5t31 -20t36.5 -6.5q40 0 69.5 26.5t29.5 79.5zM328 136q24 0 44.5 10.5t36.5 30t24.5 48t8.5 63.5q-29 -31 -73 -44t-94 -13q-42 0 -85 15t-77.5 46t-56.5 78.5t-22 112.5q0 63 23 111.5
t63.5 81t96 49.5t120.5 17q75 0 132.5 -25.5t96 -73t58 -114t19.5 -147.5q0 -84 -19.5 -156.5t-60 -125.5t-102 -83t-144.5 -30q-63 0 -112.5 16.5t-83 45t-51.5 67t-19 83.5h185q5 -32 31 -47.5t61 -15.5z" />
    <glyph glyph-name="zero.tnum" 
d="M340 -13q-77 0 -136 26.5t-98.5 75.5t-59.5 119t-20 157t20 157t59.5 118.5t98.5 75t136 26.5q78 0 136.5 -26.5t98 -75t59.5 -118.5t20 -157t-20 -157t-59.5 -119t-98 -75.5t-136.5 -26.5zM340 136q24 0 44 12t34.5 39t22.5 70.5t8 107.5t-8 107.5t-22.5 70.5t-34.5 39
t-44 12t-43.5 -12t-34 -39t-22.5 -70.5t-8 -107.5t8 -107.5t22.5 -70.5t34 -39t43.5 -12z" />
    <glyph glyph-name="zero.tnum.zero" 
d="M339 -13q-77 0 -136 26.5t-98.5 75.5t-59.5 119t-20 157t20 157t59.5 118.5t98.5 75t136 26.5q78 0 136.5 -26.5t98 -75t59.5 -118.5t20 -157t-20 -157t-59.5 -119t-98 -75.5t-136.5 -26.5zM231 362l211 93q-11 76 -38 107.5t-65 31.5q-24 0 -43.5 -12t-34 -39
t-22.5 -70.5t-8 -107.5v-3zM339 136q23 0 43 11.5t34 37t22.5 67t9.5 102.5l-210 -92q11 -69 38 -97.5t63 -28.5z" />
    <glyph glyph-name="one.case" horiz-adv-x="454" 
d="M170 0v469h-159v158q48 1 81.5 7.5t57 18.5t38.5 29.5t26 42.5h165v-725h-209z" />
    <glyph glyph-name="two.case" horiz-adv-x="646" 
d="M335 742q57 0 108 -10.5t89.5 -35.5t61 -65t22.5 -99q0 -55 -25 -106t-65 -96t-91 -83t-102 -67h277v-180h-583v174q31 13 71 35t81.5 48.5t82 57.5t72 62.5t50.5 62.5t19 59q0 40 -23.5 54t-55.5 14q-46 0 -74 -29t-30 -90h-197q3 140 81.5 217t230.5 77z" />
    <glyph glyph-name="three.case" horiz-adv-x="680" 
d="M336 162q48 0 68.5 18.5t20.5 41.5q0 30 -32.5 47t-104.5 17h-24v162h29q57 0 83.5 17t26.5 41q0 32 -24 46t-54 14q-19 0 -36.5 -3.5t-31 -13t-22.5 -25.5t-11 -41h-197q7 58 29 105.5t61 81.5t95 53t131 19q63 0 113.5 -16t86 -44t54.5 -65t19 -80q0 -58 -22 -98
t-51 -60q20 -11 37.5 -26t31 -36t21 -49t7.5 -65q0 -51 -25 -91t-67.5 -68t-98 -42.5t-116.5 -14.5q-73 0 -130.5 21t-98 57.5t-63.5 85t-26 104.5h201q11 -49 40 -71t80 -22z" />
    <glyph glyph-name="four.case" horiz-adv-x="679" 
d="M206 306h142v160zM672 126h-115v-126h-209v126h-340v171l368 417h181v-408h115v-180z" />
    <glyph glyph-name="five.case" horiz-adv-x="714" 
d="M353 162q106 0 106 87q0 38 -25.5 63.5t-80.5 25.5q-40 0 -66 -15t-37 -39l-185 15l56 426h502v-179h-341l-13 -99q26 23 65 37.5t95 14.5q115 0 180.5 -65t65.5 -188q0 -57 -22 -105t-62 -82t-97 -53t-127 -19q-76 0 -133 18.5t-97 51.5t-63 78.5t-32 98.5h201
q8 -29 34.5 -50.5t75.5 -21.5z" />
    <glyph glyph-name="six.case" horiz-adv-x="697" 
d="M253 247q0 -22 8 -38t21.5 -26.5t31 -16t35.5 -5.5t35 5.5t30.5 16t21.5 26.5t8 38t-8.5 37t-22 25t-30.5 14.5t-34 4.5q-19 0 -36 -5t-30.5 -15t-21.5 -25.5t-8 -35.5zM367 576q-26 0 -48 -10.5t-38 -28.5t-24.5 -42.5t-8.5 -52.5q32 35 76.5 47t93.5 12
q40 0 82.5 -11.5t77.5 -40t57.5 -76t22.5 -119.5q0 -67 -23.5 -117t-65 -83.5t-98 -50t-122.5 -16.5q-75 0 -133 24.5t-97 71t-59.5 114t-20.5 152.5q0 87 20.5 159t61.5 124t103 81t146 29q63 0 111.5 -15.5t82 -43t52 -66t22.5 -84.5h-191q-5 16 -21.5 29.5t-58.5 13.5z
" />
    <glyph glyph-name="seven.case" horiz-adv-x="577" 
d="M-3 725h596v-180q-74 -35 -130 -93t-93.5 -130.5t-55 -155t-14.5 -166.5h-230q-3 93 19 177t63 154t98.5 124.5t125.5 89.5h-379v180z" />
    <glyph glyph-name="eight.case" horiz-adv-x="713" 
d="M357 742q71 0 124.5 -16t89.5 -43t54.5 -63t18.5 -76q0 -49 -18.5 -92.5t-53.5 -63.5q46 -25 70.5 -69t24.5 -104q0 -48 -22 -89.5t-62.5 -72t-98 -48.5t-127.5 -18q-71 0 -128 18t-98 48.5t-63 72t-22 89.5q0 60 24.5 104t71.5 69q-17 10 -30.5 27.5t-22.5 39t-14 44.5
t-5 46q0 40 18.5 76t54.5 63t89.5 42.5t124.5 15.5zM357 314q-45 0 -71.5 -21.5t-26.5 -53.5q0 -38 26.5 -59t71.5 -21t71 20.5t26 59.5q0 32 -26 53.5t-71 21.5zM438 503q0 32 -23 49.5t-58 17.5t-58 -17.5t-23 -49.5q0 -31 23 -49t58 -18t58 18t23 49z" />
    <glyph glyph-name="nine.case" horiz-adv-x="694" 
d="M437 486q0 26 -8 43.5t-21.5 28.5t-31 15.5t-35.5 4.5t-35 -4.5t-30 -15.5t-21 -28.5t-8 -43.5t8.5 -43.5t22 -28.5t30 -16t33.5 -5q18 0 35.5 5.5t31 16.5t21.5 29t8 42zM321 153q27 0 49.5 10.5t39 29.5t25 43.5t8.5 53.5q-30 -35 -75.5 -47t-94.5 -12q-41 0 -83.5 12
t-77 40.5t-57 76.5t-22.5 120q0 69 24 118.5t65 81.5t96 47t118 15q316 0 316 -359q0 -87 -20 -159.5t-60.5 -125t-102 -82t-145.5 -29.5q-63 0 -112.5 16t-84 43.5t-53.5 66t-22 83.5h191q5 -23 28.5 -33t49.5 -10z" />
    <glyph glyph-name="zero.case" horiz-adv-x="727" 
d="M364 -13q-74 0 -133.5 23t-101 69.5t-64 117t-22.5 166.5t22.5 167t64 118t101 70.5t133.5 23.5q73 0 132 -23.5t101 -70.5t64.5 -118t22.5 -167t-22.5 -166.5t-64.5 -117t-101 -69.5t-132 -23zM364 162q22 0 41 9.5t33 33t22.5 62t8.5 96.5t-8.5 97t-22.5 63t-33 34
t-41 10t-41.5 -10t-34 -34t-23 -63t-8.5 -97t8.5 -96.5t23 -62t34 -33t41.5 -9.5z" />
    <glyph glyph-name="zero.case.zero" horiz-adv-x="727" 
d="M364 -13q-74 0 -133.5 23t-101 69.5t-64 117t-22.5 166.5t22.5 167t64 118t101 70.5t133.5 23.5q73 0 132 -23.5t101 -70.5t64.5 -118t22.5 -167t-22.5 -166.5t-64.5 -117t-101 -69.5t-132 -23zM364 567q-22 0 -41.5 -10t-34 -34t-23 -63t-8.5 -97l205 91q-11 63 -38 88
t-60 25zM364 162q21 0 39.5 9.5t33 31.5t23 58.5t9.5 91.5l-203 -89q13 -57 39.5 -79.5t58.5 -22.5z" />
    <glyph glyph-name="a.superior" horiz-adv-x="348" 
d="M25 642q5 51 44.5 77.5t115.5 26.5q68 0 102.5 -28t33.5 -93v-63q-1 -28 0.5 -59t4.5 -65h-102l-1 36q-11 -18 -33 -31t-60 -13q-27 0 -48.5 8.5t-36.5 22.5t-22.5 32.5t-7.5 38.5q0 22 8 37.5t20 25.5q23 18 61 26t73 12l34 3v6q0 14 -9 21t-30 7q-14 0 -26.5 -5.5
t-14.5 -22.5h-106zM214 569l-37 -3q-27 -3 -37 -10.5t-10 -18.5t8 -19.5t25 -8.5q23 0 37 11t14 31v18z" />
    <glyph glyph-name="b.superior" horiz-adv-x="372" 
d="M33 846h114v-138q11 17 31 27.5t52 10.5q27 0 50 -10.5t40 -31t27 -50t10 -66.5q0 -38 -10 -67.5t-28 -49.5t-41.5 -30.5t-50.5 -10.5q-26 0 -47 9.5t-33 28.5v-30h-114v408zM194 661q-24 0 -37 -22t-13 -51t13 -51t37 -22q25 0 35.5 23t10.5 51q0 13 -2.5 26t-8 23
t-14.5 16.5t-21 6.5z" />
    <glyph glyph-name="c.superior" horiz-adv-x="350" 
d="M177 746q69 0 111 -34t50 -94h-107q-4 20 -15.5 32t-31.5 12q-31 0 -42 -21t-11 -52t12 -53t41 -22q22 0 33 12.5t16 32.5h106q-8 -60 -50.5 -94.5t-108.5 -34.5q-81 0 -123 44t-42 114q0 35 12 64t33 50t51 32.5t66 11.5z" />
    <glyph glyph-name="d.superior" horiz-adv-x="379" 
d="M346 438h-114v30q-11 -15 -31 -26.5t-52 -11.5q-27 0 -50 11t-40 31t-27 49.5t-10 67.5q0 37 10 66.5t27.5 49.5t41 30.5t50.5 10.5q26 0 47.5 -9t33.5 -29v138h114v-408zM184 515q25 0 38 22t13 52q0 29 -13 50.5t-38 21.5q-24 0 -34.5 -23t-10.5 -50t10.5 -50t34.5 -23
z" />
    <glyph glyph-name="e.superior" horiz-adv-x="359" 
d="M182 430q-81 0 -124 45t-43 116q0 35 12.5 63.5t34.5 49t53 31.5t67 11q84 0 126.5 -50t34.5 -135h-214q2 -22 16 -34.5t39 -12.5q21 0 32.5 6.5t16.5 17.5h107q-3 -19 -14 -38.5t-30.5 -35t-48 -25t-65.5 -9.5zM182 670q-17 0 -32.5 -8.5t-19.5 -34.5h101q-2 25 -17 34
t-32 9z" />
    <glyph glyph-name="f.superior" horiz-adv-x="230" 
d="M47 750q0 30 5.5 49t19 29.5t35 14t53.5 3.5h61v-83h-39q-12 0 -16.5 -3.5t-4.5 -15.5v-5h60v-78h-61v-223h-113v223h-38v78h38v11z" />
    <glyph glyph-name="g.superior" horiz-adv-x="372" 
d="M225 480q-10 -15 -30 -26t-52 -11q-54 0 -91 38.5t-37 113.5t38 113t92 38q26 0 47 -9t33 -29v31h114v-297q0 -33 -11.5 -55.5t-31.5 -36.5q-22 -15 -51 -21.5t-64 -6.5q-76 0 -112 26.5t-42 77.5h106q3 -11 12.5 -20t34.5 -9q19 0 32 10q5 5 9 14t4 23v36zM177 527
q25 0 38.5 18.5t13.5 49.5q0 29 -13.5 47.5t-38.5 18.5q-24 0 -34.5 -19.5t-10.5 -47.5q0 -26 10.5 -46.5t34.5 -20.5z" />
    <glyph glyph-name="h.superior" horiz-adv-x="371" 
d="M147 705q28 41 95 41q23 0 43.5 -7t33.5 -21q12 -14 18 -37t6 -61v-182h-113v160q0 20 -2 29.5t-7 14.5q-5 7 -12.5 9.5t-16.5 2.5q-20 0 -32.5 -13.5t-12.5 -47.5v-155h-114v408h114v-141z" />
    <glyph glyph-name="i.superior" horiz-adv-x="181" 
d="M147 739v-301h-114v301h114zM147 846v-87h-114v87h114z" />
    <glyph glyph-name="j.superior" horiz-adv-x="181" 
d="M33 739h114v-304q0 -32 -6 -52t-19.5 -31.5t-35 -16t-53.5 -4.5h-42v83h19q11 0 17 4.5t6 17.5v303zM147 846v-87h-114v87h114z" />
    <glyph glyph-name="k.superior" horiz-adv-x="378" 
d="M147 846v-198l84 91h140l-111 -114l114 -187h-129l-64 107l-34 -35v-72h-114v408h114z" />
    <glyph glyph-name="l.superior" horiz-adv-x="181" 
d="M147 438h-114v408h114v-408z" />
    <glyph glyph-name="m.superior" horiz-adv-x="557" 
d="M33 739h114v-34q27 41 92 41q66 0 86 -52q16 24 40.5 38t64.5 14q51 0 75 -28q13 -14 19 -37t6 -60v-183h-114v158q0 15 -1.5 28t-9.5 21q-6 9 -23 9q-21 0 -32 -13.5t-11 -47.5v-155h-114v158q0 15 -2 28t-8 21q-9 9 -25 9q-21 0 -32 -13.5t-11 -47.5v-155h-114v301z
" />
    <glyph glyph-name="o.superior" horiz-adv-x="364" 
d="M132 588q0 -38 14 -55.5t36 -17.5t35.5 17.5t13.5 55.5t-13.5 55.5t-35.5 17.5t-36 -17.5t-14 -55.5zM15 588q0 40 13.5 70t36 49.5t53 29t64.5 9.5t64 -9.5t52.5 -29t35.5 -49.5t13 -70q0 -41 -13 -70.5t-35.5 -49t-52.5 -29t-64 -9.5t-64.5 9.5t-53 29t-36 49
t-13.5 70.5z" />
    <glyph glyph-name="p.superior" horiz-adv-x="372" 
d="M147 331h-114v408h114v-31q11 17 31 27.5t52 10.5q27 0 50 -10.5t40 -31t27 -50t10 -66.5q0 -38 -10 -67.5t-28 -49.5t-41.5 -30.5t-50.5 -10.5q-26 0 -47 9.5t-33 28.5v-137zM194 661q-24 0 -37 -22t-13 -51t13 -51t37 -22q25 0 35.5 23t10.5 51q0 13 -2.5 26t-8 23
t-14.5 16.5t-21 6.5z" />
    <glyph glyph-name="q.superior" horiz-adv-x="372" 
d="M225 739h114v-408h-114v137q-10 -15 -30 -26.5t-52 -11.5q-54 0 -91 42t-37 117q0 37 10 66.5t28 49.5t41.5 30.5t50.5 10.5q26 0 47 -9t33 -29v31zM177 515q25 0 38.5 22t13.5 52q0 29 -13.5 50.5t-38.5 21.5q-24 0 -34.5 -23t-10.5 -50t10.5 -50t34.5 -23z" />
    <glyph glyph-name="r.superior" horiz-adv-x="242" 
d="M235 630q-8 1 -17 2t-18 1q-21 0 -37 -8.5t-16 -33.5v-153h-114v301h111v-42q10 25 32 34.5t47 9.5h12v-111z" />
    <glyph glyph-name="s.superior" horiz-adv-x="328" 
d="M266 634q-21 13 -45.5 20.5t-56.5 7.5q-28 0 -28 -11q0 -4 4 -8.5t20 -6.5l40 -8q25 -4 46 -10.5t36 -17t23.5 -26t8.5 -37.5q0 -27 -12.5 -47t-33 -33.5t-48 -20t-57.5 -6.5q-52 0 -91.5 13.5t-63.5 31.5l46 79q19 -17 47 -28.5t62 -11.5q15 0 27.5 3.5t12.5 11.5
t-9 10.5t-27 6.5l-32 6q-49 9 -79.5 31t-30.5 66q0 24 11.5 42t32 30t47 18.5t56.5 6.5q48 0 81.5 -10t53.5 -23z" />
    <glyph glyph-name="t.superior" horiz-adv-x="243" 
d="M51 830h115v-91h60v-78h-60v-119q0 -13 5.5 -17t16.5 -4h38v-83h-60q-32 0 -54 2.5t-35.5 12.5t-19.5 28t-6 50v130h-49v78h49v91z" />
    <glyph glyph-name="u.superior" horiz-adv-x="369" 
d="M221 474q-13 -21 -34 -32.5t-53 -11.5q-26 0 -46.5 7.5t-33.5 23.5q-11 14 -17 37t-6 61v180h113v-161q0 -19 2 -29t7 -15q9 -12 28 -12t29.5 14t10.5 48v155h115v-301h-115v36z" />
    <glyph glyph-name="v.superior" horiz-adv-x="341" 
d="M173 552l46 187h119l-104 -301h-126l-105 301h122z" />
    <glyph glyph-name="w.superior" horiz-adv-x="506" 
d="M195 739h118l38 -187l33 187h118l-90 -301h-124l-34 172l-33 -172h-124l-94 301h122l36 -187z" />
    <glyph glyph-name="x.superior" horiz-adv-x="368" 
d="M247 592l118 -154h-127l-55 71l-55 -71h-125l118 152l-114 149h128l51 -67l52 67h123z" />
    <glyph glyph-name="y.superior" horiz-adv-x="340" 
d="M36 331v83h35q17 0 26 3t14 16l1 3l-109 303h122l47 -190l47 190h118l-116 -306q-11 -30 -23 -49.5t-28.5 -31t-39 -16.5t-53.5 -5h-41z" />
    <glyph glyph-name="z.superior" horiz-adv-x="340" 
d="M16 525l146 127h-134v87h285v-87l-144 -127h150v-87h-303v87z" />
    <glyph glyph-name="uni2070.aalt" horiz-adv-x="400" 
d="M201 430q-89 0 -134 55.5t-45 155.5t45 155.5t134 55.5q88 0 133 -55.5t45 -155.5t-45 -155.5t-133 -55.5zM201 768q-26 0 -42.5 -23t-19.5 -82l120 29q-6 43 -21.5 59.5t-36.5 16.5zM201 515q24 0 40.5 22t19.5 79l-119 -29q6 -41 21.5 -56.5t37.5 -15.5z" />
    <glyph glyph-name="period.superior" horiz-adv-x="167" 
d="M22 438v119h124v-119h-124z" />
    <glyph glyph-name="hyphen.superior" horiz-adv-x="228" 
d="M10 541v99h210v-99h-210z" />
    <glyph glyph-name="comma.superior" horiz-adv-x="167" 
d="M22 557h123v-125l-49 -90h-84l42 96h-32v119z" />
    <glyph glyph-name="a.inferior" horiz-adv-x="348" 
d="M25 76q5 51 44.5 77.5t115.5 26.5q68 0 102.5 -28t33.5 -93v-63q-1 -28 0.5 -59t4.5 -65h-102l-1 36q-11 -18 -33 -31t-60 -13q-27 0 -48.5 8.5t-36.5 22.5t-22.5 32.5t-7.5 38.5q0 22 8 37.5t20 25.5q23 18 61 26t73 12l34 3v6q0 14 -9 21t-30 7q-14 0 -26.5 -5.5
t-14.5 -22.5h-106zM214 3l-37 -3q-27 -3 -37 -10.5t-10 -18.5t8 -19.5t25 -8.5q23 0 37 11t14 31v18z" />
    <glyph glyph-name="b.inferior" horiz-adv-x="372" 
d="M33 280h114v-138q11 17 31 27.5t52 10.5q27 0 50 -10.5t40 -31t27 -50t10 -66.5q0 -38 -10 -67.5t-28 -49.5t-41.5 -30.5t-50.5 -10.5q-26 0 -47 9.5t-33 28.5v-30h-114v408zM194 95q-24 0 -37 -22t-13 -51t13 -51t37 -22q25 0 35.5 23t10.5 51q0 13 -2.5 26t-8 23
t-14.5 16.5t-21 6.5z" />
    <glyph glyph-name="c.inferior" horiz-adv-x="350" 
d="M177 180q69 0 111 -34t50 -94h-107q-4 20 -15.5 32t-31.5 12q-31 0 -42 -21t-11 -52t12 -53t41 -22q22 0 33 12.5t16 32.5h106q-8 -60 -50.5 -94.5t-108.5 -34.5q-81 0 -123 44t-42 114q0 35 12 64t33 50t51 32.5t66 11.5z" />
    <glyph glyph-name="d.inferior" horiz-adv-x="379" 
d="M346 -128h-114v30q-11 -15 -31 -26.5t-52 -11.5q-27 0 -50 11t-40 31t-27 49.5t-10 67.5q0 37 10 66.5t27.5 49.5t41 30.5t50.5 10.5q26 0 47.5 -9t33.5 -29v138h114v-408zM184 -51q25 0 38 22t13 52q0 29 -13 50.5t-38 21.5q-24 0 -34.5 -23t-10.5 -50t10.5 -50
t34.5 -23z" />
    <glyph glyph-name="e.inferior" horiz-adv-x="359" 
d="M182 -136q-81 0 -124 45t-43 116q0 35 12.5 63.5t34.5 49t53 31.5t67 11q84 0 126.5 -50t34.5 -135h-214q2 -22 16 -34.5t39 -12.5q21 0 32.5 6.5t16.5 17.5h107q-3 -19 -14 -38.5t-30.5 -35t-48 -25t-65.5 -9.5zM182 104q-17 0 -32.5 -8.5t-19.5 -34.5h101q-2 25 -17 34
t-32 9z" />
    <glyph glyph-name="f.inferior" horiz-adv-x="230" 
d="M47 184q0 30 5.5 49t19 29.5t35 14t53.5 3.5h61v-83h-39q-12 0 -16.5 -3.5t-4.5 -15.5v-5h60v-78h-61v-223h-113v223h-38v78h38v11z" />
    <glyph glyph-name="g.inferior" horiz-adv-x="372" 
d="M225 -86q-10 -15 -30 -26t-52 -11q-54 0 -91 38.5t-37 113.5t38 113t92 38q26 0 47 -9t33 -29v31h114v-297q0 -33 -11.5 -55.5t-31.5 -36.5q-22 -15 -51 -21.5t-64 -6.5q-76 0 -112 26.5t-42 77.5h106q3 -11 12.5 -20t34.5 -9q19 0 32 10q5 5 9 14t4 23v36zM177 -39
q25 0 38.5 18.5t13.5 49.5q0 29 -13.5 47.5t-38.5 18.5q-24 0 -34.5 -19.5t-10.5 -47.5q0 -26 10.5 -46.5t34.5 -20.5z" />
    <glyph glyph-name="h.inferior" horiz-adv-x="371" 
d="M147 139q28 41 95 41q23 0 43.5 -7t33.5 -21q12 -14 18 -37t6 -61v-182h-113v160q0 20 -2 29.5t-7 14.5q-5 7 -12.5 9.5t-16.5 2.5q-20 0 -32.5 -13.5t-12.5 -47.5v-155h-114v408h114v-141z" />
    <glyph glyph-name="i.inferior" horiz-adv-x="181" 
d="M147 173v-301h-114v301h114zM147 280v-87h-114v87h114z" />
    <glyph glyph-name="j.inferior" horiz-adv-x="181" 
d="M33 173h114v-304q0 -32 -6 -52t-19.5 -31.5t-35 -16t-53.5 -4.5h-42v83h19q11 0 17 4.5t6 17.5v303zM147 280v-87h-114v87h114z" />
    <glyph glyph-name="k.inferior" horiz-adv-x="378" 
d="M147 280v-198l84 91h140l-111 -114l114 -187h-129l-64 107l-34 -35v-72h-114v408h114z" />
    <glyph glyph-name="l.inferior" horiz-adv-x="181" 
d="M147 -128h-114v408h114v-408z" />
    <glyph glyph-name="m.inferior" horiz-adv-x="557" 
d="M33 173h114v-34q27 41 92 41q66 0 86 -52q16 24 40.5 38t64.5 14q51 0 75 -28q13 -14 19 -37t6 -60v-183h-114v158q0 15 -1.5 28t-9.5 21q-6 9 -23 9q-21 0 -32 -13.5t-11 -47.5v-155h-114v158q0 15 -2 28t-8 21q-9 9 -25 9q-21 0 -32 -13.5t-11 -47.5v-155h-114v301z
" />
    <glyph glyph-name="n.inferior" horiz-adv-x="371" 
d="M147 139q28 41 95 41q23 0 43.5 -7t33.5 -21q12 -14 18 -37t6 -61v-182h-113v160q0 20 -2 29.5t-7 14.5q-5 7 -12.5 9.5t-16.5 2.5q-20 0 -32.5 -13.5t-12.5 -47.5v-155h-114v301h114v-34z" />
    <glyph glyph-name="o.inferior" horiz-adv-x="364" 
d="M132 22q0 -38 14 -55.5t36 -17.5t35.5 17.5t13.5 55.5t-13.5 55.5t-35.5 17.5t-36 -17.5t-14 -55.5zM15 22q0 40 13.5 70t36 49.5t53 29t64.5 9.5t64 -9.5t52.5 -29t35.5 -49.5t13 -70q0 -41 -13 -70.5t-35.5 -49t-52.5 -29t-64 -9.5t-64.5 9.5t-53 29t-36 49t-13.5 70.5
z" />
    <glyph glyph-name="p.inferior" horiz-adv-x="372" 
d="M147 -235h-114v408h114v-31q11 17 31 27.5t52 10.5q27 0 50 -10.5t40 -31t27 -50t10 -66.5q0 -38 -10 -67.5t-28 -49.5t-41.5 -30.5t-50.5 -10.5q-26 0 -47 9.5t-33 28.5v-137zM194 95q-24 0 -37 -22t-13 -51t13 -51t37 -22q25 0 35.5 23t10.5 51q0 13 -2.5 26t-8 23
t-14.5 16.5t-21 6.5z" />
    <glyph glyph-name="q.inferior" horiz-adv-x="372" 
d="M225 173h114v-408h-114v137q-10 -15 -30 -26.5t-52 -11.5q-54 0 -91 42t-37 117q0 37 10 66.5t28 49.5t41.5 30.5t50.5 10.5q26 0 47 -9t33 -29v31zM177 -51q25 0 38.5 22t13.5 52q0 29 -13.5 50.5t-38.5 21.5q-24 0 -34.5 -23t-10.5 -50t10.5 -50t34.5 -23z" />
    <glyph glyph-name="r.inferior" horiz-adv-x="242" 
d="M235 64q-8 1 -17 2t-18 1q-21 0 -37 -8.5t-16 -33.5v-153h-114v301h111v-42q10 25 32 34.5t47 9.5h12v-111z" />
    <glyph glyph-name="s.inferior" horiz-adv-x="328" 
d="M266 68q-21 13 -45.5 20.5t-56.5 7.5q-28 0 -28 -11q0 -4 4 -8.5t20 -6.5l40 -8q25 -4 46 -10.5t36 -17t23.5 -26t8.5 -37.5q0 -27 -12.5 -47t-33 -33.5t-48 -20t-57.5 -6.5q-52 0 -91.5 13.5t-63.5 31.5l46 79q19 -17 47 -28.5t62 -11.5q15 0 27.5 3.5t12.5 11.5
t-9 10.5t-27 6.5l-32 6q-49 9 -79.5 31t-30.5 66q0 24 11.5 42t32 30t47 18.5t56.5 6.5q48 0 81.5 -10t53.5 -23z" />
    <glyph glyph-name="t.inferior" horiz-adv-x="243" 
d="M51 264h115v-91h60v-78h-60v-119q0 -13 5.5 -17t16.5 -4h38v-83h-60q-32 0 -54 2.5t-35.5 12.5t-19.5 28t-6 50v130h-49v78h49v91z" />
    <glyph glyph-name="u.inferior" horiz-adv-x="369" 
d="M221 -92q-13 -21 -34 -32.5t-53 -11.5q-26 0 -46.5 7.5t-33.5 23.5q-11 14 -17 37t-6 61v180h113v-161q0 -19 2 -29t7 -15q9 -12 28 -12t29.5 14t10.5 48v155h115v-301h-115v36z" />
    <glyph glyph-name="v.inferior" horiz-adv-x="341" 
d="M173 -14l46 187h119l-104 -301h-126l-105 301h122z" />
    <glyph glyph-name="w.inferior" horiz-adv-x="506" 
d="M195 173h118l38 -187l33 187h118l-90 -301h-124l-34 172l-33 -172h-124l-94 301h122l36 -187z" />
    <glyph glyph-name="x.inferior" horiz-adv-x="368" 
d="M247 26l118 -154h-127l-55 71l-55 -71h-125l118 152l-114 149h128l51 -67l52 67h123z" />
    <glyph glyph-name="y.inferior" horiz-adv-x="340" 
d="M36 -235v83h35q17 0 26 3t14 16l1 3l-109 303h122l47 -190l47 190h118l-116 -306q-11 -30 -23 -49.5t-28.5 -31t-39 -16.5t-53.5 -5h-41z" />
    <glyph glyph-name="z.inferior" horiz-adv-x="340" 
d="M16 -41l146 127h-134v87h285v-87l-144 -127h150v-87h-303v87z" />
    <glyph glyph-name="uni2080.aalt" horiz-adv-x="400" 
d="M201 -136q-89 0 -134 55.5t-45 155.5t45 155.5t134 55.5q88 0 133 -55.5t45 -155.5t-45 -155.5t-133 -55.5zM201 202q-26 0 -42.5 -23t-19.5 -82l120 29q-6 43 -21.5 59.5t-36.5 16.5zM201 -51q24 0 40.5 22t19.5 79l-119 -29q6 -41 21.5 -56.5t37.5 -15.5z" />
    <glyph glyph-name="period.inferior" horiz-adv-x="167" 
d="M22 -128v119h124v-119h-124z" />
    <glyph glyph-name="hyphen.inferior" horiz-adv-x="228" 
d="M10 -25v99h210v-99h-210z" />
    <glyph glyph-name="comma.inferior" horiz-adv-x="167" 
d="M22 -9h123v-125l-49 -90h-84l42 96h-32v119z" />
    <glyph glyph-name="equal.inferior" horiz-adv-x="365" 
d="M22 43v100h322v-100h-322zM22 -90v100h322v-100h-322z" />
    <glyph glyph-name="plus.inferior" horiz-adv-x="377" 
d="M132 -128v103h-110v99h110v99h114v-99h110v-99h-110v-103h-114z" />
    <glyph glyph-name="minus.inferior" horiz-adv-x="377" 
d="M356 74v-99h-334v99h334z" />
    <glyph glyph-name="one.numr" horiz-adv-x="248" 
d="M94 317v264h-91v82q53 2 78.5 16t36.5 46h89v-408h-113z" />
    <glyph glyph-name="two.numr" horiz-adv-x="362" 
d="M187 732q33 0 61 -7t49 -21.5t33 -36.5t12 -53q0 -30 -12 -55.5t-34.5 -48.5t-54.5 -46.5t-71 -49.5h170v-97h-328v90l61 41q36 24 70 51t58.5 54.5t24.5 52.5q0 22 -12.5 32t-32.5 10q-26 0 -42.5 -18.5t-18.5 -56.5h-109q2 76 47.5 117.5t128.5 41.5z" />
    <glyph glyph-name="three.numr" horiz-adv-x="386" 
d="M194 394q27 0 40 11.5t13 27.5q0 24 -19 34.5t-60 10.5h-17v93h18q68 0 68 42q0 17 -15 26t-33 9q-23 0 -40 -10.5t-19 -40.5h-111q8 60 53 97.5t126 37.5q69 0 112 -29t43 -82q0 -33 -16 -56t-38 -33q29 -10 47.5 -35.5t18.5 -62.5q0 -30 -14 -53.5t-38 -39.5t-55 -24
t-65 -8q-80 0 -126.5 38.5t-52.5 105.5h110q5 -31 23.5 -45t46.5 -14z" />
    <glyph glyph-name="four.numr" horiz-adv-x="399" 
d="M128 493h82v96zM387 397h-63v-80h-114v80h-195v86l209 242h100v-232h63v-96z" />
    <glyph glyph-name="five.numr" horiz-adv-x="398" 
d="M196 394q30 0 46.5 17t16.5 43q0 25 -15.5 42.5t-43.5 17.5q-24 0 -40 -9t-24 -24l-102 8l31 236h284v-97h-188l-10 -58q17 16 41 22.5t50 6.5q59 0 96.5 -39t37.5 -106q0 -69 -47.5 -107t-125.5 -38q-35 0 -66 7.5t-55 23.5t-40 42t-20 64h109q4 -20 21 -36t44 -16z" />
    <glyph glyph-name="six.numr" horiz-adv-x="390" 
d="M138 454q0 -29 17 -44.5t40 -15.5t39.5 15.5t16.5 44.5t-17 44t-39 15q-23 0 -40 -15t-17 -44zM201 648q-28 0 -47 -21.5t-19 -60.5q17 17 42 24t54 7q24 0 48 -8.5t43.5 -25.5t32 -43.5t12.5 -63.5q0 -36 -13 -63t-36 -46t-54.5 -28.5t-68.5 -9.5q-43 0 -75.5 14.5
t-54.5 41.5t-33 64.5t-11 83.5q0 47 11 87t34 69.5t58 46t83 16.5q72 0 110.5 -34t40.5 -85h-106q-2 17 -16.5 26t-34.5 9z" />
    <glyph glyph-name="seven.numr" horiz-adv-x="339" 
d="M10 725h332v-97q-85 -56 -127 -130t-39 -181h-125q-2 52 12.5 99t39 87t56 72t64.5 53h-213v97z" />
    <glyph glyph-name="eight.numr" horiz-adv-x="387" 
d="M193 732q79 0 120.5 -33t41.5 -78q0 -26 -10.5 -48.5t-30.5 -36.5q54 -34 54 -98q0 -28 -12.5 -51.5t-35.5 -41t-55.5 -27t-71.5 -9.5t-71 9.5t-55 27t-35.5 41t-12.5 51.5q0 31 13.5 56t41.5 42q-20 14 -31 36.5t-11 48.5q0 45 41.5 78t119.5 33zM193 493
q-26 0 -42 -13.5t-16 -34.5q0 -23 16 -37t42 -14q27 0 42.5 14t15.5 37q0 21 -15.5 34.5t-42.5 13.5zM243 607q0 19 -14 30t-36 11q-21 0 -34.5 -11t-13.5 -30q0 -18 13.5 -29t34.5 -11q22 0 36 11t14 29z" />
    <glyph glyph-name="nine.numr" horiz-adv-x="391" 
d="M189 394q27 0 46 21t19 62q-17 -17 -42 -24.5t-53 -7.5q-24 0 -48.5 8.5t-44 26t-32 44t-12.5 63.5q0 35 13 62t36 45.5t53.5 28t66.5 9.5q90 0 133.5 -53.5t43.5 -148.5q0 -48 -11 -88.5t-33.5 -70t-57 -46t-82.5 -16.5q-72 0 -111 34.5t-41 85.5h105q2 -18 17 -26.5
t35 -8.5zM251 588q0 29 -17 44.5t-40 15.5t-39 -15.5t-16 -44.5t17 -43.5t38 -14.5q23 0 40 14.5t17 43.5z" />
    <glyph glyph-name="zero.numr" horiz-adv-x="400" 
d="M199 394q26 0 43.5 27.5t17.5 99.5q0 36 -4.5 60.5t-13 39.5t-19.5 21t-24 6q-14 0 -25.5 -6t-19.5 -21t-12.5 -39.5t-4.5 -60.5q0 -72 17 -99.5t45 -27.5zM199 309q-89 0 -134 56t-45 156t45 155.5t134 55.5q88 0 133 -55.5t45 -155.5t-45 -156t-133 -56z" />
    <glyph glyph-name="zero.numr.zero" horiz-adv-x="400" 
d="M201 309q-89 0 -134 55.5t-45 155.5t45 155.5t134 55.5q88 0 133 -55.5t45 -155.5t-45 -155.5t-133 -55.5zM201 647q-26 0 -42.5 -23t-19.5 -82l120 29q-6 43 -21.5 59.5t-36.5 16.5zM201 394q24 0 40.5 22t19.5 79l-119 -29q6 -41 21.5 -56.5t37.5 -15.5z" />
    <glyph glyph-name="one.dnom" horiz-adv-x="248" 
d="M94 0v264h-91v82q53 2 78.5 16t36.5 46h90v-408h-114z" />
    <glyph glyph-name="two.dnom" horiz-adv-x="362" 
d="M187 415q33 0 61 -7t49 -21.5t33 -36.5t12 -53q0 -30 -12 -55.5t-34.5 -48.5t-54.5 -46.5t-71 -49.5h170v-97h-328v90l61 41q36 24 70 51t58.5 54.5t24.5 52.5q0 22 -12.5 32t-32.5 10q-26 0 -42.5 -18.5t-18.5 -56.5h-109q2 76 47.5 117.5t128.5 41.5z" />
    <glyph glyph-name="three.dnom" horiz-adv-x="386" 
d="M194 77q27 0 40 11.5t13 27.5q0 24 -19 34.5t-60 10.5h-17v93h18q68 0 68 42q0 17 -15 26t-33 9q-23 0 -40 -10.5t-19 -40.5h-111q8 60 53 97.5t126 37.5q69 0 112 -29t43 -82q0 -33 -16 -56t-38 -33q29 -10 47.5 -35.5t18.5 -62.5q0 -30 -14 -53.5t-38 -39.5t-55 -24
t-65 -8q-80 0 -126.5 38.5t-52.5 105.5h110q5 -31 23.5 -45t46.5 -14z" />
    <glyph glyph-name="four.dnom" horiz-adv-x="399" 
d="M128 176h82v96zM387 80h-63v-80h-114v80h-195v86l209 242h100v-232h63v-96z" />
    <glyph glyph-name="five.dnom" horiz-adv-x="398" 
d="M196 77q30 0 46.5 17t16.5 43q0 25 -15.5 42.5t-43.5 17.5q-24 0 -40 -9t-24 -24l-102 8l31 236h284v-97h-188l-10 -58q17 16 41 22.5t50 6.5q59 0 96.5 -39t37.5 -106q0 -69 -47.5 -107t-125.5 -38q-35 0 -66 7.5t-55 23.5t-40 42t-20 64h109q4 -20 21 -36t44 -16z" />
    <glyph glyph-name="six.dnom" horiz-adv-x="390" 
d="M138 137q0 -29 17 -44.5t40 -15.5t39.5 15.5t16.5 44.5t-17 44t-39 15q-23 0 -40 -15t-17 -44zM201 331q-28 0 -47 -21.5t-19 -60.5q17 17 42 24t54 7q24 0 48 -8.5t43.5 -25.5t32 -43.5t12.5 -63.5q0 -36 -13 -63t-36 -46t-54.5 -28.5t-68.5 -9.5q-43 0 -75.5 14.5
t-54.5 41.5t-33 64.5t-11 83.5q0 47 11 87t34 69.5t58 46t83 16.5q72 0 110.5 -34t40.5 -85h-106q-2 17 -16.5 26t-34.5 9z" />
    <glyph glyph-name="seven.dnom" horiz-adv-x="339" 
d="M10 408h332v-97q-85 -56 -127 -130t-39 -181h-125q-2 52 12.5 99t39 87t56 72t64.5 53h-213v97z" />
    <glyph glyph-name="eight.dnom" horiz-adv-x="387" 
d="M193 415q79 0 120.5 -33t41.5 -78q0 -26 -10.5 -48.5t-30.5 -36.5q54 -34 54 -98q0 -28 -12.5 -51.5t-35.5 -41t-55.5 -27t-71.5 -9.5t-71 9.5t-55 27t-35.5 41t-12.5 51.5q0 31 13.5 56t41.5 42q-20 14 -31 36.5t-11 48.5q0 45 41.5 78t119.5 33zM193 176
q-26 0 -42 -13.5t-16 -34.5q0 -23 16 -37t42 -14q27 0 42.5 14t15.5 37q0 21 -15.5 34.5t-42.5 13.5zM243 290q0 19 -14 30t-36 11q-21 0 -34.5 -11t-13.5 -30q0 -18 13.5 -29t34.5 -11q22 0 36 11t14 29z" />
    <glyph glyph-name="nine.dnom" horiz-adv-x="391" 
d="M189 77q27 0 46 21t19 62q-17 -17 -42 -24.5t-53 -7.5q-24 0 -48.5 8.5t-44 26t-32 44t-12.5 63.5q0 35 13 62t36 45.5t53.5 28t66.5 9.5q90 0 133.5 -53.5t43.5 -148.5q0 -48 -11 -88.5t-33.5 -70t-57 -46t-82.5 -16.5q-72 0 -111 34.5t-41 85.5h105q2 -18 17 -26.5
t35 -8.5zM251 271q0 29 -17 44.5t-40 15.5t-39 -15.5t-16 -44.5t17 -43.5t38 -14.5q23 0 40 14.5t17 43.5z" />
    <glyph glyph-name="zero.dnom" horiz-adv-x="400" 
d="M199 77q26 0 43.5 27.5t17.5 99.5q0 36 -4.5 60.5t-13 39.5t-19.5 21t-24 6q-14 0 -25.5 -6t-19.5 -21t-12.5 -39.5t-4.5 -60.5q0 -72 17 -99.5t45 -27.5zM199 -8q-89 0 -134 56t-45 156t45 155.5t134 55.5q88 0 133 -55.5t45 -155.5t-45 -156t-133 -56z" />
    <glyph glyph-name="zero.dnom.zero" horiz-adv-x="400" 
d="M201 -8q-89 0 -134 55.5t-45 155.5t45 155.5t134 55.5q88 0 133 -55.5t45 -155.5t-45 -155.5t-133 -55.5zM201 330q-26 0 -42.5 -23t-19.5 -82l120 29q-6 43 -21.5 59.5t-36.5 16.5zM201 77q24 0 40.5 22t19.5 79l-119 -29q6 -41 21.5 -56.5t37.5 -15.5z" />
    <glyph glyph-name="ampersand.aalt" horiz-adv-x="825" 
d="M283 -13q-56 0 -104 13.5t-83 39.5t-55 65.5t-20 92.5q0 73 45.5 123.5t126.5 82.5q-32 42 -52.5 82.5t-20.5 85.5q0 37 16.5 68.5t48 54t76.5 35t103 12.5q63 0 109 -16.5t75 -42.5t43 -57.5t14 -61.5q0 -29 -12 -57t-31.5 -53t-43.5 -44t-49 -30l78 -87q20 30 34 60.5
t22 58.5h195q-13 -48 -48 -114t-92 -129l151 -169h-252l-45 49q-50 -29 -107 -45.5t-122 -16.5zM328 136q22 0 43 6t41 17l-121 134q-27 -18 -36 -40t-9 -42q0 -38 24.5 -56.5t57.5 -18.5zM336 569q0 -13 2 -23t7 -20t13 -20.5t20 -23.5q21 12 33 35t12 44q0 24 -13 34
t-30 10t-30.5 -8t-13.5 -28z" />
    <glyph glyph-name="hyphen.case" horiz-adv-x="455" 
d="M43 276v174h369v-174h-369z" />
    <glyph glyph-name="endash.aalt" horiz-adv-x="565" 
d="M32 276v174h500v-174h-500z" />
    <glyph glyph-name="emdash.aalt" horiz-adv-x="728" 
d="M32 276v174h664v-174h-664z" />
    <glyph glyph-name="question.aalt" horiz-adv-x="638" 
d="M339 742q57 0 109.5 -12.5t93 -37t65 -61t24.5 -85.5q0 -39 -13.5 -69.5t-35 -54.5t-47.5 -41t-50 -28q-26 -12 -42.5 -21.5t-26.5 -20t-13.5 -24t-3.5 -33.5v-17h-217v22q0 58 27.5 99.5t98.5 70.5q43 18 73 40.5t30 46.5q0 14 -8 24t-20 16t-27 9t-30 3q-23 0 -43 -4
t-35.5 -13t-24.5 -23.5t-9 -34.5h-212q0 65 26.5 112t72 77.5t107 45t131.5 14.5zM182 0v210h217v-210h-217z" />
    <glyph glyph-name="questiondown.aalt" horiz-adv-x="638" 
d="M295 -17q-57 0 -110 12.5t-93.5 37t-65 61.5t-24.5 86q0 38 14 67t35 50.5t47 37t50 27.5q26 12 42.5 21.5t26.5 20t13.5 24t3.5 33.5v17h218v-23q0 -57 -27.5 -99t-98.5 -71q-43 -18 -73 -35t-30 -41q0 -14 8 -24t20 -16t27 -9t30 -3q45 0 78 19.5t33 60.5l212 -5
q0 -65 -26.5 -112t-72 -77.5t-106.5 -45t-131 -14.5zM234 515v210h217v-210h-217z" />
    <glyph glyph-name="exclam.aalt" horiz-adv-x="353" 
d="M100 237l-52 332v156h257v-156l-51 -332h-154zM68 0v210h217v-210h-217z" />
    <glyph glyph-name="exclamdown.aalt" horiz-adv-x="353" 
d="M254 478l51 -333v-145h-257v145l52 333h154zM68 515v210h217v-210h-217z" />
    <glyph glyph-name="guilsinglleft.aalt" horiz-adv-x="363" 
d="M-3 369l169 231h175l-119 -232l118 -232h-174z" />
    <glyph glyph-name="guilsinglright.aalt" horiz-adv-x="363" 
d="M197 136h-174l118 232l-119 232h175l169 -231z" />
    <glyph glyph-name="guillemotleft.aalt" horiz-adv-x="646" 
d="M-3 369l169 231h175l-119 -232l118 -232h-174zM280 369l169 231h175l-119 -232l118 -232h-174z" />
    <glyph glyph-name="guillemotright.aalt" horiz-adv-x="646" 
d="M480 136h-174l118 232l-119 232h175l169 -231zM197 136h-174l118 232l-119 232h175l169 -231z" />
    <glyph glyph-name="parenleft.case" horiz-adv-x="387" 
d="M54 357q0 56 10 108.5t26.5 99.5t37.5 87.5t44 72.5h210q-58 -90 -87.5 -180.5t-29.5 -187.5q0 -96 29.5 -182t87.5 -175h-210q-23 32 -44 71t-37.5 84t-26.5 96t-10 106z" />
    <glyph glyph-name="parenright.case" horiz-adv-x="387" 
d="M333 357q0 -55 -10 -106t-26.5 -96t-37.5 -84t-44 -71h-210q58 89 87.5 175t29.5 182q0 97 -29.5 187.5t-87.5 180.5h210q23 -32 44 -72.5t37.5 -87.5t26.5 -99.5t10 -108.5z" />
    <glyph glyph-name="bracketleft.aalt" horiz-adv-x="384" 
d="M364 725v-157h-115v-411h115v-157h-299v725h299z" />
    <glyph glyph-name="bracketright.aalt" horiz-adv-x="384" 
d="M319 725v-725h-299v157h115v411h-115v157h299z" />
    <glyph glyph-name="braceleft.aalt" horiz-adv-x="404" 
d="M297 0q-56 0 -94 7.5t-61 27t-33.5 54.5t-10.5 91v6q0 24 -2.5 43t-10.5 32.5t-23 20.5t-40 7v147q25 0 40 7.5t23 21t10.5 32.5t2.5 42v7q0 55 10.5 90t33.5 54.5t61 27t94 7.5h87v-145h-47q-20 0 -28.5 -6t-8.5 -30v-31q0 -39 -8.5 -65.5t-22.5 -43t-32.5 -26
t-38.5 -14.5v-2q20 -5 38.5 -14.5t32.5 -26.5t22.5 -43t8.5 -65v-30q0 -23 8.5 -30.5t28.5 -7.5h47v-145h-87z" />
    <glyph glyph-name="braceright.aalt" horiz-adv-x="403" 
d="M20 0v145h46q20 0 29 7.5t9 30.5v30q0 39 8.5 65t22.5 43t32 26.5t38 14.5v2q-20 5 -38 14.5t-32 26t-22.5 43t-8.5 65.5v31q0 24 -9 30t-29 6h-46v145h86q56 0 94 -7.5t61.5 -27t33.5 -54.5t10 -90v-7q0 -23 2.5 -42t11 -32.5t23.5 -21t40 -7.5v-147q-25 0 -40 -7
t-23.5 -20.5t-11 -32.5t-2.5 -43v-6q0 -56 -10 -91t-33.5 -54.5t-61.5 -27t-94 -7.5h-86z" />
    <glyph glyph-name="bar.aalt" horiz-adv-x="310" 
d="M245 725v-725h-180v725h180z" />
    <glyph glyph-name="brokenbar.aalt" horiz-adv-x="298" 
d="M239 725v-260h-180v260h180zM239 260v-260h-180v260h180z" />
    <glyph glyph-name="periodcentered.aalt" horiz-adv-x="313" 
d="M48 257v210h217v-210h-217z" />
    <glyph glyph-name="bullet.aalt" horiz-adv-x="446" 
d="M43 374q0 37 14 69t38 56t56 38t68 14q39 0 73 -14t58.5 -38t38.5 -56t14 -69q0 -39 -14 -72.5t-38.5 -58t-58.5 -38.5t-73 -14q-36 0 -68 14t-56 38.5t-38 58t-14 72.5z" />
    <glyph glyph-name="plus.case" 
d="M240 95v182h-194v174h194v182h200v-182h193v-174h-193v-182h-200z" />
    <glyph glyph-name="minus.case" 
d="M633 451v-174h-587v174h587z" />
    <glyph glyph-name="divide.aalt" 
d="M231 240h217v-145h-217v145zM231 633h217v-145h-217v145zM46 277v174h587v-174h-587z" />
    <glyph glyph-name="multiply.aalt" 
d="M487 114l-147 140l-156 -147l-114 108l155 149l-150 141l116 109l149 -142l154 148l115 -110l-155 -146l148 -140z" />
    <glyph glyph-name="equal.case" 
d="M56 393v175h566v-175h-566zM56 160v174h566v-174h-566z" />
    <glyph glyph-name="plusminus.aalt" 
d="M240 633h200v-85h193v-175h-193v-85h-200v85h-194v175h194v85zM46 95v174h587v-174h-587z" />
    <glyph glyph-name="less.aalt" 
d="M618 648v-194l-317 -91l317 -92v-193l-567 198v174z" />
    <glyph glyph-name="greater.aalt" 
d="M627 276l-567 -198v193l317 92l-317 91v194l567 -198v-174z" />
    <glyph glyph-name="lessequal.aalt" 
d="M633 477v-194l-587 166v174l587 166v-194l-337 -59zM46 269h587v-174h-587v174z" />
    <glyph glyph-name="greaterequal.aalt" 
d="M46 595v194l587 -166v-174l-587 -166v194l338 59zM46 95v174h587v-174h-587z" />
    <glyph glyph-name="notequal.aalt" 
d="M56 160v174h171l22 59h-193v174h257l32 88h207l-32 -88h102v-174h-165l-22 -59h187v-174h-250l-35 -97h-209l35 97h-107z" />
    <glyph glyph-name="acute.aalt" horiz-adv-x="381" 
d="M200 773h-178l103 113h234z" />
    <glyph glyph-name="breve.aalt" horiz-adv-x="426" 
d="M404 886q-6 -62 -52 -90t-140 -28q-91 0 -138 28t-52 90h129q6 -36 61 -36q57 0 63 36h129z" />
    <glyph glyph-name="caron.aalt" horiz-adv-x="548" 
d="M22 886h196l55 -50l58 50h195l-140 -113h-227z" />
    <glyph glyph-name="cedilla.aalt" horiz-adv-x="277" 
d="M39 -133q9 -5 27.5 -9.5t38.5 -4.5t34 6t14 23q0 14 -11 21t-29 7q-8 0 -19 -2t-19 -7l-30 17l51 83h62l-33 -52q13 4 37 4q15 0 31.5 -3.5t30 -11.5t22.5 -21t9 -32q0 -24 -11.5 -40t-31 -26.5t-44.5 -15t-51 -4.5q-53 0 -95 14z" />
    <glyph glyph-name="circumflex.aalt" horiz-adv-x="548" 
d="M526 773h-196l-55 49l-58 -49h-195l140 113h227z" />
    <glyph glyph-name="dieresis.aalt" horiz-adv-x="442" 
d="M191 886v-113h-169v113h169zM420 886v-113h-169v113h169z" />
    <glyph glyph-name="dotaccent.aalt" horiz-adv-x="215" 
d="M193 886v-113h-171v113h171z" />
    <glyph glyph-name="grave.aalt" horiz-adv-x="381" 
d="M22 886h233l104 -113h-178z" />
    <glyph glyph-name="hungarumlaut.aalt" horiz-adv-x="640" 
d="M200 773h-178l103 113h234zM459 773h-178l104 113h233z" />
    <glyph glyph-name="macron.aalt" horiz-adv-x="400" 
d="M22 783v95h356v-95h-356z" />
    <glyph glyph-name="ogonek.aalt" horiz-adv-x="317" 
d="M300 0q-38 -16 -63 -30t-25 -37q0 -17 12.5 -23.5t32.5 -6.5q13 0 23.5 2t19.5 4v-87q-16 -3 -36.5 -6.5t-50.5 -3.5t-64 4t-62 14.5t-46.5 29t-18.5 47.5q0 30 19 53t50 40h209z" />
    <glyph glyph-name="ring.aalt" horiz-adv-x="225" 
d="M112 935q38 0 64.5 -24t26.5 -61q0 -38 -26.5 -61.5t-64.5 -23.5t-64 23.5t-26 61.5q0 37 26.5 61t63.5 24zM112 893q-17 0 -30 -12t-13 -31t13 -30.5t30 -11.5t30 11.5t13 30.5t-13 31t-30 12z" />
    <glyph glyph-name="tilde.aalt" horiz-adv-x="467" 
d="M294 860q47 0 54 37h97q-7 -38 -24 -61t-38 -35t-43 -16t-39 -4q-24 0 -42 6t-32 13l-27 12q-13 6 -28 6q-46 0 -53 -37h-97q7 37 24 60t38 35.5t43 16.5t39 4q24 0 41 -6t31 -13l26 -12q13 -6 30 -6z" />
    <glyph glyph-name="a.salt" horiz-adv-x="680" 
d="M421 538h200v-538h-200v74q-18 -35 -58.5 -61t-100.5 -26q-45 0 -87.5 18t-75 53.5t-52.5 88t-20 122.5t20 122.5t52.5 87.5t75 53t87.5 18q60 0 100.5 -26t58.5 -61v75zM428 269q0 61 -27.5 96.5t-69.5 35.5q-43 0 -68 -37.5t-25 -94.5t25 -95t68 -38q42 0 69.5 36
t27.5 97z" />
    <glyph glyph-name="aacute.aalt" horiz-adv-x="680" 
d="M421 538h200v-538h-200v74q-18 -35 -58.5 -61t-100.5 -26q-45 0 -87.5 18t-75 53.5t-52.5 88t-20 122.5t20 122.5t52.5 87.5t75 53t87.5 18q60 0 100.5 -26t58.5 -61v75zM428 269q0 61 -27.5 96.5t-69.5 35.5q-43 0 -68 -37.5t-25 -94.5t25 -95t68 -38q42 0 69.5 36
t27.5 97zM404 609h-160l95 116h207z" />
    <glyph glyph-name="abreve.aalt" horiz-adv-x="680" 
d="M421 538h200v-538h-200v74q-18 -35 -58.5 -61t-100.5 -26q-45 0 -87.5 18t-75 53.5t-52.5 88t-20 122.5t20 122.5t52.5 87.5t75 53t87.5 18q60 0 100.5 -26t58.5 -61v75zM428 269q0 61 -27.5 96.5t-69.5 35.5q-43 0 -68 -37.5t-25 -94.5t25 -95t68 -38q42 0 69.5 36
t27.5 97zM534 725q-5 -54 -50 -87t-131 -33q-84 0 -129 33t-50 87h118q7 -31 62 -31q56 0 62 31h118z" />
    <glyph glyph-name="acircumflex.aalt" horiz-adv-x="680" 
d="M421 538h200v-538h-200v74q-18 -35 -58.5 -61t-100.5 -26q-45 0 -87.5 18t-75 53.5t-52.5 88t-20 122.5t20 122.5t52.5 87.5t75 53t87.5 18q60 0 100.5 -26t58.5 -61v75zM428 269q0 61 -27.5 96.5t-69.5 35.5q-43 0 -68 -37.5t-25 -94.5t25 -95t68 -38q42 0 69.5 36
t27.5 97zM579 609h-162l-61 57l-64 -57h-162l136 116h181z" />
    <glyph glyph-name="adieresis.aalt" horiz-adv-x="680" 
d="M421 538h200v-538h-200v74q-18 -35 -58.5 -61t-100.5 -26q-45 0 -87.5 18t-75 53.5t-52.5 88t-20 122.5t20 122.5t52.5 87.5t75 53t87.5 18q60 0 100.5 -26t58.5 -61v75zM428 269q0 61 -27.5 96.5t-69.5 35.5q-43 0 -68 -37.5t-25 -94.5t25 -95t68 -38q42 0 69.5 36
t27.5 97zM153 725h171v-116h-171v116zM575 725v-116h-170v116h170z" />
    <glyph glyph-name="agrave.aalt" horiz-adv-x="680" 
d="M421 538h200v-538h-200v74q-18 -35 -58.5 -61t-100.5 -26q-45 0 -87.5 18t-75 53.5t-52.5 88t-20 122.5t20 122.5t52.5 87.5t75 53t87.5 18q60 0 100.5 -26t58.5 -61v75zM428 269q0 61 -27.5 96.5t-69.5 35.5q-43 0 -68 -37.5t-25 -94.5t25 -95t68 -38q42 0 69.5 36
t27.5 97zM122 725h208l94 -116h-160z" />
    <glyph glyph-name="amacron.aalt" horiz-adv-x="680" 
d="M421 538h200v-538h-200v74q-18 -35 -58.5 -61t-100.5 -26q-45 0 -87.5 18t-75 53.5t-52.5 88t-20 122.5t20 122.5t52.5 87.5t75 53t87.5 18q60 0 100.5 -26t58.5 -61v75zM428 269q0 61 -27.5 96.5t-69.5 35.5q-43 0 -68 -37.5t-25 -94.5t25 -95t68 -38q42 0 69.5 36
t27.5 97zM198 621v104h313v-104h-313z" />
    <glyph glyph-name="aogonek.aalt" horiz-adv-x="680" 
d="M421 74q-18 -35 -58.5 -61t-100.5 -26q-45 0 -87.5 18t-75 53.5t-52.5 88t-20 122.5t20 122.5t52.5 87.5t75 53t87.5 18q60 0 100.5 -26t58.5 -61v75h200v-538q-40 -16 -63 -29t-23 -36q0 -16 13.5 -23t31.5 -7q13 0 23 2t19 4v-89l-36 -6q-20 -4 -50 -4t-62.5 3.5
t-59.5 13.5t-44 28.5t-17 47.5q0 30 19 54t49 41v74zM428 269q0 61 -27.5 96.5t-69.5 35.5q-43 0 -68 -37.5t-25 -94.5t25 -95t68 -38q42 0 69.5 36t27.5 97z" />
    <glyph glyph-name="aring.aalt" horiz-adv-x="680" 
d="M421 538h200v-538h-200v74q-18 -35 -58.5 -61t-100.5 -26q-45 0 -87.5 18t-75 53.5t-52.5 88t-20 122.5t20 122.5t52.5 87.5t75 53t87.5 18q60 0 100.5 -26t58.5 -61v75zM428 269q0 61 -27.5 96.5t-69.5 35.5q-43 0 -68 -37.5t-25 -94.5t25 -95t68 -38q42 0 69.5 36
t27.5 97zM335 785q19 0 36 -6.5t30 -18.5t20.5 -28.5t7.5 -35.5q0 -38 -27.5 -63.5t-66.5 -25.5q-20 0 -37.5 6.5t-30 18.5t-20 28.5t-7.5 35.5q0 39 28 64t67 25zM335 737q-17 0 -29 -11.5t-12 -29.5q0 -17 12 -28.5t29 -11.5t29 11.5t12 28.5q0 18 -12 29.5t-29 11.5z" />
    <glyph glyph-name="atilde.aalt" horiz-adv-x="680" 
d="M421 538h200v-538h-200v74q-18 -35 -58.5 -61t-100.5 -26q-45 0 -87.5 18t-75 53.5t-52.5 88t-20 122.5t20 122.5t52.5 87.5t75 53t87.5 18q60 0 100.5 -26t58.5 -61v75zM428 269q0 61 -27.5 96.5t-69.5 35.5q-43 0 -68 -37.5t-25 -94.5t25 -95t68 -38q42 0 69.5 36
t27.5 97zM418 692q44 0 53 44h97q-11 -63 -46 -95t-89 -32q-26 0 -45 7t-35 15l-29 15q-13 7 -28 7q-43 0 -51 -44h-97q10 60 44 93.5t92 33.5q25 0 43 -7t33 -15l28 -15q13 -7 30 -7z" />
    <glyph glyph-name="l.ss02" horiz-adv-x="366" 
d="M59 725h200v-542q0 -23 9.5 -30.5t29.5 -7.5h41v-145h-81q-56 0 -94 4.5t-61 21t-33.5 49t-10.5 87.5v563z" />
    <glyph glyph-name="lacute.aalt" horiz-adv-x="366" 
d="M248 773h-178l103 113h234zM59 725h200v-542q0 -23 9.5 -30.5t29.5 -7.5h41v-145h-81q-56 0 -94 4.5t-61 21t-33.5 49t-10.5 87.5v563z" />
    <glyph glyph-name="lcaron.aalt" horiz-adv-x="473" 
d="M434 555h-134l20 170h173zM59 725h200v-542q0 -23 9.5 -30.5t29.5 -7.5h41v-145h-81q-56 0 -94 4.5t-61 21t-33.5 49t-10.5 87.5v563z" />
    <glyph glyph-name="uni013C.aalt" horiz-adv-x="366" 
d="M59 725h200v-542q0 -23 9.5 -30.5t29.5 -7.5h41v-145h-81q-56 0 -94 4.5t-61 21t-33.5 49t-10.5 87.5v563zM126 -36h149v-106l-55 -89h-97l39 95h-36v100z" />
    <glyph glyph-name="ldot.aalt" horiz-adv-x="484" 
d="M493 511v-116h-166v116h166zM59 725h200v-542q0 -23 9.5 -30.5t29.5 -7.5h41v-145h-81q-56 0 -94 4.5t-61 21t-33.5 49t-10.5 87.5v563z" />
    <glyph glyph-name="lslash.aalt" horiz-adv-x="386" 
d="M7 383l64 31v311h200v-215l70 34v-154l-70 -34v-173q0 -23 9.5 -30.5t29.5 -7.5h41v-145h-81q-56 0 -94 4.5t-61 21t-33.5 49t-10.5 87.5v97l-64 -31v155z" />
    <glyph glyph-name="uniFB02.aalt" horiz-adv-x="819" 
d="M97 568q0 53 10 84.5t33.5 47.5t61.5 20.5t94 4.5h147v-127h-107q-22 0 -30 -6.5t-8 -26.5v-27h145v-126h-146v-412h-200v412h-97v126h97v30zM512 725h200v-542q0 -23 9.5 -30.5t29.5 -7.5h41v-145h-81q-56 0 -94 4.5t-61 21t-33.5 49t-10.5 87.5v563z" />
    <glyph glyph-name="germandbls.aalt" horiz-adv-x="724" 
d="M59 -175v655q0 79 21 125t56 75q42 34 101.5 48t130.5 14q62 0 114.5 -13.5t90.5 -39.5t59 -64.5t21 -87.5q0 -44 -18 -79t-39 -52q42 -21 71.5 -68.5t29.5 -115.5q0 -58 -19 -102t-54 -73.5t-84.5 -44.5t-110.5 -15q-29 0 -64.5 3t-75.5 11l34 156q15 -4 34 -7.5
t38 -3.5t37 4t31.5 13.5t21.5 24.5t8 37q0 45 -33 64t-93 19h-43v153h35q54 0 76.5 17.5t22.5 47.5q0 29 -24 48.5t-69 19.5q-28 0 -50.5 -6.5t-37.5 -23.5q-8 -11 -13 -29.5t-5 -53.5v-656h-200z" />
    </font>
</defs>
</svg>
